<?xml version="1.0" encoding="utf-8"?>
<!-- Generator: Adobe Illustrator 19.2.1, SVG Export Plug-In . SVG Version: 6.00 Build 0)  -->
<svg version="1.1" id="Layer_1" xmlns="http://www.w3.org/2000/svg" xmlns:xlink="http://www.w3.org/1999/xlink" x="0px" y="0px"
	 width="300px" height="90px" viewBox="0 0 300 90" style="enable-background:new 0 0 300 90;" xml:space="preserve">
<style type="text/css">
	.st0{fill:#FFFFFF;}
</style>
<g>
	<path class="st0" d="M95.4,37.6V7.8h19.2v6.3h-12.6v6.3h11v6h-11v11.1H95.4z"/>
	<path class="st0" d="M119.3,37.6V7.8h6.6v23.4h12.8v6.3H119.3z"/>
	<path class="st0" d="M143,37.6V7.8h6.7v29.8H143z"/>
	<path class="st0" d="M165.2,26.5h-2.4v11.1h-6.6V7.8H168c2.9,0,5.2,0.9,7,2.6c1.8,1.8,2.7,4,2.7,6.7c0,2-0.5,3.8-1.6,5.2
		s-2.5,2.5-4.3,3.2l6,12h-7.3L165.2,26.5z M166.7,20.8c1.3,0,2.4-0.3,3.1-1c0.7-0.7,1.1-1.5,1.1-2.6c0-1.1-0.4-2-1.1-2.6
		s-1.8-1-3.1-1h-3.9v7.2H166.7z"/>
	<path class="st0" d="M195.9,14.1v23.4h-6.6V14.1h-9.2V7.8h25v6.3H195.9z"/>
	<path class="st0" d="M37.5,81.6V51.8h19.2v6.3H44.1v6.3h11v6h-11v11.1H37.5z"/>
	<path class="st0" d="M63.9,55.5c3-2.9,6.7-4.3,11-4.3c4.3,0,8,1.4,11,4.3c3,2.9,4.5,6.6,4.5,11.2c0,4.6-1.5,8.3-4.5,11.2
		c-3,2.9-6.6,4.3-11,4.3c-4.3,0-8-1.4-11-4.3c-3-2.9-4.5-6.6-4.5-11.2C59.4,62.1,60.9,58.3,63.9,55.5z M74.9,57.6
		c-2.3,0-4.3,0.8-6,2.3c-1.7,1.6-2.6,3.8-2.6,6.7c0,2.9,0.9,5.1,2.6,6.7c1.7,1.5,3.7,2.3,6,2.3s4.3-0.8,6-2.3
		c1.7-1.5,2.6-3.8,2.6-6.7c0-2.9-0.9-5.1-2.6-6.7C79.2,58.4,77.2,57.6,74.9,57.6z"/>
	<path class="st0" d="M104,70.5h-2.4v11.1h-6.6V51.8h11.8c2.9,0,5.2,0.9,7,2.6c1.8,1.8,2.7,4,2.7,6.7c0,2-0.5,3.8-1.6,5.2
		c-1,1.5-2.5,2.5-4.3,3.2l6,12h-7.3L104,70.5z M105.6,64.8c1.3,0,2.4-0.3,3.1-1c0.7-0.7,1.1-1.5,1.1-2.6c0-1.1-0.4-2-1.1-2.6
		c-0.7-0.6-1.8-1-3.1-1h-3.9v7.2H105.6z"/>
	<path class="st0" d="M149.5,75.5H138l-2.1,6h-7l11.2-29.8h7.7l11.1,29.8h-7.2L149.5,75.5z M140.2,69.5h7.2l-3.6-10.3L140.2,69.5z"
		/>
	<path class="st0" d="M182.9,69.9l-3.4,3.7v8h-6.6V51.8h6.6v12.5l10.9-12.5h8.7l-11.6,12.9l11.6,16.9h-8.3L182.9,69.9z"/>
	<path class="st0" d="M202.8,81.6V51.8h6.7v29.8H202.8z"/>
	<path class="st0" d="M230.5,60.8c-0.1-0.9-0.6-1.8-1.4-2.6c-0.8-0.8-2-1.2-3.6-1.2c-1.2,0-2.2,0.3-2.9,0.9
		c-0.8,0.6-1.1,1.4-1.1,2.2c0,1.5,1,2.5,2.9,2.9l4,0.8c2.7,0.5,4.9,1.6,6.4,3.2c1.5,1.6,2.2,3.5,2.2,5.7c0,2.5-1,4.7-3,6.6
		c-2,1.9-4.7,2.8-8,2.8c-3.8,0-6.7-1-8.7-2.9c-2.1-1.9-3.2-4.1-3.5-6.6l6.1-1.5c0.1,1.5,0.7,2.7,1.7,3.7c1,1,2.5,1.4,4.4,1.4
		c1.3,0,2.3-0.3,3.1-0.9c0.8-0.6,1.1-1.3,1.1-2.2c0-0.8-0.3-1.4-0.8-1.9c-0.6-0.5-1.3-0.9-2.4-1.1l-4.1-0.8
		c-2.5-0.5-4.5-1.5-5.9-3.1c-1.4-1.6-2.2-3.5-2.2-5.7c0-2.7,1-5,3.1-6.8c2.1-1.8,4.6-2.7,7.5-2.7c1.8,0,3.3,0.2,4.7,0.7
		c1.4,0.5,2.5,1.1,3.3,2s1.4,1.7,1.9,2.5s0.8,1.8,0.9,2.7L230.5,60.8z"/>
	<path class="st0" d="M256,60.8c-0.1-0.9-0.6-1.8-1.4-2.6c-0.8-0.8-2-1.2-3.6-1.2c-1.2,0-2.2,0.3-2.9,0.9c-0.8,0.6-1.1,1.4-1.1,2.2
		c0,1.5,1,2.5,2.9,2.9l4,0.8c2.7,0.5,4.9,1.6,6.4,3.2c1.5,1.6,2.2,3.5,2.2,5.7c0,2.5-1,4.7-3,6.6c-2,1.9-4.7,2.8-8,2.8
		c-3.8,0-6.7-1-8.7-2.9c-2.1-1.9-3.2-4.1-3.5-6.6l6.1-1.5c0.1,1.5,0.7,2.7,1.7,3.7c1,1,2.5,1.4,4.4,1.4c1.3,0,2.3-0.3,3.1-0.9
		c0.8-0.6,1.1-1.3,1.1-2.2c0-0.8-0.3-1.4-0.8-1.9c-0.6-0.5-1.3-0.9-2.4-1.1l-4.1-0.8c-2.5-0.5-4.5-1.5-5.9-3.1
		c-1.4-1.6-2.2-3.5-2.2-5.7c0-2.7,1-5,3.1-6.8c2.1-1.8,4.6-2.7,7.5-2.7c1.8,0,3.3,0.2,4.7,0.7c1.4,0.5,2.5,1.1,3.3,2
		s1.4,1.7,1.9,2.5s0.8,1.8,0.9,2.7L256,60.8z"/>
</g>
</svg>
