<?xml version="1.0" encoding="utf-8"?>
<!-- Generator: Adobe Illustrator 19.2.1, SVG Export Plug-In . SVG Version: 6.00 Build 0)  -->
<svg version="1.1" id="Layer_1" xmlns="http://www.w3.org/2000/svg" xmlns:xlink="http://www.w3.org/1999/xlink" x="0px" y="0px"
	 width="367px" height="35px" viewBox="0 0 367 35" style="enable-background:new 0 0 367 35;" xml:space="preserve">
<style type="text/css">
	.st0{fill:#FFFFFF;}
</style>
<g>
	<path class="st0" d="M14.2,21.7H8.1L7,24.9H3.3L9.2,9.2h4.1l5.9,15.7h-3.8L14.2,21.7z M9.3,18.5h3.8l-1.9-5.4L9.3,18.5z"/>
	<path class="st0" d="M31.1,24.9l-6.5-10.3v10.3h-3.5V9.2h4.3l5.9,9.6V9.2h3.5v15.7H31.1z"/>
	<path class="st0" d="M38.2,24.9V9.2h5.7c2.4,0,4.3,0.7,5.7,2.1s2.2,3.3,2.2,5.7c0,2.4-0.7,4.3-2.2,5.7s-3.4,2.1-5.8,2.1H38.2z
		 M43.7,21.6c1.3,0,2.3-0.4,3.2-1.2s1.2-1.9,1.2-3.4c0-1.5-0.4-2.6-1.2-3.4s-1.9-1.2-3.2-1.2h-2v9.1H43.7z"/>
	<path class="st0" d="M61.2,23c-1.6-1.5-2.4-3.5-2.4-5.9c0-2.4,0.8-4.4,2.4-5.9c1.6-1.5,3.5-2.3,5.7-2.3c1.1,0,2.1,0.2,3.1,0.5
		c0.9,0.3,1.6,0.8,2.2,1.3c0.6,0.5,1,1.1,1.4,1.7c0.3,0.6,0.6,1.2,0.7,1.8l-3.3,1c-0.1-0.3-0.2-0.6-0.4-0.9
		c-0.2-0.3-0.4-0.6-0.7-0.9s-0.7-0.6-1.2-0.8c-0.5-0.2-1.1-0.3-1.8-0.3c-1.2,0-2.2,0.4-3.1,1.3s-1.4,2-1.4,3.6
		c0,1.4,0.4,2.6,1.3,3.4c0.9,0.8,2,1.3,3.2,1.3c1.2,0,2.2-0.3,2.8-0.9c0.7-0.6,1.1-1.3,1.3-2l3.4,1c-0.1,0.6-0.4,1.2-0.7,1.8
		s-0.8,1.2-1.4,1.8c-0.6,0.6-1.3,1-2.3,1.4s-2,0.5-3.1,0.5C64.7,25.2,62.8,24.5,61.2,23z"/>
	<path class="st0" d="M78.2,11.1c1.6-1.5,3.5-2.3,5.8-2.3s4.2,0.8,5.8,2.3c1.6,1.5,2.4,3.5,2.4,5.9c0,2.4-0.8,4.4-2.4,5.9
		c-1.6,1.5-3.5,2.3-5.8,2.3s-4.2-0.8-5.8-2.3c-1.6-1.5-2.4-3.5-2.4-5.9C75.8,14.6,76.6,12.6,78.2,11.1z M84,12.2
		c-1.2,0-2.3,0.4-3.2,1.2s-1.4,2-1.4,3.5c0,1.5,0.5,2.7,1.4,3.5c0.9,0.8,2,1.2,3.2,1.2s2.3-0.4,3.2-1.2c0.9-0.8,1.4-2,1.4-3.5
		c0-1.5-0.5-2.7-1.4-3.5C86.3,12.7,85.2,12.2,84,12.2z"/>
	<path class="st0" d="M96.2,11.1c1.6-1.5,3.5-2.3,5.8-2.3s4.2,0.8,5.8,2.3c1.6,1.5,2.4,3.5,2.4,5.9c0,2.4-0.8,4.4-2.4,5.9
		c-1.6,1.5-3.5,2.3-5.8,2.3s-4.2-0.8-5.8-2.3c-1.6-1.5-2.4-3.5-2.4-5.9C93.8,14.6,94.6,12.6,96.2,11.1z M102,12.2
		c-1.2,0-2.3,0.4-3.2,1.2s-1.4,2-1.4,3.5c0,1.5,0.5,2.7,1.4,3.5c0.9,0.8,2,1.2,3.2,1.2s2.3-0.4,3.2-1.2c0.9-0.8,1.4-2,1.4-3.5
		c0-1.5-0.5-2.7-1.4-3.5C104.3,12.7,103.2,12.2,102,12.2z"/>
	<path class="st0" d="M112.7,24.9V9.2h3.5v12.4h6.8v3.4H112.7z"/>
	<path class="st0" d="M134.2,19.2v5.7h-3.5V9.2h5.9c1.6,0,2.9,0.5,3.9,1.4c1,0.9,1.5,2.2,1.5,3.6c0,1.5-0.5,2.7-1.5,3.6
		s-2.3,1.4-3.9,1.4H134.2z M136.3,16.2c0.7,0,1.2-0.2,1.6-0.5c0.4-0.4,0.6-0.8,0.6-1.5c0-0.6-0.2-1.1-0.6-1.5s-1-0.5-1.6-0.5h-2v4
		H136.3z"/>
	<path class="st0" d="M148.9,19h-1.2v5.9h-3.5V9.2h6.2c1.5,0,2.8,0.5,3.7,1.4c0.9,0.9,1.4,2.1,1.4,3.5c0,1.1-0.3,2-0.8,2.8
		s-1.3,1.3-2.3,1.7l3.2,6.4h-3.9L148.9,19z M149.8,16c0.7,0,1.3-0.2,1.6-0.5c0.4-0.3,0.6-0.8,0.6-1.4c0-0.6-0.2-1.1-0.6-1.4
		s-0.9-0.5-1.6-0.5h-2.1V16H149.8z"/>
	<path class="st0" d="M158.1,24.9V9.2h3.6v15.7H158.1z"/>
	<path class="st0" d="M164.2,24.9v-3.4l7.6-9h-7.3V9.2h12.1v3.2l-7.8,9.1h7.9v3.4H164.2z"/>
	<path class="st0" d="M179.4,24.9V9.2h10v3.3h-6.5v3h5.9v3.1h-5.9v3h6.5v3.3H179.4z"/>
	<path class="st0" d="M200,13.9c-0.1-0.5-0.3-0.9-0.7-1.4c-0.4-0.4-1-0.6-1.9-0.6c-0.6,0-1.2,0.2-1.6,0.5s-0.6,0.7-0.6,1.2
		c0,0.8,0.5,1.3,1.6,1.5l2.1,0.4c1.5,0.3,2.6,0.8,3.4,1.7c0.8,0.9,1.2,1.9,1.2,3c0,1.3-0.5,2.5-1.6,3.5s-2.5,1.5-4.2,1.5
		c-2,0-3.5-0.5-4.6-1.5c-1.1-1-1.7-2.2-1.8-3.5l3.2-0.8c0.1,0.8,0.4,1.4,0.9,1.9c0.5,0.5,1.3,0.8,2.3,0.8c0.7,0,1.2-0.2,1.6-0.5
		c0.4-0.3,0.6-0.7,0.6-1.2c0-0.4-0.1-0.7-0.4-1c-0.3-0.3-0.7-0.5-1.2-0.6l-2.2-0.4c-1.3-0.3-2.4-0.8-3.1-1.6c-0.8-0.8-1.1-1.8-1.1-3
		c0-1.5,0.6-2.7,1.7-3.6c1.1-1,2.4-1.4,4-1.4c0.9,0,1.8,0.1,2.5,0.4c0.7,0.3,1.3,0.6,1.7,1s0.8,0.9,1,1.3c0.2,0.5,0.4,0.9,0.5,1.4
		L200,13.9z"/>
	<path class="st0" d="M211.3,24.9V9.2h10.1v3.3h-6.6v3.3h5.8V19h-5.8v5.9H211.3z"/>
	<path class="st0" d="M228.7,19h-1.2v5.9h-3.5V9.2h6.2c1.5,0,2.8,0.5,3.7,1.4c0.9,0.9,1.4,2.1,1.4,3.5c0,1.1-0.3,2-0.8,2.8
		c-0.5,0.8-1.3,1.3-2.3,1.7l3.2,6.4h-3.9L228.7,19z M229.5,16c0.7,0,1.3-0.2,1.6-0.5c0.4-0.3,0.6-0.8,0.6-1.4c0-0.6-0.2-1.1-0.6-1.4
		c-0.4-0.3-0.9-0.5-1.6-0.5h-2.1V16H229.5z"/>
	<path class="st0" d="M239.2,11.1c1.6-1.5,3.5-2.3,5.8-2.3c2.3,0,4.2,0.8,5.8,2.3c1.6,1.5,2.4,3.5,2.4,5.9c0,2.4-0.8,4.4-2.4,5.9
		c-1.6,1.5-3.5,2.3-5.8,2.3c-2.3,0-4.2-0.8-5.8-2.3c-1.6-1.5-2.4-3.5-2.4-5.9C236.8,14.6,237.6,12.6,239.2,11.1z M245,12.2
		c-1.2,0-2.3,0.4-3.2,1.2s-1.4,2-1.4,3.5c0,1.5,0.5,2.7,1.4,3.5c0.9,0.8,2,1.2,3.2,1.2c1.2,0,2.3-0.4,3.2-1.2c0.9-0.8,1.4-2,1.4-3.5
		c0-1.5-0.5-2.7-1.4-3.5C247.3,12.7,246.2,12.2,245,12.2z"/>
	<path class="st0" d="M270.1,24.9V14.5L266,24.9h-2.8L259,14.6v10.3h-3.3V9.2h4.6l4.3,10.6l4.1-10.6h4.8v15.7H270.1z"/>
	<path class="st0" d="M283.9,11.1c1.6-1.5,3.5-2.3,5.8-2.3c2.3,0,4.2,0.8,5.8,2.3c1.6,1.5,2.4,3.5,2.4,5.9c0,2.4-0.8,4.4-2.4,5.9
		c-1.6,1.5-3.5,2.3-5.8,2.3c-2.3,0-4.2-0.8-5.8-2.3c-1.6-1.5-2.4-3.5-2.4-5.9C281.5,14.6,282.3,12.6,283.9,11.1z M289.7,12.2
		c-1.2,0-2.3,0.4-3.2,1.2s-1.4,2-1.4,3.5c0,1.5,0.5,2.7,1.4,3.5c0.9,0.8,2,1.2,3.2,1.2c1.2,0,2.3-0.4,3.2-1.2c0.9-0.8,1.4-2,1.4-3.5
		c0-1.5-0.5-2.7-1.4-3.5C292,12.7,290.9,12.2,289.7,12.2z"/>
	<path class="st0" d="M305.1,19h-1.2v5.9h-3.5V9.2h6.2c1.5,0,2.8,0.5,3.7,1.4c0.9,0.9,1.4,2.1,1.4,3.5c0,1.1-0.3,2-0.8,2.8
		c-0.5,0.8-1.3,1.3-2.3,1.7l3.2,6.4h-3.9L305.1,19z M305.9,16c0.7,0,1.3-0.2,1.6-0.5c0.4-0.3,0.6-0.8,0.6-1.4c0-0.6-0.2-1.1-0.6-1.4
		c-0.4-0.3-0.9-0.5-1.6-0.5h-2.1V16H305.9z"/>
	<path class="st0" d="M320.2,9.2c1.5,0,2.7,0.4,3.6,1.2c0.9,0.8,1.3,1.8,1.3,3c0,0.8-0.2,1.5-0.7,2.1s-1,1-1.7,1.3
		c0.8,0.2,1.4,0.6,2,1.3c0.5,0.7,0.8,1.5,0.8,2.4c0,1.3-0.5,2.4-1.4,3.2s-2.1,1.3-3.6,1.3h-6.3V9.2H320.2z M319.6,15.5
		c0.6,0,1.1-0.2,1.5-0.5c0.4-0.3,0.5-0.7,0.5-1.3c0-0.5-0.2-0.9-0.5-1.2c-0.4-0.3-0.9-0.5-1.5-0.5h-1.9v3.4H319.6z M319.9,22
		c0.7,0,1.2-0.2,1.6-0.5c0.4-0.3,0.6-0.8,0.6-1.3c0-0.5-0.2-1-0.6-1.3c-0.4-0.3-0.9-0.5-1.6-0.5h-2.2V22H319.9z"/>
	<path class="st0" d="M328,24.9V9.2h3.6v15.7H328z"/>
	<path class="st0" d="M342,12.5v12.4h-3.5V12.5h-4.8V9.2h13.2v3.4H342z"/>
	<path class="st0" d="M352.6,17.7c-1.3,0-2.4-0.5-3.4-1.4c-0.9-0.9-1.4-2.1-1.4-3.4c0-1.3,0.5-2.5,1.4-3.4s2.1-1.4,3.4-1.4
		s2.5,0.5,3.4,1.4s1.4,2.1,1.4,3.4c0,1.3-0.5,2.4-1.4,3.4C355,17.2,353.9,17.7,352.6,17.7z M352.6,9.2c-1,0-1.9,0.4-2.6,1.1
		s-1,1.6-1,2.7s0.3,1.9,1,2.6c0.7,0.7,1.6,1.1,2.6,1.1c1,0,1.9-0.4,2.6-1.1c0.7-0.7,1.1-1.6,1.1-2.6s-0.4-1.9-1.1-2.7
		S353.6,9.2,352.6,9.2z M352.5,13.7h-0.4v1.7h-1.3v-5.2h2.2c0.5,0,0.9,0.2,1.3,0.5c0.3,0.3,0.5,0.7,0.5,1.2c0,0.3-0.1,0.6-0.3,0.9
		c-0.2,0.3-0.4,0.5-0.7,0.6l1,2h-1.5L352.5,13.7z M352.7,12.7c0.2,0,0.4-0.1,0.5-0.2c0.1-0.1,0.2-0.3,0.2-0.5s-0.1-0.3-0.2-0.5
		c-0.1-0.1-0.3-0.2-0.5-0.2h-0.6v1.2H352.7z"/>
	<path class="st0" d="M362.9,20h-2.5l-0.8-10.8h4L362.9,20z M360.3,21.8c0.4-0.4,0.8-0.6,1.4-0.6s1,0.2,1.4,0.6
		c0.4,0.4,0.6,0.8,0.6,1.4c0,0.5-0.2,1-0.6,1.3c-0.4,0.4-0.8,0.6-1.4,0.6s-1-0.2-1.4-0.6c-0.4-0.4-0.6-0.8-0.6-1.3
		C359.7,22.7,359.9,22.2,360.3,21.8z"/>
</g>
</svg>
