<?xml version="1.0" encoding="utf-8"?>
<!-- Generator: Adobe Illustrator 19.2.1, SVG Export Plug-In . SVG Version: 6.00 Build 0)  -->
<svg version="1.1" id="Layer_1" xmlns="http://www.w3.org/2000/svg" xmlns:xlink="http://www.w3.org/1999/xlink" x="0px" y="0px"
	 width="238px" height="35px" viewBox="0 0 238 35" style="enable-background:new 0 0 238 35;" xml:space="preserve">
<style type="text/css">
	.st0{fill:#FFFFFF;}
</style>
<g>
	<path class="st0" d="M8.1,10.5C10,8.7,12.3,7.8,15,7.8s5,0.9,6.9,2.7s2.8,4.1,2.8,7s-0.9,5.2-2.8,7c-1.9,1.8-4.2,2.7-6.9,2.7
		s-5-0.9-6.9-2.7c-1.9-1.8-2.8-4.1-2.8-7S6.2,12.3,8.1,10.5z M15,11.8c-1.4,0-2.7,0.5-3.8,1.5s-1.6,2.4-1.6,4.2s0.5,3.2,1.6,4.2
		s2.3,1.4,3.8,1.4c1.4,0,2.7-0.5,3.8-1.4c1.1-1,1.6-2.4,1.6-4.2s-0.5-3.2-1.6-4.2S16.4,11.8,15,11.8z"/>
	<path class="st0" d="M33.2,19.9h-1.5v6.9h-4.1V8.2H35c1.8,0,3.3,0.6,4.4,1.7s1.7,2.5,1.7,4.2c0,1.3-0.3,2.4-1,3.3
		c-0.6,0.9-1.5,1.6-2.7,2l3.8,7.5h-4.6L33.2,19.9z M34.2,16.3c0.8,0,1.5-0.2,1.9-0.6c0.5-0.4,0.7-1,0.7-1.6c0-0.7-0.2-1.3-0.7-1.7
		s-1.1-0.6-1.9-0.6h-2.4v4.5H34.2z"/>
	<path class="st0" d="M51.1,8.2c1.8,0,3.2,0.5,4.3,1.4c1,0.9,1.5,2.1,1.5,3.6c0,0.9-0.3,1.8-0.8,2.5c-0.5,0.7-1.2,1.2-2,1.5
		c0.9,0.2,1.7,0.7,2.3,1.5c0.6,0.8,1,1.7,1,2.9c0,1.5-0.5,2.8-1.6,3.8s-2.5,1.5-4.2,1.5h-7.5V8.2H51.1z M50.4,15.6
		c0.7,0,1.3-0.2,1.7-0.5c0.4-0.4,0.6-0.9,0.6-1.5s-0.2-1.1-0.6-1.5s-1-0.5-1.8-0.5h-2.2v4H50.4z M50.8,23.4c0.8,0,1.4-0.2,1.9-0.6
		s0.7-0.9,0.7-1.6c0-0.6-0.2-1.2-0.7-1.6S51.6,19,50.8,19h-2.6v4.4C48.2,23.4,50.8,23.4,50.8,23.4z"/>
	<path class="st0" d="M60.3,26.8V8.2h4.2v18.6H60.3z"/>
	<path class="st0" d="M76.9,12.2v14.7h-4.1V12.2H67v-4h15.6v4H76.9z"/>
	<path class="st0" d="M82.6,19.4v-3.6h7.9v3.6H82.6z"/>
	<path class="st0" d="M97.8,20.1v6.7h-4.1V8.2h7c1.9,0,3.4,0.6,4.6,1.7c1.2,1.1,1.8,2.5,1.8,4.3s-0.6,3.2-1.8,4.3s-2.7,1.7-4.6,1.7
		h-2.9V20.1z M100.3,16.5c0.8,0,1.4-0.2,1.9-0.6s0.7-1,0.7-1.7s-0.2-1.3-0.7-1.7s-1.1-0.6-1.9-0.6h-2.4v4.8h2.4V16.5z"/>
	<path class="st0" d="M115.3,19.9h-1.5v6.9h-4.1V8.2h7.4c1.8,0,3.3,0.6,4.4,1.7c1.1,1.1,1.7,2.5,1.7,4.2c0,1.3-0.3,2.4-1,3.3
		c-0.6,0.9-1.5,1.6-2.7,2l3.8,7.5h-4.6L115.3,19.9z M116.3,16.3c0.8,0,1.5-0.2,1.9-0.6c0.5-0.4,0.7-1,0.7-1.6c0-0.7-0.2-1.3-0.7-1.7
		s-1.1-0.6-1.9-0.6h-2.4v4.5H116.3z"/>
	<path class="st0" d="M127.8,10.5c1.9-1.8,4.2-2.7,6.9-2.7s5,0.9,6.9,2.7s2.8,4.1,2.8,7s-0.9,5.2-2.8,7c-1.9,1.8-4.2,2.7-6.9,2.7
		s-5-0.9-6.9-2.7c-1.9-1.8-2.8-4.1-2.8-7C124.9,14.6,125.9,12.3,127.8,10.5z M134.6,11.8c-1.4,0-2.7,0.5-3.8,1.5s-1.6,2.4-1.6,4.2
		s0.5,3.2,1.6,4.2s2.3,1.4,3.8,1.4s2.7-0.5,3.8-1.4c1.1-1,1.6-2.4,1.6-4.2s-0.5-3.2-1.6-4.2S136.1,11.8,134.6,11.8z"/>
	<path class="st0" d="M164.3,26.8V14.5l-4.9,12.3H156l-4.9-12.2v12.2h-3.9V8.2h5.4l5.1,12.6l4.9-12.6h5.7v18.6H164.3z"/>
	<path class="st0" d="M174.2,10.5c1.9-1.8,4.2-2.7,6.9-2.7s5,0.9,6.9,2.7s2.8,4.1,2.8,7s-0.9,5.2-2.8,7c-1.9,1.8-4.2,2.7-6.9,2.7
		s-5-0.9-6.9-2.7c-1.9-1.8-2.8-4.1-2.8-7C171.3,14.6,172.3,12.3,174.2,10.5z M181,11.8c-1.4,0-2.7,0.5-3.8,1.5s-1.6,2.4-1.6,4.2
		s0.5,3.2,1.6,4.2s2.3,1.4,3.8,1.4c1.4,0,2.7-0.5,3.8-1.4c1.1-1,1.6-2.4,1.6-4.2s-0.5-3.2-1.6-4.2S182.5,11.8,181,11.8z"/>
	<path class="st0" d="M196.8,26.2c-0.5,0.5-1.2,0.8-1.9,0.8s-1.4-0.3-1.9-0.8s-0.8-1.2-0.8-1.9c0-0.7,0.3-1.4,0.8-1.9
		s1.2-0.8,1.9-0.8s1.4,0.3,1.9,0.8s0.8,1.2,0.8,1.9C197.6,25.1,197.3,25.7,196.8,26.2z"/>
	<path class="st0" d="M214,26.8l-0.3-1.9c-0.5,0.6-1.1,1.2-2,1.6s-2,0.7-3.2,0.7c-2.7,0-4.9-0.9-6.7-2.7c-1.8-1.8-2.7-4.1-2.7-7
		s0.9-5.2,2.8-7c1.9-1.8,4.2-2.7,6.9-2.7c2.4,0,4.3,0.6,5.8,1.7c1.4,1.1,2.4,2.5,2.9,4l-4,1.4c-0.2-0.8-0.7-1.5-1.4-2.2
		c-0.8-0.7-1.8-1-3.2-1s-2.7,0.5-3.8,1.5s-1.7,2.4-1.7,4.3s0.5,3.3,1.6,4.3s2.4,1.6,4,1.6c1.4,0,2.4-0.3,3.2-1s1.2-1.3,1.4-2.1H208
		v-3.5h9.5v10H214z"/>
	<path class="st0" d="M220.9,26.8V8.2h11.8v3.9H225v3.5h6.9v3.7H225v3.6h7.7v3.9C232.7,26.8,220.9,26.8,220.9,26.8z"/>
</g>
</svg>
