<?xml version="1.0" encoding="utf-8"?>
<!-- Generator: Adobe Illustrator 19.2.1, SVG Export Plug-In . SVG Version: 6.00 Build 0)  -->
<svg version="1.1" id="Layer_1" xmlns="http://www.w3.org/2000/svg" xmlns:xlink="http://www.w3.org/1999/xlink" x="0px" y="0px"
	 width="160px" height="84px" viewBox="0 0 160 84" style="enable-background:new 0 0 160 84;" xml:space="preserve">
<style type="text/css">
	.st0{fill:#FFFFFF;}
</style>
<g>
	<path class="st0" d="M39.9,0.3h3.5L38.1,15h-3.4L29.3,0.3h3.6l3.5,10.3L39.9,0.3z"/>
	<path class="st0" d="M57.3,2.1c1.5,1.4,2.2,3.3,2.2,5.5s-0.7,4.1-2.2,5.5s-3.3,2.1-5.4,2.1c-2.1,0-3.9-0.7-5.4-2.1
		s-2.2-3.2-2.2-5.5c0-0.4,0-0.9,0.1-1.4H56c-0.2-0.8-0.6-1.4-1.1-1.9c-0.8-0.8-1.8-1.2-2.9-1.2c-1.1,0-2.1,0.4-3,1.2
		c-0.2,0.2-0.4,0.4-0.5,0.6l-3.2-1.2c0.3-0.6,0.8-1.1,1.3-1.6C48,0.7,49.8,0,52,0C54.1,0,55.9,0.7,57.3,2.1z M52,12
		c1.1,0,2.1-0.4,2.9-1.1c0.5-0.4,0.8-0.9,1-1.6H48c0.2,0.6,0.6,1.2,1,1.6C49.8,11.6,50.8,12,52,12z"/>
	<path class="st0" d="M74.1,4.7c-0.1-0.5-0.3-0.9-0.7-1.3c-0.4-0.4-1-0.6-1.8-0.6c-0.6,0-1.1,0.2-1.4,0.5c-0.4,0.3-0.6,0.7-0.6,1.1
		c0,0.8,0.5,1.2,1.4,1.4l2,0.4c1.3,0.2,2.4,0.8,3.1,1.6s1.1,1.7,1.1,2.8c0,1.2-0.5,2.3-1.5,3.2s-2.3,1.4-3.9,1.4
		c-1.8,0-3.3-0.5-4.3-1.4c-1-1-1.6-2-1.7-3.3l3-0.7c0.1,0.7,0.4,1.3,0.9,1.8s1.2,0.7,2.2,0.7c0.6,0,1.1-0.1,1.5-0.4
		c0.4-0.3,0.6-0.7,0.6-1.1c0-0.4-0.1-0.7-0.4-0.9c-0.3-0.3-0.7-0.4-1.2-0.5l-2-0.4c-1.2-0.2-2.2-0.7-2.9-1.5
		c-0.7-0.8-1.1-1.7-1.1-2.8c0-1.3,0.5-2.5,1.5-3.4C69,0.4,70.3,0,71.7,0c0.9,0,1.6,0.1,2.3,0.4c0.7,0.2,1.2,0.6,1.6,1
		s0.7,0.8,0.9,1.2C76.8,3,77,3.4,77,3.9L74.1,4.7z"/>
	<path class="st0" d="M89.4,13.8c-1.1,1-2.5,1.5-4.2,1.5s-3.1-0.5-4.2-1.5s-1.6-2.4-1.6-4.1V0.3h3.3v9.1c0,0.9,0.2,1.5,0.7,2
		c0.4,0.5,1.1,0.7,1.9,0.7s1.4-0.2,1.9-0.7c0.4-0.5,0.7-1.1,0.7-2V0.3H91v9.4C91,11.4,90.5,12.8,89.4,13.8z"/>
	<path class="st0" d="M97.3,9.7V15H94V0.3h5.5c1.5,0,2.7,0.4,3.6,1.3s1.4,2,1.4,3.4s-0.5,2.5-1.4,3.4s-2.1,1.3-3.6,1.3H97.3z
		 M99.2,6.9c0.6,0,1.1-0.2,1.5-0.5s0.6-0.8,0.6-1.4s-0.2-1-0.6-1.4s-0.9-0.5-1.5-0.5h-1.9v3.7L99.2,6.9L99.2,6.9z"/>
	<path class="st0" d="M106.6,15V0.3h9.3v3.1h-6v2.8h5.5V9h-5.5v2.8h6V15H106.6z"/>
	<path class="st0" d="M123.1,9.5h-1.2V15h-3.3V0.3h5.8c1.4,0,2.6,0.4,3.4,1.3c0.9,0.9,1.3,2,1.3,3.3c0,1-0.3,1.8-0.8,2.6
		c-0.5,0.7-1.2,1.2-2.1,1.6l3,5.9h-3.6L123.1,9.5z M123.8,6.7c0.7,0,1.2-0.2,1.5-0.5c0.4-0.3,0.5-0.8,0.5-1.3c0-0.6-0.2-1-0.5-1.3
		c-0.4-0.3-0.9-0.5-1.5-0.5h-1.9v3.6H123.8z"/>
	<path class="st0" d="M20.4,39.7v-5.8h-5.8v5.8h-3.3V25.1h3.3v5.7h5.8v-5.7h3.3v14.6C23.7,39.7,20.4,39.7,20.4,39.7z"/>
	<path class="st0" d="M39,26.9c1.5,1.4,2.2,3.3,2.2,5.5s-0.7,4.1-2.2,5.5S35.7,40,33.6,40s-3.9-0.7-5.4-2.1
		c-1.5-1.4-2.2-3.2-2.2-5.5c0-0.4,0-0.9,0.1-1.4h11.5c-0.2-0.8-0.6-1.4-1.1-1.9c-0.8-0.8-1.8-1.2-2.9-1.2c-1.1,0-2.1,0.4-3,1.2
		c-0.2,0.2-0.4,0.4-0.5,0.6L27,28.6c0.3-0.6,0.8-1.1,1.3-1.6c1.5-1.4,3.3-2.1,5.4-2.1C35.7,24.8,37.5,25.5,39,26.9z M33.6,36.8
		c1.1,0,2.1-0.4,2.9-1.1c0.5-0.4,0.8-0.9,1-1.6h-7.9c0.2,0.6,0.6,1.2,1,1.6C31.5,36.4,32.5,36.8,33.6,36.8z"/>
	<path class="st0" d="M43.5,39.7V25.1h5.3c2.2,0,4,0.7,5.3,2s2,3.1,2,5.4c0,2.2-0.7,4-2,5.3s-3.1,2-5.4,2L43.5,39.7L43.5,39.7z
		 M48.7,36.7c1.2,0,2.2-0.4,2.9-1.1c0.8-0.7,1.1-1.8,1.1-3.2c0-1.4-0.4-2.5-1.1-3.2c-0.8-0.7-1.7-1.1-2.9-1.1h-1.9v8.5h1.9V36.7z"/>
	<path class="st0" d="M58.5,39.7V25.1h3.3v14.6H58.5z"/>
	<path class="st0" d="M63.6,25.1h3.8l3,5.4l3-5.4H77l-5,8.5v6.1h-3.3v-6.1L63.6,25.1z"/>
	<path class="st0" d="M77.7,25.1h3.8l3,5.4l3-5.4h3.6L86,33.6v6.1h-3.3v-6.1L77.7,25.1z"/>
	<path class="st0" d="M105.1,26.9c1.5,1.4,2.2,3.3,2.2,5.5s-0.7,4.1-2.2,5.5s-3.3,2.1-5.4,2.1s-3.9-0.7-5.4-2.1
		c-1.5-1.4-2.2-3.2-2.2-5.5c0-0.4,0-0.9,0.1-1.4h11.5c-0.2-0.8-0.6-1.4-1.1-1.9c-0.8-0.8-1.8-1.2-2.9-1.2s-2.1,0.4-3,1.2
		c-0.2,0.2-0.4,0.4-0.5,0.6L93,28.5c0.3-0.6,0.8-1.1,1.3-1.6c1.5-1.4,3.3-2.1,5.4-2.1C101.9,24.8,103.7,25.5,105.1,26.9z M99.8,36.8
		c1.1,0,2.1-0.4,2.9-1.1c0.5-0.4,0.8-0.9,1-1.6h-7.9c0.2,0.6,0.6,1.2,1,1.6C97.7,36.4,98.6,36.8,99.8,36.8z"/>
	<path class="st0" d="M109.7,39.7V25.1h3.3v11.5h6.3v3.1C119.3,39.7,109.7,39.7,109.7,39.7z"/>
	<path class="st0" d="M133.5,26.9c1.5,1.4,2.2,3.3,2.2,5.5s-0.7,4.1-2.2,5.5s-3.3,2.1-5.4,2.1c-2.1,0-3.9-0.7-5.4-2.1
		c-1.5-1.4-2.2-3.2-2.2-5.5c0-0.4,0-0.9,0.1-1.4h11.5c-0.2-0.8-0.6-1.4-1.1-1.9c-0.8-0.8-1.8-1.2-2.9-1.2s-2.1,0.4-3,1.2
		c-0.2,0.2-0.4,0.4-0.5,0.6l-3.2-1.2c0.3-0.6,0.8-1.1,1.3-1.6c1.5-1.4,3.3-2.1,5.4-2.1C130.2,24.8,132,25.5,133.5,26.9z M128.1,36.8
		c1.1,0,2.1-0.4,2.9-1.1c0.5-0.4,0.8-0.9,1-1.6h-7.9c0.2,0.6,0.6,1.2,1,1.6C126,36.4,127,36.8,128.1,36.8z"/>
	<path class="st0" d="M142.5,34.3h-1.2v5.5H138V25.1h5.8c1.4,0,2.6,0.4,3.4,1.3c0.9,0.9,1.3,2,1.3,3.3c0,1-0.3,1.8-0.8,2.6
		c-0.5,0.7-1.2,1.2-2.1,1.6l3,5.9H145L142.5,34.3z M143.2,31.5c0.7,0,1.2-0.2,1.5-0.5c0.4-0.3,0.5-0.8,0.5-1.3c0-0.6-0.2-1-0.5-1.3
		c-0.4-0.3-0.9-0.5-1.5-0.5h-1.9v3.6C141.3,31.5,143.2,31.5,143.2,31.5z"/>
	<path class="st0" d="M59,21.6c0.3-0.3,0.7-0.5,1.1-0.5c0.5,0,0.9,0.2,1.2,0.5s0.5,0.7,0.5,1.2s-0.2,0.8-0.5,1.1s-0.7,0.5-1.2,0.5
		s-0.8-0.2-1.1-0.5s-0.5-0.7-0.5-1.1C58.5,22.3,58.7,21.9,59,21.6z"/>
</g>
</svg>
