<?xml version="1.0" encoding="utf-8"?>
<!-- Generator: Adobe Illustrator 19.2.1, SVG Export Plug-In . SVG Version: 6.00 Build 0)  -->
<svg version="1.1" id="Layer_1" xmlns="http://www.w3.org/2000/svg" xmlns:xlink="http://www.w3.org/1999/xlink" x="0px" y="0px"
	 width="236px" height="35px" viewBox="0 0 236 35" style="enable-background:new 0 0 236 35;" xml:space="preserve">
<style type="text/css">
	.st0{fill:#FFFFFF;}
</style>
<g>
	<path class="st0" d="M7.3,10.4c1.9-1.8,4.1-2.7,6.8-2.7s4.9,0.9,6.8,2.7c1.9,1.8,2.8,4.1,2.8,6.9s-0.9,5.1-2.8,6.9
		c-1.9,1.8-4.1,2.7-6.8,2.7S9.2,26,7.3,24.2c-1.9-1.8-2.8-4.1-2.8-6.9C4.6,14.5,5.5,12.2,7.3,10.4z M14.1,11.7
		c-1.4,0-2.7,0.5-3.7,1.4s-1.6,2.3-1.6,4.1s0.5,3.2,1.6,4.1s2.3,1.4,3.7,1.4s2.7-0.5,3.7-1.4c1.1-1,1.6-2.3,1.6-4.1
		s-0.5-3.2-1.6-4.1C16.8,12.2,15.6,11.7,14.1,11.7z"/>
	<path class="st0" d="M32.2,19.7h-1.5v6.9h-4.1V8.1h7.3c1.8,0,3.2,0.5,4.3,1.6s1.6,2.5,1.6,4.1c0,1.2-0.3,2.3-1,3.2s-1.5,1.6-2.7,2
		l3.7,7.5h-4.5L32.2,19.7z M33.2,16.2c0.8,0,1.5-0.2,1.9-0.6c0.5-0.4,0.7-0.9,0.7-1.6c0-0.7-0.2-1.2-0.7-1.6
		c-0.5-0.4-1.1-0.6-1.9-0.6h-2.4v4.5L33.2,16.2L33.2,16.2z"/>
	<path class="st0" d="M49.8,8.1c1.8,0,3.2,0.5,4.2,1.4s1.5,2.1,1.5,3.6c0,0.9-0.3,1.7-0.8,2.5c-0.5,0.7-1.2,1.2-1.9,1.5
		c0.9,0.2,1.7,0.7,2.3,1.5c0.6,0.8,1,1.7,1,2.8c0,1.5-0.5,2.8-1.6,3.8s-2.5,1.5-4.2,1.5h-7.4V8.1H49.8z M49.2,15.5
		c0.7,0,1.3-0.2,1.7-0.5c0.4-0.4,0.6-0.8,0.6-1.5c0-0.6-0.2-1.1-0.6-1.4c-0.4-0.4-1-0.5-1.8-0.5h-2.2v4h2.3V15.5z M49.5,23.2
		c0.8,0,1.4-0.2,1.9-0.6s0.7-0.9,0.7-1.6c0-0.6-0.2-1.2-0.7-1.6s-1.1-0.6-1.9-0.6h-2.6v4.3h2.6V23.2z"/>
	<path class="st0" d="M59,26.6V8.1h4.2v18.4H59V26.6z"/>
	<path class="st0" d="M75.4,12.1v14.5h-4.1V12.1h-5.7v-4H81V12h-5.6V12.1z"/>
	<path class="st0" d="M81,19.2v-3.6h7.8v3.6H81z"/>
	<path class="st0" d="M96.1,19.9v6.6H92V8.1h6.9c1.9,0,3.4,0.6,4.6,1.7c1.2,1.1,1.8,2.5,1.8,4.2s-0.6,3.2-1.8,4.3
		c-1.2,1.1-2.7,1.6-4.6,1.6H96.1z M98.5,16.4c0.8,0,1.4-0.2,1.9-0.6s0.7-1,0.7-1.7s-0.2-1.3-0.7-1.7s-1.1-0.6-1.9-0.6h-2.4v4.7h2.4
		V16.4z"/>
	<path class="st0" d="M113.3,19.7h-1.5v6.9h-4.1V8.1h7.3c1.8,0,3.2,0.5,4.3,1.6s1.6,2.5,1.6,4.1c0,1.2-0.3,2.3-1,3.2s-1.5,1.6-2.7,2
		l3.7,7.5h-4.5L113.3,19.7z M114.3,16.2c0.8,0,1.5-0.2,1.9-0.6c0.5-0.4,0.7-0.9,0.7-1.6c0-0.7-0.2-1.2-0.7-1.6
		c-0.5-0.4-1.1-0.6-1.9-0.6h-2.4v4.5L114.3,16.2L114.3,16.2z"/>
	<path class="st0" d="M125.7,10.4c1.9-1.8,4.1-2.7,6.8-2.7s4.9,0.9,6.8,2.7c1.9,1.8,2.8,4.1,2.8,6.9s-0.9,5.1-2.8,6.9
		c-1.9,1.8-4.1,2.7-6.8,2.7s-4.9-0.9-6.8-2.7c-1.9-1.8-2.8-4.1-2.8-6.9S123.8,12.2,125.7,10.4z M132.5,11.7c-1.4,0-2.7,0.5-3.7,1.4
		c-1.1,1-1.6,2.3-1.6,4.1s0.5,3.2,1.6,4.1c1.1,1,2.3,1.4,3.7,1.4s2.7-0.5,3.7-1.4c1.1-1,1.6-2.3,1.6-4.1s-0.5-3.2-1.6-4.1
		C135.1,12.2,133.9,11.7,132.5,11.7z"/>
	<path class="st0" d="M161.8,26.6V14.3L157,26.6h-3.3l-4.8-12.1v12.1H145V8.1h5.4l5.1,12.4l4.8-12.4h5.6v18.4h-4.1V26.6z"/>
	<path class="st0" d="M171.6,10.4c1.9-1.8,4.1-2.7,6.8-2.7s4.9,0.9,6.8,2.7c1.9,1.8,2.8,4.1,2.8,6.9s-0.9,5.1-2.8,6.9
		c-1.9,1.8-4.1,2.7-6.8,2.7s-4.9-0.9-6.8-2.7c-1.9-1.8-2.8-4.1-2.8-6.9S169.7,12.2,171.6,10.4z M178.4,11.7c-1.4,0-2.7,0.5-3.7,1.4
		c-1.1,1-1.6,2.3-1.6,4.1s0.5,3.2,1.6,4.1c1.1,1,2.3,1.4,3.7,1.4s2.7-0.5,3.7-1.4c1.1-1,1.6-2.3,1.6-4.1s-0.5-3.2-1.6-4.1
		C181,12.2,179.8,11.7,178.4,11.7z"/>
	<path class="st0" d="M193.9,26c-0.5,0.5-1.2,0.8-1.9,0.8s-1.4-0.3-1.9-0.8s-0.8-1.2-0.8-1.9s0.3-1.4,0.8-1.9s1.1-0.8,1.9-0.8
		c0.7,0,1.4,0.3,1.9,0.8s0.8,1.1,0.8,1.9C194.7,24.8,194.5,25.4,193.9,26z"/>
	<path class="st0" d="M209.3,22.8h-7.1l-1.3,3.7h-4.3l6.9-18.4h4.8l6.9,18.4h-4.5L209.3,22.8z M203.6,19.1h4.5l-2.2-6.4L203.6,19.1z
		"/>
	<path class="st0" d="M216.7,26.6v-3.9l8.9-10.5h-8.5V8.1h14.1v3.8l-9.1,10.7h9.2v3.9h-14.6V26.6z"/>
</g>
</svg>
