<?xml version="1.0" encoding="utf-8"?>
<!-- Generator: Adobe Illustrator 19.2.1, SVG Export Plug-In . SVG Version: 6.00 Build 0)  -->
<svg version="1.1" id="Layer_1" xmlns="http://www.w3.org/2000/svg" xmlns:xlink="http://www.w3.org/1999/xlink" x="0px" y="0px"
	 width="160px" height="66px" viewBox="0 0 160 66" style="enable-background:new 0 0 160 66;" xml:space="preserve">
<style type="text/css">
	.st0{fill:#FFFFFF;}
</style>
<g>
	<path class="st0" d="M19.5,3c1.5-1.4,3.3-2.1,5.4-2.1c2.1,0,3.9,0.7,5.4,2.1c1.5,1.4,2.2,3.3,2.2,5.5s-0.7,4.1-2.2,5.5
		c-1.5,1.4-3.3,2.1-5.4,2.1c-2.1,0-3.9-0.7-5.4-2.1c-1.5-1.4-2.2-3.2-2.2-5.5C17.2,6.3,18,4.4,19.5,3z M24.9,4.1
		c-1.1,0-2.1,0.4-3,1.1s-1.3,1.9-1.3,3.3c0,1.4,0.4,2.5,1.3,3.3c0.8,0.8,1.8,1.1,3,1.1s2.1-0.4,3-1.1c0.8-0.8,1.3-1.9,1.3-3.3
		c0-1.4-0.4-2.5-1.3-3.3C27,4.5,26,4.1,24.9,4.1z"/>
	<path class="st0" d="M39.2,10.4h-1.2v5.5h-3.3V1.2h5.8c1.4,0,2.6,0.4,3.4,1.3c0.9,0.9,1.3,2,1.3,3.3c0,1-0.3,1.8-0.8,2.6
		c-0.5,0.7-1.2,1.2-2.1,1.6l3,5.9h-3.6L39.2,10.4z M40,7.6c0.7,0,1.2-0.2,1.5-0.5c0.4-0.3,0.5-0.8,0.5-1.3c0-0.6-0.2-1-0.5-1.3
		C41.2,4.2,40.7,4,40,4h-1.9v3.6H40z"/>
	<path class="st0" d="M53.3,1.2c1.4,0,2.5,0.4,3.3,1.1C57.4,3,57.8,4,57.8,5.1c0,0.7-0.2,1.4-0.6,2c-0.4,0.6-0.9,1-1.5,1.2
		c0.7,0.2,1.3,0.6,1.8,1.2c0.5,0.6,0.8,1.4,0.8,2.3c0,1.2-0.4,2.2-1.3,3c-0.8,0.8-2,1.2-3.3,1.2h-5.9V1.2H53.3z M52.7,7.1
		c0.6,0,1-0.1,1.4-0.4c0.3-0.3,0.5-0.7,0.5-1.2c0-0.5-0.2-0.9-0.5-1.1c-0.3-0.3-0.8-0.4-1.4-0.4H51v3.2H52.7z M53,13.2
		c0.6,0,1.1-0.2,1.5-0.5c0.4-0.3,0.5-0.7,0.5-1.3c0-0.5-0.2-0.9-0.5-1.2c-0.4-0.3-0.9-0.5-1.5-0.5h-2v3.4H53z"/>
	<path class="st0" d="M60.5,15.9V1.2h3.3v14.6H60.5z"/>
	<path class="st0" d="M73.6,4.3v11.5h-3.3V4.3h-4.5V1.2h12.3v3.1H73.6z"/>
	<path class="st0" d="M83.4,9.2c-1.2,0-2.3-0.4-3.1-1.3s-1.3-1.9-1.3-3.1s0.4-2.3,1.3-3.2s1.9-1.3,3.1-1.3c1.2,0,2.3,0.4,3.2,1.3
		c0.9,0.9,1.3,1.9,1.3,3.2S87.4,7,86.5,7.9C85.7,8.7,84.6,9.2,83.4,9.2z M83.4,1.2c-1,0-1.8,0.3-2.4,1c-0.7,0.7-1,1.5-1,2.5
		s0.3,1.8,1,2.5c0.7,0.7,1.5,1,2.4,1s1.8-0.3,2.4-1c0.7-0.7,1-1.5,1-2.5s-0.3-1.8-1-2.5C85.1,1.6,84.3,1.2,83.4,1.2z M83.3,5.5H83
		v1.6h-1.3V2.3h2c0.5,0,0.9,0.2,1.2,0.5c0.3,0.3,0.5,0.7,0.5,1.1c0,0.3-0.1,0.6-0.2,0.8c-0.2,0.2-0.4,0.4-0.6,0.6l0.9,1.8h-1.4
		L83.3,5.5z M83.5,4.5c0.2,0,0.3-0.1,0.5-0.2c0.1-0.1,0.2-0.2,0.2-0.4S84,3.6,83.9,3.5c-0.1-0.1-0.3-0.2-0.5-0.2H83v1.2H83.5z"/>
	<path class="st0" d="M89.2,10V7.2h6.2V10H89.2z"/>
	<path class="st0" d="M97.9,15.9V1.2h5.3c2.2,0,4,0.7,5.3,2c1.3,1.3,2,3.1,2,5.4c0,2.2-0.7,4-2,5.3c-1.3,1.3-3.1,2-5.4,2H97.9z
		 M103.1,12.8c1.2,0,2.2-0.4,2.9-1.1c0.8-0.7,1.1-1.8,1.1-3.2c0-1.4-0.4-2.5-1.1-3.2c-0.8-0.7-1.7-1.1-2.9-1.1h-1.9v8.5H103.1z"/>
	<path class="st0" d="M125,3c1.5,1.4,2.2,3.3,2.2,5.5c0,2.2-0.7,4.1-2.2,5.5c-1.5,1.4-3.3,2.1-5.4,2.1c-2.1,0-3.9-0.7-5.4-2.1
		c-1.5-1.4-2.2-3.2-2.2-5.5c0-0.4,0-0.9,0.1-1.4h11.5c-0.2-0.8-0.6-1.4-1.1-1.9c-0.8-0.8-1.8-1.2-2.9-1.2c-1.1,0-2.1,0.4-3,1.2
		c-0.2,0.2-0.4,0.4-0.5,0.6L113,4.7c0.3-0.6,0.8-1.1,1.3-1.6c1.5-1.4,3.3-2.1,5.4-2.1C121.8,0.9,123.6,1.6,125,3z M119.7,12.9
		c1.1,0,2.1-0.4,2.9-1.1c0.5-0.4,0.8-0.9,1-1.6h-7.9c0.2,0.6,0.6,1.2,1,1.6C117.6,12.5,118.5,12.9,119.7,12.9z"/>
	<path class="st0" d="M138.9,15.9l-6-9.6v9.6h-3.2V1.2h4l5.5,8.9V1.2h3.3v14.6H138.9z"/>
	<path class="st0" d="M5.4,26h3.8l3,5.4l3-5.4h3.6l-5.1,8.5v6.1h-3.3v-6.1L5.4,26z"/>
	<path class="st0" d="M20.6,40.6V26h9.3v3.1h-6v2.8h5.5v2.9h-5.5v2.8h6v3.1H20.6z"/>
	<path class="st0" d="M42,40.6l-6-9.6v9.6h-3.2V26h4l5.5,8.9V26h3.3v14.6H42z"/>
	<path class="st0" d="M48.6,40.6V26h3.3v14.6H48.6z"/>
	<path class="st0" d="M66.7,29.1v11.5h-3.3V29.1h-4.5V26h12.3v3.1H66.7z"/>
	<path class="st0" d="M80.6,37.7H75l-1.1,3h-3.4L76,26h3.8l5.5,14.6h-3.6L80.6,37.7z M76,34.7h3.6l-1.8-5.1L76,34.7z"/>
	<path class="st0" d="M96.3,40.6l-6-9.6v9.6H87V26h4l5.5,8.9V26h3.3v14.6H96.3z"/>
	<path class="st0" d="M102.9,40.6V26h3.3v14.6H102.9z"/>
	<path class="st0" d="M115.8,40.8L115.8,40.8l-0.1,0.1l-0.5,0.8c0.6,0,1.1,0.2,1.4,0.5c0.4,0.3,0.6,0.8,0.6,1.3c0,0.5-0.2,1-0.7,1.4
		c-0.4,0.4-1.1,0.6-2.1,0.6c-0.6,0-1.1-0.1-1.5-0.4c-0.5-0.2-0.8-0.5-1-0.8l1-1.2c0.5,0.5,1,0.8,1.6,0.8s0.8-0.2,0.8-0.5
		c0-0.1-0.1-0.3-0.2-0.4c-0.1-0.1-0.3-0.2-0.5-0.2c-0.2,0-0.4,0-0.6,0.1l-0.8-1l0.6-1c-1.6-0.1-2.8-0.6-3.7-1.4
		c-1-1-1.6-2.1-1.7-3.3l3-0.7c0.1,0.7,0.4,1.3,0.9,1.8c0.5,0.5,1.2,0.7,2.2,0.7c0.6,0,1.1-0.1,1.5-0.4c0.4-0.3,0.6-0.7,0.6-1.1
		c0-0.4-0.1-0.7-0.4-0.9c-0.3-0.3-0.7-0.4-1.2-0.5l-2-0.4c-1.2-0.2-2.2-0.7-2.9-1.5c-0.7-0.8-1.1-1.7-1.1-2.8c0-1.3,0.5-2.5,1.5-3.4
		c1-0.9,2.3-1.3,3.7-1.3c0.9,0,1.6,0.1,2.3,0.4c0.7,0.2,1.2,0.6,1.6,1s0.7,0.8,1,1.2c0.2,0.4,0.4,0.9,0.5,1.3l-2.9,0.8
		c-0.1-0.5-0.3-0.9-0.7-1.3s-1-0.6-1.8-0.6c-0.6,0-1.1,0.2-1.4,0.5c-0.4,0.3-0.6,0.7-0.6,1.1c0,0.8,0.5,1.2,1.4,1.4l2,0.4
		c1.3,0.2,2.4,0.8,3.1,1.6c0.7,0.8,1.1,1.7,1.1,2.8c0,1.2-0.5,2.3-1.5,3.2C117.6,40.2,116.8,40.6,115.8,40.8z"/>
	<path class="st0" d="M122,40.6V26h3.3v11.5h6.3v3.1H122z"/>
	<path class="st0" d="M133.6,40.6V26h3.3v14.6H133.6z"/>
	<path class="st0" d="M141.5,27.8c1.5-1.4,3.3-2.1,5.4-2.1c2.1,0,3.9,0.7,5.4,2.1c1.5,1.4,2.2,3.3,2.2,5.5c0,1.9-0.6,3.5-1.7,4.9
		l1.8,2l-2.1,1.8l-1.8-2c-1.1,0.6-2.4,1-3.8,1c-2.1,0-3.9-0.7-5.4-2.1c-1.5-1.4-2.2-3.2-2.2-5.5C139.3,31.1,140,29.2,141.5,27.8z
		 M149.8,30c-0.8-0.8-1.8-1.1-3-1.1c-1.1,0-2.1,0.4-3,1.1s-1.3,1.9-1.3,3.3c0,1.4,0.4,2.5,1.3,3.3c0.8,0.8,1.8,1.1,3,1.1
		c0.5,0,1-0.1,1.5-0.2l-2.1-2.4l2.2-1.8l2.1,2.4c0.4-0.7,0.6-1.5,0.6-2.4C151.1,31.9,150.7,30.8,149.8,30z"/>
	<path class="st0" d="M39.3,64.3c-1.1,1-2.5,1.5-4.2,1.5c-1.7,0-3.1-0.5-4.2-1.5c-1.1-1-1.6-2.4-1.6-4.1v-9.4h3.3v9.1
		c0,0.9,0.2,1.5,0.7,2c0.4,0.5,1.1,0.7,1.9,0.7c0.8,0,1.4-0.2,1.9-0.7c0.4-0.5,0.7-1.1,0.7-2v-9.1h3.3v9.4
		C40.9,61.9,40.3,63.3,39.3,64.3z M31.4,47.2c0.3-0.3,0.7-0.5,1.2-0.5s0.9,0.2,1.2,0.5c0.3,0.3,0.5,0.7,0.5,1.2
		c0,0.5-0.2,0.8-0.5,1.1C33.4,49.8,33,50,32.6,50s-0.9-0.2-1.2-0.5c-0.3-0.3-0.5-0.7-0.5-1.1C31,47.9,31.1,47.5,31.4,47.2z
		 M36.5,47.2c0.3-0.3,0.7-0.5,1.1-0.5c0.5,0,0.9,0.2,1.2,0.5s0.5,0.7,0.5,1.2c0,0.5-0.2,0.8-0.5,1.1c-0.3,0.3-0.7,0.5-1.2,0.5
		c-0.5,0-0.8-0.2-1.1-0.5c-0.3-0.3-0.5-0.7-0.5-1.1C36,47.9,36.2,47.5,36.5,47.2z"/>
	<path class="st0" d="M51.1,55.2c-0.1-0.5-0.3-0.9-0.7-1.3c-0.4-0.4-1-0.6-1.8-0.6c-0.6,0-1.1,0.2-1.4,0.5c-0.4,0.3-0.6,0.7-0.6,1.1
		c0,0.8,0.5,1.2,1.4,1.4l2,0.4c1.3,0.2,2.4,0.8,3.1,1.6s1.1,1.7,1.1,2.8c0,1.2-0.5,2.3-1.5,3.2c-1,0.9-2.3,1.4-3.9,1.4
		c-1.8,0-3.3-0.5-4.3-1.4c-1-1-1.6-2-1.7-3.3l3-0.7c0.1,0.7,0.4,1.3,0.9,1.8c0.5,0.5,1.2,0.7,2.2,0.7c0.6,0,1.1-0.1,1.5-0.4
		c0.4-0.3,0.6-0.7,0.6-1.1c0-0.4-0.1-0.7-0.4-0.9c-0.3-0.3-0.7-0.4-1.2-0.5l-2-0.4c-1.2-0.2-2.2-0.7-2.9-1.5
		c-0.7-0.8-1.1-1.7-1.1-2.8c0-1.3,0.5-2.5,1.5-3.4c1-0.9,2.3-1.3,3.7-1.3c0.9,0,1.6,0.1,2.3,0.4c0.7,0.2,1.2,0.6,1.6,1
		c0.4,0.4,0.7,0.8,0.9,1.2c0.2,0.4,0.4,0.9,0.5,1.3L51.1,55.2z"/>
	<path class="st0" d="M66.4,64.3c-1.1,1-2.5,1.5-4.2,1.5c-1.7,0-3.1-0.5-4.2-1.5c-1.1-1-1.6-2.4-1.6-4.1v-9.4h3.3v9.1
		c0,0.9,0.2,1.5,0.7,2c0.4,0.5,1.1,0.7,1.9,0.7c0.8,0,1.4-0.2,1.9-0.7c0.4-0.5,0.7-1.1,0.7-2v-9.1H68v9.4
		C68,61.9,67.4,63.3,66.4,64.3z"/>
	<path class="st0" d="M71.1,65.4V50.8h3.3v11.5h6.3v3.1H71.1z"/>
	<path class="st0" d="M82.7,65.4V50.8H86v11.5h6.3v3.1H82.7z"/>
	<path class="st0" d="M103.2,62.5h-5.7l-1.1,3h-3.4l5.5-14.6h3.8l5.5,14.6h-3.6L103.2,62.5z M98.7,59.5h3.6l-1.8-5.1L98.7,59.5z"/>
	<path class="st0" d="M114.1,60h-1.2v5.5h-3.3V50.8h5.8c1.4,0,2.6,0.4,3.4,1.3c0.9,0.9,1.3,2,1.3,3.3c0,1-0.3,1.8-0.8,2.6
		c-0.5,0.7-1.2,1.2-2.1,1.6l3,5.9h-3.6L114.1,60z M114.8,57.2c0.7,0,1.2-0.2,1.5-0.5c0.4-0.3,0.5-0.8,0.5-1.3c0-0.6-0.2-1-0.5-1.3
		c-0.4-0.3-0.9-0.5-1.5-0.5h-1.9v3.6H114.8z"/>
	<path class="st0" d="M122.6,65.4V50.8h3.3v14.6H122.6z"/>
</g>
</svg>
