<?xml version="1.0" encoding="utf-8"?>
<!-- Generator: Adobe Illustrator 19.2.1, SVG Export Plug-In . SVG Version: 6.00 Build 0)  -->
<svg version="1.1" id="Layer_1" xmlns="http://www.w3.org/2000/svg" xmlns:xlink="http://www.w3.org/1999/xlink" x="0px" y="0px"
	 width="300px" height="48px" viewBox="0 0 300 48" style="enable-background:new 0 0 300 48;" xml:space="preserve">
<style type="text/css">
	.st0{fill:#FFFFFF;}
</style>
<g>
	<path class="st0" d="M30.3,38.7V14.8h15.1v5h-9.8v4.6h8.9V29h-8.9v4.6h9.8v5.1H30.3z"/>
	<path class="st0" d="M61.2,19.9v18.7h-5.3V19.9h-7.3v-5.1h20v5.1H61.2z"/>
	<path class="st0" d="M95.1,14.8h5.6L92,38.7h-5.5l-8.7-23.9h5.9l5.8,16.8L95.1,14.8z"/>
	<path class="st0" d="M123.4,17.8c2.4,2.3,3.6,5.3,3.6,9c0,3.7-1.2,6.6-3.6,8.9c-2.4,2.3-5.3,3.4-8.7,3.4s-6.4-1.1-8.8-3.4
		c-2.4-2.3-3.6-5.2-3.6-8.9c0-0.7,0.1-1.5,0.2-2.3h18.7c-0.3-1.2-0.9-2.3-1.8-3.1c-1.3-1.2-2.9-1.9-4.8-1.9s-3.4,0.7-4.8,1.9
		c-0.3,0.2-0.6,0.6-0.8,1l-5.2-1.9c0.6-1,1.2-1.9,2-2.7c2.4-2.3,5.3-3.4,8.8-3.4C118.1,14.4,120.9,15.5,123.4,17.8z M114.6,33.9
		c1.9,0,3.4-0.7,4.8-1.9c0.7-0.7,1.3-1.5,1.6-2.6h-13c0.3,1.1,0.9,2,1.7,2.6C111.1,33.3,112.8,33.9,114.6,33.9z"/>
	<path class="st0" d="M141.3,17.7c2.4-2.3,5.4-3.4,8.8-3.4c3.4,0,6.4,1.1,8.8,3.4c2.4,2.3,3.6,5.3,3.6,9c0,3.1-0.9,5.7-2.7,7.9
		l2.9,3.2l-3.5,2.9l-2.9-3.3c-1.9,1.1-3.9,1.5-6.2,1.5c-3.4,0-6.4-1.1-8.8-3.4c-2.4-2.3-3.6-5.3-3.6-9
		C137.6,23,138.8,20.1,141.3,17.7z M154.8,21.4c-1.4-1.2-2.9-1.9-4.8-1.9c-1.9,0-3.4,0.7-4.8,1.9c-1.4,1.2-2,3-2,5.4s0.7,4.1,2,5.4
		c1.4,1.2,3,1.9,4.8,1.9c0.8,0,1.6-0.2,2.4-0.4l-3.5-3.8l3.5-2.9l3.5,3.8c0.6-1.1,0.9-2.4,0.9-3.8C156.9,24.4,156.2,22.6,154.8,21.4
		z"/>
	<path class="st0" d="M180.4,33.8h-9.2l-1.7,4.8h-5.6l9-23.8h6.1l8.9,23.8H182L180.4,33.8z M172.9,29h5.8l-2.9-8.2L172.9,29z"/>
	<path class="st0" d="M189.9,38.7v-5.1l11.5-13.6h-11v-5.1h18.3v4.9l-11.7,13.9h11.9v5.1H189.9z"/>
	<path class="st0" d="M227.2,33.8H218l-1.7,4.8h-5.5l9-23.8h6.1l8.9,23.8h-5.8L227.2,33.8z M219.8,29h5.8l-2.9-8.2L219.8,29z"/>
	<path class="st0" d="M252.7,38.7L242.9,23v15.6h-5.3V14.8h6.4l9,14.5V14.8h5.3v23.8L252.7,38.7L252.7,38.7z"/>
	<path class="st0" d="M268.6,31.2h-3.7l-1.1-16.4h6.1L268.6,31.2z M264.6,34c0.6-0.6,1.2-0.9,2-0.9c0.8,0,1.5,0.3,2,0.9
		c0.6,0.6,0.9,1.2,0.9,2s-0.3,1.5-0.9,2c-0.6,0.6-1.2,0.9-2,0.9c-0.8,0-1.5-0.3-2-0.9s-0.8-1.2-0.8-2C263.8,35.3,264,34.6,264.6,34z
		"/>
</g>
</svg>
