<?xml version="1.0" encoding="utf-8"?>
<!-- Generator: Adobe Illustrator 19.2.1, SVG Export Plug-In . SVG Version: 6.00 Build 0)  -->
<svg version="1.1" id="Layer_1" xmlns="http://www.w3.org/2000/svg" xmlns:xlink="http://www.w3.org/1999/xlink" x="0px" y="0px"
	 width="300px" height="90px" viewBox="0 0 300 90" style="enable-background:new 0 0 300 90;" xml:space="preserve">
<style type="text/css">
	.st0{fill:#FFFFFF;}
</style>
<g>
	<path class="st0" d="M48.2,36.7c-2,1.8-4.5,2.6-7.5,2.6c-3,0-5.5-0.9-7.5-2.6c-2-1.8-2.9-4.2-2.9-7.4V12.5h5.9v16.3
		c0,1.6,0.4,2.7,1.2,3.6c0.8,0.8,1.9,1.2,3.4,1.2c1.4,0,2.5-0.4,3.4-1.2c0.8-0.8,1.2-2,1.2-3.6V12.5h5.9v16.8
		C51.1,32.4,50.1,34.9,48.2,36.7z M34.1,6.1c0.5-0.6,1.2-0.9,2.1-0.9c0.8,0,1.5,0.3,2.1,0.9c0.6,0.6,0.9,1.3,0.9,2.1
		c0,0.8-0.3,1.5-0.9,2c-0.6,0.5-1.3,0.8-2.1,0.8c-0.8,0-1.5-0.3-2.1-0.8c-0.5-0.5-0.8-1.2-0.8-2C33.3,7.4,33.6,6.7,34.1,6.1z
		 M43.2,6.1c0.5-0.6,1.2-0.9,2-0.9c0.8,0,1.5,0.3,2.1,0.9c0.6,0.6,0.9,1.3,0.9,2.1c0,0.8-0.3,1.5-0.9,2c-0.6,0.5-1.3,0.8-2.1,0.8
		c-0.8,0-1.5-0.3-2-0.8c-0.5-0.5-0.8-1.2-0.8-2C42.4,7.4,42.6,6.7,43.2,6.1z"/>
	<path class="st0" d="M73.2,38.7L62.4,21.5v17.3h-5.8V12.5h7.1l9.9,16v-16h5.9v26.3H73.2z"/>
	<path class="st0" d="M97.9,20.4c-0.1-0.8-0.5-1.6-1.2-2.3c-0.7-0.7-1.7-1-3.1-1c-1.1,0-1.9,0.3-2.6,0.8c-0.7,0.6-1,1.2-1,2
		c0,1.4,0.9,2.2,2.6,2.5l3.5,0.7c2.4,0.4,4.3,1.4,5.6,2.8c1.3,1.4,2,3.1,2,5.1c0,2.2-0.9,4.1-2.6,5.8c-1.8,1.7-4.1,2.5-7.1,2.5
		c-3.3,0-5.9-0.9-7.7-2.6s-2.8-3.7-3.1-5.8l5.4-1.3c0.1,1.3,0.6,2.4,1.5,3.2c0.9,0.8,2.2,1.3,3.9,1.3c1.1,0,2-0.3,2.7-0.8
		c0.7-0.5,1-1.2,1-2c0-0.7-0.2-1.2-0.7-1.7c-0.5-0.5-1.2-0.8-2.1-0.9l-3.6-0.7c-2.2-0.4-4-1.3-5.2-2.7c-1.3-1.4-1.9-3-1.9-5
		c0-2.4,0.9-4.4,2.8-6s4.1-2.4,6.6-2.4c1.6,0,2.9,0.2,4.2,0.6c1.2,0.4,2.2,1,2.9,1.7c0.7,0.7,1.3,1.5,1.7,2.2
		c0.4,0.8,0.7,1.6,0.8,2.4L97.9,20.4z"/>
	<path class="st0" d="M107.6,38.7V12.5h5.9v26.3H107.6z"/>
	<path class="st0" d="M116.7,12.5h6.9l5.4,9.7l5.4-9.7h6.5l-9.2,15.3v11h-5.9v-11L116.7,12.5z"/>
	<path class="st0" d="M142,12.5h6.9l5.4,9.7l5.4-9.7h6.5L157,27.8v11h-5.9v-11L142,12.5z"/>
	<path class="st0" d="M191.2,15.7c2.6,2.5,4,5.8,4,9.9c0,4-1.3,7.3-4,9.8c-2.6,2.5-5.9,3.8-9.6,3.8c-3.8,0-7-1.3-9.7-3.8
		c-2.6-2.5-4-5.8-4-9.8c0-0.8,0.1-1.6,0.2-2.6h20.6c-0.3-1.4-1-2.5-2-3.4c-1.5-1.4-3.2-2.1-5.3-2.1c-2,0-3.8,0.7-5.3,2.1
		c-0.3,0.3-0.7,0.6-0.9,1l-5.7-2.1c0.6-1.1,1.3-2.1,2.3-2.9c2.6-2.5,5.9-3.8,9.7-3.8C185.3,11.9,188.5,13.2,191.2,15.7z M181.5,33.5
		c2,0,3.8-0.7,5.3-2c0.8-0.7,1.4-1.7,1.8-2.9h-14.2c0.4,1.2,1,2.1,1.9,2.9C177.7,32.8,179.5,33.5,181.5,33.5z"/>
	<path class="st0" d="M211.1,18.1v20.7h-5.9V18.1h-8.1v-5.6h22v5.6H211.1z"/>
	<path class="st0" d="M222.7,38.7V12.5h9.5c4,0,7.2,1.2,9.6,3.6c2.4,2.4,3.6,5.6,3.6,9.6c0,4-1.2,7.2-3.6,9.6
		c-2.4,2.4-5.6,3.5-9.6,3.5H222.7z M232,33.2c2.1,0,3.9-0.6,5.3-1.9s2.1-3.2,2.1-5.7c0-2.5-0.7-4.4-2.1-5.7
		c-1.4-1.3-3.1-1.9-5.3-1.9h-3.4v15.2H232z"/>
	<path class="st0" d="M271.4,15.7c2.6,2.5,4,5.8,4,9.9c0,4-1.3,7.3-4,9.8c-2.6,2.5-5.9,3.8-9.6,3.8c-3.8,0-7-1.3-9.7-3.8
		c-2.6-2.5-4-5.8-4-9.8c0-0.8,0.1-1.6,0.2-2.6H269c-0.3-1.4-1-2.5-2-3.4c-1.5-1.4-3.2-2.1-5.3-2.1c-2,0-3.8,0.7-5.3,2.1
		c-0.3,0.3-0.7,0.6-0.9,1l-5.7-2.1c0.6-1.1,1.3-2.1,2.3-2.9c2.6-2.5,5.9-3.8,9.7-3.8C265.5,11.9,268.7,13.2,271.4,15.7z M261.7,33.5
		c2,0,3.8-0.7,5.3-2c0.8-0.7,1.4-1.7,1.8-2.9h-14.2c0.4,1.2,1,2.1,1.9,2.9C258,32.8,259.7,33.5,261.7,33.5z"/>
</g>
<g>
	<path class="st0" d="M80.5,79V52.7h5.9V79H80.5z"/>
	<path class="st0" d="M108.7,79L97.9,61.7V79H92V52.7h7.1l9.9,16v-16h5.9V79H108.7z"/>
	<path class="st0" d="M129.3,68.6l-3,3.3v7h-5.9V52.7h5.9v11l9.6-11h7.7l-10.2,11.4L143.7,79h-7.3L129.3,68.6z"/>
	<path class="st0" d="M146.9,79V52.7h5.9V79H146.9z"/>
	<path class="st0" d="M170,79.3l-0.1,0.1l-0.1,0l-0.9,1.4c1.1,0,2,0.3,2.6,1c0.7,0.6,1,1.4,1,2.3c0,0.9-0.4,1.8-1.2,2.5
		c-0.8,0.7-2,1.1-3.7,1.1c-1,0-1.9-0.2-2.7-0.6c-0.8-0.4-1.5-0.9-1.9-1.4l1.7-2.2c0.9,0.9,1.9,1.4,2.8,1.4c0.9,0,1.4-0.3,1.4-1
		c0-0.2-0.1-0.5-0.4-0.6c-0.2-0.2-0.5-0.3-0.9-0.3s-0.7,0-1,0.1l-1.4-1.8l1.1-1.8c-2.8-0.1-5-1-6.6-2.5c-1.8-1.7-2.9-3.7-3.1-5.9
		l5.4-1.3c0.1,1.3,0.6,2.4,1.6,3.3c0.9,0.8,2.2,1.3,3.9,1.3c1.1,0,2-0.2,2.7-0.7c0.7-0.5,1-1.2,1-2c0-0.7-0.2-1.2-0.7-1.7
		c-0.5-0.5-1.2-0.8-2.1-1l-3.6-0.7c-2.2-0.4-4-1.3-5.2-2.7c-1.3-1.4-1.9-3-1.9-5c0-2.4,0.9-4.4,2.8-6s4.1-2.4,6.6-2.4
		c1.6,0,3,0.2,4.2,0.7c1.2,0.4,2.2,1,2.9,1.7c0.7,0.7,1.3,1.5,1.7,2.2c0.4,0.8,0.7,1.6,0.8,2.4l-5.3,1.5c-0.1-0.8-0.5-1.6-1.2-2.3
		c-0.7-0.7-1.7-1-3.1-1c-1.1,0-1.9,0.3-2.6,0.8c-0.7,0.5-1,1.2-1,2c0,1.4,0.9,2.2,2.6,2.5l3.5,0.7c2.4,0.4,4.3,1.4,5.6,2.8
		c1.3,1.4,2,3.1,2,5c0,2.2-0.9,4.1-2.6,5.8C173.3,78.2,171.8,78.9,170,79.3z"/>
	<path class="st0" d="M196.8,73.6h-10.1l-1.9,5.3h-6.1l9.9-26.3h6.8L205,79h-6.4L196.8,73.6z M188.5,68.3h6.4l-3.1-9.1L188.5,68.3z"
		/>
	<path class="st0" d="M208.2,79V52.7h16.9v5.6h-11.1v5.6h9.7v5.3h-9.7V79H208.2z"/>
</g>
</svg>
