<?xml version="1.0" encoding="utf-8"?>
<!-- Generator: Adobe Illustrator 19.2.1, SVG Export Plug-In . SVG Version: 6.00 Build 0)  -->
<svg version="1.1" id="Layer_1" xmlns="http://www.w3.org/2000/svg" xmlns:xlink="http://www.w3.org/1999/xlink" x="0px" y="0px"
	 width="300px" height="35px" viewBox="0 0 300 35" style="enable-background:new 0 0 300 35;" xml:space="preserve">
<style type="text/css">
	.st0{fill:#FFFFFF;}
</style>
<g>
	<path class="st0" d="M38.9,10.3c1.9-1.8,4.3-2.8,7-2.8c2.8,0,5.1,0.9,7,2.8c1.9,1.8,2.9,4.2,2.9,7.2c0,2.9-1,5.3-2.9,7.2
		c-1.9,1.8-4.3,2.8-7,2.8c-2.8,0-5.1-0.9-7-2.8C37,22.8,36,20.5,36,17.5C36,14.6,37,12.2,38.9,10.3z M45.9,11.7
		c-1.5,0-2.8,0.5-3.9,1.5s-1.7,2.4-1.7,4.3c0,1.9,0.6,3.3,1.7,4.3c1.1,1,2.4,1.5,3.9,1.5c1.5,0,2.8-0.5,3.8-1.5
		c1.1-1,1.6-2.4,1.6-4.3c0-1.9-0.5-3.3-1.6-4.3C48.7,12.2,47.4,11.7,45.9,11.7z"/>
	<path class="st0" d="M64.1,19.9h-1.5V27h-4.2V8h7.6c1.8,0,3.3,0.6,4.5,1.7c1.1,1.1,1.7,2.6,1.7,4.3c0,1.3-0.3,2.4-1,3.3
		c-0.7,0.9-1.6,1.6-2.8,2l3.9,7.7h-4.7L64.1,19.9z M65.1,16.3c0.9,0,1.5-0.2,2-0.6c0.5-0.4,0.7-1,0.7-1.7c0-0.7-0.2-1.3-0.7-1.7
		c-0.5-0.4-1.1-0.6-2-0.6h-2.5v4.6H65.1z"/>
	<path class="st0" d="M81.9,8c1.8,0,3.3,0.5,4.4,1.4c1.1,1,1.6,2.2,1.6,3.7c0,1-0.3,1.8-0.8,2.6c-0.5,0.8-1.2,1.3-2,1.5
		c0.9,0.2,1.7,0.7,2.4,1.5c0.7,0.8,1,1.8,1,2.9c0,1.6-0.6,2.9-1.7,3.9c-1.1,1-2.5,1.5-4.3,1.5h-7.7V8H81.9z M81.2,15.6
		c0.8,0,1.3-0.2,1.8-0.6c0.4-0.4,0.7-0.9,0.7-1.5c0-0.6-0.2-1.1-0.6-1.5c-0.4-0.4-1-0.6-1.9-0.6h-2.3v4.1H81.2z M81.6,23.6
		c0.8,0,1.5-0.2,1.9-0.6c0.5-0.4,0.7-0.9,0.7-1.6c0-0.7-0.2-1.2-0.7-1.6c-0.5-0.4-1.1-0.6-1.9-0.6h-2.7v4.5H81.6z"/>
	<path class="st0" d="M91.1,27V8h4.3V27H91.1z"/>
	<path class="st0" d="M107.3,12v15H103V12h-5.9V8h16V12H107.3z"/>
	<path class="st0" d="M112.4,19.4v-3.7h8.1v3.7H112.4z"/>
	<path class="st0" d="M127.9,20.2V27h-4.2V8h7.2c1.9,0,3.5,0.6,4.7,1.7c1.2,1.1,1.8,2.6,1.8,4.4c0,1.8-0.6,3.3-1.8,4.4
		c-1.2,1.1-2.8,1.7-4.7,1.7H127.9z M130.4,16.5c0.8,0,1.5-0.2,2-0.7c0.5-0.4,0.8-1,0.8-1.8c0-0.8-0.2-1.3-0.7-1.8
		c-0.5-0.4-1.2-0.7-2-0.7h-2.5v4.9H130.4z"/>
	<path class="st0" d="M145.1,19.9h-1.5V27h-4.2V8h7.6c1.8,0,3.3,0.6,4.5,1.7c1.1,1.1,1.7,2.6,1.7,4.3c0,1.3-0.3,2.4-1,3.3
		c-0.7,0.9-1.6,1.6-2.8,2l3.9,7.7h-4.7L145.1,19.9z M146.1,16.3c0.9,0,1.5-0.2,2-0.6c0.5-0.4,0.7-1,0.7-1.7c0-0.7-0.2-1.3-0.7-1.7
		c-0.5-0.4-1.1-0.6-2-0.6h-2.5v4.6H146.1z"/>
	<path class="st0" d="M157.3,10.3c1.9-1.8,4.3-2.8,7-2.8c2.8,0,5.1,0.9,7,2.8c1.9,1.8,2.9,4.2,2.9,7.2c0,2.9-1,5.3-2.9,7.2
		c-1.9,1.8-4.3,2.8-7,2.8c-2.8,0-5.1-0.9-7-2.8c-1.9-1.8-2.9-4.2-2.9-7.2C154.4,14.6,155.4,12.2,157.3,10.3z M164.4,11.7
		c-1.5,0-2.8,0.5-3.9,1.5c-1.1,1-1.7,2.4-1.7,4.3c0,1.9,0.6,3.3,1.7,4.3c1.1,1,2.4,1.5,3.9,1.5c1.5,0,2.8-0.5,3.8-1.5
		c1.1-1,1.6-2.4,1.6-4.3c0-1.9-0.5-3.3-1.6-4.3C167.1,12.2,165.8,11.7,164.4,11.7z"/>
	<path class="st0" d="M194.2,27V14.4l-5,12.6h-3.4l-5-12.5V27h-4V8h5.5l5.2,12.9l5-12.9h5.8V27H194.2z"/>
	<path class="st0" d="M203.9,10.3c1.9-1.8,4.3-2.8,7-2.8c2.8,0,5.1,0.9,7,2.8c1.9,1.8,2.9,4.2,2.9,7.2c0,2.9-1,5.3-2.9,7.2
		c-1.9,1.8-4.3,2.8-7,2.8c-2.8,0-5.1-0.9-7-2.8c-1.9-1.8-2.9-4.2-2.9-7.2C201,14.6,201.9,12.2,203.9,10.3z M210.9,11.7
		c-1.5,0-2.8,0.5-3.9,1.5s-1.7,2.4-1.7,4.3c0,1.9,0.6,3.3,1.7,4.3c1.1,1,2.4,1.5,3.9,1.5c1.5,0,2.8-0.5,3.8-1.5
		c1.1-1,1.6-2.4,1.6-4.3c0-1.9-0.5-3.3-1.6-4.3C213.7,12.2,212.4,11.7,210.9,11.7z"/>
	<path class="st0" d="M226.8,26.4c-0.5,0.6-1.2,0.8-1.9,0.8c-0.8,0-1.4-0.3-1.9-0.8c-0.5-0.5-0.8-1.2-0.8-1.9c0-0.8,0.3-1.4,0.8-1.9
		c0.5-0.5,1.2-0.8,1.9-0.8c0.8,0,1.4,0.3,1.9,0.8c0.5,0.5,0.8,1.2,0.8,1.9C227.6,25.2,227.4,25.9,226.8,26.4z"/>
	<path class="st0" d="M237.3,19.5l-2.2,2.4V27h-4.2V8h4.2v8l7-8h5.6l-7.4,8.3l7.4,10.8h-5.3L237.3,19.5z"/>
	<path class="st0" d="M248.9,27v-4.1l9.2-10.9h-8.8V8h14.6v3.9L254.5,23h9.5V27H248.9z"/>
</g>
</svg>
