<?xml version="1.0" encoding="utf-8"?>
<!-- Generator: Adobe Illustrator 19.2.1, SVG Export Plug-In . SVG Version: 6.00 Build 0)  -->
<svg version="1.1" id="Layer_1" xmlns="http://www.w3.org/2000/svg" xmlns:xlink="http://www.w3.org/1999/xlink" x="0px" y="0px"
	 width="300px" height="108.7px" viewBox="0 0 300 108.7" style="enable-background:new 0 0 300 108.7;" xml:space="preserve">
<style type="text/css">
	.st0{fill:#FFFFFF;}
</style>
<g>
	<path class="st0" d="M70.3,16.1c0,2.7,0.5,4.8,1.4,6.1c0.9,1.4,2.4,2.3,4.4,2.7c2,0.4,3.6,1,4.7,1.7s2.1,1.6,2.8,2.7l-3,2.1
		c-0.7-1-1.6-1.8-2.7-2.3s-2.4-0.8-3.9-0.8c-0.9,0-1.7,0.1-2.6,0.4s-1.8,0.6-2.6,1l-1.6-3.3c0.7-0.4,1.6-0.8,2.7-1.1
		c-1.3-0.8-2.3-2-3-3.7c-0.7-1.6-1.1-3.6-1.1-5.8c0-2.6,0.6-4.6,1.9-6c1.2-1.5,3-2.2,5.2-2.2c2.3,0,4,0.8,5,2.5H78
		c0.6-0.9,1.3-1.5,2.1-1.9c0.8-0.4,1.8-0.6,2.9-0.6c2.2,0,4,0.8,5.3,2.3s2,3.6,2,6.2s-0.7,4.7-2,6.2s-3,2.3-5.2,2.3
		c-2.4,0-4.3-0.7-5.5-2.1s-1.9-3.5-1.9-6.3c0-1.7-0.2-3-0.6-3.7s-1.1-1.1-2-1.1c-0.8,0-1.5,0.4-2,1.2C70.6,13.3,70.3,14.5,70.3,16.1
		z M80,16.1c0,1.7,0.2,3,0.6,3.7s1.1,1.2,2.1,1.2s1.7-0.4,2.2-1.2c0.5-0.8,0.7-2,0.7-3.7c0-3.2-0.9-4.8-2.8-4.8
		c-1,0-1.6,0.4-2.1,1.2S80,14.5,80,16.1z"/>
	<path class="st0" d="M97.3,17.6c0,1.1,0.3,2,0.8,2.5c0.5,0.6,1.4,0.8,2.5,0.8c1,0,1.8-0.3,2.3-0.8c0.6-0.5,0.8-1.3,0.8-2.2
		c0-0.7-0.2-1.3-0.5-1.8s-1-1.1-1.9-1.7c-1.3-0.9-2.2-1.8-2.6-2.7C98.2,10.8,98,9.5,98,7.9h4.4c0,0.7,0.1,1.2,0.2,1.5
		c0.1,0.4,0.3,0.7,0.6,1.1s0.7,0.7,1.2,1c1.3,0.8,2.3,1.8,2.9,2.8s0.9,2.2,0.9,3.5c0,2.1-0.7,3.7-2.1,4.9c-1.4,1.2-3.3,1.8-5.7,1.8
		c-2.6,0-4.5-0.6-5.8-1.8c-1.3-1.2-2-2.9-2-5.1c0-0.7,0.2-1.5,0.5-2.4h4.6c-0.2,0.4-0.3,0.8-0.4,1.3C97.3,17,97.3,17.3,97.3,17.6z"
		/>
	<path class="st0" d="M126,5.1c-0.9,0-1.6,0.1-1.9,0.4c-0.4,0.3-0.6,0.7-0.6,1.2c0,0.2,0.1,0.5,0.3,0.9h-3.9
		c-0.2-0.5-0.3-0.9-0.3-1.4c0-1.5,0.6-2.7,1.7-3.5s2.7-1.2,4.8-1.2c2.8,0,4.8,1,6.3,2.9c1.4,1.9,2.1,4.8,2.1,8.6c0,4-0.6,7-1.9,8.9
		c-1.3,1.9-3.3,2.8-6.1,2.8c-2.4,0-4.3-0.7-5.7-2.1c-1.4-1.4-2.1-3.4-2.1-6c0-1.6,0.3-3,0.9-4.2s1.5-2.2,2.6-2.8
		c1.1-0.7,2.3-1,3.7-1c0.9,0,1.6,0.1,2.2,0.3c0.6,0.2,1.1,0.5,1.6,0.9h0.1C129.4,6.6,128.2,5.1,126,5.1z M129.9,16.5
		c0-1.5-0.3-2.6-0.8-3.4c-0.5-0.7-1.4-1.1-2.6-1.1s-2.1,0.4-2.6,1.1c-0.5,0.8-0.8,1.9-0.8,3.4s0.3,2.6,0.8,3.4s1.4,1.1,2.6,1.1
		c1.1,0,1.9-0.4,2.5-1.2S129.9,17.9,129.9,16.5z"/>
	<path class="st0" d="M141.6,17.6c0,1.1,0.3,2,0.8,2.5c0.5,0.6,1.4,0.8,2.5,0.8c1,0,1.8-0.3,2.3-0.8c0.6-0.5,0.8-1.3,0.8-2.2
		c0-0.7-0.2-1.3-0.5-1.8s-1-1.1-1.9-1.7c-1.3-0.9-2.2-1.8-2.6-2.7c-0.5-0.9-0.7-2.2-0.7-3.8h4.4c0,0.7,0.1,1.2,0.2,1.5
		c0.1,0.4,0.3,0.7,0.6,1.1s0.7,0.7,1.2,1c1.3,0.8,2.3,1.8,2.9,2.8s0.9,2.2,0.9,3.5c0,2.1-0.7,3.7-2.1,4.9c-1.4,1.2-3.3,1.8-5.7,1.8
		c-2.6,0-4.5-0.6-5.8-1.8c-1.3-1.2-2-2.9-2-5.1c0-0.7,0.2-1.5,0.5-2.4h4.6c-0.2,0.4-0.3,0.8-0.4,1.3C141.6,17,141.6,17.3,141.6,17.6
		z"/>
	<path class="st0" d="M171,23c0,2.7-0.7,4.7-2.1,6.2c-1.4,1.5-3.3,2.2-5.8,2.2c-1.6,0-2.9-0.3-4.1-1c-1.2-0.7-2.1-1.7-2.8-2.9
		c-0.6-1.3-1-2.8-1-4.5c0-2.7,0.7-4.7,2.1-6.2s3.3-2.2,5.9-2.2h0.7c0.4-0.7,0.5-1.3,0.5-2.1c0-0.6-0.1-1-0.4-1.3
		c-0.3-0.3-0.7-0.4-1.1-0.4c-1,0-1.5,0.5-1.5,1.5c0,0.2,0,0.5,0.1,0.7H158c-0.1-0.3-0.1-0.7-0.1-1c0-1.4,0.4-2.5,1.3-3.2
		c0.9-0.7,2.1-1.1,3.7-1.1c1.6,0,2.9,0.4,3.8,1.3c0.9,0.8,1.4,2,1.4,3.5c0,1.1-0.3,2.1-0.9,3.1c1.2,0.7,2.2,1.6,2.9,2.9
		C170.6,19.7,171,21.2,171,23z M159.7,23c0,1.6,0.3,2.8,0.8,3.7c0.5,0.8,1.4,1.2,2.6,1.2c1.2,0,2-0.4,2.6-1.2s0.8-2,0.8-3.7
		c0-1.6-0.3-2.8-0.8-3.6c-0.5-0.8-1.4-1.2-2.6-1.2c-1.2,0-2,0.4-2.6,1.2C160,20.1,159.7,21.4,159.7,23z"/>
	<path class="st0" d="M178.1,17.6c0,1.1,0.3,2,0.8,2.5c0.5,0.6,1.4,0.8,2.5,0.8c1,0,1.8-0.3,2.3-0.8c0.6-0.5,0.8-1.3,0.8-2.2
		c0-0.7-0.2-1.3-0.5-1.8s-1-1.1-1.9-1.7c-1.3-0.9-2.2-1.8-2.6-2.7c-0.5-0.9-0.7-2.2-0.7-3.8h4.4c0,0.7,0.1,1.2,0.2,1.5
		c0.1,0.4,0.3,0.7,0.6,1.1s0.7,0.7,1.2,1c1.3,0.8,2.3,1.8,2.9,2.8s0.9,2.2,0.9,3.5c0,2.1-0.7,3.7-2.1,4.9c-1.4,1.2-3.3,1.8-5.7,1.8
		c-2.6,0-4.5-0.6-5.8-1.8c-1.3-1.2-2-2.9-2-5.1c0-0.7,0.2-1.5,0.5-2.4h4.6c-0.2,0.4-0.3,0.8-0.4,1.3C178.1,17,178.1,17.3,178.1,17.6
		z"/>
	<path class="st0" d="M198.9,7.7c1.3,0,2.3,0.2,3.1,0.6c0.8,0.4,1.5,1,2,1.9h0.1c0.9-1.7,2.5-2.5,4.9-2.5c2.2,0,3.9,0.7,5.2,2.2
		s1.9,3.5,1.9,6c0,1.5-0.2,2.9-0.5,4.2c-0.3,1.2-0.8,2.6-1.6,4.2h-4.6c1.4-2.5,2.1-5.3,2.1-8.2c0-1.5-0.3-2.7-0.8-3.5
		s-1.2-1.3-2.1-1.3c-0.8,0-1.4,0.3-1.8,0.9c-0.4,0.6-0.6,1.6-0.6,3v3h-4.4v-3c0-1.4-0.2-2.4-0.6-3c-0.4-0.6-1-0.9-1.8-0.9
		c-0.9,0-1.6,0.4-2.1,1.3s-0.8,2-0.8,3.5c0,1.4,0.2,2.7,0.5,4s0.9,2.7,1.6,4.3H194c-0.8-1.6-1.3-3-1.6-4.3S192,17.5,192,16
		c0-2.5,0.3-4.6,1-6.3s1.6-3,3-4.1c1.3-1.1,3.1-2,5.2-2.7s4.7-1.1,7.7-1.4l0.5,3.5c-2.2,0.2-4.2,0.5-5.9,0.9s-3.2,1-4.5,1.8v0H198.9
		z"/>
	<path class="st0" d="M227.2,7.7c2.4,0,4.3,0.7,5.7,2.2s2.1,3.5,2.1,6c0,1.5-0.2,2.9-0.5,4.2c-0.3,1.2-0.8,2.6-1.6,4.2h-4.6
		c1.4-2.5,2.1-5.3,2.1-8.2c0-1.5-0.3-2.7-0.9-3.5c-0.6-0.8-1.4-1.3-2.5-1.3c-1,0-1.9,0.4-2.4,1.3c-0.6,0.8-0.9,2-0.9,3.5
		c0,1.4,0.2,2.7,0.5,4s0.9,2.7,1.6,4.3h-4.6c-0.8-1.6-1.3-3-1.6-4.3s-0.4-2.6-0.4-4.1c0-2.5,0.7-4.5,2.2-6S224.8,7.7,227.2,7.7z"/>
	<path class="st0" d="M92.7,47.7c1.2,0.4,2.2,1.1,2.9,2c0.7,0.9,1,2,1,3.2c0,2-0.7,3.6-2.1,4.8s-3.4,1.7-5.9,1.7s-4.4-0.5-5.8-1.6
		c-1.4-1-2.1-2.5-2.1-4.3c0-0.8,0.1-1.5,0.4-2.2h4.5c-0.2,0.4-0.3,0.7-0.3,1c-0.1,0.3-0.1,0.6-0.1,1c0,0.9,0.3,1.5,0.9,1.9
		s1.4,0.6,2.5,0.6c2.4,0,3.6-1,3.6-3.1c0-1.1-0.3-2-1-2.5s-1.8-0.8-3.3-0.8h-2v-3.6h2c1.2,0,2.1-0.2,2.8-0.7s1-1.1,1-1.9
		c0-1.6-1-2.4-2.9-2.4c-1.3,0-2.2,0-2.8-0.1c-0.6-0.1-1.1-0.2-1.6-0.4s-1-0.5-1.5-0.8l1.7-3.3c0.3,0.3,0.6,0.5,1,0.6
		c0.3,0.2,0.7,0.3,1.1,0.3c0.4,0.1,1.1,0.1,2.1,0.1c2.4,0,4.2,0.5,5.5,1.4c1.3,1,1.9,2.4,1.9,4.2c0,1.1-0.3,2.1-0.9,2.8
		C94.7,46.6,93.8,47.2,92.7,47.7z"/>
	<path class="st0" d="M106.4,42.5c1.3,0,2.3,0.2,3.1,0.6s1.5,1,2,1.9h0.1c0.9-1.7,2.5-2.5,4.9-2.5c2.2,0,3.9,0.7,5.2,2.2
		s1.9,3.5,1.9,6c0,1.5-0.2,2.9-0.5,4.2c-0.3,1.2-0.8,2.6-1.6,4.2H117c1.4-2.5,2.1-5.3,2.1-8.2c0-1.5-0.3-2.7-0.8-3.5
		s-1.2-1.3-2.1-1.3c-0.8,0-1.4,0.3-1.8,0.9s-0.6,1.6-0.6,3v3h-4.4v-3c0-1.4-0.2-2.4-0.6-3s-1-0.9-1.8-0.9c-0.9,0-1.6,0.4-2.1,1.3
		s-0.8,2-0.8,3.5c0,1.4,0.2,2.7,0.5,4s0.9,2.7,1.6,4.3h-4.6c-0.8-1.6-1.3-3-1.6-4.3c-0.3-1.3-0.4-2.6-0.4-4.1c0-2.5,0.3-4.6,1-6.3
		c0.6-1.6,1.6-3,3-4.1c1.3-1.1,3.1-2,5.2-2.7s4.7-1.1,7.7-1.4l0.5,3.5c-2.2,0.2-4.2,0.5-5.9,0.9c-1.7,0.4-3.2,1-4.5,1.8v0H106.4z"/>
	<path class="st0" d="M134.7,42.5c2.4,0,4.3,0.7,5.7,2.2s2.1,3.5,2.1,6c0,1.5-0.2,2.9-0.5,4.2c-0.3,1.2-0.8,2.6-1.6,4.2h-4.6
		c1.4-2.5,2.1-5.3,2.1-8.2c0-1.5-0.3-2.7-0.9-3.5s-1.4-1.3-2.5-1.3s-1.9,0.4-2.4,1.3c-0.6,0.8-0.9,2-0.9,3.5c0,1.4,0.2,2.7,0.5,4
		s0.9,2.7,1.6,4.3h-4.6c-0.8-1.6-1.3-3-1.6-4.3c-0.3-1.3-0.4-2.6-0.4-4.1c0-2.5,0.7-4.5,2.2-6C130.4,43.2,132.3,42.5,134.7,42.5z"/>
	<path class="st0" d="M163,50.9c0,2.7-0.7,4.7-2.1,6.2s-3.3,2.2-5.8,2.2c-1.6,0-2.9-0.3-4.1-1c-1.2-0.7-2.1-1.7-2.8-2.9
		c-0.6-1.3-1-2.8-1-4.5c0-1.4,0.2-2.5,0.5-3.5c-1.2-0.3-2.2-1-2.8-1.9c-0.7-1-1-2.1-1-3.6c0-1.8,0.5-3.2,1.5-4.3s2.3-1.6,4-1.6
		s3,0.5,4,1.6s1.5,2.5,1.5,4.2v0.3v0.3h0.2c1.6,0,2.9,0.3,4.1,1c1.2,0.7,2.1,1.7,2.7,2.9C162.7,47.7,163,49.2,163,50.9z M147.7,42
		c0,1.7,0.6,2.6,1.7,2.6c0.6,0,1-0.2,1.3-0.6c0.3-0.4,0.4-1.1,0.4-2s-0.1-1.5-0.4-1.9c-0.3-0.4-0.7-0.6-1.3-0.6s-1,0.2-1.3,0.6
		C147.9,40.4,147.7,41.1,147.7,42z M151.7,50.9c0,1.6,0.3,2.8,0.8,3.7c0.5,0.8,1.4,1.2,2.6,1.2c1.2,0,2-0.4,2.5-1.2s0.8-2,0.8-3.7
		c0-1.6-0.3-2.8-0.8-3.6s-1.4-1.2-2.6-1.2s-2,0.4-2.6,1.2C152,48.1,151.7,49.3,151.7,50.9z"/>
	<path class="st0" d="M166.6,51.6c-0.2-0.7-0.3-1.4-0.3-2.1c0-2.2,0.7-3.9,2-5.1c1.4-1.3,3.2-1.9,5.5-1.9c2.5,0,4.5,0.7,5.8,2.1
		c1.3,1.4,2,3.6,2,6.5v6.7c0,2.7-0.7,4.8-2.1,6.3c-1.4,1.5-3.4,2.2-6,2.2s-4.6-0.6-5.9-1.8c-1.3-1.2-2-2.9-2-5.2
		c0-1.1,0.2-2.1,0.7-3.2h4.5c-0.2,0.4-0.3,0.9-0.5,1.5c-0.1,0.6-0.2,1.1-0.2,1.6c0,1.1,0.3,2,0.8,2.6s1.4,0.9,2.6,0.9
		c1.3,0,2.3-0.4,2.8-1.3c0.6-0.9,0.8-2.3,0.8-4.1v-6c0-1.8-0.2-3.1-0.7-3.9s-1.3-1.2-2.6-1.2c-1,0-1.8,0.3-2.3,0.9
		c-0.5,0.6-0.7,1.5-0.7,2.7c0,0.6,0.1,1.2,0.3,2L166.6,51.6z"/>
	<path class="st0" d="M201,50.9c0,2.7-0.7,4.7-2.1,6.2c-1.4,1.5-3.3,2.2-5.8,2.2c-1.6,0-2.9-0.3-4.1-1c-1.2-0.7-2.1-1.7-2.8-2.9
		c-0.6-1.3-1-2.8-1-4.5c0-2.3,0.6-4.3,1.7-5.7c1.1-1.5,2.7-2.3,4.8-2.6c0.2-0.2,0.2-0.5,0.2-0.8c0-0.6-0.4-0.8-1.3-0.8
		c-1.1,0-1.8-0.4-2.3-1.1c-0.5-0.7-0.7-1.9-0.7-3.5h4.1c0,0.6,0.1,1,0.3,1.1s0.6,0.3,1.2,0.3c0.7,0,1.3,0.2,1.8,0.7s0.7,1.1,0.7,1.9
		c0,0.9-0.2,1.7-0.5,2.3c1.8,0.4,3.2,1.3,4.3,2.8C200.5,46.9,201,48.7,201,50.9z M189.8,50.9c0,1.6,0.3,2.8,0.8,3.7
		c0.5,0.8,1.4,1.2,2.6,1.2c1.2,0,2-0.4,2.6-1.2c0.5-0.8,0.8-2,0.8-3.7c0-1.6-0.3-2.8-0.8-3.6s-1.4-1.2-2.6-1.2c-1.2,0-2,0.4-2.6,1.2
		C190.1,48.1,189.8,49.3,189.8,50.9z"/>
	<path class="st0" d="M211.9,42.5c2.4,0,4.3,0.7,5.7,2.2s2.1,3.5,2.1,6c0,1.5-0.2,2.9-0.5,4.2c-0.3,1.2-0.8,2.6-1.6,4.2H213
		c1.4-2.5,2.1-5.3,2.1-8.2c0-1.5-0.3-2.7-0.9-3.5c-0.6-0.8-1.4-1.3-2.5-1.3c-1,0-1.9,0.4-2.4,1.3c-0.6,0.8-0.9,2-0.9,3.5
		c0,1.4,0.2,2.7,0.5,4s0.9,2.7,1.6,4.3H206c-0.8-1.6-1.3-3-1.6-4.3s-0.4-2.6-0.4-4.1c0-2.5,0.7-4.5,2.2-6S209.5,42.5,211.9,42.5z"/>
	<path class="st0" d="M41.7,82.8c0-1.4-0.2-2.4-0.6-3c-0.4-0.6-1-0.9-1.8-0.9c-0.9,0-1.6,0.4-2.1,1.3s-0.8,2-0.8,3.5
		c0,1.4,0.2,2.7,0.5,4s0.9,2.7,1.6,4.3h-4.6c-0.8-1.6-1.3-3-1.6-4.3s-0.4-2.6-0.4-4.1c0-2.5,0.6-4.5,1.9-6s3-2.2,5.2-2.2
		c1.1,0,2.1,0.2,2.9,0.6c0.8,0.4,1.5,1,2,1.9H44c1-1.7,2.6-2.5,4.9-2.5c2.2,0,4,0.7,5.2,2.2c1.3,1.5,1.9,3.5,1.9,6
		c0,1.5-0.2,2.9-0.5,4.2c-0.3,1.2-0.8,2.6-1.6,4.2h-4.6c1.4-2.5,2.1-5.3,2.1-8.2c0-1.5-0.3-2.7-0.8-3.5S49.4,79,48.5,79
		c-0.8,0-1.4,0.3-1.8,0.9s-0.6,1.6-0.6,3v3h-4.4C41.7,85.9,41.7,82.8,41.7,82.8z"/>
	<path class="st0" d="M66.1,75.3c1.3,0,2.3,0.2,3.1,0.6s1.5,1,2,1.9h0.1c0.9-1.7,2.5-2.5,4.9-2.5c2.2,0,3.9,0.7,5.2,2.2
		s1.9,3.5,1.9,6c0,1.5-0.2,2.9-0.5,4.2c-0.3,1.2-0.8,2.6-1.6,4.2h-4.6c1.4-2.5,2.1-5.3,2.1-8.2c0-1.5-0.3-2.7-0.8-3.5
		s-1.2-1.3-2.1-1.3c-0.8,0-1.4,0.3-1.8,0.9s-0.6,1.6-0.6,3v3H69v-3c0-1.4-0.2-2.4-0.6-3s-1-0.9-1.8-0.9c-0.9,0-1.6,0.4-2.1,1.3
		s-0.8,2-0.8,3.5c0,1.4,0.2,2.7,0.5,4s0.9,2.7,1.6,4.3h-4.6c-0.8-1.6-1.3-3-1.6-4.3s-0.4-2.6-0.4-4.1c0-2.5,0.3-4.6,1-6.3
		c0.6-1.6,1.6-3,3-4.1c1.3-1.1,3.1-2,5.2-2.7s4.7-1.1,7.7-1.4l0.5,3.5c-2.2,0.2-4.2,0.5-5.9,0.9C69,73.9,67.5,74.5,66.1,75.3
		L66.1,75.3L66.1,75.3z"/>
	<path class="st0" d="M102.1,83.7c0,2.7-0.7,4.7-2.1,6.2s-3.3,2.2-5.8,2.2c-1.6,0-2.9-0.3-4.1-1s-2.1-1.7-2.8-2.9
		c-0.6-1.3-1-2.8-1-4.5c0-2.3,0.6-4.3,1.7-5.7s2.7-2.3,4.8-2.6c0.2-0.2,0.2-0.5,0.2-0.8c0-0.6-0.4-0.8-1.3-0.8
		c-1.1,0-1.8-0.4-2.3-1.1s-0.7-1.9-0.7-3.5h4.1c0,0.6,0.1,1,0.3,1.1c0.2,0.2,0.6,0.3,1.2,0.3c0.7,0,1.3,0.2,1.8,0.7s0.7,1.1,0.7,1.9
		c0,0.9-0.2,1.7-0.5,2.3c1.8,0.4,3.2,1.3,4.3,2.8C101.5,79.7,102.1,81.5,102.1,83.7z M90.8,83.7c0,1.6,0.3,2.8,0.8,3.7
		c0.5,0.8,1.4,1.2,2.6,1.2s2-0.4,2.6-1.2c0.5-0.8,0.8-2,0.8-3.7c0-1.6-0.3-2.8-0.8-3.6c-0.5-0.8-1.4-1.2-2.6-1.2s-2,0.4-2.6,1.2
		S90.8,82.1,90.8,83.7z"/>
	<path class="st0" d="M112.9,75.3c2.4,0,4.3,0.7,5.7,2.2s2.1,3.5,2.1,6c0,1.5-0.2,2.9-0.5,4.2c-0.3,1.2-0.8,2.6-1.6,4.2H114
		c1.4-2.5,2.1-5.3,2.1-8.2c0-1.5-0.3-2.7-0.9-3.5s-1.4-1.3-2.5-1.3s-1.9,0.4-2.4,1.3c-0.6,0.8-0.9,2-0.9,3.5c0,1.4,0.2,2.7,0.5,4
		s0.9,2.7,1.6,4.3H107c-0.8-1.6-1.3-3-1.6-4.3c-0.3-1.3-0.4-2.6-0.4-4.1c0-2.5,0.7-4.5,2.2-6C108.6,76,110.5,75.3,112.9,75.3z"/>
	<path class="st0" d="M136,69.2v6.1c2.5,0.4,4.4,1.7,5.8,3.8c1.4,2.1,2.1,4.7,2.1,8c0,3.8-0.9,6.8-2.6,8.9s-4.3,3-7.6,3
		c-3.2,0-5.7-1-7.4-3.1c-1.7-2.1-2.6-5-2.6-8.9c0-3.3,0.7-5.9,2.1-8s3.3-3.3,5.8-3.7v-6.1C131.6,69.2,136,69.2,136,69.2z M128.2,87
		c0,2.7,0.5,4.8,1.4,6.3c1,1.5,2.3,2.2,4.1,2.2s3.2-0.7,4.1-2.2c1-1.5,1.4-3.5,1.4-6.3c0-2.3-0.3-4.1-0.8-5.6s-1.4-2.3-2.5-2.6v7.5
		h-4.4v-7.5c-1,0.2-1.9,1.1-2.4,2.6C128.5,82.9,128.2,84.8,128.2,87z"/>
	<path class="st0" d="M156.4,76.3c0,2.8-2.2,4.9-5,4.9s-5-2.2-5-4.9c0-2.7,2.2-4.9,5-4.9C154.3,71.4,156.4,73.6,156.4,76.3z
		 M147.6,76.3c0,2.2,1.6,3.9,3.8,3.9c2.1,0,3.7-1.7,3.7-3.9c0-2.2-1.6-3.9-3.8-3.9C149.3,72.4,147.6,74.2,147.6,76.3z M150.7,78.9
		h-1.1V74c0.4-0.1,1.1-0.1,1.9-0.1c0.9,0,1.3,0.1,1.7,0.4c0.3,0.2,0.5,0.6,0.5,1.1s-0.4,1-1,1.1v0.1c0.5,0.2,0.7,0.5,0.9,1.2
		c0.1,0.7,0.2,1,0.4,1.2h-1.2c-0.1-0.2-0.2-0.6-0.4-1.2c-0.1-0.5-0.4-0.8-1-0.8h-0.5v1.9H150.7z M150.7,76.1h0.5
		c0.6,0,1.1-0.2,1.1-0.7c0-0.4-0.3-0.7-1-0.7c-0.3,0-0.5,0-0.6,0.1V76.1z"/>
	<path class="st0" d="M165.9,82.8v1.9h-7.4v-1.9H165.9z"/>
	<path class="st0" d="M176.3,75.3c2.4,0,4.3,0.7,5.7,2.2s2.1,3.5,2.1,6c0,1.5-0.2,2.9-0.5,4.2c-0.3,1.2-0.8,2.6-1.6,4.2h-4.6
		c1.4-2.5,2.1-5.3,2.1-8.2c0-1.5-0.3-2.7-0.9-3.5c-0.6-0.8-1.4-1.3-2.5-1.3c-1,0-1.9,0.4-2.4,1.3c-0.6,0.8-0.9,2-0.9,3.5
		c0,1.4,0.2,2.7,0.5,4s0.9,2.7,1.6,4.3h-4.6c-0.8-1.6-1.3-3-1.6-4.3s-0.4-2.6-0.4-4.1c0-2.5,0.7-4.5,2.2-6S173.9,75.3,176.3,75.3z"
		/>
	<path class="st0" d="M203.6,83.5c0,5.8-2.7,8.6-8.1,8.6c-2.5,0-4.4-0.6-5.6-1.9c-1.2-1.3-1.9-3.2-1.9-5.8V69.2h4.4v15.4
		c0,1.4,0.3,2.4,0.8,3.1s1.3,0.9,2.4,0.9c1.2,0,2.1-0.4,2.6-1.3s0.8-2.2,0.8-4c0-1.3-0.2-2.6-0.5-3.8c-0.3-1.2-0.9-2.5-1.6-4h4.7
		c0.7,1.4,1.2,2.7,1.5,4S203.6,82.1,203.6,83.5z"/>
	<path class="st0" d="M222.3,90.6c0,2.7-0.7,4.7-2.1,6.2c-1.4,1.5-3.3,2.2-5.8,2.2c-1.6,0-2.9-0.3-4.1-1c-1.2-0.7-2.1-1.7-2.8-2.9
		c-0.6-1.3-1-2.8-1-4.5c0-2.7,0.7-4.7,2.1-6.2s3.3-2.2,5.9-2.2h0.7c0.4-0.7,0.5-1.3,0.5-2.1c0-0.6-0.1-1-0.4-1.3
		c-0.3-0.3-0.7-0.4-1.1-0.4c-1,0-1.5,0.5-1.5,1.5c0,0.2,0,0.5,0.1,0.7h-3.5c-0.1-0.3-0.1-0.7-0.1-1c0-1.4,0.4-2.5,1.3-3.2
		c0.9-0.7,2.1-1.1,3.7-1.1c1.6,0,2.9,0.4,3.8,1.3c0.9,0.8,1.4,2,1.4,3.5c0,1.1-0.3,2.1-0.9,3.1c1.2,0.7,2.2,1.6,2.9,2.9
		C222,87.3,222.3,88.8,222.3,90.6z M211.1,90.6c0,1.6,0.3,2.8,0.8,3.7s1.4,1.2,2.6,1.2c1.2,0,2-0.4,2.6-1.2c0.5-0.8,0.8-2,0.8-3.7
		c0-1.6-0.3-2.8-0.8-3.6s-1.4-1.2-2.6-1.2c-1.2,0-2,0.4-2.6,1.2C211.4,87.7,211.1,88.9,211.1,90.6z"/>
	<path class="st0" d="M229.5,85.2c0,1.1,0.3,2,0.8,2.5c0.5,0.6,1.4,0.8,2.5,0.8c1,0,1.8-0.3,2.3-0.8c0.6-0.5,0.8-1.3,0.8-2.2
		c0-0.7-0.2-1.3-0.5-1.8s-1-1.1-1.9-1.7c-1.3-0.9-2.2-1.8-2.6-2.7c-0.5-0.9-0.7-2.2-0.7-3.8h4.4c0,0.7,0.1,1.2,0.2,1.5
		c0.1,0.4,0.3,0.7,0.6,1.1s0.7,0.7,1.2,1c1.3,0.8,2.3,1.8,2.9,2.8s0.9,2.2,0.9,3.5c0,2.1-0.7,3.7-2.1,4.9c-1.4,1.2-3.3,1.8-5.7,1.8
		c-2.6,0-4.5-0.6-5.8-1.8c-1.3-1.2-2-2.9-2-5.1c0-0.7,0.2-1.5,0.5-2.4h4.6c-0.2,0.4-0.3,0.8-0.4,1.3
		C229.5,84.5,229.5,84.9,229.5,85.2z"/>
	<path class="st0" d="M250.9,92.2c-2.6,0-4.6-0.9-5.9-2.7c-1.3-1.8-2-4.5-2-8.2c0-4,0.7-7.1,2-9.1s3.3-3,6-3h6.2v3.6h-5.9
		c-1.2,0-2,0.3-2.5,0.8s-0.8,1.5-1,2.9h0.1c0.5-0.4,1-0.7,1.6-0.9c0.6-0.2,1.3-0.3,2.2-0.3c1.4,0,2.6,0.3,3.7,1c1.1,0.7,2,1.7,2.6,3
		s0.9,2.8,0.9,4.4c0,2.7-0.7,4.7-2.1,6.2C255.4,91.4,253.4,92.2,250.9,92.2z M247.6,83.7c0,1.6,0.3,2.8,0.9,3.6
		c0.6,0.8,1.4,1.3,2.5,1.3c1.2,0,2-0.4,2.6-1.2c0.5-0.8,0.8-2,0.8-3.7c0-1.6-0.3-2.8-0.8-3.6s-1.4-1.2-2.6-1.2c-1.2,0-2,0.4-2.6,1.2
		C247.9,80.9,247.6,82.1,247.6,83.7z"/>
	<path class="st0" d="M267.1,85.2h-3.3l-1-14.5h5.4L267.1,85.2z M263.5,87.8c0.5-0.5,1.1-0.8,1.8-0.8s1.3,0.3,1.8,0.8
		s0.8,1.1,0.8,1.8c0,0.7-0.3,1.3-0.8,1.8s-1.1,0.8-1.8,0.8s-1.3-0.3-1.8-0.8s-0.7-1.1-0.7-1.8S263,88.3,263.5,87.8z"/>
</g>
</svg>
