<?xml version="1.0" encoding="utf-8"?>
<!-- Generator: Adobe Illustrator 19.2.1, SVG Export Plug-In . SVG Version: 6.00 Build 0)  -->
<svg version="1.1" id="Layer_1" xmlns="http://www.w3.org/2000/svg" xmlns:xlink="http://www.w3.org/1999/xlink" x="0px" y="0px"
	 width="300px" height="90px" viewBox="0 0 300 90" style="enable-background:new 0 0 300 90;" xml:space="preserve">
<style type="text/css">
	.st0{fill:#FFFFFF;}
</style>
<g>
	<path class="st0" d="M16.8,22.1c0-4.6,0.5-8,1.5-10.2s2.6-3.3,4.7-3.3c2.3,0,3.8,0.9,4.7,2.7h0.1c0.5-1,1.1-1.7,1.8-2.1
		C30.2,8.8,31,8.6,32,8.6c1.4,0,2.5,0.4,3.4,1.3l-2,3.2c-0.5-0.4-1.1-0.6-1.6-0.6c-0.6,0-1,0.2-1.3,0.6c-0.3,0.4-0.4,1.1-0.4,2.1
		v0.2h-4.6v-0.2c0-1-0.1-1.6-0.4-2.1c-0.3-0.4-0.7-0.6-1.3-0.6c-1.3,0-1.9,2.1-1.9,6.3h0.1c1.1-1,2.5-1.5,4.3-1.5
		c1.5,0,2.9,0.3,4.1,1c1.2,0.7,2.2,1.7,2.9,3c0.7,1.3,1,2.7,1,4.4c0,2.6-0.8,4.6-2.4,6.2c-1.6,1.5-3.7,2.3-6.4,2.3c-3,0-5.2-1-6.6-3
		C17.5,29.2,16.8,26.2,16.8,22.1z M21.8,25.7c0,1.5,0.3,2.6,0.9,3.4c0.6,0.8,1.6,1.2,2.8,1.2c1.3,0,2.3-0.4,2.8-1.1
		c0.6-0.8,0.9-1.9,0.9-3.4c0-1.5-0.3-2.6-0.9-3.3c-0.6-0.7-1.5-1.1-2.9-1.1c-1.3,0-2.3,0.4-2.8,1.1C22.1,23.1,21.8,24.2,21.8,25.7z"
		/>
	<path class="st0" d="M42.1,26.5c0,1.2,0.3,2.2,0.9,2.8c0.6,0.6,1.5,0.9,2.8,0.9c1.1,0,2-0.3,2.6-0.9c0.6-0.6,0.9-1.4,0.9-2.5
		c0-0.8-0.2-1.4-0.6-2c-0.4-0.6-1.1-1.2-2.1-1.9c-1.4-1-2.4-2-2.9-3c-0.5-1-0.7-2.4-0.7-4.1h4.9c0,0.7,0.1,1.3,0.2,1.7
		c0.1,0.4,0.4,0.8,0.7,1.2s0.7,0.7,1.3,1.1c1.4,0.9,2.5,1.9,3.2,3c0.7,1.1,1,2.4,1,3.9c0,2.3-0.8,4.1-2.3,5.5c-1.5,1.3-3.6,2-6.3,2
		c-2.9,0-5-0.7-6.5-2c-1.5-1.3-2.2-3.2-2.2-5.7c0-0.8,0.2-1.7,0.5-2.7h5c-0.2,0.4-0.3,0.9-0.4,1.4C42.2,25.8,42.1,26.2,42.1,26.5z"
		/>
	<path class="st0" d="M66.2,15.5c2.7,0,4.8,0.8,6.3,2.5s2.3,3.8,2.3,6.6c0,1.7-0.2,3.2-0.5,4.6c-0.3,1.4-0.9,2.9-1.7,4.7h-5.1
		c1.6-2.8,2.4-5.8,2.4-9.1c0-1.7-0.3-3-1-3.9c-0.7-0.9-1.6-1.4-2.7-1.4s-2.1,0.5-2.7,1.4c-0.6,0.9-1,2.2-1,3.8c0,1.5,0.2,3,0.6,4.5
		c0.4,1.4,1,3,1.8,4.7h-5.1c-0.8-1.8-1.4-3.4-1.8-4.8c-0.3-1.4-0.5-2.9-0.5-4.5c0-2.8,0.8-5,2.4-6.6C61.5,16.3,63.6,15.5,66.2,15.5z
		"/>
	<path class="st0" d="M78.1,23.4c0-2.5,0.7-4.4,2.2-5.8c1.4-1.4,3.5-2.1,6.1-2.1c2.1,0,3.8,0.6,5.2,1.7c1.5-1.1,3.5-1.6,6-1.6
		c2.6,0,4.6,0.6,6.1,1.8c1.5,1.2,2.2,2.8,2.2,4.9c0,1.3-0.3,2.4-1,3.4c-0.7,1-1.6,1.7-2.8,2.3c1.4,0.5,2.4,1.2,3.2,2.1
		c0.8,1,1.1,2.2,1.1,3.7c0,2.6-0.9,4.6-2.7,6c-1.8,1.4-4.4,2.1-7.8,2.1c-3.4,0-5.9-0.6-7.7-1.7c-1.8-1.1-2.7-2.7-2.7-4.7
		c0-0.8,0.1-1.5,0.4-2.1h4.9c-0.2,0.5-0.3,1.1-0.3,1.6c0,2,1.8,2.9,5.4,2.9c3.7,0,5.6-1.4,5.6-4.1c0-1.3-0.4-2.3-1.2-2.8
		c-0.8-0.6-2-0.9-3.6-0.9h-0.9v-3.9h0.9c1.3,0,2.3-0.3,3.1-0.9c0.8-0.6,1.1-1.5,1.1-2.6c0-1-0.3-1.8-0.9-2.3
		c-0.6-0.5-1.5-0.8-2.6-0.8c-1.6,0-2.8,0.4-3.5,1.1c0.2,0.8,0.4,1.8,0.4,2.8c0,2.5-0.7,4.5-2.1,5.8c-1.4,1.4-3.4,2-6,2
		c-2.4,0-4.3-0.7-5.8-2.1C78.9,27.8,78.1,25.8,78.1,23.4z M89.3,23.4c0-1.3-0.2-2.3-0.7-2.9c-0.5-0.7-1.3-1-2.4-1
		c-1.1,0-1.9,0.3-2.3,1c-0.5,0.7-0.7,1.6-0.7,2.9s0.3,2.3,0.8,2.9c0.5,0.7,1.3,1,2.4,1c1,0,1.8-0.3,2.3-0.9
		C89.1,25.7,89.3,24.7,89.3,23.4z"/>
	<path class="st0" d="M114.7,24.7c0,1.7,0.3,3.2,0.9,4.5c0.6,1.3,1.5,2.3,2.6,3.1c1.1,0.7,2.5,1.1,4,1.1c2.8,0,5.2,0.5,7.3,1.4
		c2.1,0.9,4,2.3,5.8,4.3l-2.9,2.9c-2.8-3-6.3-4.5-10.6-4.5c-1.3,0-2.5,0.2-3.7,0.7c-1.2,0.5-2.2,1.1-3.1,2l-2.6-3.1
		c1-0.9,2.2-1.6,3.5-2.1c-1.3-0.7-2.4-1.5-3.4-2.6c-0.9-1.1-1.7-2.2-2.1-3.5c-0.5-1.3-0.7-2.6-0.7-3.9c0-2.9,0.6-5.1,1.9-6.7
		c1.2-1.6,3-2.4,5.2-2.4c1.2,0,2.2,0.2,3,0.6c0.8,0.4,1.6,1.1,2.2,2.1h0.2c0.5-1,1.2-1.7,2-2.1c0.8-0.4,1.7-0.7,2.8-0.7
		c2.2,0,3.8,0.9,4.8,2.7h0.1c0.6-1,1.3-1.7,2.1-2.1c0.8-0.4,1.8-0.6,3-0.6c1.5,0,2.7,0.4,3.8,1.1c1.1,0.7,1.9,1.7,2.5,3.1
		c0.6,1.4,0.9,3,0.9,4.9c0,1.7-0.2,3.2-0.5,4.6c-0.3,1.4-0.9,2.9-1.7,4.7H137c1.6-2.8,2.4-5.8,2.4-9.1c0-1.7-0.2-2.9-0.7-3.9
		c-0.5-0.9-1.2-1.4-2-1.4c-0.8,0-1.4,0.3-1.7,1c-0.3,0.6-0.5,1.8-0.5,3.4v3.3h-4.9v-3.3c0-1.6-0.2-2.7-0.6-3.4
		c-0.4-0.6-1-0.9-1.8-0.9c-0.8,0-1.4,0.3-1.8,1c-0.4,0.7-0.6,1.8-0.6,3.3v3.3h-4.9v-3.3c0-1.5-0.2-2.5-0.6-3.2
		c-0.4-0.7-1-1.1-1.9-1.1c-0.8,0-1.5,0.5-1.9,1.4C115,21.8,114.7,23.1,114.7,24.7z"/>
	<path class="st0" d="M156.6,15.5c2.7,0,4.8,0.8,6.3,2.5c1.6,1.6,2.3,3.8,2.3,6.6c0,1.7-0.2,3.2-0.5,4.6c-0.3,1.4-0.9,2.9-1.7,4.7
		h-5.1c1.6-2.8,2.4-5.8,2.4-9.1c0-1.7-0.3-3-1-3.9c-0.7-0.9-1.6-1.4-2.7-1.4c-1.2,0-2.1,0.5-2.7,1.4c-0.6,0.9-1,2.2-1,3.8
		c0,1.5,0.2,3,0.6,4.5c0.4,1.4,1,3,1.8,4.7h-5.1c-0.8-1.8-1.4-3.4-1.8-4.8c-0.3-1.4-0.5-2.9-0.5-4.5c0-2.8,0.8-5,2.4-6.6
		C151.9,16.3,154,15.5,156.6,15.5z"/>
	<path class="st0" d="M176.5,15.5c1.4,0,2.5,0.2,3.4,0.6c0.9,0.4,1.6,1.1,2.2,2.1h0.1c1-1.8,2.8-2.7,5.4-2.7c2.4,0,4.4,0.8,5.8,2.4
		c1.4,1.6,2.1,3.8,2.1,6.6c0,1.7-0.2,3.2-0.5,4.6c-0.3,1.4-0.9,2.9-1.7,4.7h-5.1c1.6-2.8,2.3-5.8,2.3-9.1c0-1.7-0.3-2.9-0.8-3.9
		c-0.6-0.9-1.3-1.4-2.4-1.4c-0.9,0-1.6,0.3-2,1s-0.7,1.8-0.7,3.3v3.3h-4.9v-3.3c0-1.6-0.2-2.7-0.7-3.3c-0.4-0.7-1.1-1-2-1
		c-1,0-1.8,0.5-2.3,1.4c-0.6,0.9-0.8,2.2-0.8,3.8c0,1.5,0.2,3,0.6,4.5c0.4,1.4,1,3,1.8,4.7h-5.1c-0.8-1.8-1.4-3.4-1.8-4.8
		c-0.3-1.4-0.5-2.9-0.5-4.5c0-2.8,0.4-5.1,1.1-6.9c0.7-1.8,1.8-3.3,3.3-4.5c1.5-1.2,3.4-2.2,5.8-3c2.4-0.8,5.2-1.3,8.6-1.5l0.5,3.8
		c-2.5,0.2-4.6,0.5-6.6,1c-1.9,0.5-3.6,1.1-5,2V15.5z"/>
	<path class="st0" d="M212.4,8.8v6.7c2.7,0.5,4.9,1.8,6.4,4.1c1.5,2.3,2.3,5.3,2.3,8.9c0,4.2-1,7.5-2.9,9.8
		c-1.9,2.3-4.7,3.5-8.3,3.5c-3.6,0-6.3-1.1-8.2-3.4c-1.9-2.3-2.9-5.6-2.9-9.9c0-3.6,0.8-6.5,2.3-8.8c1.5-2.3,3.7-3.7,6.4-4.1V8.8
		H212.4z M203.8,28.5c0,3,0.5,5.3,1.6,6.9c1.1,1.6,2.6,2.4,4.5,2.4c2,0,3.5-0.8,4.6-2.4c1.1-1.6,1.6-3.9,1.6-6.9
		c0-2.5-0.3-4.6-0.9-6.1c-0.6-1.6-1.5-2.5-2.8-2.9v8.3h-4.9v-8.3c-1.1,0.2-2,1.2-2.7,2.9C204.1,24,203.8,26,203.8,28.5z"/>
	<path class="st0" d="M228.9,26.5c0,1.2,0.3,2.2,0.9,2.8c0.6,0.6,1.5,0.9,2.8,0.9c1.1,0,2-0.3,2.6-0.9c0.6-0.6,0.9-1.4,0.9-2.5
		c0-0.8-0.2-1.4-0.6-2c-0.4-0.6-1.1-1.2-2.1-1.9c-1.4-1-2.4-2-2.9-3c-0.5-1-0.7-2.4-0.7-4.1h4.9c0,0.7,0.1,1.3,0.2,1.7
		c0.1,0.4,0.4,0.8,0.7,1.2c0.3,0.4,0.7,0.7,1.3,1.1c1.4,0.9,2.5,1.9,3.2,3c0.7,1.1,1,2.4,1,3.9c0,2.3-0.8,4.1-2.3,5.5
		c-1.5,1.3-3.6,2-6.3,2c-2.9,0-5-0.7-6.5-2c-1.5-1.3-2.2-3.2-2.2-5.7c0-0.8,0.2-1.7,0.5-2.7h5c-0.2,0.4-0.3,0.9-0.4,1.4
		C229,25.8,228.9,26.2,228.9,26.5z"/>
	<path class="st0" d="M244.5,23.3c-0.1-0.4-0.2-0.9-0.2-1.4c0-2,0.7-3.6,2.2-4.7c1.5-1.1,3.5-1.7,6.1-1.7c2.6,0,4.6,0.6,6,1.8
		c1.5,1.2,2.2,2.8,2.2,4.9c0,1.3-0.3,2.4-1,3.4c-0.7,1-1.6,1.7-2.9,2.3c1.4,0.5,2.4,1.3,3.2,2.4c0.8,1.1,1.1,2.4,1.1,3.8
		c0,2.4-0.8,4.3-2.4,5.7c-1.6,1.4-3.8,2-6.6,2c-2.7,0-4.9-0.6-6.4-1.7c-1.6-1.2-2.4-2.7-2.4-4.8c0-0.8,0.2-1.7,0.5-2.5h5
		c-0.2,0.5-0.3,0.9-0.4,1.2c-0.1,0.3-0.1,0.6-0.1,1c0,1,0.3,1.7,1,2.1c0.7,0.5,1.6,0.7,2.8,0.7c2.6,0,3.9-1.3,3.9-3.8
		c0-1.4-0.4-2.4-1.1-3c-0.7-0.6-1.9-1-3.6-1H248v-3.9h3.5c1.4,0,2.4-0.3,3.1-1c0.7-0.7,1.1-1.6,1.1-2.8c0-0.9-0.3-1.6-0.9-2.1
		c-0.6-0.5-1.4-0.7-2.4-0.7c-1,0-1.8,0.2-2.4,0.6c-0.6,0.4-0.9,1-0.9,1.9c0,0.5,0.1,1,0.2,1.4H244.5z"/>
	<path class="st0" d="M265.4,25.6c-0.2-0.8-0.3-1.6-0.3-2.3c0-2.4,0.8-4.3,2.3-5.7c1.5-1.4,3.5-2.1,6.1-2.1c2.8,0,5,0.8,6.4,2.4
		c1.5,1.6,2.2,4,2.2,7.1v7.4c0,3-0.8,5.3-2.3,6.9c-1.6,1.6-3.8,2.5-6.7,2.5c-2.9,0-5.1-0.7-6.6-2c-1.5-1.3-2.2-3.2-2.2-5.7
		c0-1.2,0.3-2.3,0.8-3.5h5c-0.2,0.5-0.4,1-0.5,1.6c-0.2,0.6-0.2,1.2-0.2,1.8c0,1.3,0.3,2.2,0.9,2.9c0.6,0.7,1.5,1,2.9,1
		c1.5,0,2.5-0.5,3.1-1.5c0.6-1,0.9-2.5,0.9-4.6v-6.7c0-2-0.3-3.4-0.8-4.3c-0.5-0.9-1.5-1.3-2.8-1.3c-1.1,0-2,0.3-2.5,1
		c-0.5,0.6-0.8,1.6-0.8,3c0,0.6,0.1,1.3,0.4,2.2L265.4,25.6z"/>
	<path class="st0" d="M38.3,55.1h2c2.8,0,4.9,0.6,6.3,1.7c1.4,1.1,2.1,2.8,2.1,5c0,1.3-0.3,2.4-1,3.4c-0.7,1-1.6,1.7-2.9,2.3
		c1.3,0.5,2.4,1.3,3.2,2.4c0.8,1.1,1.2,2.4,1.2,3.8c0,2.4-0.8,4.3-2.4,5.7c-1.6,1.4-3.8,2-6.6,2c-2.7,0-4.9-0.6-6.4-1.7
		c-1.6-1.2-2.4-2.7-2.4-4.8c0-0.9,0.2-1.7,0.5-2.5h5c-0.2,0.4-0.3,0.8-0.4,1.1c-0.1,0.3-0.1,0.7-0.1,1.1c0,1,0.3,1.7,1,2.1
		c0.7,0.5,1.6,0.7,2.8,0.7c2.6,0,3.9-1.3,3.9-3.8c0-1.4-0.4-2.4-1.1-3c-0.7-0.6-1.9-1-3.6-1h-1.2v-3.9h1.2c1.3,0,2.4-0.3,3.1-0.9
		c0.8-0.6,1.1-1.4,1.1-2.5c0-1.1-0.3-1.9-0.9-2.5c-0.6-0.5-1.5-0.8-2.7-0.8h-1.8V55.1z"/>
	<path class="st0" d="M63.5,63.4c0-1.6-0.2-2.7-0.7-3.3c-0.4-0.7-1.1-1-2-1c-1,0-1.8,0.5-2.3,1.4c-0.6,0.9-0.8,2.2-0.8,3.8
		c0,1.5,0.2,3,0.6,4.5c0.4,1.4,1,3,1.8,4.7h-5.1c-0.8-1.8-1.4-3.4-1.8-4.8c-0.3-1.4-0.5-2.9-0.5-4.5c0-2.8,0.7-5,2.1-6.6
		c1.4-1.6,3.3-2.5,5.7-2.5c1.3,0,2.3,0.2,3.2,0.6c0.9,0.4,1.6,1.1,2.2,2.1H66c1.1-1.8,2.9-2.7,5.4-2.7c2.5,0,4.4,0.8,5.8,2.4
		c1.4,1.6,2.1,3.8,2.1,6.7c0,1.7-0.2,3.2-0.5,4.6s-0.9,2.9-1.7,4.7H72c1.6-2.8,2.3-5.8,2.3-9.1c0-1.7-0.3-2.9-0.8-3.9
		c-0.6-0.9-1.4-1.4-2.4-1.4c-0.9,0-1.6,0.3-2,1c-0.4,0.7-0.7,1.8-0.7,3.3v3.3h-4.9V63.4z"/>
	<path class="st0" d="M90.3,65.9h2c1.3,0,2.4-0.3,3.1-0.9c0.8-0.6,1.1-1.4,1.1-2.5c0-0.9-0.3-1.6-0.9-2c-0.6-0.5-1.7-0.7-3.2-0.9
		c-0.6-0.1-1.2-0.2-1.6-0.5c-0.4-0.3-0.7-0.7-0.8-1.1l2.6-3.2c0.3,0.3,0.6,0.6,0.9,0.7c0.3,0.2,0.7,0.3,1.2,0.3
		c2.4,0.2,4.2,0.8,5.3,1.8c1.1,1,1.6,2.4,1.6,4.3c0,1.2-0.3,2.3-1,3.3c-0.7,1-1.6,1.8-2.9,2.3c1.3,0.5,2.4,1.3,3.2,2.3
		c0.8,1,1.2,2.3,1.2,3.7c0,2.4-0.8,4.2-2.4,5.6c-1.6,1.4-3.8,2.1-6.6,2.1c-3.6,0-6.2-1-7.8-3.1c-1.6-2.1-2.4-5.4-2.4-10.1
		c0-2.6,0.2-5,0.7-7.4c0.5-2.4,1.1-4.3,2-5.7h4.9c-0.9,1.5-1.5,3.4-1.9,5.7c-0.4,2.2-0.6,4.7-0.6,7.4c0,2.3,0.2,4.1,0.5,5.4
		s0.9,2.3,1.6,2.9c0.7,0.6,1.8,0.9,3.1,0.9c1.3,0,2.3-0.3,3-1c0.7-0.7,1.1-1.6,1.1-2.8c0-1.3-0.3-2.3-1-2.9
		c-0.7-0.6-1.9-0.9-3.7-0.9h-2V65.9z"/>
	<path class="st0" d="M113.9,73.8c-2.9,0-5.1-1-6.5-2.9c-1.4-2-2.2-5-2.2-9.1c0-4.5,0.7-7.8,2.2-10c1.4-2.2,3.7-3.3,6.7-3.3h6.8v3.9
		h-6.6c-1.3,0-2.2,0.3-2.8,0.9c-0.6,0.6-0.9,1.7-1.1,3.2h0.1c0.5-0.4,1.1-0.8,1.7-1c0.6-0.2,1.5-0.3,2.5-0.3c1.5,0,2.9,0.4,4.1,1.2
		c1.2,0.8,2.2,1.9,2.8,3.3c0.7,1.4,1,3,1,4.9c0,2.9-0.8,5.2-2.3,6.9C118.8,72.9,116.6,73.8,113.9,73.8z M110.2,64.4
		c0,1.7,0.3,3.1,0.9,4s1.6,1.4,2.8,1.4c1.3,0,2.3-0.5,2.8-1.4s0.9-2.3,0.9-4.1c0-1.8-0.3-3.1-0.9-4c-0.6-0.9-1.5-1.3-2.9-1.3
		c-1.3,0-2.3,0.4-2.8,1.3C110.5,61.3,110.2,62.6,110.2,64.4z"/>
	<path class="st0" d="M134.6,55.1c2.7,0,4.8,0.8,6.3,2.5c1.6,1.6,2.3,3.8,2.3,6.6c0,1.7-0.2,3.2-0.5,4.6c-0.3,1.4-0.9,2.9-1.7,4.7
		H136c1.6-2.8,2.4-5.8,2.4-9.1c0-1.7-0.3-3-1-3.9s-1.6-1.4-2.7-1.4s-2.1,0.5-2.7,1.4c-0.6,0.9-1,2.2-1,3.8c0,1.5,0.2,3,0.6,4.5
		c0.4,1.4,1,3,1.8,4.7h-5.1c-0.8-1.8-1.4-3.4-1.8-4.8c-0.3-1.4-0.5-2.9-0.5-4.5c0-2.8,0.8-5,2.4-6.6C129.9,55.9,132,55.1,134.6,55.1
		z"/>
	<path class="st0" d="M164.8,64.2c0,6.4-3,9.6-9,9.6c-2.8,0-4.9-0.7-6.2-2.1c-1.4-1.4-2.1-3.5-2.1-6.4V48.4h4.9v17
		c0,1.6,0.3,2.7,0.8,3.4c0.6,0.7,1.5,1,2.7,1c1.4,0,2.3-0.5,2.9-1.4c0.6-1,0.9-2.4,0.9-4.4c0-1.4-0.2-2.8-0.6-4.2
		c-0.4-1.3-1-2.8-1.8-4.4h5.2c0.8,1.6,1.4,3,1.7,4.4C164.7,61.2,164.8,62.6,164.8,64.2z"/>
	<path class="st0" d="M176,73.8c-2.4,0-4.3-0.8-5.8-2.5c-1.4-1.7-2.2-4-2.2-6.8c0-2.9,0.7-5.2,2.2-6.8c1.5-1.7,3.5-2.5,6-2.5
		c1.2,0,2.3,0.2,3.2,0.7c0.9,0.4,1.6,1.1,2.2,2.1h0.1c1.1-1.8,2.9-2.7,5.5-2.7c2.4,0,4.4,0.8,5.7,2.4s2.1,3.8,2.1,6.6
		c0,1.7-0.2,3.2-0.5,4.6c-0.3,1.4-0.9,2.9-1.7,4.7h-5.1c1.6-2.8,2.3-5.8,2.3-9.1c0-1.7-0.3-3-0.8-3.9c-0.5-0.9-1.3-1.4-2.2-1.4
		c-1.1,0-1.8,0.4-2.3,1.3c-0.4,0.8-0.6,2.2-0.6,4.1c0,3-0.7,5.3-2.1,6.9C180.6,73,178.6,73.8,176,73.8z M179.3,64.4
		c0-1.8-0.2-3.2-0.7-4.1c-0.5-0.9-1.2-1.3-2.1-1.3c-1.2,0-2,0.4-2.5,1.3c-0.5,0.9-0.8,2.2-0.8,4.1c0,1.8,0.3,3.1,0.8,4.1
		c0.5,0.9,1.3,1.4,2.4,1.4c1,0,1.8-0.4,2.3-1.3C179,67.7,179.3,66.3,179.3,64.4z"/>
	<path class="st0" d="M198.8,62.9c-0.1-0.4-0.2-0.9-0.2-1.4c0-2,0.7-3.6,2.2-4.7c1.5-1.1,3.5-1.7,6.1-1.7c2.6,0,4.6,0.6,6,1.8
		c1.5,1.2,2.2,2.8,2.2,4.9c0,1.3-0.3,2.4-1,3.4c-0.7,1-1.6,1.7-2.9,2.3c1.4,0.5,2.4,1.3,3.2,2.4c0.8,1.1,1.1,2.4,1.1,3.8
		c0,2.4-0.8,4.3-2.4,5.7c-1.6,1.4-3.8,2-6.6,2c-2.7,0-4.9-0.6-6.4-1.7c-1.6-1.2-2.4-2.7-2.4-4.8c0-0.8,0.2-1.7,0.5-2.5h5
		c-0.2,0.5-0.3,0.9-0.4,1.2c-0.1,0.3-0.1,0.6-0.1,1c0,1,0.3,1.7,1,2.1c0.7,0.5,1.6,0.7,2.8,0.7c2.6,0,3.9-1.3,3.9-3.8
		c0-1.4-0.4-2.4-1.1-3c-0.7-0.6-1.9-1-3.6-1h-3.5v-3.9h3.5c1.4,0,2.4-0.3,3.1-1c0.7-0.7,1.1-1.6,1.1-2.8c0-0.9-0.3-1.6-0.9-2.1
		c-0.6-0.5-1.4-0.7-2.4-0.7c-1,0-1.8,0.2-2.4,0.6c-0.6,0.4-0.9,1-0.9,1.9c0,0.5,0.1,1,0.2,1.4H198.8z"/>
	<path class="st0" d="M227.7,55.1c2.7,0,4.8,0.8,6.3,2.5c1.6,1.6,2.3,3.8,2.3,6.6c0,1.7-0.2,3.2-0.5,4.6s-0.9,2.9-1.7,4.7H229
		c1.6-2.8,2.4-5.8,2.4-9.1c0-1.7-0.3-3-1-3.9c-0.7-0.9-1.6-1.4-2.7-1.4c-1.2,0-2.1,0.5-2.7,1.4c-0.6,0.9-1,2.2-1,3.8
		c0,1.5,0.2,3,0.6,4.5c0.4,1.4,1,3,1.8,4.7h-5.1c-0.8-1.8-1.4-3.4-1.8-4.8c-0.3-1.4-0.5-2.9-0.5-4.5c0-2.8,0.8-5,2.4-6.6
		C223,55.9,225.1,55.1,227.7,55.1z"/>
	<path class="st0" d="M257.9,64.2c0,6.4-3,9.6-9,9.6c-2.8,0-4.9-0.7-6.2-2.1c-1.4-1.4-2.1-3.5-2.1-6.4V48.4h4.9v17
		c0,1.6,0.3,2.7,0.8,3.4c0.6,0.7,1.5,1,2.7,1c1.4,0,2.3-0.5,2.9-1.4c0.6-1,0.9-2.4,0.9-4.4c0-1.4-0.2-2.8-0.6-4.2
		c-0.4-1.3-1-2.8-1.8-4.4h5.2c0.8,1.6,1.4,3,1.7,4.4C257.8,61.2,257.9,62.6,257.9,64.2z"/>
</g>
</svg>
