<?xml version="1.0" encoding="utf-8"?>
<!-- Generator: Adobe Illustrator 19.2.1, SVG Export Plug-In . SVG Version: 6.00 Build 0)  -->
<svg version="1.1" id="Layer_1" xmlns="http://www.w3.org/2000/svg" xmlns:xlink="http://www.w3.org/1999/xlink" x="0px" y="0px"
	 width="300px" height="48px" viewBox="0 0 300 48" style="enable-background:new 0 0 300 48;" xml:space="preserve">
<style type="text/css">
	.st0{fill:#FFFFFF;}
</style>
<g>
	<path class="st0" d="M19,12.4h6.8V31l11.5-18.6h8.3V43h-6.8V22.9L26.2,43H19V12.4z"/>
	<path class="st0" d="M81.4,14.7c1.7,1.5,2.5,3.5,2.5,5.9c0,1.5-0.4,2.9-1.3,4.1c-0.8,1.2-1.9,2-3.2,2.4c1.5,0.3,2.8,1.1,3.8,2.3
		c1.1,1.3,1.7,2.9,1.7,4.8c0,2.6-0.9,4.6-2.6,6.2c-1.8,1.6-4.1,2.5-7,2.5H62.9V12.4h11.4C77.3,12.4,79.7,13.2,81.4,14.7z M76.1,23.8
		c0.7-0.5,1.1-1.4,1.1-2.4c0-2.2-1.3-3.3-4-3.3h-3.6v6.6h3.7C74.5,24.7,75.4,24.4,76.1,23.8z M76.9,36.5c0.7-0.7,1.1-1.5,1.1-2.6
		c0-1.1-0.4-1.9-1.1-2.6c-0.7-0.7-1.8-1-3.1-1h-4.3v7.2h4.3C75.2,37.5,76.2,37.1,76.9,36.5z"/>
	<path class="st0" d="M108.7,26.1c1.9,1.8,2.9,4.2,2.9,7.1c0,2.9-1,5.2-2.9,7c-1.9,1.8-4.5,2.8-7.6,2.8H89.6V12.4h6.8v11h4.7
		C104.2,23.4,106.7,24.3,108.7,26.1z M96.4,37.1h4c1.3,0,2.4-0.3,3.2-1c0.8-0.7,1.2-1.7,1.2-2.9c0-1.2-0.4-2.1-1.2-2.9
		c-0.8-0.7-1.9-1-3.2-1h-4V37.1z M113.6,12.4h6.9V43h-6.9V12.4z"/>
	<path class="st0" d="M127.1,12.4h6.8V31l11.5-18.6h8.3V43H147V22.9L134.4,43h-7.2V12.4z"/>
	<path class="st0" d="M180.5,18.9h-13.2V43h-6.8V12.4h20V18.9z"/>
	<path class="st0" d="M191,43h-6.8V12.4h11.5c3.1,0,5.7,0.9,7.6,2.8c1.9,1.8,2.9,4.2,2.9,7c0,2.9-1,5.3-2.9,7.1
		c-1.9,1.8-4.5,2.7-7.6,2.7H191V43z M198.1,25.1c0.8-0.7,1.2-1.7,1.2-2.9c0-1.2-0.4-2.2-1.2-2.9c-0.8-0.7-1.8-1-3.2-1h-4v7.8h4
		C196.3,26.1,197.3,25.8,198.1,25.1z"/>
	<path class="st0" d="M214.4,36.8l-2.2,6.2H205l11.5-30.6h7.9L235.9,43h-7.4l-2.2-6.2H214.4z M224.1,30.6L220.4,20l-3.8,10.6H224.1z
		"/>
	<path class="st0" d="M239.7,12.4h6.8V31L258,12.4h8.3V43h-6.8V22.9L246.9,43h-7.2V12.4z M245.8,4.5h4.9c0.1,1.4,0.8,2.2,2.3,2.2
		c1.5,0,2.3-0.7,2.4-2.2h4.8c-0.1,1.6-0.7,3-1.8,4.1c-1.4,1.3-3.2,1.9-5.4,1.9c-2.2,0-4-0.6-5.4-1.9C246.5,7.5,245.9,6.1,245.8,4.5z
		"/>
	<path class="st0" d="M279.5,33.4h-4.8l-1.5-21h7.9L279.5,33.4z M274.4,37.1c0.7-0.7,1.6-1.1,2.6-1.1c1,0,1.9,0.4,2.7,1.1
		c0.7,0.7,1.1,1.6,1.1,2.7c0,1-0.4,1.9-1.1,2.6c-0.7,0.7-1.6,1.1-2.7,1.1c-1,0-1.9-0.4-2.6-1.1c-0.7-0.7-1.1-1.6-1.1-2.6
		C273.3,38.7,273.7,37.8,274.4,37.1z"/>
</g>
</svg>
