<?xml version="1.0" encoding="utf-8"?>
<!-- Generator: Adobe Illustrator 19.2.1, SVG Export Plug-In . SVG Version: 6.00 Build 0)  -->
<svg version="1.1" id="Layer_1" xmlns="http://www.w3.org/2000/svg" xmlns:xlink="http://www.w3.org/1999/xlink" x="0px" y="0px"
	 width="300px" height="63px" viewBox="0 0 300 63" style="enable-background:new 0 0 300 63;" xml:space="preserve">
<style type="text/css">
	.st0{fill:#FFFFFF;}
</style>
<g>
	<path class="st0" d="M22.5,4.3h4.6v12.6l7.8-12.6h5.6v20.8h-4.6V11.4l-8.6,13.7h-4.9V4.3z"/>
	<path class="st0" d="M56.9,19.5v5.6h-4.6V4.3h4.6V13l7.6-8.7h6.1l-8.1,9l8.1,11.8h-5.8l-5.6-8.2L56.9,19.5z"/>
	<path class="st0" d="M77.6,25.1h-4.6V4.3h7.8c2.1,0,3.8,0.6,5.2,1.9c1.3,1.3,2,2.8,2,4.8c0,2-0.7,3.6-2,4.8c-1.3,1.2-3,1.8-5.2,1.8
		h-3.2V25.1z M82.4,12.9c0.5-0.5,0.8-1.1,0.8-1.9c0-0.8-0.3-1.5-0.8-2c-0.5-0.5-1.2-0.7-2.1-0.7h-2.7v5.3h2.7
		C81.2,13.6,81.9,13.4,82.4,12.9z"/>
	<path class="st0" d="M101.3,4.3h5.4l-6,14.6c-0.4,1-0.8,1.8-1.2,2.5c-0.4,0.5-0.8,1.1-1.5,1.8c-1.2,1.3-2.9,1.9-5.1,1.9h-1.4v-4
		h0.9c0.9,0,1.6-0.2,2.1-0.7c0.3-0.2,0.5-0.5,0.6-0.8c0-0.2,0.1-0.3,0.1-0.4c0-0.3-0.1-0.5-0.2-0.8l-5.8-14h5.4l3.4,8.1L101.3,4.3z"
		/>
	<path class="st0" d="M118.6,25.1h-4.6V8.7h-6.4V4.3H125v4.4h-6.4V25.1z"/>
	<path class="st0" d="M140.8,13.6c1.3,1.2,2,2.8,2,4.8c0,1.9-0.7,3.5-2,4.8c-1.3,1.3-3,1.9-5.2,1.9h-7.8V4.3h4.6v7.5h3.2
		C137.7,11.8,139.5,12.4,140.8,13.6z M132.5,21.1h2.7c0.9,0,1.6-0.2,2.1-0.7c0.5-0.5,0.8-1.1,0.8-2c0-0.8-0.3-1.4-0.8-1.9
		c-0.5-0.5-1.3-0.7-2.1-0.7h-2.7V21.1z M144.1,4.3h4.7v20.8h-4.7V4.3z"/>
	<path class="st0" d="M153.3,4.3h13.2v4.4h-8.5v4h7.7v4.1h-7.7v4h8.6v4.4h-13.2V4.3z"/>
	<path class="st0" d="M177.6,4.3h17.6v20.8h-4.7V8.7h-8.3v16.4h-4.6V4.3z"/>
	<path class="st0" d="M203.2,25.1h-4.6V4.3h7.8c2.1,0,3.8,0.6,5.2,1.9c1.3,1.3,2,2.8,2,4.8c0,2-0.7,3.6-2,4.8
		c-1.3,1.2-3,1.8-5.2,1.8h-3.2V25.1z M208.1,12.9c0.5-0.5,0.8-1.1,0.8-1.9c0-0.8-0.3-1.5-0.8-2c-0.5-0.5-1.2-0.7-2.1-0.7h-2.7v5.3
		h2.7C206.8,13.6,207.6,13.4,208.1,12.9z"/>
	<path class="st0" d="M216.4,4.3h4.6v12.6l7.8-12.6h5.6v20.8h-4.6V11.4l-8.6,13.7h-4.9V4.3z"/>
	<path class="st0" d="M237.6,18.3h4.5c0.1,1,0.4,1.8,1,2.4c0.6,0.5,1.4,0.8,2.5,0.8c1.1,0,2-0.3,2.6-0.8c0.6-0.5,0.9-1.2,0.9-2
		c0-1-0.3-1.7-1-2.3c-0.7-0.5-1.5-0.8-2.3-0.8h-1.5V12h1.6c0.6,0,1.1-0.2,1.6-0.6c0.5-0.4,0.8-0.9,0.8-1.7c0-0.6-0.2-1.1-0.7-1.5
		c-0.4-0.4-1-0.6-1.6-0.6c-0.8,0-1.4,0.2-1.8,0.7c-0.4,0.4-0.6,1.1-0.6,1.8l-4.3-0.5c0.1-1.6,0.7-2.9,1.8-4c1.1-1.1,2.8-1.6,5-1.6
		c1.9,0,3.5,0.5,4.7,1.5c1.2,1,1.8,2.3,1.8,3.9c0,1-0.3,1.8-0.9,2.6c-0.6,0.8-1.4,1.4-2.2,1.6c1.1,0.3,2,0.9,2.8,1.8
		c0.8,0.9,1.2,2.1,1.2,3.4c0,1.8-0.7,3.3-2.1,4.4c-1.4,1.2-3.3,1.8-5.8,1.8c-2.5,0-4.4-0.7-5.8-2C238.5,21.9,237.7,20.2,237.6,18.3z
		"/>
	<path class="st0" d="M269.5,13.6c1.3,1.2,2,2.8,2,4.8c0,1.9-0.7,3.5-2,4.8c-1.3,1.3-3,1.9-5.2,1.9h-7.8V4.3h4.6v7.5h3.2
		C266.5,11.8,268.2,12.4,269.5,13.6z M261.2,21.1h2.7c0.9,0,1.6-0.2,2.1-0.7c0.5-0.5,0.8-1.1,0.8-2c0-0.8-0.3-1.4-0.8-1.9
		c-0.5-0.5-1.3-0.7-2.1-0.7h-2.7V21.1z M272.8,4.3h4.7v20.8h-4.7V4.3z"/>
	<path class="st0" d="M81.4,37.2c3,0,5.5,1,7.6,3c2.1,2.1,3.2,4.7,3.2,7.9c0,3.2-1.1,5.8-3.2,7.9c-2.1,2-4.6,3-7.6,3
		c-3,0-5.5-1-7.6-3c-2.1-2-3.2-4.6-3.2-7.9c0-3.2,1.1-5.8,3.2-7.9C75.9,38.2,78.4,37.2,81.4,37.2z M81.4,54.3c1.6,0,3-0.5,4.1-1.5
		c1.3-1.2,1.9-2.7,1.9-4.7c0-2-0.6-3.6-1.9-4.8c-1.1-1-2.5-1.5-4.1-1.5c-1.6,0-3,0.5-4.1,1.5C76,44.4,75.4,46,75.4,48
		c0,2,0.6,3.6,1.9,4.7C78.4,53.8,79.8,54.3,81.4,54.3z"/>
	<path class="st0" d="M104.4,58.4h-4.6V42h-6.4v-4.4h17.4V42h-6.4V58.4z"/>
	<path class="st0" d="M122.8,40.2c2.1-2,4.7-3,7.7-3c3,0,5.6,1,7.6,3c2.1,2,3.1,4.6,3.1,7.8c0,3.2-1,5.8-3.1,7.8c-2.1,2-4.6,3-7.6,3
		c-3,0-5.6-1-7.7-3c-2.1-2-3.1-4.6-3.1-7.8C119.6,44.8,120.7,42.2,122.8,40.2z M130.4,41.7c-1.6,0-3,0.5-4.2,1.6
		c-1.2,1.1-1.8,2.6-1.8,4.7c0,2,0.6,3.6,1.8,4.7c1.2,1.1,2.6,1.6,4.2,1.6c1.6,0,3-0.5,4.2-1.6c1.2-1.1,1.8-2.6,1.8-4.7
		c0-2-0.6-3.6-1.8-4.7C133.4,42.2,132,41.7,130.4,41.7z"/>
	<path class="st0" d="M150.8,50.7h-1.6v7.7h-4.6V37.6h8.2c2,0,3.6,0.6,4.9,1.8c1.2,1.2,1.9,2.8,1.9,4.7c0,1.4-0.4,2.6-1.1,3.6
		c-0.7,1-1.7,1.8-3,2.2l4.2,8.4h-5.1L150.8,50.7z M151.9,46.7c0.9,0,1.7-0.2,2.2-0.7c0.5-0.5,0.8-1.1,0.8-1.8c0-0.8-0.3-1.4-0.8-1.8
		c-0.5-0.4-1.2-0.7-2.2-0.7h-2.7v5H151.9z"/>
	<path class="st0" d="M170.7,37.6c2,0,3.6,0.5,4.7,1.6c1.2,1,1.7,2.4,1.7,4c0,1-0.3,2-0.9,2.8c-0.6,0.8-1.3,1.4-2.2,1.7
		c1,0.2,1.9,0.8,2.6,1.7c0.7,0.9,1.1,1.9,1.1,3.2c0,1.7-0.6,3.1-1.8,4.2s-2.8,1.7-4.7,1.7h-8.4V37.6H170.7z M170,45.9
		c0.8,0,1.5-0.2,1.9-0.6c0.5-0.4,0.7-1,0.7-1.7c0-0.7-0.2-1.2-0.7-1.6c-0.5-0.4-1.1-0.6-2-0.6h-2.5v4.5H170z M170.3,54.6
		c0.9,0,1.6-0.2,2.1-0.7c0.5-0.4,0.8-1,0.8-1.8c0-0.7-0.3-1.3-0.8-1.8c-0.5-0.4-1.2-0.7-2.1-0.7h-2.9v4.9H170.3z"/>
	<path class="st0" d="M181,58.4V37.6h4.7v20.8H181z"/>
	<path class="st0" d="M199.5,42v16.3h-4.6V42h-6.4v-4.4h17.4V42H199.5z"/>
	<path class="st0" d="M213.4,48.9c-1.7,0-3.2-0.6-4.5-1.9c-1.2-1.2-1.9-2.7-1.9-4.5s0.6-3.2,1.9-4.5c1.2-1.2,2.7-1.9,4.5-1.9
		c1.7,0,3.2,0.6,4.5,1.9c1.2,1.2,1.9,2.7,1.9,4.5s-0.6,3.2-1.9,4.5C216.6,48.3,215.1,48.9,213.4,48.9z M213.4,37.7
		c-1.4,0-2.5,0.5-3.4,1.4c-0.9,1-1.4,2.1-1.4,3.5c0,1.4,0.5,2.5,1.4,3.5c0.9,1,2.1,1.4,3.4,1.4c1.4,0,2.5-0.5,3.4-1.4
		c0.9-1,1.4-2.1,1.4-3.5c0-1.4-0.5-2.5-1.4-3.5C215.9,38.1,214.8,37.7,213.4,37.7z M213.3,43.7h-0.5V46H211v-6.8h2.9
		c0.7,0,1.2,0.2,1.7,0.6c0.4,0.4,0.7,1,0.7,1.6c0,0.4-0.1,0.8-0.3,1.2c-0.2,0.3-0.5,0.6-0.9,0.8l1.3,2.6h-1.9L213.3,43.7z
		 M213.6,42.2c0.3,0,0.5-0.1,0.6-0.2c0.2-0.1,0.2-0.3,0.2-0.6c0-0.3-0.1-0.4-0.2-0.6c-0.2-0.1-0.4-0.2-0.6-0.2h-0.7v1.6H213.6z"/>
	<path class="st0" d="M227.1,51.9h-3.3l-1-14.3h5.3L227.1,51.9z M223.6,54.4c0.5-0.5,1.1-0.7,1.8-0.7c0.7,0,1.3,0.2,1.8,0.7
		c0.5,0.5,0.7,1.1,0.7,1.8c0,0.7-0.2,1.3-0.7,1.8c-0.5,0.5-1.1,0.7-1.8,0.7c-0.7,0-1.3-0.2-1.8-0.7c-0.5-0.5-0.7-1.1-0.7-1.8
		C222.9,55.5,223.1,54.9,223.6,54.4z"/>
</g>
</svg>
