<?xml version="1.0" encoding="utf-8"?>
<!-- Generator: Adobe Illustrator 19.2.1, SVG Export Plug-In . SVG Version: 6.00 Build 0)  -->
<svg version="1.1" id="Layer_1" xmlns="http://www.w3.org/2000/svg" xmlns:xlink="http://www.w3.org/1999/xlink" x="0px" y="0px"
	 width="300px" height="67px" viewBox="0 0 300 67" style="enable-background:new 0 0 300 67;" xml:space="preserve">
<style type="text/css">
	.st0{fill:#FFFFFF;}
</style>
<g>
	<path class="st0" d="M30.8,5.4c2.1-2,4.6-3,7.6-3s5.5,1,7.6,3c2.1,2,3.1,4.6,3.1,7.8c0,3.2-1,5.8-3.1,7.8c-2.1,2-4.6,3-7.6,3
		s-5.5-1-7.6-3c-2.1-2-3.1-4.6-3.1-7.8C27.6,10,28.7,7.4,30.8,5.4z M38.4,6.9c-1.6,0-3,0.5-4.2,1.6c-1.2,1.1-1.8,2.6-1.8,4.7
		c0,2,0.6,3.6,1.8,4.6c1.2,1.1,2.6,1.6,4.2,1.6c1.6,0,3-0.5,4.2-1.6c1.2-1.1,1.8-2.6,1.8-4.6c0-2-0.6-3.6-1.8-4.7
		C41.4,7.4,40,6.9,38.4,6.9z"/>
	<path class="st0" d="M58.7,15.8h-1.6v7.7h-4.6V2.8h8.2c2,0,3.6,0.6,4.9,1.8c1.2,1.2,1.9,2.8,1.9,4.6c0,1.4-0.4,2.6-1.1,3.6
		c-0.7,1-1.7,1.8-3,2.2l4.2,8.4h-5.1L58.7,15.8z M59.8,11.9c0.9,0,1.7-0.2,2.2-0.7c0.5-0.5,0.8-1.1,0.8-1.8c0-0.8-0.3-1.4-0.8-1.8
		c-0.5-0.4-1.2-0.7-2.2-0.7h-2.7v5H59.8z"/>
	<path class="st0" d="M78.6,2.8c2,0,3.6,0.5,4.7,1.5c1.1,1,1.7,2.4,1.7,4c0,1-0.3,2-0.9,2.8c-0.6,0.8-1.3,1.4-2.2,1.7
		c1,0.2,1.9,0.8,2.6,1.7c0.7,0.9,1.1,1.9,1.1,3.2c0,1.7-0.6,3.1-1.8,4.2c-1.2,1.1-2.8,1.7-4.7,1.7h-8.4V2.8H78.6z M77.8,11.1
		c0.8,0,1.5-0.2,1.9-0.6c0.5-0.4,0.7-0.9,0.7-1.7c0-0.7-0.2-1.2-0.7-1.6c-0.5-0.4-1.1-0.6-2-0.6h-2.5v4.5H77.8z M78.2,19.8
		c0.9,0,1.6-0.2,2.1-0.7c0.5-0.4,0.8-1,0.8-1.8c0-0.7-0.3-1.3-0.8-1.8c-0.5-0.4-1.2-0.7-2.1-0.7h-2.9v4.9H78.2z"/>
	<path class="st0" d="M88.9,23.6V2.8h4.7v20.7H88.9z"/>
	<path class="st0" d="M107.3,7.3v16.3h-4.6V7.3h-6.4V2.8h17.4v4.4H107.3z"/>
	<path class="st0" d="M121.2,14.1c-1.7,0-3.2-0.6-4.5-1.8c-1.2-1.2-1.8-2.7-1.8-4.5c0-1.7,0.6-3.2,1.8-4.5c1.2-1.2,2.7-1.9,4.5-1.9
		c1.7,0,3.2,0.6,4.5,1.9c1.2,1.2,1.9,2.7,1.9,4.5c0,1.7-0.6,3.2-1.9,4.5C124.4,13.5,122.9,14.1,121.2,14.1z M121.2,2.9
		c-1.4,0-2.5,0.5-3.4,1.4c-0.9,1-1.4,2.1-1.4,3.5s0.5,2.5,1.4,3.5c0.9,0.9,2.1,1.4,3.4,1.4s2.5-0.5,3.4-1.4c0.9-0.9,1.4-2.1,1.4-3.5
		s-0.5-2.5-1.4-3.5C123.7,3.4,122.5,2.9,121.2,2.9z M121.1,8.9h-0.5v2.3h-1.8V4.4h2.8c0.7,0,1.2,0.2,1.7,0.6c0.4,0.4,0.7,1,0.7,1.6
		c0,0.4-0.1,0.8-0.3,1.2c-0.2,0.3-0.5,0.6-0.9,0.8l1.3,2.6h-1.9L121.1,8.9z M121.3,7.4c0.3,0,0.5-0.1,0.6-0.2s0.2-0.3,0.2-0.6
		c0-0.2-0.1-0.4-0.2-0.6s-0.4-0.2-0.6-0.2h-0.7v1.6H121.3z"/>
	<path class="st0" d="M129.4,15.3v-4h8.8v4H129.4z"/>
	<path class="st0" d="M141.7,23.6V2.8h7.5c3.1,0,5.7,0.9,7.6,2.8s2.8,4.4,2.8,7.6c0,3.2-0.9,5.7-2.8,7.6c-1.9,1.9-4.4,2.8-7.6,2.8
		H141.7z M149.1,19.2c1.7,0,3.1-0.5,4.2-1.5c1.1-1,1.6-2.5,1.6-4.5c0-2-0.5-3.5-1.6-4.5c-1.1-1-2.5-1.5-4.2-1.5h-2.7v12H149.1z"/>
	<path class="st0" d="M180.1,5.4c2.1,2,3.1,4.6,3.1,7.8c0,3.2-1,5.8-3.1,7.7s-4.6,3-7.6,3c-3,0-5.5-1-7.6-3c-2.1-2-3.1-4.6-3.1-7.7
		c0-0.6,0.1-1.3,0.2-2h16.3c-0.3-1.1-0.8-2-1.5-2.7c-1.2-1.1-2.6-1.6-4.1-1.6s-3,0.5-4.2,1.6c-0.3,0.2-0.5,0.5-0.7,0.8l-4.5-1.6
		c0.5-0.9,1.1-1.6,1.8-2.3c2.1-2,4.6-3,7.6-3C175.5,2.4,178,3.4,180.1,5.4z M172.5,19.4c1.6,0,3-0.5,4.1-1.6
		c0.7-0.6,1.1-1.3,1.4-2.2h-11.2c0.3,0.9,0.8,1.7,1.5,2.2C169.5,18.9,170.9,19.4,172.5,19.4z"/>
	<path class="st0" d="M199.7,23.6l-8.5-13.6v13.6h-4.6V2.8h5.6l7.8,12.6V2.8h4.6v20.7H199.7z"/>
	<path class="st0" d="M214.2,2.8h5.4l4.2,7.7l4.3-7.7h5.1L226,14.9v8.6h-4.6v-8.6L214.2,2.8z"/>
	<path class="st0" d="M235.9,23.6V2.8H249v4.4h-8.5v3.9h7.7v4.1h-7.7v4h8.5v4.4H235.9z"/>
	<path class="st0" d="M266,23.6l-8.5-13.6v13.6h-4.6V2.8h5.6l7.8,12.6V2.8h4.6v20.7H266z"/>
	<path class="st0" d="M275.4,23.6V2.8h4.7v20.7H275.4z"/>
	<path class="st0" d="M19.9,42.3v16.3h-4.6V42.3H8.9v-4.4h17.4v4.4H19.9z"/>
	<path class="st0" d="M39.6,54.4h-8l-1.5,4.2h-4.9L33,37.9h5.3l7.7,20.7h-5L39.6,54.4z M33.1,50.2h5L35.7,43L33.1,50.2z"/>
	<path class="st0" d="M61.8,58.6L53.2,45v13.6h-4.6V37.9h5.6L62,50.5V37.9h4.6v20.7H61.8z"/>
	<path class="st0" d="M71.1,58.6V37.9h4.7v20.7H71.1z"/>
	<path class="st0" d="M89.3,58.9l-0.1,0.1l-0.1,0l-0.7,1.1c0.9,0,1.5,0.3,2,0.8c0.5,0.5,0.8,1.1,0.8,1.8c0,0.7-0.3,1.4-1,2
		c-0.6,0.6-1.6,0.9-2.9,0.9c-0.8,0-1.5-0.2-2.2-0.5c-0.7-0.4-1.1-0.7-1.5-1.1l1.4-1.7c0.7,0.7,1.5,1.1,2.2,1.1
		c0.7,0,1.1-0.3,1.1-0.8c0-0.2-0.1-0.4-0.3-0.5c-0.2-0.2-0.4-0.2-0.7-0.2c-0.3,0-0.6,0-0.8,0.1l-1.1-1.4l0.9-1.4
		c-2.2-0.1-3.9-0.8-5.2-2c-1.4-1.4-2.2-2.9-2.4-4.6l4.2-1c0.1,1,0.5,1.9,1.2,2.6c0.7,0.7,1.7,1,3.1,1c0.9,0,1.6-0.2,2.1-0.6
		c0.5-0.4,0.8-0.9,0.8-1.6c0-0.5-0.2-1-0.6-1.3c-0.4-0.4-0.9-0.6-1.6-0.8l-2.8-0.5c-1.8-0.3-3.1-1-4.1-2.1c-1-1.1-1.5-2.4-1.5-3.9
		c0-1.9,0.7-3.5,2.2-4.8c1.5-1.3,3.2-1.9,5.2-1.9c1.2,0,2.3,0.2,3.3,0.5c1,0.3,1.7,0.8,2.3,1.3s1,1.1,1.3,1.8
		c0.3,0.6,0.5,1.2,0.6,1.9l-4.1,1.2c-0.1-0.6-0.4-1.2-1-1.8c-0.5-0.5-1.4-0.8-2.5-0.8c-0.8,0-1.5,0.2-2,0.7
		c-0.5,0.4-0.8,0.9-0.8,1.5c0,1.1,0.7,1.7,2,2l2.8,0.5c1.9,0.3,3.4,1.1,4.4,2.2c1,1.1,1.5,2.5,1.5,4c0,1.7-0.7,3.3-2.1,4.6
		C91.9,58,90.7,58.6,89.3,58.9z"/>
	<path class="st0" d="M98.1,58.6V37.9h4.6v16.3h8.9v4.4H98.1z"/>
	<path class="st0" d="M114.6,58.6V37.9h4.7v20.7H114.6z"/>
	<path class="st0" d="M125.7,40.5c2.1-2,4.6-3,7.6-3s5.5,1,7.6,3c2.1,2,3.1,4.6,3.1,7.8c0,2.7-0.8,5-2.3,6.9l2.5,2.8l-3,2.6
		l-2.5-2.8c-1.6,0.9-3.4,1.3-5.4,1.3c-3,0-5.5-1-7.6-3c-2.1-2-3.1-4.6-3.1-7.8C122.5,45.1,123.6,42.5,125.7,40.5z M137.5,43.6
		c-1.2-1.1-2.6-1.6-4.2-1.6s-3,0.5-4.2,1.6c-1.2,1.1-1.8,2.6-1.8,4.7c0,2,0.6,3.6,1.8,4.6c1.2,1.1,2.6,1.6,4.2,1.6
		c0.7,0,1.4-0.1,2.1-0.4l-3-3.3l3.1-2.6l3,3.3c0.5-1,0.8-2.1,0.8-3.3C139.3,46.2,138.7,44.7,137.5,43.6z"/>
	<path class="st0" d="M168.5,57c-1.5,1.4-3.5,2.1-5.9,2.1s-4.3-0.7-5.9-2.1c-1.5-1.4-2.3-3.3-2.3-5.9V37.9h4.6v12.9
		c0,1.2,0.3,2.2,1,2.8c0.6,0.6,1.5,1,2.6,1s2-0.3,2.6-1c0.6-0.6,1-1.6,1-2.8V37.9h4.6v13.2C170.8,53.7,170,55.6,168.5,57z
		 M157.4,32.9c0.4-0.4,1-0.7,1.6-0.7c0.7,0,1.2,0.2,1.7,0.7c0.4,0.4,0.7,1,0.7,1.7c0,0.6-0.2,1.2-0.7,1.6c-0.4,0.4-1,0.6-1.7,0.6
		c-0.7,0-1.2-0.2-1.6-0.6c-0.4-0.4-0.6-1-0.6-1.6C156.8,33.9,157,33.3,157.4,32.9z M164.6,32.9c0.4-0.4,1-0.7,1.6-0.7
		c0.7,0,1.2,0.2,1.7,0.7c0.4,0.4,0.7,1,0.7,1.7c0,0.6-0.2,1.2-0.7,1.6c-0.4,0.4-1,0.6-1.7,0.6c-0.6,0-1.2-0.2-1.6-0.6
		c-0.4-0.4-0.6-1-0.6-1.6C163.9,33.9,164.1,33.3,164.6,32.9z"/>
	<path class="st0" d="M185.3,44.2c-0.1-0.6-0.4-1.2-1-1.8c-0.5-0.5-1.4-0.8-2.5-0.8c-0.8,0-1.5,0.2-2,0.7c-0.5,0.4-0.8,1-0.8,1.6
		c0,1.1,0.7,1.7,2,2l2.8,0.5c1.9,0.3,3.4,1.1,4.4,2.2s1.6,2.5,1.6,4c0,1.7-0.7,3.3-2.1,4.6c-1.4,1.3-3.2,2-5.6,2
		c-2.6,0-4.6-0.7-6.1-2c-1.4-1.4-2.2-2.9-2.4-4.6l4.2-1c0.1,1,0.5,1.9,1.2,2.6c0.7,0.7,1.7,1,3.1,1c0.9,0,1.6-0.2,2.1-0.6
		c0.5-0.4,0.8-0.9,0.8-1.6c0-0.5-0.2-1-0.6-1.3c-0.4-0.4-0.9-0.6-1.6-0.7l-2.8-0.5c-1.8-0.3-3.1-1-4.1-2.1c-1-1.1-1.5-2.4-1.5-3.9
		c0-1.9,0.7-3.5,2.2-4.8c1.5-1.3,3.2-1.9,5.2-1.9c1.2,0,2.3,0.2,3.3,0.5c1,0.3,1.7,0.8,2.3,1.4s1,1.1,1.3,1.8
		c0.3,0.6,0.5,1.2,0.7,1.9L185.3,44.2z"/>
	<path class="st0" d="M206.8,57c-1.5,1.4-3.5,2.1-5.9,2.1s-4.3-0.7-5.9-2.1c-1.5-1.4-2.3-3.3-2.3-5.9V37.9h4.6v12.9
		c0,1.2,0.3,2.2,1,2.8c0.6,0.6,1.5,1,2.6,1s2-0.3,2.6-1c0.6-0.6,1-1.6,1-2.8V37.9h4.6v13.2C209.2,53.7,208.4,55.6,206.8,57z"/>
	<path class="st0" d="M213.5,58.6V37.9h4.6v16.3h8.9v4.4H213.5z"/>
	<path class="st0" d="M230,58.6V37.9h4.6v16.3h8.9v4.4H230z"/>
	<path class="st0" d="M259,54.4h-8l-1.5,4.2h-4.9l7.8-20.7h5.3l7.7,20.7h-5L259,54.4z M252.5,50.2h5l-2.5-7.2L252.5,50.2z"/>
	<path class="st0" d="M274.3,50.9h-1.6v7.7h-4.6V37.9h8.2c2,0,3.6,0.6,4.9,1.8c1.2,1.2,1.9,2.8,1.9,4.6c0,1.4-0.4,2.6-1.1,3.6
		c-0.7,1-1.7,1.8-3,2.2l4.2,8.4H278L274.3,50.9z M275.4,46.9c0.9,0,1.7-0.2,2.2-0.7c0.5-0.5,0.8-1.1,0.8-1.8c0-0.8-0.3-1.4-0.8-1.8
		c-0.5-0.4-1.2-0.7-2.2-0.7h-2.7v5H275.4z"/>
	<path class="st0" d="M286.4,58.6V37.9h4.7v20.7H286.4z"/>
</g>
</svg>
