<?xml version="1.0" encoding="utf-8"?>
<!-- Generator: Adobe Illustrator 19.2.1, SVG Export Plug-In . SVG Version: 6.00 Build 0)  -->
<svg version="1.1" id="Layer_1" xmlns="http://www.w3.org/2000/svg" xmlns:xlink="http://www.w3.org/1999/xlink" x="0px" y="0px"
	 width="300px" height="90px" viewBox="0 0 300 90" style="enable-background:new 0 0 300 90;" xml:space="preserve">
<style type="text/css">
	.st0{fill:#FFFFFF;}
</style>
<g>
	<path class="st0" d="M40.6,26.5H29.1V38h-6.4V9.1h6.4v11.3h11.5V9.1h6.5V38h-6.5V26.5z"/>
	<path class="st0" d="M58.7,32.1L56.6,38h-6.8L60.7,9.1h7.4L78.9,38h-7l-2.1-5.9H58.7z M67.8,26.2l-3.5-10l-3.5,10H67.8z"/>
	<path class="st0" d="M102,11.9c3.5,0,6.3,1,8.5,3.1c2.1,2.1,3.2,5,3.2,8.5c0,3.6-1.1,6.4-3.2,8.5c-2.1,2.1-5,3.1-8.5,3.1h-1.9V38
		h-6.6v-2.8h-1.9c-3.5,0-6.3-1-8.5-3.1c-2.1-2.1-3.2-4.9-3.2-8.5c0-3.6,1.1-6.4,3.2-8.5c2.2-2.1,5-3.1,8.5-3.1h1.9V9h6.6v2.8H102z
		 M92.2,29.4h1.3V17.6h-1.3c-1.7,0-3.1,0.5-4.2,1.5c-1.1,1-1.6,2.5-1.6,4.4c0,2,0.5,3.4,1.6,4.4C89.1,28.9,90.5,29.4,92.2,29.4z
		 M101.4,29.4c1.7,0,3.1-0.5,4.2-1.5c1.1-1,1.6-2.5,1.6-4.4c0-2-0.5-3.4-1.6-4.4c-1.1-1-2.5-1.5-4.2-1.5h-1.3v11.8H101.4z"/>
	<path class="st0" d="M120.1,9.1h18.6V38h-6.4V15.2h-5.8l-0.9,13.7c-0.1,1.5-0.4,2.8-0.8,3.7c-0.4,1.1-1.1,2-2,2.9
		c-1.8,1.7-4.2,2.6-7.2,2.6h-0.8v-5.6h0.1c1.2,0,2.3-0.3,3-1c0.7-0.6,1-1.5,1.1-2.6L120.1,9.1z"/>
	<path class="st0" d="M145,9.1h6.4v17.5l10.8-17.5h7.8V38h-6.4V19l-11.9,19H145V9.1z"/>
	<path class="st0" d="M182.4,38H176V9.1h10.9c3,0,5.3,0.9,7.2,2.6c1.8,1.7,2.7,3.9,2.7,6.6c0,2.7-0.9,5-2.7,6.7
		c-1.8,1.7-4.2,2.6-7.2,2.6h-4.4V38z M189.2,21.1c0.8-0.7,1.1-1.6,1.1-2.7c0-1.1-0.4-2-1.1-2.7c-0.7-0.7-1.7-1-3-1h-3.7V22h3.7
		C187.4,22,188.4,21.7,189.2,21.1z"/>
	<path class="st0" d="M213.7,38h-6.4V15.2h-8.9V9.1h24.2v6.1h-8.9V38z"/>
	<path class="st0" d="M241.2,9.1h7.5l-8.4,20.4c-0.6,1.4-1.1,2.6-1.7,3.4c-0.5,0.8-1.2,1.6-2,2.4c-1.7,1.7-4,2.6-7.1,2.6h-1.9v-5.6
		h1.3c1.2,0,2.2-0.3,3-1c0.4-0.3,0.7-0.7,0.8-1.1c0.1-0.2,0.1-0.4,0.1-0.5c0-0.4-0.1-0.7-0.2-1.2l-8.1-19.5h7.5l4.7,11.3L241.2,9.1z
		"/>
	<path class="st0" d="M252.2,9.1h6.4v17.5l10.8-17.5h7.8V38h-6.4V19L259,38h-6.8V9.1z M258.1,1.7h4.6c0.1,1.4,0.8,2,2.2,2
		c1.4,0,2.2-0.7,2.2-2h4.6c-0.1,1.5-0.6,2.8-1.7,3.8c-1.3,1.2-3,1.8-5.1,1.8c-2.1,0-3.8-0.6-5-1.8C258.7,4.5,258.1,3.2,258.1,1.7z"
		/>
	<path class="st0" d="M35,72.8H23.4v11.5H17V55.4h6.4v11.3H35V55.4h6.5v28.9H35V72.8z"/>
	<path class="st0" d="M53,78.4l-2.1,5.9h-6.8L55,55.4h7.4l10.7,28.9h-7l-2.1-5.9H53z M62.1,72.5l-3.5-10l-3.5,10H62.1z"/>
	<path class="st0" d="M86.8,55.4h24.5v28.9h-6.5V61.5H93.2v22.8h-6.4V55.4z"/>
	<path class="st0" d="M129.2,54.8c4.2,0,7.7,1.4,10.5,4.1c3,2.8,4.4,6.5,4.4,10.9c0,4.5-1.5,8.1-4.4,10.9c-2.9,2.7-6.4,4.1-10.5,4.1
		c-4.2,0-7.7-1.4-10.5-4.1c-3-2.8-4.5-6.5-4.5-10.9c0-4.5,1.5-8.1,4.5-10.9C121.6,56.1,125.1,54.8,129.2,54.8z M129.2,78.5
		c2.3,0,4.1-0.7,5.7-2.1c1.8-1.6,2.6-3.8,2.6-6.6c0-2.8-0.9-5-2.6-6.6c-1.5-1.4-3.4-2.1-5.7-2.1c-2.2,0-4.1,0.7-5.7,2.1
		c-1.8,1.6-2.6,3.8-2.6,6.6c0,2.8,0.9,5,2.6,6.6C125.1,77.8,127,78.5,129.2,78.5z"/>
	<path class="st0" d="M166.8,55.4h6.4v22.8h2.5v10.1h-6.4v-4h-20.6V55.4h6.5v22.8h11.6V55.4z"/>
	<path class="st0" d="M181,55.4h18.3v6.1h-11.8v5.5h10.7v5.7h-10.7v5.5h11.9v6.1H181V55.4z"/>
	<path class="st0" d="M207.4,55.4H226v28.8h-6.4V61.5h-5.8l-0.9,13.7c-0.1,1.5-0.4,2.8-0.8,3.7c-0.4,1.1-1.1,2-2,2.9
		c-1.8,1.7-4.2,2.6-7.2,2.6h-0.8v-5.6h0.1c1.2,0,2.3-0.3,3-1c0.7-0.6,1-1.5,1.1-2.6L207.4,55.4z"/>
	<path class="st0" d="M246.9,55.4h7.5L246,75.8c-0.6,1.4-1.1,2.6-1.7,3.4c-0.5,0.8-1.2,1.6-2,2.4c-1.7,1.7-4,2.6-7.1,2.6h-1.9v-5.6
		h1.3c1.2,0,2.2-0.3,3-1c0.4-0.3,0.7-0.7,0.8-1.1c0.1-0.2,0.1-0.4,0.1-0.5c0-0.4-0.1-0.7-0.2-1.2L230,55.4h7.5l4.7,11.3L246.9,55.4z
		"/>
	<path class="st0" d="M257.9,55.4h6.4v17.5l10.8-17.5h7.8v28.9h-6.4v-19l-11.9,19h-6.8V55.4z M263.7,48h4.6c0.1,1.4,0.8,2,2.2,2
		c1.4,0,2.2-0.7,2.2-2h4.6c-0.1,1.5-0.6,2.8-1.7,3.8c-1.3,1.2-3,1.8-5.1,1.8c-2.1,0-3.8-0.6-5-1.8C264.4,50.8,263.8,49.5,263.7,48z"
		/>
</g>
</svg>
