<?xml version="1.0" encoding="utf-8"?>
<!-- Generator: Adobe Illustrator 19.2.1, SVG Export Plug-In . SVG Version: 6.00 Build 0)  -->
<svg version="1.1" id="Layer_1" xmlns="http://www.w3.org/2000/svg" xmlns:xlink="http://www.w3.org/1999/xlink" x="0px" y="0px"
	 width="367px" height="67px" viewBox="0 0 367 67" style="enable-background:new 0 0 367 67;" xml:space="preserve">
<style type="text/css">
	.st0{fill:#FFFFFF;}
</style>
<g>
	<path class="st0" d="M27.1,16.9c0,2.7,0.5,4.8,1.4,6.2c0.9,1.4,2.4,2.3,4.5,2.7c2,0.4,3.6,1,4.7,1.7c1.2,0.7,2.1,1.6,2.8,2.8
		l-3.1,2.1c-0.7-1-1.6-1.8-2.7-2.3c-1.1-0.5-2.4-0.8-3.9-0.8c-0.9,0-1.8,0.1-2.7,0.4c-0.9,0.3-1.8,0.6-2.6,1.1l-1.6-3.3
		c0.7-0.4,1.6-0.8,2.7-1.1c-1.3-0.8-2.3-2.1-3-3.7c-0.7-1.6-1.1-3.6-1.1-5.9c0-2.6,0.6-4.6,1.9-6.1c1.3-1.5,3-2.2,5.2-2.2
		c2.3,0,4,0.8,5,2.5h0.1c0.6-0.9,1.3-1.5,2.1-1.9s1.8-0.6,2.9-0.6c2.3,0,4.1,0.8,5.4,2.3c1.3,1.5,2,3.6,2,6.2c0,2.6-0.7,4.7-2,6.2
		c-1.3,1.5-3.1,2.3-5.3,2.3c-2.5,0-4.3-0.7-5.6-2.1c-1.2-1.4-1.9-3.6-1.9-6.4c0-1.7-0.2-3-0.6-3.7c-0.4-0.8-1.1-1.1-2.1-1.1
		c-0.9,0-1.5,0.4-2,1.2C27.4,14.1,27.1,15.3,27.1,16.9z M37,16.9c0,1.7,0.2,3,0.7,3.8c0.4,0.8,1.1,1.2,2.1,1.2c1,0,1.7-0.4,2.2-1.2
		c0.5-0.8,0.7-2.1,0.7-3.7c0-3.3-1-4.9-2.9-4.9c-1,0-1.7,0.4-2.1,1.2C37.2,14.1,37,15.3,37,16.9z"/>
	<path class="st0" d="M54.3,18.4c0,1.1,0.3,2,0.8,2.6c0.5,0.6,1.4,0.9,2.6,0.9c1,0,1.8-0.3,2.4-0.8c0.6-0.5,0.8-1.3,0.8-2.2
		c0-0.7-0.2-1.3-0.5-1.8c-0.4-0.5-1-1.1-1.9-1.7c-1.3-0.9-2.2-1.8-2.7-2.7c-0.5-0.9-0.7-2.2-0.7-3.8h4.5c0,0.7,0.1,1.2,0.2,1.6
		c0.1,0.4,0.3,0.7,0.6,1.1c0.3,0.3,0.7,0.7,1.2,1c1.3,0.9,2.3,1.8,2.9,2.8c0.6,1,0.9,2.2,0.9,3.6c0,2.1-0.7,3.8-2.1,5
		c-1.4,1.2-3.3,1.8-5.7,1.8c-2.6,0-4.6-0.6-5.9-1.8c-1.3-1.2-2-2.9-2-5.2c0-0.7,0.2-1.5,0.5-2.5h4.6c-0.2,0.4-0.3,0.8-0.4,1.3
		C54.4,17.8,54.3,18.1,54.3,18.4z"/>
	<path class="st0" d="M83.4,5.7c-0.9,0-1.6,0.1-1.9,0.4c-0.4,0.3-0.6,0.7-0.6,1.2c0,0.2,0.1,0.5,0.3,0.9h-4
		c-0.2-0.5-0.3-0.9-0.3-1.4c0-1.5,0.6-2.7,1.7-3.5c1.1-0.8,2.7-1.3,4.8-1.3c2.8,0,4.9,1,6.3,2.9c1.4,1.9,2.1,4.8,2.1,8.7
		c0,4.1-0.6,7.1-1.9,8.9c-1.3,1.9-3.4,2.8-6.2,2.8c-2.4,0-4.3-0.7-5.7-2.2c-1.4-1.4-2.1-3.5-2.1-6c0-1.6,0.3-3,0.9-4.3
		s1.5-2.2,2.6-2.9c1.1-0.7,2.4-1,3.7-1c0.9,0,1.6,0.1,2.2,0.3c0.6,0.2,1.1,0.5,1.6,0.9h0.1C86.8,7.3,85.6,5.7,83.4,5.7z M87.3,17.3
		c0-1.5-0.3-2.7-0.8-3.4c-0.5-0.8-1.4-1.1-2.6-1.1c-1.2,0-2.1,0.4-2.6,1.1s-0.8,1.9-0.8,3.4c0,1.5,0.3,2.7,0.8,3.4
		c0.5,0.8,1.4,1.2,2.6,1.2c1.1,0,2-0.4,2.5-1.2C87,19.9,87.3,18.7,87.3,17.3z"/>
	<path class="st0" d="M99.1,18.4c0,1.1,0.3,2,0.8,2.6c0.5,0.6,1.4,0.9,2.6,0.9c1,0,1.8-0.3,2.4-0.8c0.6-0.5,0.8-1.3,0.8-2.2
		c0-0.7-0.2-1.3-0.5-1.8c-0.4-0.5-1-1.1-1.9-1.7c-1.3-0.9-2.2-1.8-2.7-2.7c-0.5-0.9-0.7-2.2-0.7-3.8h4.5c0,0.7,0.1,1.2,0.2,1.6
		c0.1,0.4,0.3,0.7,0.6,1.1c0.3,0.3,0.7,0.7,1.2,1c1.3,0.9,2.3,1.8,2.9,2.8c0.6,1,0.9,2.2,0.9,3.6c0,2.1-0.7,3.8-2.1,5
		c-1.4,1.2-3.3,1.8-5.7,1.8c-2.6,0-4.6-0.6-5.9-1.8c-1.3-1.2-2-2.9-2-5.2c0-0.7,0.2-1.5,0.5-2.5h4.6c-0.2,0.4-0.3,0.8-0.4,1.3
		C99.1,17.8,99.1,18.1,99.1,18.4z"/>
	<path class="st0" d="M128.8,23.8c0,2.7-0.7,4.8-2.1,6.3c-1.4,1.5-3.4,2.3-5.9,2.3c-1.6,0-3-0.3-4.2-1c-1.2-0.7-2.1-1.7-2.8-3
		c-0.6-1.3-1-2.8-1-4.5c0-2.7,0.7-4.8,2.1-6.3c1.4-1.5,3.4-2.2,5.9-2.2l0.7,0c0.4-0.7,0.5-1.4,0.5-2.1c0-0.6-0.1-1-0.4-1.3
		s-0.7-0.4-1.1-0.4c-1,0-1.5,0.5-1.5,1.5c0,0.2,0,0.5,0.1,0.7h-3.6c-0.1-0.3-0.1-0.7-0.1-1.1c0-1.4,0.4-2.5,1.3-3.2
		c0.9-0.8,2.1-1.1,3.7-1.1c1.6,0,2.9,0.4,3.8,1.3c0.9,0.8,1.4,2,1.4,3.5c0,1.1-0.3,2.1-0.9,3.1c1.2,0.7,2.2,1.7,2.9,3
		C128.4,20.6,128.8,22.1,128.8,23.8z M117.4,23.8c0,1.6,0.3,2.9,0.8,3.7c0.5,0.8,1.4,1.2,2.6,1.2c1.2,0,2.1-0.4,2.6-1.2
		c0.5-0.8,0.8-2.1,0.8-3.7c0-1.6-0.3-2.8-0.8-3.7c-0.5-0.8-1.4-1.2-2.6-1.2c-1.2,0-2.1,0.4-2.6,1.2C117.7,21,117.4,22.2,117.4,23.8z
		"/>
	<path class="st0" d="M135.9,18.4c0,1.1,0.3,2,0.8,2.6c0.5,0.6,1.4,0.9,2.6,0.9c1,0,1.8-0.3,2.4-0.8c0.6-0.5,0.8-1.3,0.8-2.2
		c0-0.7-0.2-1.3-0.5-1.8c-0.4-0.5-1-1.1-1.9-1.7c-1.3-0.9-2.2-1.8-2.7-2.7c-0.5-0.9-0.7-2.2-0.7-3.8h4.5c0,0.7,0.1,1.2,0.2,1.6
		c0.1,0.4,0.3,0.7,0.6,1.1c0.3,0.3,0.7,0.7,1.2,1c1.3,0.9,2.3,1.8,2.9,2.8c0.6,1,0.9,2.2,0.9,3.6c0,2.1-0.7,3.8-2.1,5
		c-1.4,1.2-3.3,1.8-5.7,1.8c-2.6,0-4.6-0.6-5.9-1.8c-1.3-1.2-2-2.9-2-5.2c0-0.7,0.2-1.5,0.5-2.5h4.6c-0.2,0.4-0.3,0.8-0.4,1.3
		C136,17.8,135.9,18.1,135.9,18.4z"/>
	<path class="st0" d="M156.9,8.4c1.3,0,2.3,0.2,3.1,0.6c0.8,0.4,1.5,1,2,1.9h0.1c0.9-1.7,2.6-2.5,4.9-2.5c2.2,0,4,0.7,5.3,2.2
		c1.3,1.5,1.9,3.5,1.9,6.1c0,1.5-0.2,2.9-0.5,4.2c-0.3,1.3-0.8,2.7-1.6,4.2h-4.7c1.4-2.6,2.1-5.3,2.1-8.3c0-1.5-0.3-2.7-0.8-3.5
		c-0.5-0.9-1.2-1.3-2.2-1.3c-0.8,0-1.4,0.3-1.8,0.9c-0.4,0.6-0.6,1.6-0.6,3v3h-4.5v-3c0-1.4-0.2-2.4-0.6-3c-0.4-0.6-1-0.9-1.9-0.9
		c-0.9,0-1.6,0.4-2.1,1.3c-0.5,0.8-0.8,2-0.8,3.5c0,1.4,0.2,2.8,0.5,4.1c0.3,1.3,0.9,2.7,1.6,4.3H152c-0.8-1.6-1.3-3.1-1.6-4.3
		c-0.3-1.3-0.4-2.6-0.4-4.1c0-2.6,0.3-4.7,1-6.3c0.7-1.7,1.6-3,3-4.1c1.3-1.1,3.1-2,5.3-2.7c2.2-0.7,4.8-1.2,7.8-1.4l0.5,3.5
		c-2.2,0.2-4.2,0.5-6,0.9c-1.7,0.4-3.3,1-4.6,1.8V8.4z"/>
	<path class="st0" d="M185.5,8.4c2.4,0,4.4,0.7,5.8,2.2c1.4,1.5,2.1,3.5,2.1,6.1c0,1.5-0.2,2.9-0.5,4.2c-0.3,1.3-0.8,2.7-1.6,4.2
		h-4.7c1.4-2.6,2.1-5.3,2.1-8.3c0-1.5-0.3-2.7-0.9-3.6c-0.6-0.8-1.4-1.3-2.5-1.3c-1.1,0-1.9,0.4-2.5,1.3c-0.6,0.9-0.9,2-0.9,3.5
		c0,1.4,0.2,2.8,0.5,4.1c0.3,1.3,0.9,2.7,1.6,4.3h-4.7c-0.8-1.6-1.3-3.1-1.6-4.3c-0.3-1.3-0.4-2.6-0.4-4.1c0-2.5,0.7-4.5,2.2-6
		C181.2,9.2,183.1,8.4,185.5,8.4z"/>
	<path class="st0" d="M216.2,13.7c1.2,0.4,2.2,1.1,2.9,2c0.7,0.9,1.1,2,1.1,3.3c0,2-0.7,3.6-2.2,4.8c-1.4,1.2-3.4,1.7-6,1.7
		c-2.5,0-4.5-0.5-5.9-1.6c-1.4-1.1-2.1-2.5-2.1-4.3c0-0.8,0.1-1.6,0.4-2.3h4.6c-0.2,0.4-0.3,0.7-0.3,1c-0.1,0.3-0.1,0.6-0.1,1
		c0,0.9,0.3,1.5,0.9,1.9c0.6,0.4,1.5,0.6,2.5,0.6c2.4,0,3.6-1,3.6-3.1c0-1.1-0.3-2-1-2.5c-0.7-0.5-1.8-0.8-3.3-0.8h-2v-3.6h2
		c1.2,0,2.1-0.2,2.8-0.7c0.7-0.5,1-1.1,1-1.9c0-1.6-1-2.5-3-2.5c-1.3,0-2.2,0-2.8-0.1c-0.6-0.1-1.1-0.2-1.7-0.4
		c-0.5-0.2-1-0.5-1.5-0.8l1.7-3.3c0.3,0.3,0.6,0.5,1,0.6c0.4,0.2,0.7,0.3,1.1,0.3c0.4,0.1,1.1,0.1,2.2,0.1c2.4,0,4.3,0.5,5.6,1.5
		c1.3,1,1.9,2.4,1.9,4.3c0,1.1-0.3,2.1-0.9,2.8C218.2,12.5,217.4,13.2,216.2,13.7z"/>
	<path class="st0" d="M230.1,8.4c1.3,0,2.3,0.2,3.1,0.6c0.8,0.4,1.5,1,2,1.9h0.1c0.9-1.7,2.6-2.5,4.9-2.5c2.2,0,4,0.7,5.3,2.2
		c1.3,1.5,1.9,3.5,1.9,6.1c0,1.5-0.2,2.9-0.5,4.2c-0.3,1.3-0.8,2.7-1.6,4.2h-4.7c1.4-2.6,2.1-5.3,2.1-8.3c0-1.5-0.3-2.7-0.8-3.5
		c-0.5-0.9-1.2-1.3-2.2-1.3c-0.8,0-1.4,0.3-1.8,0.9c-0.4,0.6-0.6,1.6-0.6,3v3H233v-3c0-1.4-0.2-2.4-0.6-3c-0.4-0.6-1-0.9-1.9-0.9
		c-0.9,0-1.6,0.4-2.1,1.3c-0.5,0.8-0.8,2-0.8,3.5c0,1.4,0.2,2.8,0.5,4.1c0.3,1.3,0.9,2.7,1.6,4.3h-4.7c-0.8-1.6-1.3-3.1-1.6-4.3
		c-0.3-1.3-0.4-2.6-0.4-4.1c0-2.6,0.3-4.7,1-6.3c0.7-1.7,1.6-3,3-4.1c1.3-1.1,3.1-2,5.3-2.7c2.2-0.7,4.8-1.2,7.8-1.4l0.5,3.5
		c-2.2,0.2-4.2,0.5-6,0.9c-1.7,0.4-3.3,1-4.6,1.8V8.4z"/>
	<path class="st0" d="M258.6,8.4c2.4,0,4.4,0.7,5.8,2.2c1.4,1.5,2.1,3.5,2.1,6.1c0,1.5-0.2,2.9-0.5,4.2c-0.3,1.3-0.8,2.7-1.6,4.2
		h-4.7c1.4-2.6,2.1-5.3,2.1-8.3c0-1.5-0.3-2.7-0.9-3.6c-0.6-0.8-1.4-1.3-2.5-1.3c-1.1,0-1.9,0.4-2.5,1.3c-0.6,0.9-0.9,2-0.9,3.5
		c0,1.4,0.2,2.8,0.5,4.1c0.3,1.3,0.9,2.7,1.6,4.3h-4.7c-0.8-1.6-1.3-3.1-1.6-4.3c-0.3-1.3-0.4-2.6-0.4-4.1c0-2.5,0.7-4.5,2.2-6
		C254.3,9.2,256.2,8.4,258.6,8.4z"/>
	<path class="st0" d="M287.2,16.9c0,2.7-0.7,4.8-2.1,6.3c-1.4,1.5-3.4,2.3-5.9,2.3c-1.6,0-3-0.3-4.2-1c-1.2-0.7-2.1-1.7-2.8-3
		c-0.6-1.3-1-2.8-1-4.5c0-1.4,0.2-2.5,0.5-3.5c-1.2-0.3-2.2-1-2.9-2c-0.7-1-1-2.2-1-3.6c0-1.8,0.5-3.2,1.5-4.3
		c1-1.1,2.4-1.6,4.1-1.6c1.7,0,3.1,0.5,4.1,1.6s1.5,2.5,1.5,4.3v0.3l0,0.3h0.2c1.6,0,3,0.3,4.2,1c1.2,0.7,2.1,1.7,2.8,3
		C286.8,13.7,287.2,15.2,287.2,16.9z M271.8,7.9c0,1.7,0.6,2.6,1.7,2.6c0.6,0,1-0.2,1.3-0.6c0.3-0.4,0.4-1.1,0.4-2
		c0-0.9-0.1-1.5-0.4-2c-0.3-0.4-0.7-0.6-1.3-0.6c-0.6,0-1,0.2-1.3,0.6C271.9,6.3,271.8,7,271.8,7.9z M275.8,16.9
		c0,1.6,0.3,2.9,0.8,3.7c0.5,0.8,1.4,1.2,2.6,1.2c1.2,0,2-0.4,2.6-1.2c0.5-0.8,0.8-2.1,0.8-3.7c0-1.6-0.3-2.8-0.8-3.7
		s-1.4-1.2-2.6-1.2c-1.2,0-2.1,0.4-2.6,1.2C276.1,14.1,275.8,15.3,275.8,16.9z"/>
	<path class="st0" d="M290.8,17.6c-0.2-0.7-0.3-1.4-0.3-2.1c0-2.2,0.7-3.9,2.1-5.2c1.4-1.3,3.2-1.9,5.6-1.9c2.6,0,4.5,0.7,5.9,2.2
		c1.3,1.4,2,3.6,2,6.5v6.7c0,2.7-0.7,4.8-2.1,6.3s-3.4,2.2-6.1,2.2c-2.6,0-4.6-0.6-6-1.8c-1.4-1.2-2.1-2.9-2.1-5.2
		c0-1.1,0.2-2.1,0.7-3.2h4.6c-0.2,0.4-0.4,0.9-0.5,1.5c-0.1,0.6-0.2,1.1-0.2,1.6c0,1.1,0.3,2,0.8,2.6c0.5,0.6,1.4,0.9,2.6,0.9
		c1.4,0,2.3-0.4,2.9-1.3c0.6-0.9,0.8-2.3,0.8-4.2v-6.1c0-1.8-0.2-3.1-0.7-3.9c-0.5-0.8-1.4-1.2-2.6-1.2c-1,0-1.8,0.3-2.3,0.9
		s-0.7,1.5-0.7,2.7c0,0.6,0.1,1.2,0.4,2L290.8,17.6z"/>
	<path class="st0" d="M325.6,16.9c0,2.7-0.7,4.8-2.1,6.3c-1.4,1.5-3.4,2.3-5.9,2.3c-1.6,0-3-0.3-4.2-1c-1.2-0.7-2.1-1.7-2.8-3
		s-1-2.8-1-4.5c0-2.4,0.6-4.3,1.7-5.8c1.1-1.5,2.7-2.3,4.9-2.7c0.2-0.2,0.2-0.5,0.2-0.8c0-0.6-0.4-0.8-1.3-0.8
		c-1.1,0-1.8-0.4-2.3-1.1c-0.5-0.7-0.7-1.9-0.7-3.5h4.2c0,0.6,0.1,1,0.3,1.2c0.2,0.2,0.6,0.3,1.2,0.3c0.7,0,1.4,0.2,1.8,0.7
		c0.5,0.5,0.7,1.1,0.7,1.9c0,0.9-0.2,1.7-0.5,2.3c1.8,0.4,3.3,1.3,4.3,2.8S325.6,14.7,325.6,16.9z M314.2,16.9
		c0,1.6,0.3,2.9,0.8,3.7c0.5,0.8,1.4,1.2,2.6,1.2c1.2,0,2.1-0.4,2.6-1.2c0.5-0.8,0.8-2.1,0.8-3.7c0-1.6-0.3-2.8-0.8-3.7
		c-0.5-0.8-1.4-1.2-2.6-1.2c-1.2,0-2.1,0.4-2.6,1.2C314.5,14.1,314.2,15.3,314.2,16.9z"/>
	<path class="st0" d="M336.5,8.4c2.4,0,4.4,0.7,5.8,2.2c1.4,1.5,2.1,3.5,2.1,6.1c0,1.5-0.2,2.9-0.5,4.2c-0.3,1.3-0.8,2.7-1.6,4.2
		h-4.7c1.4-2.6,2.1-5.3,2.1-8.3c0-1.5-0.3-2.7-0.9-3.6c-0.6-0.8-1.4-1.3-2.5-1.3c-1.1,0-1.9,0.4-2.5,1.3c-0.6,0.9-0.9,2-0.9,3.5
		c0,1.4,0.2,2.8,0.5,4.1c0.3,1.3,0.9,2.7,1.6,4.3h-4.7c-0.8-1.6-1.3-3.1-1.6-4.3c-0.3-1.3-0.4-2.6-0.4-4.1c0-2.5,0.7-4.5,2.2-6
		C332.2,9.2,334.1,8.4,336.5,8.4z"/>
	<path class="st0" d="M73.8,48.6c0-1.4-0.2-2.4-0.6-3c-0.4-0.6-1-0.9-1.9-0.9c-0.9,0-1.6,0.4-2.1,1.3s-0.8,2-0.8,3.5
		c0,1.4,0.2,2.8,0.5,4.1c0.3,1.3,0.9,2.7,1.6,4.3h-4.7c-0.8-1.6-1.3-3.1-1.6-4.3c-0.3-1.3-0.4-2.6-0.4-4.1c0-2.5,0.6-4.5,1.9-6
		c1.3-1.5,3-2.2,5.2-2.2c1.1,0,2.1,0.2,2.9,0.6c0.8,0.4,1.5,1,2,1.9h0.1c1-1.7,2.6-2.5,4.9-2.5c2.2,0,4,0.7,5.3,2.2
		c1.3,1.5,1.9,3.5,1.9,6.1c0,1.5-0.2,2.9-0.5,4.2c-0.3,1.3-0.8,2.7-1.6,4.2h-4.7c1.4-2.6,2.1-5.3,2.1-8.3c0-1.5-0.3-2.7-0.8-3.5
		c-0.5-0.9-1.2-1.3-2.2-1.3c-0.8,0-1.4,0.3-1.8,0.9c-0.4,0.6-0.6,1.6-0.6,3v3h-4.5V48.6z"/>
	<path class="st0" d="M98.4,41c1.3,0,2.3,0.2,3.1,0.6c0.8,0.4,1.5,1,2,1.9h0.1c0.9-1.7,2.6-2.5,4.9-2.5c2.2,0,4,0.7,5.3,2.2
		c1.3,1.5,1.9,3.5,1.9,6.1c0,1.5-0.2,2.9-0.5,4.2c-0.3,1.3-0.8,2.7-1.6,4.2h-4.7c1.4-2.6,2.1-5.3,2.1-8.3c0-1.5-0.3-2.7-0.8-3.5
		c-0.5-0.9-1.2-1.3-2.2-1.3c-0.8,0-1.4,0.3-1.8,0.9c-0.4,0.6-0.6,1.6-0.6,3v3h-4.5v-3c0-1.4-0.2-2.4-0.6-3c-0.4-0.6-1-0.9-1.9-0.9
		c-0.9,0-1.6,0.4-2.1,1.3c-0.5,0.8-0.8,2-0.8,3.5c0,1.4,0.2,2.8,0.5,4.1c0.3,1.3,0.9,2.7,1.6,4.3h-4.7c-0.8-1.6-1.3-3.1-1.6-4.3
		c-0.3-1.3-0.4-2.6-0.4-4.1c0-2.6,0.3-4.7,1-6.3c0.7-1.7,1.6-3,3-4.1c1.3-1.1,3.1-2,5.3-2.7c2.2-0.7,4.8-1.2,7.8-1.4l0.5,3.5
		c-2.2,0.2-4.2,0.5-6,0.9c-1.7,0.4-3.3,1-4.6,1.8V41z"/>
	<path class="st0" d="M134.7,49.5c0,2.7-0.7,4.8-2.1,6.3c-1.4,1.5-3.4,2.3-5.9,2.3c-1.6,0-3-0.3-4.2-1c-1.2-0.7-2.1-1.7-2.8-3
		c-0.6-1.3-1-2.8-1-4.5c0-2.4,0.6-4.3,1.7-5.8c1.1-1.5,2.7-2.3,4.9-2.7c0.2-0.2,0.2-0.5,0.2-0.8c0-0.6-0.4-0.8-1.3-0.8
		c-1.1,0-1.8-0.4-2.3-1.1c-0.5-0.7-0.7-1.9-0.7-3.5h4.2c0,0.6,0.1,1,0.3,1.2c0.2,0.2,0.6,0.3,1.2,0.3c0.7,0,1.4,0.2,1.8,0.7
		c0.5,0.5,0.7,1.1,0.7,1.9c0,0.9-0.2,1.7-0.5,2.3c1.8,0.4,3.3,1.3,4.3,2.8C134.2,45.5,134.7,47.3,134.7,49.5z M123.3,49.5
		c0,1.6,0.3,2.9,0.8,3.7c0.5,0.8,1.4,1.2,2.6,1.2c1.2,0,2.1-0.4,2.6-1.2c0.5-0.8,0.8-2.1,0.8-3.7c0-1.6-0.3-2.8-0.8-3.7
		c-0.5-0.8-1.4-1.2-2.6-1.2c-1.2,0-2.1,0.4-2.6,1.2C123.6,46.7,123.3,47.9,123.3,49.5z"/>
	<path class="st0" d="M145.6,41c2.4,0,4.4,0.7,5.8,2.2c1.4,1.5,2.1,3.5,2.1,6.1c0,1.5-0.2,2.9-0.5,4.2c-0.3,1.3-0.8,2.7-1.6,4.2
		h-4.7c1.4-2.6,2.1-5.3,2.1-8.3c0-1.5-0.3-2.7-0.9-3.6s-1.4-1.3-2.5-1.3s-1.9,0.4-2.5,1.3c-0.6,0.9-0.9,2-0.9,3.5
		c0,1.4,0.2,2.8,0.5,4.1c0.3,1.3,0.9,2.7,1.6,4.3h-4.7c-0.8-1.6-1.3-3.1-1.6-4.3c-0.3-1.3-0.4-2.6-0.4-4.1c0-2.5,0.7-4.5,2.2-6
		C141.3,41.8,143.2,41,145.6,41z"/>
	<path class="st0" d="M168.9,34.9V41c2.5,0.4,4.5,1.7,5.9,3.8c1.4,2.1,2.1,4.8,2.1,8.1c0,3.9-0.9,6.8-2.6,8.9
		c-1.8,2.1-4.3,3.2-7.6,3.2c-3.3,0-5.8-1-7.5-3.1c-1.7-2.1-2.6-5.1-2.6-9c0-3.3,0.7-6,2.1-8.1c1.4-2.1,3.3-3.3,5.8-3.8v-6.1H168.9z
		 M161.1,52.9c0,2.7,0.5,4.9,1.4,6.3c1,1.5,2.3,2.2,4.1,2.2c1.8,0,3.2-0.7,4.2-2.2s1.4-3.6,1.4-6.3c0-2.3-0.3-4.2-0.9-5.6
		c-0.6-1.4-1.4-2.3-2.5-2.6v7.6h-4.5v-7.6c-1,0.2-1.9,1.1-2.5,2.6C161.4,48.8,161.1,50.6,161.1,52.9z"/>
	<path class="st0" d="M189.6,42.1c0,2.8-2.2,5-5.1,5c-2.8,0-5.1-2.2-5.1-5c0-2.7,2.3-4.9,5.1-4.9C187.4,37.2,189.6,39.4,189.6,42.1z
		 M180.7,42.1c0,2.2,1.6,3.9,3.9,3.9c2.2,0,3.8-1.7,3.8-3.9c0-2.2-1.6-4-3.8-4S180.7,39.9,180.7,42.1z M183.8,44.7h-1.1v-4.9
		c0.5-0.1,1.1-0.2,1.9-0.2c0.9,0,1.4,0.2,1.7,0.4c0.3,0.2,0.5,0.6,0.5,1.1c0,0.5-0.4,1-1,1.1v0.1c0.5,0.2,0.8,0.5,0.9,1.2
		c0.2,0.8,0.2,1.1,0.4,1.2h-1.2c-0.2-0.2-0.2-0.6-0.4-1.2c-0.1-0.5-0.4-0.8-1-0.8h-0.5V44.7z M183.8,41.9h0.5c0.6,0,1.1-0.2,1.1-0.7
		c0-0.5-0.3-0.8-1.1-0.8c-0.3,0-0.5,0-0.6,0.1V41.9z"/>
	<path class="st0" d="M199.2,48.7v2h-7.4v-2H199.2z"/>
	<path class="st0" d="M209.6,41c2.4,0,4.4,0.7,5.8,2.2c1.4,1.5,2.1,3.5,2.1,6.1c0,1.5-0.2,2.9-0.5,4.2c-0.3,1.3-0.8,2.7-1.6,4.2
		h-4.7c1.4-2.6,2.1-5.3,2.1-8.3c0-1.5-0.3-2.7-0.9-3.6c-0.6-0.8-1.4-1.3-2.5-1.3c-1.1,0-1.9,0.4-2.5,1.3c-0.6,0.9-0.9,2-0.9,3.5
		c0,1.4,0.2,2.8,0.5,4.1c0.3,1.3,0.9,2.7,1.6,4.3h-4.7c-0.8-1.6-1.3-3.1-1.6-4.3c-0.3-1.3-0.4-2.6-0.4-4.1c0-2.5,0.7-4.5,2.2-6
		C205.3,41.8,207.3,41,209.6,41z"/>
	<path class="st0" d="M237.2,49.4c0,5.8-2.7,8.7-8.2,8.7c-2.5,0-4.4-0.6-5.7-1.9c-1.2-1.3-1.9-3.2-1.9-5.9V34.9h4.5v15.6
		c0,1.4,0.3,2.5,0.8,3.1c0.5,0.6,1.3,0.9,2.4,0.9c1.2,0,2.1-0.4,2.7-1.3c0.5-0.9,0.8-2.2,0.8-4c0-1.3-0.2-2.6-0.5-3.8
		c-0.3-1.2-0.9-2.6-1.6-4h4.8c0.7,1.4,1.2,2.8,1.5,4C237.1,46.6,237.2,47.9,237.2,49.4z"/>
	<path class="st0" d="M256.1,56.5c0,2.7-0.7,4.8-2.1,6.3c-1.4,1.5-3.4,2.3-5.9,2.3c-1.6,0-3-0.3-4.2-1s-2.1-1.7-2.8-3
		c-0.6-1.3-1-2.8-1-4.5c0-2.7,0.7-4.8,2.1-6.3c1.4-1.5,3.4-2.2,5.9-2.2l0.7,0c0.4-0.7,0.5-1.4,0.5-2.1c0-0.6-0.1-1-0.4-1.3
		c-0.3-0.3-0.7-0.4-1.1-0.4c-1,0-1.5,0.5-1.5,1.5c0,0.2,0,0.5,0.1,0.7h-3.6c-0.1-0.3-0.1-0.7-0.1-1.1c0-1.4,0.4-2.5,1.3-3.2
		c0.9-0.8,2.1-1.1,3.7-1.1c1.6,0,2.9,0.4,3.8,1.3c0.9,0.8,1.4,2,1.4,3.5c0,1.1-0.3,2.1-0.9,3.1c1.2,0.7,2.2,1.7,2.9,3
		C255.8,53.2,256.1,54.7,256.1,56.5z M244.8,56.5c0,1.6,0.3,2.9,0.8,3.7c0.5,0.8,1.4,1.2,2.6,1.2c1.2,0,2.1-0.4,2.6-1.2
		c0.5-0.8,0.8-2.1,0.8-3.7c0-1.6-0.3-2.8-0.8-3.7c-0.5-0.8-1.4-1.2-2.6-1.2c-1.2,0-2.1,0.4-2.6,1.2C245,53.6,244.8,54.8,244.8,56.5z
		"/>
	<path class="st0" d="M263.3,51.1c0,1.1,0.3,2,0.8,2.6c0.5,0.6,1.4,0.9,2.6,0.9c1,0,1.8-0.3,2.4-0.8c0.6-0.5,0.8-1.3,0.8-2.2
		c0-0.7-0.2-1.3-0.5-1.8s-1-1.1-1.9-1.7c-1.3-0.9-2.2-1.8-2.7-2.7c-0.5-0.9-0.7-2.2-0.7-3.8h4.5c0,0.7,0.1,1.2,0.2,1.6
		c0.1,0.4,0.3,0.7,0.6,1.1c0.3,0.3,0.7,0.7,1.2,1c1.3,0.9,2.3,1.8,2.9,2.8c0.6,1,0.9,2.2,0.9,3.6c0,2.1-0.7,3.8-2.1,5
		c-1.4,1.2-3.3,1.8-5.7,1.8c-2.6,0-4.6-0.6-5.9-1.8c-1.3-1.2-2-2.9-2-5.2c0-0.7,0.2-1.5,0.5-2.5h4.6c-0.2,0.4-0.3,0.8-0.4,1.3
		C263.4,50.4,263.3,50.8,263.3,51.1z"/>
	<path class="st0" d="M285,58.1c-2.7,0-4.6-0.9-6-2.7c-1.3-1.8-2-4.6-2-8.3c0-4.1,0.7-7.1,2-9.1c1.3-2,3.3-3,6.1-3h6.2v3.6h-6
		c-1.2,0-2,0.3-2.6,0.8c-0.5,0.6-0.8,1.5-1,2.9h0.1c0.5-0.4,1-0.7,1.6-0.9c0.6-0.2,1.3-0.3,2.2-0.3c1.4,0,2.6,0.4,3.7,1.1
		c1.1,0.7,2,1.7,2.6,3c0.6,1.3,0.9,2.8,0.9,4.4c0,2.7-0.7,4.8-2.1,6.3C289.5,57.3,287.5,58.1,285,58.1z M281.6,49.5
		c0,1.6,0.3,2.8,0.9,3.7c0.6,0.9,1.4,1.3,2.6,1.3c1.2,0,2.1-0.4,2.6-1.2c0.5-0.8,0.8-2.1,0.8-3.7c0-1.6-0.3-2.8-0.8-3.7
		s-1.4-1.2-2.6-1.2c-1.2,0-2.1,0.4-2.6,1.2S281.6,47.9,281.6,49.5z"/>
	<path class="st0" d="M301.3,51.1h-3.4l-1.1-14.7h5.5L301.3,51.1z M297.7,53.6c0.5-0.5,1.1-0.8,1.8-0.8s1.3,0.3,1.9,0.8
		c0.5,0.5,0.8,1.1,0.8,1.9c0,0.7-0.3,1.3-0.8,1.8c-0.5,0.5-1.1,0.8-1.9,0.8s-1.3-0.3-1.8-0.8c-0.5-0.5-0.8-1.1-0.8-1.8
		C297,54.8,297.2,54.2,297.7,53.6z"/>
</g>
</svg>
