<?xml version="1.0" encoding="utf-8"?>
<!-- Generator: Adobe Illustrator 19.2.1, SVG Export Plug-In . SVG Version: 6.00 Build 0)  -->
<svg version="1.1" id="Layer_1" xmlns="http://www.w3.org/2000/svg" xmlns:xlink="http://www.w3.org/1999/xlink" x="0px" y="0px"
	 width="728px" height="90px" viewBox="0 0 728 90" style="enable-background:new 0 0 728 90;" xml:space="preserve">
<style type="text/css">
	.st0{fill:#FFFFFF;}
</style>
<g>
	<path class="st0" d="M156.8,26.6c0-4,0.4-6.9,1.3-8.8c0.9-1.9,2.2-2.9,4-2.9c2,0,3.3,0.8,4,2.4h0.1c0.5-0.9,1-1.5,1.5-1.8
		c0.6-0.3,1.2-0.5,2.1-0.5c1.2,0,2.2,0.4,2.9,1.1l-1.7,2.8c-0.5-0.3-0.9-0.5-1.4-0.5c-0.5,0-0.9,0.2-1.1,0.6c-0.2,0.4-0.4,1-0.4,1.8
		v0.2h-4v-0.2c0-0.8-0.1-1.4-0.3-1.8c-0.2-0.4-0.6-0.6-1.1-0.6c-1.1,0-1.7,1.8-1.7,5.4h0.1c0.9-0.9,2.2-1.3,3.8-1.3
		c1.3,0,2.5,0.3,3.5,0.9c1.1,0.6,1.9,1.5,2.5,2.6c0.6,1.1,0.9,2.4,0.9,3.8c0,2.2-0.7,4-2,5.3c-1.4,1.3-3.2,2-5.6,2
		c-2.6,0-4.5-0.9-5.7-2.6S156.8,30.1,156.8,26.6z M161.1,29.7c0,1.3,0.3,2.2,0.8,2.9c0.5,0.7,1.3,1,2.4,1c1.1,0,1.9-0.3,2.4-1
		c0.5-0.7,0.7-1.6,0.7-2.9c0-1.3-0.3-2.2-0.8-2.9c-0.5-0.6-1.3-1-2.5-1c-1.1,0-2,0.3-2.5,1C161.4,27.5,161.1,28.4,161.1,29.7z"/>
	<path class="st0" d="M178.7,30.4c0,1.1,0.3,1.9,0.8,2.4c0.5,0.5,1.3,0.8,2.4,0.8c1,0,1.7-0.3,2.2-0.8c0.5-0.5,0.8-1.2,0.8-2.1
		c0-0.7-0.2-1.2-0.5-1.7c-0.3-0.5-0.9-1.1-1.8-1.6c-1.2-0.8-2.1-1.7-2.5-2.6c-0.4-0.9-0.6-2.1-0.6-3.6h4.3c0,0.6,0.1,1.1,0.2,1.5
		s0.3,0.7,0.6,1c0.3,0.3,0.6,0.6,1.1,0.9c1.3,0.8,2.2,1.7,2.8,2.6c0.6,0.9,0.9,2.1,0.9,3.4c0,2-0.7,3.6-2,4.7
		c-1.3,1.1-3.1,1.7-5.4,1.7c-2.5,0-4.3-0.6-5.6-1.7s-1.9-2.8-1.9-4.9c0-0.7,0.2-1.4,0.5-2.3h4.4c-0.2,0.4-0.3,0.8-0.4,1.2
		C178.8,29.8,178.7,30.1,178.7,30.4z"/>
	<path class="st0" d="M199.6,20.9c2.3,0,4.1,0.7,5.5,2.1c1.4,1.4,2,3.3,2,5.7c0,1.5-0.1,2.8-0.4,4c-0.3,1.2-0.8,2.5-1.5,4h-4.4
		c1.4-2.4,2-5.1,2-7.9c0-1.4-0.3-2.6-0.9-3.4c-0.6-0.8-1.4-1.2-2.4-1.2s-1.8,0.4-2.3,1.2c-0.6,0.8-0.8,1.9-0.8,3.3
		c0,1.3,0.2,2.6,0.5,3.9c0.3,1.2,0.8,2.6,1.5,4.1H194c-0.7-1.5-1.2-2.9-1.5-4.1c-0.3-1.2-0.4-2.5-0.4-3.9c0-2.4,0.7-4.3,2.1-5.7
		C195.5,21.6,197.3,20.9,199.6,20.9z"/>
	<path class="st0" d="M209.9,27.7c0-2.2,0.6-3.8,1.9-5c1.2-1.2,3-1.8,5.3-1.8c1.8,0,3.3,0.5,4.5,1.4c1.3-0.9,3-1.4,5.2-1.4
		c2.2,0,4,0.5,5.2,1.6c1.3,1,1.9,2.4,1.9,4.2c0,1.1-0.3,2.1-0.9,2.9c-0.6,0.8-1.4,1.5-2.5,2c1.2,0.4,2.1,1,2.8,1.9
		c0.7,0.8,1,1.9,1,3.2c0,2.2-0.8,4-2.4,5.2s-3.8,1.8-6.8,1.8c-2.9,0-5.1-0.5-6.7-1.4c-1.6-1-2.3-2.3-2.3-4.1c0-0.7,0.1-1.3,0.3-1.8
		h4.3c-0.2,0.5-0.3,0.9-0.3,1.4c0,1.7,1.6,2.6,4.7,2.6c3.2,0,4.8-1.2,4.8-3.5c0-1.1-0.3-2-1-2.5c-0.7-0.5-1.7-0.7-3.1-0.7h-0.7V30
		h0.8c1.1,0,2-0.3,2.7-0.8c0.7-0.5,1-1.3,1-2.3c0-0.9-0.3-1.5-0.8-2c-0.5-0.5-1.3-0.7-2.2-0.7c-1.4,0-2.4,0.3-3,1
		c0.2,0.7,0.3,1.5,0.3,2.4c0,2.2-0.6,3.9-1.8,5.1c-1.2,1.2-3,1.8-5.2,1.8c-2.1,0-3.7-0.6-5-1.8C210.5,31.5,209.9,29.8,209.9,27.7z
		 M219.6,27.7c0-1.1-0.2-2-0.6-2.5c-0.4-0.6-1.1-0.9-2.1-0.9s-1.6,0.3-2,0.9c-0.4,0.6-0.6,1.4-0.6,2.5c0,1.1,0.2,2,0.7,2.5
		s1.1,0.9,2.1,0.9c0.9,0,1.6-0.3,2-0.8C219.4,29.7,219.6,28.9,219.6,27.7z"/>
	<path class="st0" d="M241.6,28.8c0,1.4,0.3,2.7,0.8,3.9c0.5,1.1,1.3,2,2.3,2.6c1,0.6,2.1,0.9,3.4,0.9c2.4,0,4.5,0.4,6.3,1.2
		c1.8,0.8,3.5,2,5,3.7l-2.5,2.5c-2.4-2.6-5.4-3.9-9.1-3.9c-1.1,0-2.2,0.2-3.2,0.6c-1,0.4-1.9,1-2.7,1.7l-2.2-2.7
		c0.9-0.8,1.9-1.4,3-1.9c-1.1-0.6-2.1-1.3-2.9-2.3c-0.8-0.9-1.4-1.9-1.8-3.1c-0.4-1.1-0.6-2.2-0.6-3.4c0-2.5,0.5-4.4,1.6-5.8
		c1.1-1.4,2.6-2.1,4.5-2.1c1,0,1.9,0.2,2.6,0.5s1.4,1,1.9,1.8h0.1c0.5-0.8,1.1-1.4,1.7-1.8c0.7-0.4,1.5-0.6,2.4-0.6
		c1.9,0,3.3,0.8,4.2,2.4h0.1c0.5-0.9,1.1-1.5,1.8-1.8s1.6-0.5,2.6-0.5c1.3,0,2.4,0.3,3.3,0.9c0.9,0.6,1.7,1.5,2.2,2.7
		s0.8,2.6,0.8,4.2c0,1.5-0.1,2.8-0.4,4c-0.3,1.2-0.8,2.5-1.5,4h-4.4c1.4-2.4,2-5,2-7.9c0-1.4-0.2-2.6-0.6-3.4
		c-0.4-0.8-1-1.2-1.8-1.2c-0.7,0-1.2,0.3-1.5,0.8s-0.4,1.5-0.4,2.9v2.9h-4.2v-2.9c0-1.4-0.2-2.4-0.5-2.9c-0.3-0.5-0.9-0.8-1.6-0.8
		c-0.7,0-1.2,0.3-1.6,0.9s-0.5,1.5-0.5,2.9v2.9h-4.2v-2.9c0-1.3-0.2-2.2-0.5-2.8s-0.9-0.9-1.6-0.9c-0.7,0-1.3,0.4-1.6,1.2
		C241.7,26.3,241.6,27.4,241.6,28.8z"/>
	<path class="st0" d="M277.8,20.9c2.3,0,4.1,0.7,5.5,2.1c1.4,1.4,2,3.3,2,5.7c0,1.5-0.1,2.8-0.4,4c-0.3,1.2-0.8,2.5-1.5,4h-4.4
		c1.4-2.4,2-5.1,2-7.9c0-1.4-0.3-2.6-0.9-3.4c-0.6-0.8-1.4-1.2-2.4-1.2c-1,0-1.8,0.4-2.3,1.2c-0.6,0.8-0.8,1.9-0.8,3.3
		c0,1.3,0.2,2.6,0.5,3.9c0.3,1.2,0.8,2.6,1.5,4.1h-4.4c-0.7-1.5-1.2-2.9-1.5-4.1c-0.3-1.2-0.4-2.5-0.4-3.9c0-2.4,0.7-4.3,2.1-5.7
		C273.7,21.6,275.5,20.9,277.8,20.9z"/>
	<path class="st0" d="M295,20.9c1.2,0,2.2,0.2,3,0.5c0.8,0.4,1.4,1,1.9,1.8h0.1c0.9-1.6,2.4-2.4,4.7-2.4c2.1,0,3.8,0.7,5,2.1
		s1.8,3.3,1.8,5.7c0,1.5-0.1,2.8-0.4,4c-0.3,1.2-0.8,2.5-1.5,4h-4.4c1.3-2.4,2-5.1,2-7.9c0-1.4-0.2-2.6-0.7-3.4
		c-0.5-0.8-1.2-1.2-2-1.2c-0.8,0-1.4,0.3-1.7,0.9c-0.4,0.6-0.6,1.5-0.6,2.9v2.9h-4.2v-2.9c0-1.4-0.2-2.3-0.6-2.9s-1-0.9-1.8-0.9
		c-0.9,0-1.5,0.4-2,1.2c-0.5,0.8-0.7,1.9-0.7,3.3c0,1.3,0.2,2.6,0.5,3.9c0.3,1.2,0.8,2.6,1.5,4.1h-4.4c-0.7-1.5-1.2-2.9-1.5-4.1
		c-0.3-1.2-0.4-2.5-0.4-3.9c0-2.4,0.3-4.4,0.9-6c0.6-1.6,1.6-2.9,2.8-3.9c1.3-1.1,2.9-1.9,5-2.6c2.1-0.7,4.5-1.1,7.4-1.3l0.5,3.3
		c-2.1,0.2-4,0.4-5.7,0.8c-1.7,0.4-3.1,1-4.3,1.7V20.9z"/>
	<path class="st0" d="M326,15.1v5.8c2.4,0.4,4.2,1.6,5.6,3.6c1.3,2,2,4.5,2,7.7c0,3.7-0.8,6.5-2.5,8.5c-1.7,2-4.1,3-7.2,3
		c-3.1,0-5.5-1-7.1-3c-1.7-2-2.5-4.8-2.5-8.5c0-3.1,0.7-5.7,2-7.6s3.2-3.2,5.5-3.6v-5.8H326z M318.6,32.1c0,2.6,0.5,4.6,1.4,6
		s2.2,2.1,3.9,2.1c1.7,0,3.1-0.7,4-2.1s1.4-3.4,1.4-6c0-2.2-0.3-4-0.8-5.3c-0.5-1.4-1.3-2.2-2.4-2.5v7.2h-4.3v-7.2
		c-1,0.2-1.8,1-2.3,2.5C318.9,28.2,318.6,30,318.6,32.1z"/>
	<path class="st0" d="M340.4,30.4c0,1.1,0.3,1.9,0.8,2.4c0.5,0.5,1.3,0.8,2.4,0.8c1,0,1.7-0.3,2.2-0.8c0.5-0.5,0.8-1.2,0.8-2.1
		c0-0.7-0.2-1.2-0.5-1.7s-0.9-1.1-1.8-1.6c-1.2-0.8-2.1-1.7-2.5-2.6c-0.4-0.9-0.6-2.1-0.6-3.6h4.3c0,0.6,0.1,1.1,0.2,1.5
		s0.3,0.7,0.6,1c0.3,0.3,0.6,0.6,1.1,0.9c1.3,0.8,2.2,1.7,2.8,2.6c0.6,0.9,0.9,2.1,0.9,3.4c0,2-0.7,3.6-2,4.7
		c-1.3,1.1-3.1,1.7-5.4,1.7c-2.5,0-4.3-0.6-5.6-1.7s-1.9-2.8-1.9-4.9c0-0.7,0.2-1.4,0.5-2.3h4.4c-0.2,0.4-0.3,0.8-0.4,1.2
		S340.4,30.1,340.4,30.4z"/>
	<path class="st0" d="M353.8,27.7c-0.1-0.4-0.1-0.8-0.1-1.2c0-1.7,0.6-3.1,1.9-4.1c1.3-1,3-1.5,5.2-1.5c2.2,0,4,0.5,5.2,1.5
		c1.3,1,1.9,2.4,1.9,4.2c0,1.1-0.3,2.1-0.9,2.9c-0.6,0.9-1.4,1.5-2.5,2c1.2,0.4,2.1,1.1,2.7,2.1c0.7,0.9,1,2.1,1,3.3
		c0,2.1-0.7,3.7-2,4.9c-1.4,1.2-3.3,1.8-5.7,1.8c-2.3,0-4.2-0.5-5.6-1.5c-1.4-1-2.1-2.4-2.1-4.1c0-0.7,0.1-1.4,0.4-2.1h4.3
		c-0.2,0.4-0.3,0.7-0.3,1c0,0.3-0.1,0.6-0.1,0.9c0,0.8,0.3,1.4,0.9,1.8c0.6,0.4,1.4,0.6,2.4,0.6c2.3,0,3.4-1.1,3.4-3.3
		c0-1.2-0.3-2.1-0.9-2.6c-0.6-0.5-1.7-0.8-3.1-0.8h-3V30h3.1c1.2,0,2.1-0.3,2.7-0.9s0.9-1.4,0.9-2.4c0-0.8-0.2-1.4-0.7-1.8
		c-0.5-0.4-1.2-0.6-2-0.6c-0.9,0-1.6,0.2-2.1,0.5c-0.5,0.4-0.7,0.9-0.7,1.6c0,0.5,0.1,0.9,0.2,1.2H353.8z"/>
	<path class="st0" d="M372,29.6c-0.2-0.7-0.3-1.3-0.3-2c0-2.1,0.7-3.7,2-4.9c1.3-1.2,3.1-1.8,5.3-1.8c2.4,0,4.3,0.7,5.6,2
		c1.3,1.4,1.9,3.4,1.9,6.2v6.4c0,2.6-0.7,4.6-2,6c-1.3,1.4-3.3,2.1-5.8,2.1c-2.5,0-4.4-0.6-5.7-1.7c-1.3-1.1-1.9-2.8-1.9-4.9
		c0-1,0.2-2,0.7-3.1h4.3c-0.2,0.4-0.3,0.9-0.5,1.4c-0.1,0.5-0.2,1.1-0.2,1.5c0,1.1,0.3,1.9,0.8,2.5c0.5,0.6,1.3,0.8,2.5,0.8
		c1.3,0,2.2-0.4,2.7-1.3c0.5-0.8,0.8-2.2,0.8-4v-5.8c0-1.7-0.2-3-0.7-3.7c-0.5-0.8-1.3-1.1-2.4-1.1c-1,0-1.7,0.3-2.2,0.8
		c-0.5,0.6-0.7,1.4-0.7,2.6c0,0.5,0.1,1.2,0.3,1.9L372,29.6z"/>
	<path class="st0" d="M401.7,20.9h1.8c2.4,0,4.3,0.5,5.5,1.5s1.8,2.4,1.8,4.3c0,1.1-0.3,2.1-0.9,2.9c-0.6,0.9-1.4,1.5-2.5,2
		c1.2,0.4,2.1,1.1,2.7,2.1c0.7,0.9,1,2.1,1,3.3c0,2.1-0.7,3.7-2,4.9c-1.4,1.2-3.3,1.8-5.7,1.8c-2.4,0-4.2-0.5-5.6-1.5
		c-1.4-1-2-2.4-2-4.1c0-0.8,0.1-1.5,0.4-2.1h4.3c-0.2,0.4-0.3,0.7-0.3,1c-0.1,0.3-0.1,0.6-0.1,0.9c0,0.8,0.3,1.4,0.9,1.8
		c0.6,0.4,1.4,0.6,2.4,0.6c2.3,0,3.4-1.1,3.4-3.3c0-1.2-0.3-2.1-0.9-2.6c-0.6-0.5-1.7-0.8-3.1-0.8h-1V30h1c1.1,0,2-0.3,2.7-0.8
		s1-1.2,1-2.1c0-1-0.3-1.7-0.8-2.1c-0.5-0.5-1.3-0.7-2.4-0.7h-1.6V20.9z"/>
	<path class="st0" d="M423.6,28.1c0-1.4-0.2-2.3-0.6-2.9s-1-0.9-1.8-0.9c-0.9,0-1.5,0.4-2,1.2c-0.5,0.8-0.7,1.9-0.7,3.3
		c0,1.3,0.2,2.6,0.5,3.9c0.3,1.2,0.8,2.6,1.5,4.1h-4.4c-0.7-1.5-1.2-2.9-1.5-4.1c-0.3-1.2-0.4-2.5-0.4-3.9c0-2.4,0.6-4.3,1.8-5.7
		c1.2-1.4,2.9-2.1,5-2.1c1.1,0,2,0.2,2.8,0.6c0.8,0.4,1.4,1,1.9,1.8h0.1c0.9-1.6,2.5-2.4,4.7-2.4c2.1,0,3.8,0.7,5,2.1
		c1.2,1.4,1.8,3.3,1.8,5.8c0,1.5-0.1,2.8-0.4,4c-0.3,1.2-0.8,2.5-1.5,4h-4.4c1.3-2.4,2-5.1,2-7.9c0-1.4-0.2-2.6-0.7-3.4
		c-0.5-0.8-1.2-1.2-2-1.2c-0.8,0-1.4,0.3-1.7,0.9c-0.4,0.6-0.6,1.5-0.6,2.9v2.9h-4.2V28.1z"/>
	<path class="st0" d="M446.7,30.2h1.8c1.1,0,2-0.3,2.7-0.8s1-1.2,1-2.1c0-0.8-0.3-1.4-0.8-1.8s-1.5-0.6-2.8-0.7
		c-0.5,0-1-0.2-1.4-0.5c-0.4-0.3-0.6-0.6-0.7-0.9l2.3-2.8c0.2,0.3,0.5,0.5,0.8,0.6c0.3,0.1,0.6,0.2,1,0.3c2.1,0.2,3.6,0.7,4.5,1.5
		c0.9,0.8,1.4,2.1,1.4,3.8c0,1.1-0.3,2-0.9,2.9s-1.4,1.5-2.5,2c1.2,0.4,2.1,1.1,2.7,2s1,2,1,3.2c0,2-0.7,3.7-2.1,4.9
		s-3.3,1.8-5.7,1.8c-3.1,0-5.4-0.9-6.8-2.7c-1.4-1.8-2.1-4.7-2.1-8.7c0-2.2,0.2-4.3,0.6-6.4s1-3.7,1.7-4.9h4.3
		c-0.8,1.3-1.3,3-1.7,4.9c-0.4,1.9-0.6,4.1-0.6,6.4c0,2,0.1,3.5,0.4,4.7c0.3,1.2,0.8,2,1.4,2.5s1.5,0.8,2.7,0.8c1.1,0,2-0.3,2.6-0.9
		c0.6-0.6,0.9-1.4,0.9-2.4c0-1.2-0.3-2-0.9-2.5s-1.7-0.8-3.2-0.8h-1.7V30.2z"/>
	<path class="st0" d="M467.1,37.1c-2.5,0-4.4-0.9-5.6-2.6c-1.2-1.7-1.9-4.3-1.9-7.9c0-3.9,0.6-6.8,1.9-8.7s3.2-2.9,5.8-2.9h5.9v3.4
		h-5.7c-1.1,0-1.9,0.3-2.4,0.8s-0.8,1.4-0.9,2.7h0.1c0.4-0.4,0.9-0.7,1.5-0.9c0.6-0.2,1.3-0.3,2.1-0.3c1.3,0,2.5,0.3,3.5,1
		c1.1,0.7,1.9,1.6,2.5,2.8c0.6,1.2,0.9,2.6,0.9,4.2c0,2.5-0.7,4.5-2,6C471.4,36.3,469.5,37.1,467.1,37.1z M464,29
		c0,1.5,0.3,2.7,0.8,3.5c0.5,0.8,1.3,1.2,2.4,1.2c1.1,0,1.9-0.4,2.4-1.2c0.5-0.8,0.7-2,0.7-3.5c0-1.5-0.3-2.7-0.8-3.5
		c-0.5-0.8-1.3-1.2-2.5-1.2c-1.1,0-2,0.4-2.5,1.1C464.2,26.2,464,27.4,464,29z"/>
	<path class="st0" d="M485.1,20.9c2.3,0,4.1,0.7,5.5,2.1c1.4,1.4,2,3.3,2,5.7c0,1.5-0.1,2.8-0.4,4c-0.3,1.2-0.8,2.5-1.5,4h-4.4
		c1.4-2.4,2-5.1,2-7.9c0-1.4-0.3-2.6-0.9-3.4c-0.6-0.8-1.4-1.2-2.4-1.2c-1,0-1.8,0.4-2.3,1.2c-0.6,0.8-0.8,1.9-0.8,3.3
		c0,1.3,0.2,2.6,0.5,3.9c0.3,1.2,0.8,2.6,1.5,4.1h-4.4c-0.7-1.5-1.2-2.9-1.5-4.1c-0.3-1.2-0.4-2.5-0.4-3.9c0-2.4,0.7-4.3,2.1-5.7
		C481,21.6,482.8,20.9,485.1,20.9z"/>
	<path class="st0" d="M511.2,28.8c0,5.5-2.6,8.3-7.8,8.3c-2.4,0-4.2-0.6-5.4-1.8s-1.8-3.1-1.8-5.6V15.1h4.3v14.7
		c0,1.4,0.2,2.3,0.7,2.9c0.5,0.6,1.3,0.9,2.3,0.9c1.2,0,2-0.4,2.5-1.2c0.5-0.8,0.8-2.1,0.8-3.8c0-1.3-0.2-2.5-0.5-3.6
		c-0.3-1.1-0.8-2.4-1.5-3.8h4.5c0.7,1.4,1.2,2.6,1.4,3.8S511.2,27.4,511.2,28.8z"/>
	<path class="st0" d="M520.9,37.1c-2.1,0-3.7-0.7-5-2.2c-1.2-1.4-1.9-3.4-1.9-5.9s0.6-4.5,1.9-5.9s3-2.2,5.2-2.2
		c1.1,0,2,0.2,2.7,0.6c0.8,0.4,1.4,1,1.9,1.8h0.1c0.9-1.6,2.5-2.4,4.7-2.4c2.1,0,3.8,0.7,5,2.1c1.2,1.4,1.8,3.3,1.8,5.7
		c0,1.5-0.1,2.8-0.4,4c-0.3,1.2-0.8,2.5-1.5,4H531c1.3-2.4,2-5.1,2-7.9c0-1.4-0.2-2.6-0.7-3.4c-0.5-0.8-1.1-1.2-1.9-1.2
		c-0.9,0-1.6,0.4-2,1.1S528,27.3,528,29c0,2.6-0.6,4.5-1.8,6C524.9,36.3,523.1,37.1,520.9,37.1z M523.7,29c0-1.6-0.2-2.8-0.6-3.5
		s-1-1.1-1.9-1.1c-1,0-1.7,0.4-2.2,1.1s-0.7,1.9-0.7,3.5c0,1.6,0.2,2.7,0.7,3.5c0.4,0.8,1.1,1.2,2.1,1.2c0.9,0,1.5-0.4,2-1.1
		C523.5,31.8,523.7,30.6,523.7,29z"/>
	<path class="st0" d="M540.6,27.7c-0.1-0.4-0.1-0.8-0.1-1.2c0-1.7,0.6-3.1,1.9-4.1c1.3-1,3-1.5,5.2-1.5c2.2,0,4,0.5,5.2,1.5
		c1.3,1,1.9,2.4,1.9,4.2c0,1.1-0.3,2.1-0.9,2.9c-0.6,0.9-1.4,1.5-2.5,2c1.2,0.4,2.1,1.1,2.7,2.1c0.7,0.9,1,2.1,1,3.3
		c0,2.1-0.7,3.7-2,4.9c-1.4,1.2-3.3,1.8-5.7,1.8c-2.3,0-4.2-0.5-5.6-1.5c-1.4-1-2.1-2.4-2.1-4.1c0-0.7,0.1-1.4,0.4-2.1h4.3
		c-0.2,0.4-0.3,0.7-0.3,1c0,0.3-0.1,0.6-0.1,0.9c0,0.8,0.3,1.4,0.9,1.8c0.6,0.4,1.4,0.6,2.4,0.6c2.3,0,3.4-1.1,3.4-3.3
		c0-1.2-0.3-2.1-0.9-2.6c-0.6-0.5-1.7-0.8-3.1-0.8h-3V30h3.1c1.2,0,2.1-0.3,2.7-0.9c0.6-0.6,0.9-1.4,0.9-2.4c0-0.8-0.2-1.4-0.7-1.8
		c-0.5-0.4-1.2-0.6-2-0.6s-1.6,0.2-2.1,0.5c-0.5,0.4-0.7,0.9-0.7,1.6c0,0.5,0.1,0.9,0.2,1.2H540.6z"/>
	<path class="st0" d="M565.6,20.9c2.3,0,4.1,0.7,5.5,2.1c1.4,1.4,2,3.3,2,5.7c0,1.5-0.1,2.8-0.4,4c-0.3,1.2-0.8,2.5-1.5,4h-4.4
		c1.4-2.4,2-5.1,2-7.9c0-1.4-0.3-2.6-0.9-3.4c-0.6-0.8-1.4-1.2-2.4-1.2c-1,0-1.8,0.4-2.3,1.2c-0.6,0.8-0.8,1.9-0.8,3.3
		c0,1.3,0.2,2.6,0.5,3.9c0.3,1.2,0.8,2.6,1.5,4.1H560c-0.7-1.5-1.2-2.9-1.5-4.1s-0.4-2.5-0.4-3.9c0-2.4,0.7-4.3,2.1-5.7
		C561.5,21.6,563.4,20.9,565.6,20.9z"/>
	<path class="st0" d="M591.8,28.8c0,5.5-2.6,8.3-7.8,8.3c-2.4,0-4.2-0.6-5.4-1.8s-1.8-3.1-1.8-5.6V15.1h4.3v14.7
		c0,1.4,0.2,2.3,0.7,2.9s1.3,0.9,2.3,0.9c1.2,0,2-0.4,2.5-1.2c0.5-0.8,0.8-2.1,0.8-3.8c0-1.3-0.2-2.5-0.5-3.6
		c-0.3-1.1-0.8-2.4-1.5-3.8h4.5c0.7,1.4,1.2,2.6,1.4,3.8S591.8,27.4,591.8,28.8z"/>
</g>
</svg>
