<?xml version="1.0" encoding="utf-8"?>
<!-- Generator: Adobe Illustrator 19.2.1, SVG Export Plug-In . SVG Version: 6.00 Build 0)  -->
<svg version="1.1" id="Layer_1" xmlns="http://www.w3.org/2000/svg" xmlns:xlink="http://www.w3.org/1999/xlink" x="0px" y="0px"
	 width="367px" height="35px" viewBox="0 0 367 35" style="enable-background:new 0 0 367 35;" xml:space="preserve">
<style type="text/css">
	.st0{fill:#FFFFFF;}
</style>
<g>
	<path class="st0" d="M5.4,9.1h3.9v10.6l6.6-10.6h4.7v17.5h-3.9V15.1L9.6,26.6H5.4V9.1z"/>
	<path class="st0" d="M34.4,21.9v4.7h-3.9V9.1h3.9v7.3l6.4-7.3h5.1l-6.8,7.6l6.8,9.9h-4.9l-4.7-6.9L34.4,21.9z"/>
	<path class="st0" d="M51.8,26.6h-3.9V9.1h6.6c1.8,0,3.2,0.5,4.3,1.6c1.1,1.1,1.7,2.4,1.7,4c0,1.7-0.6,3-1.7,4
		c-1.1,1-2.5,1.6-4.3,1.6h-2.7V26.6z M55.9,16.4c0.5-0.4,0.7-1,0.7-1.6c0-0.7-0.2-1.2-0.7-1.7c-0.4-0.4-1-0.6-1.8-0.6h-2.3V17h2.3
		C54.8,17,55.4,16.8,55.9,16.4z"/>
	<path class="st0" d="M71.8,9.2h4.5l-5.1,12.3c-0.3,0.9-0.7,1.5-1,2.1c-0.3,0.5-0.7,1-1.2,1.5c-1,1.1-2.4,1.6-4.3,1.6h-1.2v-3.4h0.8
		c0.7,0,1.3-0.2,1.8-0.6c0.2-0.2,0.4-0.4,0.5-0.7c0-0.1,0-0.2,0-0.3c0-0.2,0-0.5-0.1-0.7L61.5,9.2h4.5l2.8,6.8L71.8,9.2z"/>
	<path class="st0" d="M86.3,26.6h-3.9V12.9H77V9.1h14.7v3.7h-5.4V26.6z"/>
	<path class="st0" d="M105,17c1.1,1,1.7,2.4,1.7,4c0,1.6-0.6,3-1.7,4c-1.1,1.1-2.5,1.6-4.3,1.6h-6.6V9.1H98v6.3h2.7
		C102.5,15.4,103.9,16,105,17z M98,23.3h2.3c0.8,0,1.4-0.2,1.8-0.6c0.5-0.4,0.7-1,0.7-1.7c0-0.7-0.2-1.2-0.7-1.6
		c-0.5-0.4-1.1-0.6-1.8-0.6H98V23.3z M107.8,9.1h3.9v17.5h-3.9V9.1z"/>
	<path class="st0" d="M115.6,9.1h11.1v3.7h-7.2v3.3h6.5v3.4h-6.5v3.4h7.2v3.7h-11.1V9.1z"/>
	<path class="st0" d="M136,9.2h14.8v17.5h-3.9V12.8h-7v13.8H136V9.2z"/>
	<path class="st0" d="M157.6,26.6h-3.9V9.1h6.6c1.8,0,3.2,0.5,4.3,1.6c1.1,1.1,1.7,2.4,1.7,4c0,1.7-0.6,3-1.7,4
		c-1.1,1-2.5,1.6-4.3,1.6h-2.7V26.6z M161.7,16.4c0.5-0.4,0.7-1,0.7-1.6c0-0.7-0.2-1.2-0.7-1.7c-0.4-0.4-1-0.6-1.8-0.6h-2.3V17h2.3
		C160.6,17,161.2,16.8,161.7,16.4z"/>
	<path class="st0" d="M168.7,9.1h3.9v10.6l6.6-10.6h4.7v17.5H180V15.1l-7.2,11.5h-4.1V9.1z"/>
	<path class="st0" d="M186.5,20.9h3.8c0,0.9,0.3,1.5,0.9,2c0.5,0.5,1.2,0.7,2.1,0.7c0.9,0,1.7-0.2,2.2-0.7c0.5-0.5,0.8-1,0.8-1.7
		c0-0.8-0.3-1.5-0.9-1.9c-0.6-0.4-1.2-0.6-2-0.6h-1.2v-3h1.4c0.5,0,1-0.2,1.4-0.5c0.4-0.3,0.6-0.8,0.6-1.4c0-0.5-0.2-0.9-0.6-1.2
		c-0.4-0.3-0.8-0.5-1.3-0.5c-0.7,0-1.2,0.2-1.6,0.6c-0.3,0.4-0.5,0.9-0.5,1.5l-3.6-0.4c0.1-1.3,0.6-2.4,1.5-3.4
		c1-0.9,2.4-1.4,4.2-1.4c1.6,0,3,0.4,4,1.3c1,0.9,1.5,2,1.5,3.3c0,0.8-0.2,1.5-0.7,2.2c-0.5,0.7-1.2,1.1-1.8,1.4
		c0.9,0.2,1.7,0.7,2.4,1.5c0.7,0.8,1,1.7,1,2.8c0,1.5-0.6,2.8-1.8,3.7c-1.2,1-2.8,1.5-4.9,1.5c-2.1,0-3.7-0.6-4.9-1.7
		C187.3,24,186.6,22.6,186.5,20.9z"/>
	<path class="st0" d="M213.4,17c1.1,1,1.7,2.4,1.7,4c0,1.6-0.6,3-1.7,4c-1.1,1.1-2.5,1.6-4.3,1.6h-6.6V9.1h3.9v6.3h2.7
		C210.8,15.4,212.3,16,213.4,17z M206.4,23.3h2.3c0.8,0,1.4-0.2,1.8-0.6c0.5-0.4,0.7-1,0.7-1.7c0-0.7-0.2-1.2-0.7-1.6
		c-0.5-0.4-1.1-0.6-1.8-0.6h-2.3V23.3z M216.2,9.1h3.9v17.5h-3.9V9.1z"/>
	<path class="st0" d="M238.1,8.8c2.5,0,4.6,0.8,6.4,2.5c1.8,1.7,2.7,3.9,2.7,6.6c0,2.7-0.9,4.9-2.7,6.6c-1.7,1.7-3.9,2.5-6.4,2.5
		c-2.5,0-4.6-0.8-6.4-2.5c-1.8-1.7-2.7-3.9-2.7-6.6c0-2.7,0.9-4.9,2.7-6.6C233.4,9.6,235.6,8.8,238.1,8.8z M238.1,23.2
		c1.4,0,2.5-0.4,3.4-1.3c1.1-1,1.6-2.3,1.6-4c0-1.7-0.5-3-1.6-4c-0.9-0.9-2.1-1.3-3.4-1.3c-1.3,0-2.5,0.4-3.5,1.3
		c-1.1,1-1.6,2.3-1.6,4c0,1.7,0.5,3,1.6,4C235.6,22.7,236.7,23.2,238.1,23.2z"/>
	<path class="st0" d="M257.4,26.6h-3.9V12.9h-5.4V9.1h14.7v3.7h-5.4V26.6z"/>
	<path class="st0" d="M272.9,11.3c1.8-1.7,3.9-2.5,6.4-2.5c2.5,0,4.7,0.8,6.4,2.5c1.8,1.7,2.6,3.9,2.6,6.6c0,2.7-0.9,4.9-2.6,6.6
		c-1.8,1.7-3.9,2.5-6.4,2.5c-2.5,0-4.7-0.8-6.4-2.5c-1.8-1.7-2.7-3.9-2.7-6.6C270.3,15.2,271.1,13,272.9,11.3z M279.4,12.6
		c-1.3,0-2.5,0.5-3.5,1.4c-1,0.9-1.5,2.2-1.5,3.9c0,1.7,0.5,3,1.5,3.9c1,0.9,2.2,1.4,3.5,1.4c1.3,0,2.5-0.5,3.5-1.4
		c1-0.9,1.5-2.2,1.5-3.9c0-1.7-0.5-3-1.5-3.9C281.9,13,280.7,12.6,279.4,12.6z"/>
	<path class="st0" d="M296.5,20.1h-1.4v6.5h-3.9V9.1h6.9c1.7,0,3.1,0.5,4.1,1.6c1,1,1.6,2.3,1.6,3.9c0,1.2-0.3,2.2-0.9,3.1
		c-0.6,0.9-1.5,1.5-2.5,1.9l3.6,7.1h-4.3L296.5,20.1z M297.4,16.8c0.8,0,1.4-0.2,1.8-0.6c0.4-0.4,0.6-0.9,0.6-1.5
		c0-0.7-0.2-1.2-0.6-1.6c-0.4-0.4-1-0.6-1.8-0.6h-2.3v4.2H297.4z"/>
	<path class="st0" d="M313.3,9.1c1.7,0,3,0.4,4,1.3c1,0.9,1.5,2,1.5,3.4c0,0.9-0.2,1.7-0.7,2.3s-1.1,1.2-1.8,1.4
		c0.9,0.2,1.6,0.7,2.2,1.4c0.6,0.7,0.9,1.6,0.9,2.7c0,1.4-0.5,2.6-1.5,3.6c-1,0.9-2.3,1.4-4,1.4h-7.1V9.1H313.3z M312.6,16.2
		c0.7,0,1.2-0.2,1.6-0.5c0.4-0.3,0.6-0.8,0.6-1.4c0-0.6-0.2-1-0.6-1.4c-0.4-0.3-1-0.5-1.7-0.5h-2.1v3.8H312.6z M313,23.5
		c0.8,0,1.3-0.2,1.8-0.6c0.4-0.4,0.6-0.9,0.6-1.5c0-0.6-0.2-1.1-0.6-1.5c-0.4-0.4-1-0.6-1.8-0.6h-2.4v4.1H313z"/>
	<path class="st0" d="M321.9,26.6V9.1h3.9v17.5H321.9z"/>
	<path class="st0" d="M337.5,12.9v13.8h-3.9V12.9h-5.4V9.1h14.7v3.7H337.5z"/>
	<path class="st0" d="M349.2,18.7c-1.5,0-2.7-0.5-3.8-1.6c-1-1-1.6-2.3-1.6-3.8c0-1.5,0.5-2.7,1.6-3.8c1-1,2.3-1.6,3.8-1.6
		s2.7,0.5,3.8,1.6c1,1,1.6,2.3,1.6,3.8c0,1.5-0.5,2.7-1.6,3.8C351.9,18.1,350.7,18.7,349.2,18.7z M349.2,9.2c-1.1,0-2.1,0.4-2.9,1.2
		c-0.8,0.8-1.2,1.8-1.2,2.9c0,1.2,0.4,2.1,1.2,2.9c0.8,0.8,1.7,1.2,2.9,1.2c1.1,0,2.1-0.4,2.9-1.2c0.8-0.8,1.2-1.8,1.2-2.9
		c0-1.2-0.4-2.1-1.2-2.9C351.3,9.6,350.3,9.2,349.2,9.2z M349.1,14.2h-0.4v1.9h-1.5v-5.7h2.4c0.6,0,1,0.2,1.4,0.5
		c0.4,0.4,0.6,0.8,0.6,1.3c0,0.4-0.1,0.7-0.3,1c-0.2,0.3-0.4,0.5-0.7,0.7l1.1,2.2H350L349.1,14.2z M349.3,13c0.2,0,0.4-0.1,0.5-0.2
		c0.1-0.1,0.2-0.3,0.2-0.5c0-0.2-0.1-0.4-0.2-0.5c-0.1-0.1-0.3-0.2-0.5-0.2h-0.6V13H349.3z"/>
	<path class="st0" d="M360.7,21.2h-2.8l-0.9-12h4.5L360.7,21.2z M357.8,23.2c0.4-0.4,0.9-0.6,1.5-0.6c0.6,0,1.1,0.2,1.5,0.6
		c0.4,0.4,0.6,0.9,0.6,1.5c0,0.6-0.2,1.1-0.6,1.5c-0.4,0.4-0.9,0.6-1.5,0.6c-0.6,0-1.1-0.2-1.5-0.6c-0.4-0.4-0.6-0.9-0.6-1.5
		C357.2,24.2,357.4,23.7,357.8,23.2z"/>
</g>
</svg>
