<?xml version="1.0" encoding="utf-8"?>
<!-- Generator: Adobe Illustrator 19.2.1, SVG Export Plug-In . SVG Version: 6.00 Build 0)  -->
<svg version="1.1" id="Layer_1" xmlns="http://www.w3.org/2000/svg" xmlns:xlink="http://www.w3.org/1999/xlink" x="0px" y="0px"
	 width="728px" height="90px" viewBox="0 0 728 90" style="enable-background:new 0 0 728 90;" xml:space="preserve">
<style type="text/css">
	.st0{fill:#FFFFFF;}
</style>
<g>
	<path class="st0" d="M301,63.2c0,2.6,0.4,4.5,1.3,5.9c0.9,1.3,2.3,2.2,4.2,2.6c1.9,0.4,3.4,0.9,4.5,1.6s2,1.5,2.6,2.6l-2.9,2
		c-0.7-1-1.6-1.7-2.6-2.2s-2.3-0.7-3.7-0.7c-0.8,0-1.7,0.1-2.5,0.4c-0.9,0.2-1.7,0.6-2.4,1l-1.5-3.2c0.7-0.4,1.5-0.8,2.6-1.1
		c-1.2-0.8-2.2-1.9-2.9-3.5c-0.7-1.6-1-3.4-1-5.6c0-2.4,0.6-4.4,1.8-5.8c1.2-1.4,2.8-2.1,4.9-2.1c2.2,0,3.8,0.8,4.7,2.4h0.1
		c0.6-0.9,1.2-1.5,2-1.8c0.8-0.4,1.7-0.5,2.8-0.5c2.1,0,3.8,0.7,5.1,2.2c1.2,1.4,1.9,3.4,1.9,5.9c0,2.5-0.6,4.5-1.9,5.9
		c-1.2,1.4-2.9,2.2-5,2.2c-2.3,0-4.1-0.7-5.3-2c-1.2-1.4-1.8-3.4-1.8-6.1c0-1.7-0.2-2.8-0.6-3.6c-0.4-0.7-1-1.1-2-1.1
		c-0.8,0-1.4,0.4-1.9,1.2S301,61.7,301,63.2z M310.3,63.2c0,1.6,0.2,2.8,0.6,3.6c0.4,0.7,1.1,1.1,2,1.1c1,0,1.7-0.4,2.1-1.2
		c0.4-0.8,0.7-2,0.7-3.5c0-3.1-0.9-4.6-2.7-4.6c-0.9,0-1.6,0.4-2,1.2C310.5,60.5,310.3,61.7,310.3,63.2z"/>
	<path class="st0" d="M326.8,64.7c0,1.1,0.3,1.9,0.8,2.4s1.3,0.8,2.4,0.8c1,0,1.7-0.3,2.2-0.8c0.5-0.5,0.8-1.2,0.8-2.1
		c0-0.7-0.2-1.2-0.5-1.7c-0.3-0.5-0.9-1.1-1.8-1.6c-1.2-0.8-2.1-1.7-2.5-2.6c-0.4-0.9-0.6-2.1-0.6-3.6h4.3c0,0.6,0.1,1.1,0.2,1.5
		s0.3,0.7,0.6,1c0.3,0.3,0.6,0.6,1.1,0.9c1.3,0.8,2.2,1.7,2.8,2.6c0.6,0.9,0.9,2.1,0.9,3.4c0,2-0.7,3.6-2,4.7
		c-1.3,1.1-3.1,1.7-5.4,1.7c-2.5,0-4.3-0.6-5.6-1.7c-1.3-1.1-1.9-2.8-1.9-4.9c0-0.7,0.2-1.4,0.5-2.3h4.4c-0.2,0.4-0.3,0.8-0.4,1.2
		C326.9,64,326.8,64.4,326.8,64.7z"/>
	<path class="st0" d="M354.3,52.6c-0.9,0-1.5,0.1-1.8,0.4c-0.4,0.3-0.5,0.7-0.5,1.2c0,0.2,0.1,0.5,0.3,0.9h-3.8
		c-0.2-0.4-0.3-0.9-0.3-1.3c0-1.4,0.5-2.6,1.6-3.4c1.1-0.8,2.6-1.2,4.6-1.2c2.6,0,4.6,0.9,6,2.8s2,4.6,2,8.2c0,3.9-0.6,6.7-1.8,8.5
		c-1.2,1.8-3.2,2.7-5.9,2.7c-2.3,0-4.1-0.7-5.4-2.1s-2-3.3-2-5.7c0-1.5,0.3-2.9,0.9-4c0.6-1.2,1.4-2.1,2.5-2.7c1.1-0.6,2.2-1,3.6-1
		c0.9,0,1.6,0.1,2.1,0.3s1.1,0.5,1.5,0.9h0.1C357.6,54.1,356.4,52.6,354.3,52.6z M358,63.5c0-1.4-0.2-2.5-0.7-3.2s-1.3-1.1-2.4-1.1
		c-1.1,0-2,0.4-2.5,1.1c-0.5,0.7-0.8,1.8-0.8,3.2c0,1.4,0.3,2.5,0.8,3.3s1.3,1.1,2.5,1.1c1.1,0,1.9-0.4,2.4-1.1
		C357.8,66,358,64.9,358,63.5z"/>
	<path class="st0" d="M374.6,62.3c0-1.4-0.2-2.3-0.6-2.9c-0.4-0.6-1-0.9-1.8-0.9c-0.9,0-1.5,0.4-2,1.2s-0.7,1.9-0.7,3.3
		c0,1.3,0.2,2.6,0.5,3.9s0.8,2.6,1.5,4.1h-4.4c-0.7-1.5-1.2-2.9-1.5-4.1s-0.4-2.5-0.4-3.9c0-2.4,0.6-4.3,1.8-5.7
		c1.2-1.4,2.9-2.1,5-2.1c1.1,0,2,0.2,2.8,0.6c0.8,0.4,1.4,1,1.9,1.8h0.1c0.9-1.6,2.5-2.4,4.7-2.4c2.1,0,3.8,0.7,5,2.1
		c1.2,1.4,1.8,3.3,1.8,5.8c0,1.5-0.1,2.8-0.4,4c-0.3,1.2-0.8,2.5-1.5,4h-4.4c1.3-2.4,2-5.1,2-7.9c0-1.4-0.2-2.6-0.7-3.4
		c-0.5-0.8-1.2-1.2-2-1.2c-0.8,0-1.4,0.3-1.7,0.9c-0.4,0.6-0.6,1.5-0.6,2.9v2.9h-4.2V62.3z"/>
	<path class="st0" d="M398.9,55.2c2.3,0,4.1,0.7,5.5,2.1s2,3.3,2,5.7c0,1.5-0.1,2.8-0.4,4c-0.3,1.2-0.8,2.5-1.5,4H400
		c1.4-2.4,2-5.1,2-7.9c0-1.4-0.3-2.6-0.9-3.4s-1.4-1.2-2.4-1.2c-1,0-1.8,0.4-2.3,1.2s-0.8,1.9-0.8,3.3c0,1.3,0.2,2.6,0.5,3.9
		s0.8,2.6,1.5,4.1h-4.4c-0.7-1.5-1.2-2.9-1.5-4.1c-0.3-1.2-0.4-2.5-0.4-3.9c0-2.4,0.7-4.3,2.1-5.7C394.8,55.9,396.6,55.2,398.9,55.2
		z"/>
	<path class="st0" d="M424.3,69.8c0,2.6-0.7,4.5-2,6c-1.3,1.4-3.2,2.1-5.6,2.1c-1.5,0-2.8-0.3-4-1c-1.1-0.7-2-1.6-2.6-2.8
		s-0.9-2.7-0.9-4.3c0-2.5,0.7-4.5,2-5.9c1.3-1.4,3.2-2.1,5.6-2.1l0.7,0c0.3-0.6,0.5-1.3,0.5-2c0-0.6-0.1-1-0.4-1.2
		c-0.3-0.2-0.6-0.4-1.1-0.4c-0.9,0-1.4,0.5-1.4,1.4c0,0.2,0,0.4,0.1,0.7h-3.4c-0.1-0.3-0.1-0.7-0.1-1c0-1.3,0.4-2.4,1.3-3.1
		c0.9-0.7,2-1.1,3.5-1.1c1.5,0,2.7,0.4,3.6,1.2c0.9,0.8,1.3,1.9,1.3,3.3c0,1-0.3,2-0.8,3c1.2,0.6,2.1,1.6,2.7,2.8
		S424.3,68.1,424.3,69.8z M413.5,69.8c0,1.5,0.3,2.7,0.8,3.5c0.5,0.8,1.3,1.2,2.5,1.2c1.1,0,1.9-0.4,2.4-1.2c0.5-0.8,0.7-2,0.7-3.5
		c0-1.5-0.3-2.7-0.8-3.5c-0.5-0.8-1.3-1.2-2.5-1.2c-1.1,0-2,0.4-2.5,1.1C413.8,67.1,413.5,68.2,413.5,69.8z"/>
	<path class="st0" d="M427.8,63.9c-0.2-0.7-0.3-1.3-0.3-2c0-2.1,0.7-3.7,2-4.9s3.1-1.8,5.3-1.8c2.4,0,4.3,0.7,5.6,2
		c1.3,1.4,1.9,3.4,1.9,6.2v6.4c0,2.6-0.7,4.6-2,6c-1.3,1.4-3.3,2.1-5.8,2.1c-2.5,0-4.4-0.6-5.7-1.7c-1.3-1.1-1.9-2.8-1.9-4.9
		c0-1,0.2-2,0.7-3.1h4.3c-0.2,0.4-0.3,0.9-0.5,1.4c-0.1,0.5-0.2,1.1-0.2,1.5c0,1.1,0.3,1.9,0.8,2.5s1.3,0.8,2.5,0.8
		c1.3,0,2.2-0.4,2.7-1.3c0.5-0.8,0.8-2.2,0.8-4v-5.8c0-1.7-0.2-3-0.7-3.7c-0.5-0.8-1.3-1.1-2.4-1.1c-1,0-1.7,0.3-2.2,0.8
		c-0.5,0.6-0.7,1.4-0.7,2.6c0,0.5,0.1,1.2,0.3,1.9L427.8,63.9z"/>
	<path class="st0" d="M450.9,64.7h-3.2l-1-13.9h5.2L450.9,64.7z M447.5,67.1c0.5-0.5,1.1-0.7,1.7-0.7c0.7,0,1.3,0.2,1.8,0.7
		c0.5,0.5,0.7,1.1,0.7,1.8c0,0.7-0.2,1.2-0.7,1.7c-0.5,0.5-1.1,0.7-1.8,0.7c-0.7,0-1.3-0.2-1.7-0.7c-0.5-0.5-0.7-1.1-0.7-1.7
		C446.8,68.2,447.1,67.6,447.5,67.1z"/>
</g>
</svg>
