<?xml version="1.0" encoding="utf-8"?>
<!-- Generator: Adobe Illustrator 19.2.1, SVG Export Plug-In . SVG Version: 6.00 Build 0)  -->
<svg version="1.1" id="Layer_1" xmlns="http://www.w3.org/2000/svg" xmlns:xlink="http://www.w3.org/1999/xlink" x="0px" y="0px"
	 width="728px" height="90px" viewBox="0 0 728 90" style="enable-background:new 0 0 728 90;" xml:space="preserve">
<style type="text/css">
	.st0{fill:#FFFFFF;}
</style>
<g>
	<path class="st0" d="M582.6,54.7c0,2.7-2.1,4.7-4.8,4.7c-2.7,0-4.8-2.1-4.8-4.7c0-2.6,2.1-4.7,4.8-4.7
		C580.5,50,582.6,52.1,582.6,54.7z M574.2,54.7c0,2.1,1.5,3.7,3.7,3.7c2.1,0,3.6-1.7,3.6-3.7c0-2.1-1.5-3.8-3.6-3.8
		C575.8,50.9,574.2,52.6,574.2,54.7z M577.1,57.1H576v-4.7c0.4-0.1,1-0.1,1.8-0.1c0.9,0,1.3,0.1,1.6,0.3c0.3,0.2,0.5,0.6,0.5,1
		c0,0.5-0.4,0.9-1,1.1v0.1c0.5,0.2,0.7,0.5,0.9,1.1c0.1,0.7,0.2,1,0.3,1.2h-1.2c-0.1-0.2-0.2-0.6-0.4-1.1c-0.1-0.5-0.4-0.7-1-0.7
		h-0.5V57.1z M577.1,54.5h0.5c0.6,0,1.1-0.2,1.1-0.7c0-0.4-0.3-0.7-1-0.7c-0.3,0-0.5,0-0.6,0.1V54.5z"/>
</g>
<g>
	<path class="st0" d="M144.7,61.7c0,2.6,0.4,4.5,1.3,5.9c0.9,1.3,2.3,2.2,4.2,2.6c1.9,0.4,3.4,0.9,4.5,1.6c1.1,0.7,2,1.5,2.6,2.6
		l-2.9,2c-0.7-1-1.6-1.7-2.6-2.2c-1-0.5-2.3-0.7-3.7-0.7c-0.8,0-1.7,0.1-2.5,0.4s-1.7,0.6-2.4,1l-1.5-3.2c0.7-0.4,1.5-0.8,2.6-1.1
		c-1.2-0.8-2.2-1.9-2.9-3.5s-1-3.4-1-5.6c0-2.4,0.6-4.4,1.8-5.8s2.8-2.1,4.9-2.1c2.2,0,3.8,0.8,4.7,2.4h0.1c0.6-0.9,1.2-1.5,2-1.8
		s1.7-0.5,2.8-0.5c2.1,0,3.8,0.7,5.1,2.2c1.2,1.4,1.9,3.4,1.9,5.9c0,2.5-0.6,4.5-1.9,5.9s-2.9,2.2-5,2.2c-2.3,0-4.1-0.7-5.3-2
		c-1.2-1.4-1.8-3.4-1.8-6.1c0-1.7-0.2-2.8-0.6-3.6c-0.4-0.7-1-1.1-2-1.1c-0.8,0-1.4,0.4-1.9,1.2C144.9,59,144.7,60.2,144.7,61.7z
		 M154,61.7c0,1.6,0.2,2.8,0.6,3.6c0.4,0.7,1.1,1.1,2,1.1c1,0,1.7-0.4,2.1-1.2c0.4-0.8,0.7-2,0.7-3.5c0-3.1-0.9-4.6-2.7-4.6
		c-0.9,0-1.6,0.4-2,1.2S154,60.2,154,61.7z"/>
	<path class="st0" d="M170.5,63.2c0,1.1,0.3,1.9,0.8,2.4c0.5,0.5,1.3,0.8,2.4,0.8c1,0,1.7-0.3,2.2-0.8c0.5-0.5,0.8-1.2,0.8-2.1
		c0-0.7-0.2-1.2-0.5-1.7c-0.3-0.5-0.9-1.1-1.8-1.6c-1.2-0.8-2.1-1.7-2.5-2.6s-0.6-2.1-0.6-3.6h4.3c0,0.6,0.1,1.1,0.2,1.5
		s0.3,0.7,0.6,1c0.3,0.3,0.6,0.6,1.1,0.9c1.3,0.8,2.2,1.7,2.8,2.6s0.9,2.1,0.9,3.4c0,2-0.7,3.6-2,4.7s-3.1,1.7-5.4,1.7
		c-2.5,0-4.3-0.6-5.6-1.7c-1.3-1.1-1.9-2.8-1.9-4.9c0-0.7,0.2-1.4,0.5-2.3h4.4c-0.2,0.4-0.3,0.8-0.4,1.2
		C170.5,62.5,170.5,62.9,170.5,63.2z"/>
	<path class="st0" d="M198,51.1c-0.9,0-1.5,0.1-1.8,0.4s-0.5,0.7-0.5,1.2c0,0.2,0.1,0.5,0.3,0.9h-3.8c-0.2-0.4-0.3-0.9-0.3-1.3
		c0-1.4,0.5-2.6,1.6-3.4c1.1-0.8,2.6-1.2,4.6-1.2c2.6,0,4.6,0.9,6,2.8s2,4.6,2,8.2c0,3.9-0.6,6.7-1.8,8.5c-1.2,1.8-3.2,2.7-5.9,2.7
		c-2.3,0-4.1-0.7-5.4-2.1s-2-3.3-2-5.7c0-1.5,0.3-2.9,0.9-4c0.6-1.2,1.4-2.1,2.5-2.7s2.2-1,3.6-1c0.9,0,1.6,0.1,2.1,0.3
		c0.6,0.2,1.1,0.5,1.5,0.9h0.1C201.3,52.6,200.1,51.1,198,51.1z M201.7,62c0-1.4-0.2-2.5-0.7-3.2s-1.3-1.1-2.4-1.1
		c-1.1,0-2,0.4-2.5,1.1s-0.8,1.8-0.8,3.2c0,1.4,0.3,2.5,0.8,3.3c0.5,0.7,1.3,1.1,2.5,1.1c1.1,0,1.9-0.4,2.4-1.1
		C201.4,64.5,201.7,63.4,201.7,62z"/>
	<path class="st0" d="M212.9,63.2c0,1.1,0.3,1.9,0.8,2.4c0.5,0.5,1.3,0.8,2.4,0.8c1,0,1.7-0.3,2.2-0.8c0.5-0.5,0.8-1.2,0.8-2.1
		c0-0.7-0.2-1.2-0.5-1.7c-0.3-0.5-0.9-1.1-1.8-1.6c-1.2-0.8-2.1-1.7-2.5-2.6s-0.6-2.1-0.6-3.6h4.3c0,0.6,0.1,1.1,0.2,1.5
		s0.3,0.7,0.6,1c0.3,0.3,0.6,0.6,1.1,0.9c1.3,0.8,2.2,1.7,2.8,2.6s0.9,2.1,0.9,3.4c0,2-0.7,3.6-2,4.7c-1.3,1.1-3.1,1.7-5.4,1.7
		c-2.5,0-4.3-0.6-5.6-1.7c-1.3-1.1-1.9-2.8-1.9-4.9c0-0.7,0.2-1.4,0.5-2.3h4.4c-0.2,0.4-0.3,0.8-0.4,1.2
		C212.9,62.5,212.9,62.9,212.9,63.2z"/>
	<path class="st0" d="M241,68.3c0,2.6-0.7,4.5-2,6c-1.3,1.4-3.2,2.1-5.6,2.1c-1.5,0-2.8-0.3-4-1c-1.1-0.7-2-1.6-2.6-2.8
		c-0.6-1.2-0.9-2.7-0.9-4.3c0-2.5,0.7-4.5,2-5.9s3.2-2.1,5.6-2.1l0.7,0c0.3-0.6,0.5-1.3,0.5-2c0-0.6-0.1-1-0.4-1.2
		c-0.3-0.2-0.6-0.4-1.1-0.4c-0.9,0-1.4,0.5-1.4,1.4c0,0.2,0,0.4,0.1,0.7h-3.4c-0.1-0.3-0.1-0.7-0.1-1c0-1.3,0.4-2.4,1.3-3.1
		c0.9-0.7,2-1.1,3.5-1.1c1.5,0,2.7,0.4,3.6,1.2s1.3,1.9,1.3,3.3c0,1-0.3,2-0.8,3c1.2,0.6,2.1,1.6,2.7,2.8
		C240.7,65.2,241,66.6,241,68.3z M230.3,68.3c0,1.5,0.3,2.7,0.8,3.5c0.5,0.8,1.3,1.2,2.5,1.2c1.1,0,1.9-0.4,2.4-1.2
		c0.5-0.8,0.7-2,0.7-3.5c0-1.5-0.3-2.7-0.8-3.5c-0.5-0.8-1.3-1.2-2.5-1.2c-1.1,0-2,0.4-2.5,1.1C230.5,65.6,230.3,66.7,230.3,68.3z"
		/>
	<path class="st0" d="M247.8,63.2c0,1.1,0.3,1.9,0.8,2.4c0.5,0.5,1.3,0.8,2.4,0.8c1,0,1.7-0.3,2.2-0.8c0.5-0.5,0.8-1.2,0.8-2.1
		c0-0.7-0.2-1.2-0.5-1.7c-0.3-0.5-0.9-1.1-1.8-1.6c-1.2-0.8-2.1-1.7-2.5-2.6c-0.4-0.9-0.6-2.1-0.6-3.6h4.3c0,0.6,0.1,1.1,0.2,1.5
		s0.3,0.7,0.6,1c0.3,0.3,0.6,0.6,1.1,0.9c1.3,0.8,2.2,1.7,2.8,2.6s0.9,2.1,0.9,3.4c0,2-0.7,3.6-2,4.7c-1.3,1.1-3.1,1.7-5.4,1.7
		c-2.5,0-4.3-0.6-5.6-1.7c-1.3-1.1-1.9-2.8-1.9-4.9c0-0.7,0.2-1.4,0.5-2.3h4.4c-0.2,0.4-0.3,0.8-0.4,1.2S247.8,62.9,247.8,63.2z"/>
	<path class="st0" d="M267.8,53.7c1.2,0,2.2,0.2,3,0.5s1.4,1,1.9,1.8h0.1c0.9-1.6,2.4-2.4,4.7-2.4c2.1,0,3.8,0.7,5,2.1
		s1.8,3.3,1.8,5.7c0,1.5-0.1,2.8-0.4,4c-0.3,1.2-0.8,2.5-1.5,4h-4.4c1.3-2.4,2-5.1,2-7.9c0-1.4-0.2-2.6-0.7-3.4
		c-0.5-0.8-1.2-1.2-2-1.2c-0.8,0-1.4,0.3-1.7,0.9c-0.4,0.6-0.6,1.5-0.6,2.9v2.9h-4.2v-2.9c0-1.4-0.2-2.3-0.6-2.9
		c-0.4-0.6-1-0.9-1.8-0.9c-0.9,0-1.5,0.4-2,1.2c-0.5,0.8-0.7,1.9-0.7,3.3c0,1.3,0.2,2.6,0.5,3.9c0.3,1.2,0.8,2.6,1.5,4.1h-4.4
		c-0.7-1.5-1.2-2.9-1.5-4.1s-0.4-2.5-0.4-3.9c0-2.4,0.3-4.4,0.9-6c0.6-1.6,1.6-2.9,2.8-3.9c1.3-1.1,2.9-1.9,5-2.6
		c2.1-0.7,4.5-1.1,7.4-1.3l0.5,3.3c-2.1,0.2-4,0.4-5.7,0.8c-1.7,0.4-3.1,1-4.3,1.7V53.7z"/>
	<path class="st0" d="M294.8,53.7c2.3,0,4.1,0.7,5.5,2.1s2,3.3,2,5.7c0,1.5-0.1,2.8-0.4,4c-0.3,1.2-0.8,2.5-1.5,4H296
		c1.4-2.4,2-5.1,2-7.9c0-1.4-0.3-2.6-0.9-3.4c-0.6-0.8-1.4-1.2-2.4-1.2c-1,0-1.8,0.4-2.3,1.2s-0.8,1.9-0.8,3.3
		c0,1.3,0.2,2.6,0.5,3.9c0.3,1.2,0.8,2.6,1.5,4.1h-4.4c-0.7-1.5-1.2-2.9-1.5-4.1c-0.3-1.2-0.4-2.5-0.4-3.9c0-2.4,0.7-4.3,2.1-5.7
		S292.6,53.7,294.8,53.7z"/>
	<path class="st0" d="M323.9,58.6c1.2,0.4,2.1,1,2.7,1.9c0.7,0.9,1,1.9,1,3.1c0,1.9-0.7,3.5-2.1,4.6c-1.4,1.1-3.3,1.6-5.7,1.6
		c-2.4,0-4.2-0.5-5.6-1.5s-2-2.4-2-4.1c0-0.8,0.1-1.5,0.4-2.1h4.3c-0.2,0.4-0.3,0.7-0.3,1c-0.1,0.3-0.1,0.6-0.1,0.9
		c0,0.8,0.3,1.4,0.9,1.8s1.4,0.6,2.4,0.6c2.3,0,3.4-1,3.4-2.9c0-1.1-0.3-1.9-1-2.4c-0.6-0.5-1.7-0.7-3.1-0.7h-1.9v-3.4h1.9
		c1.1,0,2-0.2,2.7-0.7c0.7-0.4,1-1,1-1.8c0-1.6-0.9-2.3-2.8-2.3c-1.2,0-2.1,0-2.7-0.1c-0.5-0.1-1.1-0.2-1.6-0.4
		c-0.5-0.2-1-0.4-1.4-0.8l1.6-3.2c0.3,0.3,0.6,0.5,0.9,0.6c0.3,0.1,0.7,0.2,1.1,0.3c0.4,0.1,1.1,0.1,2,0.1c2.3,0,4.1,0.5,5.3,1.4
		c1.2,0.9,1.8,2.3,1.8,4.1c0,1.1-0.3,2-0.8,2.7C325.9,57.6,325,58.2,323.9,58.6z"/>
	<path class="st0" d="M337.1,53.7c1.2,0,2.2,0.2,3,0.5c0.8,0.4,1.4,1,1.9,1.8h0.1c0.9-1.6,2.4-2.4,4.7-2.4c2.1,0,3.8,0.7,5,2.1
		s1.8,3.3,1.8,5.7c0,1.5-0.1,2.8-0.4,4c-0.3,1.2-0.8,2.5-1.5,4h-4.4c1.3-2.4,2-5.1,2-7.9c0-1.4-0.2-2.6-0.7-3.4
		c-0.5-0.8-1.2-1.2-2-1.2c-0.8,0-1.4,0.3-1.7,0.9c-0.4,0.6-0.6,1.5-0.6,2.9v2.9h-4.2v-2.9c0-1.4-0.2-2.3-0.6-2.9
		c-0.4-0.6-1-0.9-1.8-0.9c-0.9,0-1.5,0.4-2,1.2c-0.5,0.8-0.7,1.9-0.7,3.3c0,1.3,0.2,2.6,0.5,3.9c0.3,1.2,0.8,2.6,1.5,4.1h-4.4
		c-0.7-1.5-1.2-2.9-1.5-4.1s-0.4-2.5-0.4-3.9c0-2.4,0.3-4.4,0.9-6c0.6-1.6,1.6-2.9,2.8-3.9c1.3-1.1,2.9-1.9,5-2.6
		c2.1-0.7,4.5-1.1,7.4-1.3l0.5,3.3c-2.1,0.2-4,0.4-5.7,0.8c-1.7,0.4-3.1,1-4.3,1.7V53.7z"/>
	<path class="st0" d="M364.2,53.7c2.3,0,4.1,0.7,5.5,2.1s2,3.3,2,5.7c0,1.5-0.1,2.8-0.4,4c-0.3,1.2-0.8,2.5-1.5,4h-4.4
		c1.4-2.4,2-5.1,2-7.9c0-1.4-0.3-2.6-0.9-3.4c-0.6-0.8-1.4-1.2-2.4-1.2c-1,0-1.8,0.4-2.3,1.2s-0.8,1.9-0.8,3.3
		c0,1.3,0.2,2.6,0.5,3.9c0.3,1.2,0.8,2.6,1.5,4.1h-4.4c-0.7-1.5-1.2-2.9-1.5-4.1c-0.3-1.2-0.4-2.5-0.4-3.9c0-2.4,0.7-4.3,2.1-5.7
		S361.9,53.7,364.2,53.7z"/>
	<path class="st0" d="M391.2,61.7c0,2.5-0.7,4.5-2,6s-3.2,2.1-5.6,2.1c-1.5,0-2.8-0.3-4-1c-1.1-0.7-2-1.6-2.6-2.8
		c-0.6-1.2-0.9-2.7-0.9-4.3c0-1.3,0.2-2.4,0.5-3.3c-1.2-0.3-2.1-0.9-2.7-1.9c-0.6-0.9-1-2.1-1-3.4c0-1.7,0.5-3.1,1.4-4.1
		c1-1,2.2-1.5,3.9-1.5c1.6,0,2.9,0.5,3.9,1.5c1,1,1.5,2.4,1.5,4.1v0.3l0,0.3h0.2c1.5,0,2.8,0.3,4,1c1.1,0.7,2,1.6,2.6,2.8
		S391.2,60.1,391.2,61.7z M376.6,53.1c0,1.6,0.5,2.5,1.6,2.5c0.5,0,1-0.2,1.2-0.6c0.3-0.4,0.4-1,0.4-1.9c0-0.8-0.1-1.5-0.4-1.9
		c-0.3-0.4-0.7-0.6-1.2-0.6c-0.5,0-0.9,0.2-1.2,0.6C376.8,51.7,376.6,52.3,376.6,53.1z M380.5,61.7c0,1.5,0.3,2.7,0.8,3.5
		c0.5,0.8,1.3,1.2,2.5,1.2c1.1,0,1.9-0.4,2.4-1.2c0.5-0.8,0.8-2,0.8-3.5c0-1.5-0.3-2.7-0.8-3.5c-0.5-0.8-1.3-1.2-2.5-1.2
		c-1.1,0-2,0.4-2.5,1.1C380.7,59,380.5,60.2,380.5,61.7z"/>
	<path class="st0" d="M394.7,62.4c-0.2-0.7-0.3-1.3-0.3-2c0-2.1,0.7-3.7,2-4.9c1.3-1.2,3.1-1.8,5.3-1.8c2.4,0,4.3,0.7,5.6,2
		c1.3,1.4,1.9,3.4,1.9,6.2v6.4c0,2.6-0.7,4.6-2,6c-1.3,1.4-3.3,2.1-5.8,2.1c-2.5,0-4.4-0.6-5.7-1.7c-1.3-1.1-1.9-2.8-1.9-4.9
		c0-1,0.2-2,0.7-3.1h4.3c-0.2,0.4-0.3,0.9-0.5,1.4s-0.2,1.1-0.2,1.5c0,1.1,0.3,1.9,0.8,2.5c0.5,0.6,1.3,0.8,2.5,0.8
		c1.3,0,2.2-0.4,2.7-1.3c0.5-0.8,0.8-2.2,0.8-4V62c0-1.7-0.2-3-0.7-3.7c-0.5-0.8-1.3-1.1-2.4-1.1c-1,0-1.7,0.3-2.2,0.8
		c-0.5,0.6-0.7,1.4-0.7,2.6c0,0.5,0.1,1.2,0.3,1.9L394.7,62.4z"/>
	<path class="st0" d="M427.7,61.7c0,2.5-0.7,4.5-2,6s-3.2,2.1-5.6,2.1c-1.5,0-2.8-0.3-4-1s-2-1.6-2.6-2.8s-0.9-2.7-0.9-4.3
		c0-2.2,0.5-4.1,1.6-5.5s2.6-2.2,4.6-2.5c0.1-0.2,0.2-0.5,0.2-0.8c0-0.5-0.4-0.8-1.3-0.8c-1,0-1.7-0.3-2.2-1s-0.7-1.8-0.7-3.3h3.9
		c0,0.6,0.1,0.9,0.2,1.1c0.2,0.2,0.5,0.2,1.1,0.2c0.7,0,1.3,0.2,1.7,0.7s0.7,1.1,0.7,1.8c0,0.9-0.2,1.6-0.5,2.2
		c1.7,0.4,3.1,1.3,4.1,2.6C427.2,57.9,427.7,59.6,427.7,61.7z M416.9,61.7c0,1.5,0.3,2.7,0.8,3.5c0.5,0.8,1.3,1.2,2.5,1.2
		c1.1,0,1.9-0.4,2.4-1.2c0.5-0.8,0.7-2,0.7-3.5c0-1.5-0.3-2.7-0.8-3.5s-1.3-1.2-2.5-1.2c-1.1,0-2,0.4-2.5,1.1
		C417.1,59,416.9,60.2,416.9,61.7z"/>
	<path class="st0" d="M438,53.7c2.3,0,4.1,0.7,5.5,2.1s2,3.3,2,5.7c0,1.5-0.1,2.8-0.4,4s-0.8,2.5-1.5,4h-4.4c1.4-2.4,2-5.1,2-7.9
		c0-1.4-0.3-2.6-0.9-3.4c-0.6-0.8-1.4-1.2-2.4-1.2c-1,0-1.8,0.4-2.3,1.2s-0.8,1.9-0.8,3.3c0,1.3,0.2,2.6,0.5,3.9
		c0.3,1.2,0.8,2.6,1.5,4.1h-4.4c-0.7-1.5-1.2-2.9-1.5-4.1c-0.3-1.2-0.4-2.5-0.4-3.9c0-2.4,0.7-4.3,2.1-5.7S435.7,53.7,438,53.7z"/>
	<path class="st0" d="M472.8,60.8c0-1.4-0.2-2.3-0.6-2.9c-0.4-0.6-1-0.9-1.8-0.9c-0.9,0-1.5,0.4-2,1.2c-0.5,0.8-0.7,1.9-0.7,3.3
		c0,1.3,0.2,2.6,0.5,3.9c0.3,1.2,0.8,2.6,1.5,4.1h-4.4c-0.7-1.5-1.2-2.9-1.5-4.1s-0.4-2.5-0.4-3.9c0-2.4,0.6-4.3,1.8-5.7
		s2.9-2.1,5-2.1c1.1,0,2,0.2,2.8,0.6c0.8,0.4,1.4,1,1.9,1.8h0.1c0.9-1.6,2.5-2.4,4.7-2.4c2.1,0,3.8,0.7,5,2.1
		c1.2,1.4,1.8,3.3,1.8,5.8c0,1.5-0.1,2.8-0.4,4c-0.3,1.2-0.8,2.5-1.5,4h-4.4c1.3-2.4,2-5.1,2-7.9c0-1.4-0.2-2.6-0.7-3.4
		c-0.5-0.8-1.2-1.2-2-1.2c-0.8,0-1.4,0.3-1.7,0.9c-0.4,0.6-0.6,1.5-0.6,2.9v2.9h-4.2V60.8z"/>
	<path class="st0" d="M496.2,53.7c1.2,0,2.2,0.2,3,0.5c0.8,0.4,1.4,1,1.9,1.8h0.1c0.9-1.6,2.4-2.4,4.7-2.4c2.1,0,3.8,0.7,5,2.1
		s1.8,3.3,1.8,5.7c0,1.5-0.1,2.8-0.4,4c-0.3,1.2-0.8,2.5-1.5,4h-4.4c1.3-2.4,2-5.1,2-7.9c0-1.4-0.2-2.6-0.7-3.4
		c-0.5-0.8-1.2-1.2-2-1.2c-0.8,0-1.4,0.3-1.7,0.9s-0.6,1.5-0.6,2.9v2.9H499v-2.9c0-1.4-0.2-2.3-0.6-2.9c-0.4-0.6-1-0.9-1.8-0.9
		c-0.9,0-1.5,0.4-2,1.2c-0.5,0.8-0.7,1.9-0.7,3.3c0,1.3,0.2,2.6,0.5,3.9c0.3,1.2,0.8,2.6,1.5,4.1h-4.4c-0.7-1.5-1.2-2.9-1.5-4.1
		c-0.3-1.2-0.4-2.5-0.4-3.9c0-2.4,0.3-4.4,0.9-6c0.6-1.6,1.6-2.9,2.8-3.9c1.3-1.1,2.9-1.9,5-2.6c2.1-0.7,4.5-1.1,7.4-1.3l0.5,3.3
		c-2.1,0.2-4,0.4-5.7,0.8c-1.7,0.4-3.1,1-4.3,1.7V53.7z"/>
	<path class="st0" d="M530.6,61.7c0,2.5-0.7,4.5-2,6s-3.2,2.1-5.6,2.1c-1.5,0-2.8-0.3-4-1s-2-1.6-2.6-2.8s-0.9-2.7-0.9-4.3
		c0-2.2,0.5-4.1,1.6-5.5s2.6-2.2,4.6-2.5c0.1-0.2,0.2-0.5,0.2-0.8c0-0.5-0.4-0.8-1.3-0.8c-1,0-1.7-0.3-2.2-1
		c-0.4-0.7-0.7-1.8-0.7-3.3h3.9c0,0.6,0.1,0.9,0.2,1.1c0.2,0.2,0.5,0.2,1.1,0.2c0.7,0,1.3,0.2,1.7,0.7s0.7,1.1,0.7,1.8
		c0,0.9-0.2,1.6-0.5,2.2c1.7,0.4,3.1,1.3,4.1,2.6C530.1,57.9,530.6,59.6,530.6,61.7z M519.8,61.7c0,1.5,0.3,2.7,0.8,3.5
		s1.3,1.2,2.5,1.2c1.1,0,1.9-0.4,2.4-1.2c0.5-0.8,0.7-2,0.7-3.5c0-1.5-0.3-2.7-0.8-3.5s-1.3-1.2-2.5-1.2c-1.1,0-2,0.4-2.5,1.1
		S519.8,60.2,519.8,61.7z"/>
	<path class="st0" d="M540.9,53.7c2.3,0,4.1,0.7,5.5,2.1c1.4,1.4,2,3.3,2,5.7c0,1.5-0.1,2.8-0.4,4c-0.3,1.2-0.8,2.5-1.5,4h-4.4
		c1.4-2.4,2-5.1,2-7.9c0-1.4-0.3-2.6-0.9-3.4c-0.6-0.8-1.4-1.2-2.4-1.2s-1.8,0.4-2.3,1.2c-0.6,0.8-0.8,1.9-0.8,3.3
		c0,1.3,0.2,2.6,0.5,3.9c0.3,1.2,0.8,2.6,1.5,4.1h-4.4c-0.7-1.5-1.2-2.9-1.5-4.1c-0.3-1.2-0.4-2.5-0.4-3.9c0-2.4,0.7-4.3,2.1-5.7
		S538.7,53.7,540.9,53.7z"/>
	<path class="st0" d="M563,47.8v5.8c2.4,0.4,4.2,1.6,5.6,3.6c1.3,2,2,4.5,2,7.7c0,3.7-0.8,6.5-2.5,8.5c-1.7,2-4.1,3-7.2,3
		c-3.1,0-5.5-1-7.1-3c-1.7-2-2.5-4.8-2.5-8.5c0-3.1,0.7-5.7,2-7.6c1.3-2,3.2-3.2,5.5-3.6v-5.8H563z M555.6,64.9c0,2.6,0.5,4.6,1.4,6
		c0.9,1.4,2.2,2.1,3.9,2.1c1.7,0,3.1-0.7,4-2.1s1.4-3.4,1.4-6c0-2.2-0.3-4-0.8-5.3c-0.5-1.4-1.3-2.2-2.4-2.5v7.2h-4.3v-7.2
		c-1,0.2-1.8,1-2.3,2.5C555.9,61,555.6,62.8,555.6,64.9z"/>
	<path class="st0" d="M591.7,60.9v1.9h-7v-1.9H591.7z"/>
	<path class="st0" d="M601.6,53.7c2.3,0,4.1,0.7,5.5,2.1c1.4,1.4,2,3.3,2,5.7c0,1.5-0.1,2.8-0.4,4c-0.3,1.2-0.8,2.5-1.5,4h-4.4
		c1.4-2.4,2-5.1,2-7.9c0-1.4-0.3-2.6-0.9-3.4c-0.6-0.8-1.4-1.2-2.4-1.2c-1,0-1.8,0.4-2.3,1.2c-0.6,0.8-0.8,1.9-0.8,3.3
		c0,1.3,0.2,2.6,0.5,3.9c0.3,1.2,0.8,2.6,1.5,4.1H596c-0.7-1.5-1.2-2.9-1.5-4.1c-0.3-1.2-0.4-2.5-0.4-3.9c0-2.4,0.7-4.3,2.1-5.7
		S599.4,53.7,601.6,53.7z"/>
	<path class="st0" d="M627.8,61.5c0,5.5-2.6,8.3-7.8,8.3c-2.4,0-4.2-0.6-5.4-1.8s-1.8-3.1-1.8-5.6V47.8h4.3v14.7
		c0,1.4,0.2,2.3,0.7,2.9c0.5,0.6,1.3,0.9,2.3,0.9c1.2,0,2-0.4,2.5-1.2c0.5-0.8,0.8-2.1,0.8-3.8c0-1.3-0.2-2.5-0.5-3.6
		c-0.3-1.1-0.8-2.4-1.5-3.8h4.5c0.7,1.4,1.2,2.6,1.4,3.8C627.7,58.9,627.8,60.2,627.8,61.5z"/>
	<path class="st0" d="M645.7,68.3c0,2.6-0.7,4.5-2,6c-1.3,1.4-3.2,2.1-5.6,2.1c-1.5,0-2.8-0.3-4-1s-2-1.6-2.6-2.8s-0.9-2.7-0.9-4.3
		c0-2.5,0.7-4.5,2-5.9s3.2-2.1,5.6-2.1l0.7,0c0.3-0.6,0.5-1.3,0.5-2c0-0.6-0.1-1-0.4-1.2c-0.3-0.2-0.6-0.4-1.1-0.4
		c-0.9,0-1.4,0.5-1.4,1.4c0,0.2,0,0.4,0.1,0.7h-3.4c-0.1-0.3-0.1-0.7-0.1-1c0-1.3,0.4-2.4,1.3-3.1c0.9-0.7,2-1.1,3.5-1.1
		c1.5,0,2.7,0.4,3.6,1.2s1.3,1.9,1.3,3.3c0,1-0.3,2-0.8,3c1.2,0.6,2.1,1.6,2.7,2.8C645.4,65.2,645.7,66.6,645.7,68.3z M634.9,68.3
		c0,1.5,0.3,2.7,0.8,3.5c0.5,0.8,1.3,1.2,2.5,1.2c1.1,0,1.9-0.4,2.4-1.2c0.5-0.8,0.7-2,0.7-3.5c0-1.5-0.3-2.7-0.8-3.5
		c-0.5-0.8-1.3-1.2-2.5-1.2c-1.1,0-2,0.4-2.5,1.1C635.2,65.6,634.9,66.7,634.9,68.3z"/>
	<path class="st0" d="M652.5,63.2c0,1.1,0.3,1.9,0.8,2.4c0.5,0.5,1.3,0.8,2.4,0.8c1,0,1.7-0.3,2.2-0.8c0.5-0.5,0.8-1.2,0.8-2.1
		c0-0.7-0.2-1.2-0.5-1.7c-0.3-0.5-0.9-1.1-1.8-1.6c-1.2-0.8-2.1-1.7-2.5-2.6c-0.4-0.9-0.6-2.1-0.6-3.6h4.3c0,0.6,0.1,1.1,0.2,1.5
		c0.1,0.4,0.3,0.7,0.6,1c0.3,0.3,0.6,0.6,1.1,0.9c1.3,0.8,2.2,1.7,2.8,2.6c0.6,0.9,0.9,2.1,0.9,3.4c0,2-0.7,3.6-2,4.7
		c-1.3,1.1-3.1,1.7-5.4,1.7c-2.5,0-4.3-0.6-5.6-1.7c-1.3-1.1-1.9-2.8-1.9-4.9c0-0.7,0.2-1.4,0.5-2.3h4.4c-0.2,0.4-0.3,0.8-0.4,1.2
		C652.6,62.5,652.5,62.9,652.5,63.2z"/>
	<path class="st0" d="M673.1,69.8c-2.5,0-4.4-0.9-5.6-2.6c-1.2-1.7-1.9-4.3-1.9-7.9c0-3.9,0.6-6.8,1.9-8.7c1.2-1.9,3.2-2.9,5.8-2.9
		h5.9v3.4h-5.7c-1.1,0-1.9,0.3-2.4,0.8c-0.5,0.5-0.8,1.4-0.9,2.7h0.1c0.4-0.4,0.9-0.7,1.5-0.9c0.6-0.2,1.3-0.3,2.1-0.3
		c1.3,0,2.5,0.3,3.5,1s1.9,1.6,2.5,2.8c0.6,1.2,0.9,2.6,0.9,4.2c0,2.5-0.7,4.5-2,6S675.5,69.8,673.1,69.8z M669.9,61.7
		c0,1.5,0.3,2.7,0.8,3.5c0.5,0.8,1.3,1.2,2.4,1.2c1.1,0,1.9-0.4,2.4-1.2c0.5-0.8,0.7-2,0.7-3.5c0-1.5-0.3-2.7-0.8-3.5
		s-1.3-1.2-2.5-1.2c-1.1,0-2,0.4-2.5,1.1S669.9,60.2,669.9,61.7z"/>
	<path class="st0" d="M688.5,63.2h-3.2l-1-13.9h5.2L688.5,63.2z M685.1,65.6c0.5-0.5,1.1-0.7,1.7-0.7c0.7,0,1.3,0.2,1.8,0.7
		c0.5,0.5,0.7,1.1,0.7,1.8c0,0.7-0.2,1.2-0.7,1.7c-0.5,0.5-1.1,0.7-1.8,0.7c-0.7,0-1.3-0.2-1.7-0.7c-0.5-0.5-0.7-1.1-0.7-1.7
		C684.4,66.7,684.7,66.1,685.1,65.6z"/>
</g>
<path class="st0" d="M582.6,54.7c0,2.7-2.1,4.7-4.8,4.7s-4.8-2.1-4.8-4.7c0-2.6,2.1-4.7,4.8-4.7S582.6,52.1,582.6,54.7z M574.2,54.7
	c0,2.1,1.5,3.7,3.7,3.7c2.1,0,3.6-1.7,3.6-3.7c0-2.1-1.5-3.8-3.6-3.8C575.7,50.9,574.2,52.6,574.2,54.7z M577.1,57.1H576v-4.7
	c0.4-0.1,1-0.1,1.8-0.1c0.9,0,1.3,0.1,1.6,0.3s0.5,0.6,0.5,1c0,0.5-0.4,0.9-1,1.1v0.1c0.5,0.2,0.7,0.5,0.9,1.1
	c0.1,0.7,0.2,1,0.3,1.2h-1.2c-0.1-0.2-0.2-0.6-0.4-1.1c-0.1-0.5-0.4-0.7-1-0.7H577v1.8H577.1z M577.1,54.5h0.5
	c0.6,0,1.1-0.2,1.1-0.7c0-0.4-0.3-0.7-1-0.7c-0.3,0-0.5,0-0.6,0.1V54.5z"/>
</svg>
