<?xml version="1.0" encoding="utf-8"?>
<!-- Generator: Adobe Illustrator 19.2.1, SVG Export Plug-In . SVG Version: 6.00 Build 0)  -->
<svg version="1.1" id="Layer_1" xmlns="http://www.w3.org/2000/svg" xmlns:xlink="http://www.w3.org/1999/xlink" x="0px" y="0px"
	 width="728px" height="90px" viewBox="0 0 728 90" style="enable-background:new 0 0 728 90;" xml:space="preserve">
<style type="text/css">
	.st0{fill:#FFFFFF;}
</style>
<g>
	<g>
		<path class="st0" d="M149.1,27.2c0,0.6,0.1,1.1,0.2,1.4s0.3,0.6,0.6,0.8c0.3,0.3,0.6,0.5,1.1,0.8c1.3,0.7,2.3,1.5,3,2.5
			c0.7,1,1,2.1,1,3.3c0,1.9-0.7,3.4-2,4.5s-3.1,1.6-5.4,1.6c-2.4,0-4.3-0.6-5.6-1.7s-1.9-2.8-1.9-5c0-0.7,0.2-1.4,0.5-2.3h4.4
			c-0.2,0.4-0.3,0.8-0.4,1.2s-0.1,0.8-0.1,1.1c0,1.1,0.3,1.9,0.8,2.4s1.3,0.8,2.4,0.8c0.9,0,1.7-0.2,2.2-0.6c0.5-0.4,0.8-1,0.8-1.7
			s-0.2-1.2-0.5-1.7s-1-0.9-1.9-1.4c-1.3-0.7-2.2-1.4-2.6-2.3c-0.5-0.9-0.7-2.1-0.7-3.7V26l-4.5-1.4l0.9-3.1l3.6,1.1v-2.9h4.3v4.2
			l4.7,1.4l-0.9,3.1L149.1,27.2z"/>
		<path class="st0" d="M161.6,28.9c0,1.1,0.3,1.9,0.8,2.4s1.3,0.8,2.4,0.8c1,0,1.7-0.3,2.2-0.8s0.8-1.2,0.8-2.1
			c0-0.7-0.2-1.2-0.5-1.7s-0.9-1.1-1.8-1.6c-1.2-0.8-2.1-1.7-2.5-2.6s-0.6-2.1-0.6-3.6h4.3c0,0.6,0.1,1.1,0.2,1.5
			c0.1,0.4,0.3,0.7,0.6,1s0.6,0.6,1.1,0.9c1.3,0.8,2.2,1.7,2.8,2.6s0.9,2.1,0.9,3.4c0,2-0.7,3.6-2,4.7s-3.1,1.7-5.4,1.7
			c-2.5,0-4.3-0.6-5.6-1.7s-1.9-2.8-1.9-4.9c0-0.7,0.2-1.4,0.5-2.3h4.4c-0.2,0.4-0.3,0.8-0.4,1.2S161.6,28.6,161.6,28.9z"/>
		<path class="st0" d="M182.2,35.6c-2.5,0-4.4-0.9-5.6-2.6c-1.2-1.7-1.9-4.3-1.9-7.9c0-3.9,0.6-6.8,1.9-8.7c1.2-1.9,3.2-2.9,5.8-2.9
			h5.9V17h-5.7c-1.1,0-1.9,0.3-2.4,0.8s-0.8,1.4-0.9,2.7h0.1c0.4-0.4,0.9-0.7,1.5-0.9c0.6-0.2,1.3-0.3,2.1-0.3c1.3,0,2.5,0.3,3.5,1
			c1.1,0.7,1.9,1.6,2.5,2.8c0.6,1.2,0.9,2.6,0.9,4.2c0,2.5-0.7,4.5-2,6C186.4,34.8,184.6,35.6,182.2,35.6z M179,27.5
			c0,1.5,0.3,2.7,0.8,3.5s1.3,1.2,2.4,1.2c1.1,0,1.9-0.4,2.4-1.2s0.7-2,0.7-3.5s-0.3-2.7-0.8-3.5s-1.3-1.2-2.5-1.2
			c-1.1,0-2,0.4-2.5,1.1C179.3,24.7,179,25.9,179,27.5z"/>
		<path class="st0" d="M208.2,27.3c0,5.5-2.6,8.3-7.8,8.3c-2.4,0-4.2-0.6-5.4-1.8s-1.8-3.1-1.8-5.6V13.6h4.3v14.7
			c0,1.4,0.2,2.3,0.7,2.9s1.3,0.9,2.3,0.9c1.2,0,2-0.4,2.5-1.2s0.8-2.1,0.8-3.8c0-1.3-0.2-2.5-0.5-3.6s-0.8-2.4-1.5-3.8h4.5
			c0.7,1.4,1.2,2.6,1.4,3.8C208,24.6,208.2,25.9,208.2,27.3z"/>
		<path class="st0" d="M215.2,28.9c0,1.1,0.3,1.9,0.8,2.4s1.3,0.8,2.4,0.8c1,0,1.7-0.3,2.2-0.8s0.8-1.2,0.8-2.1
			c0-0.7-0.2-1.2-0.5-1.7s-0.9-1.1-1.8-1.6c-1.2-0.8-2.1-1.7-2.5-2.6s-0.6-2.1-0.6-3.6h4.3c0,0.6,0.1,1.1,0.2,1.5s0.3,0.7,0.6,1
			s0.6,0.6,1.1,0.9c1.3,0.8,2.2,1.7,2.8,2.6s0.9,2.1,0.9,3.4c0,2-0.7,3.6-2,4.7s-3.1,1.7-5.4,1.7c-2.5,0-4.3-0.6-5.6-1.7
			S211,31,211,28.9c0-0.7,0.2-1.4,0.5-2.3h4.4c-0.2,0.4-0.3,0.8-0.4,1.2C215.3,28.3,215.2,28.6,215.2,28.9z"/>
		<path class="st0" d="M232.9,27.4c0,2.6,0.4,4.5,1.3,5.9c0.9,1.4,2.3,2.2,4.2,2.6c1.9,0.4,3.4,0.9,4.5,1.6c1.1,0.7,2,1.5,2.6,2.6
			l-2.9,2c-0.7-1-1.6-1.7-2.6-2.2s-2.3-0.7-3.7-0.7c-0.8,0-1.7,0.1-2.5,0.4c-0.9,0.2-1.7,0.6-2.4,1l-1.5-3.2
			c0.7-0.4,1.5-0.8,2.6-1.1c-1.3-0.8-2.3-2-2.9-3.5c-0.6-1.5-1-3.3-1-5.6c0-2.4,0.6-4.2,1.8-5.7c1.2-1.4,2.8-2.2,4.8-2.2
			c1.2,0,2.2,0.2,3,0.6s1.4,1,1.8,1.8h0.1c0.6-0.8,1.2-1.5,2-1.8c0.8-0.4,1.6-0.6,2.6-0.6c2.2,0,3.8,0.7,5,2.1s1.8,3.3,1.8,5.8
			c0,1.5-0.1,2.8-0.4,4c-0.3,1.2-0.8,2.5-1.5,4h-4.4c1.3-2.4,2-5.1,2-7.9c0-1.4-0.2-2.6-0.7-3.4s-1.2-1.2-2-1.2s-1.4,0.3-1.7,0.9
			c-0.4,0.6-0.6,1.5-0.6,2.9v2.9H238v-2.9c0-1.4-0.2-2.3-0.6-2.9c-0.4-0.6-1-0.9-1.8-0.9s-1.5,0.4-2,1.2
			C233.1,24.9,232.9,26,232.9,27.4z"/>
		<path class="st0" d="M262.2,19.4c2.3,0,4.1,0.7,5.5,2.1c1.4,1.4,2,3.3,2,5.7c0,1.5-0.1,2.8-0.4,4s-0.8,2.5-1.5,4h-4.4
			c1.4-2.4,2-5.1,2-7.9c0-1.4-0.3-2.6-0.9-3.4c-0.6-0.8-1.4-1.2-2.4-1.2s-1.8,0.4-2.3,1.2c-0.6,0.8-0.8,1.9-0.8,3.3
			c0,1.3,0.2,2.6,0.5,3.9c0.3,1.3,0.8,2.6,1.5,4.1h-4.4c-0.7-1.5-1.2-2.9-1.5-4.1c-0.3-1.2-0.4-2.5-0.4-3.9c0-2.4,0.7-4.3,2.1-5.7
			C258.1,20.1,260,19.4,262.2,19.4z"/>
		<path class="st0" d="M284.2,28.9c0,1.1,0.3,1.9,0.8,2.4s1.3,0.8,2.4,0.8c1,0,1.7-0.3,2.2-0.8s0.8-1.2,0.8-2.1
			c0-0.7-0.2-1.2-0.5-1.7s-0.9-1.1-1.8-1.6c-1.2-0.8-2.1-1.7-2.5-2.6s-0.6-2.1-0.6-3.6h4.3c0,0.6,0.1,1.1,0.2,1.5s0.3,0.7,0.6,1
			c0.3,0.3,0.6,0.6,1.1,0.9c1.3,0.8,2.2,1.7,2.8,2.6c0.6,0.9,0.9,2.1,0.9,3.4c0,2-0.7,3.6-2,4.7s-3.1,1.7-5.4,1.7
			c-2.5,0-4.3-0.6-5.6-1.7c-1.3-1.1-1.9-2.8-1.9-4.9c0-0.7,0.2-1.4,0.5-2.3h4.4c-0.2,0.4-0.3,0.8-0.4,1.2
			C284.3,28.3,284.2,28.6,284.2,28.9z"/>
		<path class="st0" d="M304.1,19.4c1.2,0,2.2,0.2,3,0.5c0.8,0.4,1.4,1,1.9,1.8h0.1c0.9-1.6,2.4-2.4,4.7-2.4c2.1,0,3.8,0.7,5,2.1
			s1.8,3.3,1.8,5.7c0,1.5-0.1,2.8-0.4,4s-0.8,2.5-1.5,4h-4.4c1.3-2.4,2-5.1,2-7.9c0-1.4-0.2-2.6-0.7-3.4s-1.2-1.2-2-1.2
			s-1.4,0.3-1.7,0.9c-0.4,0.6-0.6,1.5-0.6,2.9v2.9h-4.2v-2.9c0-1.4-0.2-2.3-0.6-2.9s-1-0.9-1.8-0.9c-0.9,0-1.5,0.4-2,1.2
			c-0.5,0.8-0.7,1.9-0.7,3.3c0,1.3,0.2,2.6,0.5,3.9c0.3,1.3,0.8,2.6,1.5,4.1h-4.4c-0.7-1.5-1.2-2.9-1.5-4.1
			c-0.3-1.2-0.4-2.5-0.4-3.9c0-2.4,0.3-4.4,0.9-6s1.6-2.9,2.8-3.9c1.3-1.1,2.9-1.9,5-2.6c2.1-0.7,4.5-1.1,7.4-1.3l0.5,3.3
			c-2.1,0.2-4,0.4-5.7,0.8s-3.1,1-4.3,1.7v0.3H304.1z"/>
		<path class="st0" d="M338.5,25.1c0,3.5-0.6,6.1-1.9,7.9c-1.2,1.7-3.1,2.6-5.7,2.6c-2.4,0-4.2-0.7-5.6-2s-2-3.1-2-5.4
			c0-1.4,0.3-2.7,0.9-3.8s1.4-2,2.5-2.6s2.2-0.9,3.6-0.9c1.5,0,2.8,0.4,3.8,1.3h0.1c0-1.8-0.1-3.2-0.4-4.1c-0.2-0.9-0.7-1.4-1.3-1.4
			c-0.5,0-0.9,0.2-1.1,0.5s-0.3,1-0.3,1.8v0.2h-4V19c0-0.8-0.1-1.4-0.3-1.8c-0.2-0.4-0.6-0.6-1.1-0.6s-1,0.2-1.4,0.5l-1.7-2.8
			c0.8-0.8,1.7-1.1,2.9-1.1c0.9,0,1.6,0.2,2.1,0.5c0.6,0.4,1.1,1,1.5,1.8h0.1c0.7-1.6,2.1-2.4,4-2.4c1.8,0,3.1,0.9,4,2.8
			C338.1,18.2,338.5,21.1,338.5,25.1z M334.2,28.2c0-1.3-0.2-2.3-0.7-2.9s-1.3-1-2.4-1s-2,0.3-2.5,1c-0.5,0.6-0.8,1.6-0.8,2.9
			s0.3,2.3,0.8,2.9s1.3,1,2.5,1c1.1,0,1.9-0.3,2.4-1C333.9,30.5,334.2,29.5,334.2,28.2z"/>
		<path class="st0" d="M348.9,19.4c2.3,0,4.1,0.7,5.5,2.1s2,3.3,2,5.7c0,1.5-0.1,2.8-0.4,4s-0.8,2.5-1.5,4H350c1.4-2.4,2-5.1,2-7.9
			c0-1.4-0.3-2.6-0.9-3.4s-1.4-1.2-2.4-1.2s-1.8,0.4-2.3,1.2c-0.6,0.8-0.8,1.9-0.8,3.3c0,1.3,0.2,2.6,0.5,3.9
			c0.3,1.3,0.8,2.6,1.5,4.1h-4.4c-0.7-1.5-1.2-2.9-1.5-4.1c-0.3-1.2-0.4-2.5-0.4-3.9c0-2.4,0.7-4.3,2.1-5.7
			C344.8,20.1,346.6,19.4,348.9,19.4z"/>
		<path class="st0" d="M363.8,24.8c0,1,0.3,1.8,0.8,2.4s1.2,0.8,2.2,0.8c1.2,0,2-0.4,2.6-1.1s0.8-1.9,0.8-3.4v-3.8h4.3v15.1
			c0,2.3-0.7,4.2-2,5.4c-1.3,1.3-3.2,1.9-5.6,1.9s-4.2-0.5-5.5-1.6s-2-2.7-2-4.7c0-0.7,0.1-1.3,0.3-2h4.3c-0.1,0.3-0.2,0.6-0.3,1
			c-0.1,0.4-0.1,0.7-0.1,1c0,1.1,0.3,1.8,0.8,2.3s1.3,0.7,2.3,0.7c1.1,0,1.9-0.3,2.4-1s0.8-1.7,0.8-3V33c0-1,0.1-2.2,0.2-3.7h-0.2
			c-0.5,0.8-1.1,1.4-1.9,1.8s-1.7,0.6-2.9,0.6c-1.8,0-3.3-0.6-4.3-1.8c-1-1.2-1.6-2.8-1.6-4.8c0-1,0.1-1.9,0.4-2.9s0.6-1.8,1-2.4
			h4.3c-0.5,0.6-0.8,1.4-1.1,2.3S363.8,23.9,363.8,24.8z"/>
		<path class="st0" d="M385.8,19.4c2.3,0,4.1,0.7,5.5,2.1s2,3.3,2,5.7c0,1.5-0.1,2.8-0.4,4s-0.8,2.5-1.5,4H387c1.4-2.4,2-5.1,2-7.9
			c0-1.4-0.3-2.6-0.9-3.4s-1.4-1.2-2.4-1.2s-1.8,0.4-2.3,1.2c-0.6,0.8-0.8,1.9-0.8,3.3c0,1.3,0.2,2.6,0.5,3.9
			c0.3,1.3,0.8,2.6,1.5,4.1h-4.4c-0.7-1.5-1.2-2.9-1.5-4.1c-0.3-1.2-0.4-2.5-0.4-3.9c0-2.4,0.7-4.3,2.1-5.7
			C381.7,20.1,383.5,19.4,385.8,19.4z"/>
	</g>
</g>
</svg>
