<?xml version="1.0" encoding="utf-8"?>
<!-- Generator: Adobe Illustrator 19.2.1, SVG Export Plug-In . SVG Version: 6.00 Build 0)  -->
<svg version="1.1" id="Layer_1" xmlns="http://www.w3.org/2000/svg" xmlns:xlink="http://www.w3.org/1999/xlink" x="0px" y="0px"
	 width="367px" height="35px" viewBox="0 0 367 35" style="enable-background:new 0 0 367 35;" xml:space="preserve">
<style type="text/css">
	.st0{fill:#FFFFFF;}
</style>
<g>
	<path class="st0" d="M16.5,20.6H8.9v7.7H4.6V9h4.3v7.5h7.7V9h4.3v19.2h-4.3V20.6z"/>
	<path class="st0" d="M28.5,24.3l-1.4,3.9h-4.5L29.9,9h5L42,28.2h-4.7L36,24.3H28.5z M34.6,20.4l-2.3-6.6L30,20.4H34.6z"/>
	<path class="st0" d="M57.4,10.8c2.3,0,4.2,0.7,5.6,2.1c1.4,1.4,2.1,3.3,2.1,5.7c0,2.4-0.7,4.3-2.1,5.7c-1.4,1.4-3.3,2.1-5.7,2.1
		h-1.2v1.9h-4.4v-1.9h-1.2c-2.3,0-4.2-0.7-5.7-2.1c-1.4-1.4-2.1-3.3-2.1-5.7c0-2.4,0.7-4.3,2.1-5.7c1.4-1.4,3.3-2.1,5.7-2.1h1.2V8.9
		h4.4v1.9H57.4z M50.9,22.5h0.9v-7.9h-0.9c-1.1,0-2.1,0.3-2.8,1c-0.7,0.7-1.1,1.7-1.1,3c0,1.3,0.4,2.3,1.1,3
		C48.8,22.2,49.8,22.5,50.9,22.5z M57,22.5c1.1,0,2.1-0.3,2.8-1c0.7-0.7,1.1-1.7,1.1-3c0-1.3-0.4-2.3-1.1-3c-0.7-0.7-1.7-1-2.8-1
		h-0.9v7.9H57z"/>
	<path class="st0" d="M69.5,9h12.4v19.2h-4.3V13.1h-3.9l-0.6,9.1c-0.1,1-0.3,1.8-0.5,2.5c-0.3,0.7-0.7,1.4-1.3,1.9
		c-1.2,1.2-2.8,1.7-4.8,1.7H66v-3.7h0.1c0.8,0,1.5-0.2,2-0.7c0.4-0.4,0.7-1,0.7-1.8L69.5,9z"/>
	<path class="st0" d="M86.1,9h4.3v11.7L97.6,9h5.2v19.2h-4.3V15.6l-7.9,12.6h-4.5V9z"/>
	<path class="st0" d="M111,28.2h-4.3V9h7.2c2,0,3.6,0.6,4.8,1.7c1.2,1.2,1.8,2.6,1.8,4.4c0,1.8-0.6,3.3-1.8,4.4
		c-1.2,1.1-2.8,1.7-4.8,1.7h-3V28.2z M115.6,17c0.5-0.5,0.8-1,0.8-1.8c0-0.8-0.3-1.4-0.8-1.8c-0.5-0.4-1.1-0.7-2-0.7h-2.5v4.9h2.5
		C114.4,17.6,115,17.4,115.6,17z"/>
	<path class="st0" d="M131.9,28.2h-4.3V13.1h-5.9V9h16.1v4.1h-5.9V28.2z"/>
	<path class="st0" d="M150.2,9h5l-5.6,13.6c-0.4,0.9-0.8,1.7-1.1,2.3c-0.3,0.5-0.8,1-1.4,1.6c-1.1,1.2-2.7,1.7-4.7,1.7h-1.3v-3.7
		h0.8c0.8,0,1.5-0.2,2-0.7c0.3-0.2,0.5-0.5,0.5-0.7c0-0.1,0.1-0.3,0.1-0.4c0-0.2-0.1-0.5-0.2-0.8L139,9h5l3.1,7.5L150.2,9z"/>
	<path class="st0" d="M157.6,9h4.3v11.7L169.1,9h5.2v19.2H170V15.6l-7.9,12.6h-4.5V9z M161.5,4.1h3.1c0,0.9,0.5,1.4,1.5,1.4
		c1,0,1.5-0.5,1.5-1.4h3c0,1-0.4,1.9-1.1,2.6c-0.9,0.8-2,1.2-3.4,1.2c-1.4,0-2.5-0.4-3.4-1.2C161.9,5.9,161.5,5.1,161.5,4.1z"/>
	<path class="st0" d="M197.1,20.6h-7.7v7.7h-4.3V9h4.3v7.5h7.7V9h4.3v19.2h-4.3V20.6z"/>
	<path class="st0" d="M209.1,24.3l-1.4,3.9h-4.5L210.5,9h5l7.2,19.2h-4.7l-1.4-3.9H209.1z M215.2,20.4l-2.3-6.6l-2.4,6.6H215.2z"/>
	<path class="st0" d="M231.6,9h16.3v19.3h-4.3V13.1h-7.7v15.2h-4.3V9z"/>
	<path class="st0" d="M259.9,8.6c2.8,0,5.1,0.9,7,2.7c2,1.9,3,4.3,3,7.3c0,3-1,5.4-3,7.3c-1.9,1.8-4.3,2.7-7,2.7
		c-2.8,0-5.1-0.9-7-2.7c-2-1.9-3-4.3-3-7.3c0-3,1-5.4,3-7.3C254.8,9.5,257.2,8.6,259.9,8.6z M259.9,24.4c1.5,0,2.8-0.5,3.8-1.4
		c1.2-1.1,1.8-2.5,1.8-4.4c0-1.9-0.6-3.4-1.8-4.4c-1-0.9-2.3-1.4-3.8-1.4c-1.5,0-2.7,0.5-3.8,1.4c-1.2,1.1-1.8,2.5-1.8,4.4
		c0,1.9,0.6,3.3,1.8,4.4C257.2,23.9,258.5,24.4,259.9,24.4z"/>
	<path class="st0" d="M285,9h4.3v15.2h1.7v6.8h-4.3v-2.7H273V9h4.3v15.2h7.7V9z"/>
	<path class="st0" d="M294.4,9h12.2v4h-7.9v3.7h7.2v3.8h-7.2v3.7h7.9v4.1h-12.2V9z"/>
	<path class="st0" d="M312,9h12.4v19.2h-4.3V13.1h-3.9l-0.6,9.1c-0.1,1-0.3,1.8-0.5,2.5c-0.3,0.7-0.7,1.4-1.3,1.9
		c-1.2,1.2-2.8,1.7-4.8,1.7h-0.5v-3.7h0.1c0.8,0,1.5-0.2,2-0.7c0.4-0.4,0.7-1,0.7-1.8L312,9z"/>
	<path class="st0" d="M338.4,9h5l-5.6,13.6c-0.4,0.9-0.8,1.7-1.1,2.3c-0.3,0.5-0.8,1-1.4,1.6c-1.1,1.2-2.7,1.7-4.7,1.7h-1.3v-3.7
		h0.8c0.8,0,1.5-0.2,2-0.7c0.3-0.2,0.5-0.5,0.5-0.7c0-0.1,0.1-0.3,0.1-0.4c0-0.2-0.1-0.5-0.2-0.8l-5.4-13h5l3.1,7.5L338.4,9z"/>
	<path class="st0" d="M345.7,9h4.3v11.7L357.2,9h5.2v19.2h-4.3V15.6l-7.9,12.6h-4.5V9z M349.6,4.1h3.1c0,0.9,0.5,1.4,1.5,1.4
		c1,0,1.5-0.5,1.5-1.4h3c0,1-0.4,1.9-1.1,2.6c-0.9,0.8-2,1.2-3.4,1.2c-1.4,0-2.5-0.4-3.4-1.2C350,5.9,349.6,5.1,349.6,4.1z"/>
</g>
</svg>
