<?xml version="1.0" encoding="utf-8"?>
<!-- Generator: Adobe Illustrator 19.2.1, SVG Export Plug-In . SVG Version: 6.00 Build 0)  -->
<svg version="1.1" id="Layer_1" xmlns="http://www.w3.org/2000/svg" xmlns:xlink="http://www.w3.org/1999/xlink" x="0px" y="0px"
	 width="300px" height="48px" viewBox="0 0 300 48" style="enable-background:new 0 0 300 48;" xml:space="preserve">
<style type="text/css">
	.st0{fill:#FFFFFF;}
</style>
<g>
	<path class="st0" d="M68.8,32.6H57.3l-2.1,6h-7L59.4,8.9h7.7l11.1,29.8H71L68.8,32.6z M59.5,26.6h7.2l-3.6-10.3L59.5,26.6z"/>
	<path class="st0" d="M100.7,38.7L88.4,19.1v19.6h-6.6V8.9h8.1L101.1,27V8.9h6.6v29.8H100.7z"/>
	<path class="st0" d="M114.1,38.7V8.9h10.8c4.5,0,8.1,1.3,10.9,4c2.7,2.7,4.1,6.3,4.1,10.9c0,4.6-1.4,8.2-4.1,10.9
		c-2.7,2.7-6.4,4-10.9,4H114.1z M124.6,32.4c2.4,0,4.4-0.7,6-2.2s2.3-3.6,2.3-6.4c0-2.9-0.8-5-2.3-6.5c-1.6-1.5-3.5-2.2-6-2.2h-3.9
		v17.3H124.6z"/>
	<path class="st0" d="M188.1,8.9h6.8l-8.1,29.8h-6.8l-6.3-19.7l-6.4,19.7h-7l-8.1-29.8h7.1l4.9,19.1l6.2-19.1h6.8l6.2,19.1
		L188.1,8.9z"/>
	<path class="st0" d="M198.5,38.7V8.9h6.7v29.8H198.5z"/>
	<path class="st0" d="M230.5,38.7l-12.3-19.6v19.6h-6.6V8.9h8.1L230.9,27V8.9h6.6v29.8H230.5z"/>
	<path class="st0" d="M250.3,29.4h-4.7l-1.5-20.4h7.6L250.3,29.4z M245.4,32.9c0.7-0.7,1.6-1.1,2.6-1.1c1,0,1.9,0.4,2.6,1.1
		c0.7,0.7,1.1,1.6,1.1,2.6c0,1-0.4,1.8-1.1,2.5c-0.7,0.7-1.6,1.1-2.6,1.1c-1,0-1.9-0.4-2.6-1.1c-0.7-0.7-1-1.6-1-2.5
		C244.3,34.5,244.7,33.6,245.4,32.9z"/>
</g>
</svg>
