<?xml version="1.0" encoding="utf-8"?>
<!-- Generator: Adobe Illustrator 19.2.1, SVG Export Plug-In . SVG Version: 6.00 Build 0)  -->
<svg version="1.1" id="Layer_1" xmlns="http://www.w3.org/2000/svg" xmlns:xlink="http://www.w3.org/1999/xlink" x="0px" y="0px"
	 width="160px" height="60px" viewBox="0 0 160 60" style="enable-background:new 0 0 160 60;" xml:space="preserve">
<style type="text/css">
	.st0{fill:#FFFFFF;}
</style>
<g>
	<path class="st0" d="M23.9,13.3c0-3,1-5.4,3-7.4c1.9-1.9,4.3-2.8,7.1-2.8c2.7,0,4.8,0.7,6.5,2.2c1.3,1.2,2.2,2.6,2.6,4.3l-4.1,1.3
		c-0.1-0.4-0.2-0.8-0.4-1.1C38.3,9.3,38,9,37.6,8.6c-0.9-0.9-2.1-1.3-3.7-1.3c-1.4,0-2.7,0.5-3.8,1.5c-1.2,1.1-1.8,2.6-1.8,4.5
		c0,1.8,0.6,3.2,1.7,4.3c1.1,1,2.4,1.5,3.9,1.5c1.5,0,2.7-0.4,3.7-1.3c0.7-0.7,1.2-1.4,1.4-2.4l4.1,1.2c-0.4,1.7-1.3,3.2-2.6,4.4
		c-1.7,1.6-3.9,2.4-6.6,2.4c-2.9,0-5.2-0.9-7.1-2.8C24.9,18.7,23.9,16.3,23.9,13.3z"/>
	<path class="st0" d="M58,5c1.1,1,1.6,2.2,1.6,3.7c0,1-0.3,1.8-0.8,2.6c-0.5,0.8-1.2,1.3-2,1.5c1,0.2,1.8,0.7,2.4,1.5
		c0.7,0.8,1.1,1.9,1.1,3.1c0,1.6-0.6,2.9-1.7,4c-1.1,1-2.6,1.6-4.4,1.6h-7.9V3.5h7.3C55.4,3.5,56.9,4,58,5z M54.6,10.7
		c0.5-0.3,0.7-0.9,0.7-1.5c0-1.4-0.9-2.1-2.6-2.1h-2.3v4.2h2.4C53.6,11.3,54.2,11.1,54.6,10.7z M55.1,18.8c0.5-0.4,0.7-1,0.7-1.7
		c0-0.7-0.2-1.2-0.7-1.6c-0.5-0.4-1.1-0.6-2-0.6h-2.7v4.6h2.7C54,19.4,54.7,19.2,55.1,18.8z"/>
	<path class="st0" d="M63.1,3.5h12.3v4.1h-8v3.7h7.3v3.8h-7.3v3.7h8V23H63.1V3.5z"/>
	<path class="st0" d="M86.3,3.5h4.4v6.3l3.8-6.3h5.1l-6.3,9.8l6.3,9.7h-5.3l-3.7-6.1V23h-4.4v-6.1L82.6,23h-5.3l6.3-9.7l-6.2-9.8
		h5.1l3.8,6.3V3.5z"/>
	<path class="st0" d="M102,3.5h4.3v11.8l7.3-11.8h5.3V23h-4.3V10.2l-8,12.8H102V3.5z"/>
	<path class="st0" d="M123.2,3.5h12.3v4.1h-8v3.7h7.3v3.8h-7.3v3.7h8V23h-12.4V3.5z"/>
	<path class="st0" d="M12.2,34.8h16.5v19.5h-4.4V38.8h-7.8v15.4h-4.3V34.8z"/>
	<path class="st0" d="M40.9,34.3c2.8,0,5.2,0.9,7.1,2.8c2,1.9,3,4.4,3,7.4c0,3-1,5.5-3,7.4c-1.9,1.8-4.3,2.8-7.1,2.8
		c-2.8,0-5.2-0.9-7.1-2.8c-2-1.9-3-4.4-3-7.4c0-3,1-5.5,3-7.4C35.7,35.2,38.1,34.3,40.9,34.3z M40.9,50.3c1.5,0,2.8-0.5,3.8-1.4
		c1.2-1.1,1.8-2.6,1.8-4.5c0-1.9-0.6-3.4-1.8-4.5c-1-1-2.3-1.4-3.8-1.4c-1.5,0-2.8,0.5-3.8,1.4c-1.2,1.1-1.8,2.6-1.8,4.5
		c0,1.9,0.6,3.4,1.8,4.5C38.1,49.9,39.4,50.3,40.9,50.3z"/>
	<path class="st0" d="M68.5,50.1h1.6v6.8h-4.3v-2.7h-9.1v2.7h-4.3v-6.8h0.1c0.8,0,1.5-0.2,2-0.7c0.4-0.4,0.7-1,0.7-1.8L56,34.8h12.5
		V50.1z M60.4,38.9l-0.7,8.7c-0.1,0.9-0.2,1.7-0.5,2.4h5.1V38.9H60.4z"/>
	<path class="st0" d="M78,49v5.2h-4.3V34.7H78v8.2l7.1-8.2h5.7l-7.6,8.4l7.6,11h-5.4l-5.2-7.7L78,49z"/>
	<path class="st0" d="M97.4,50.2l-1.4,4h-4.6l7.3-19.5h5l7.3,19.5h-4.7l-1.4-4H97.4z M103.5,46.3l-2.3-6.7l-2.4,6.7H103.5z"/>
	<path class="st0" d="M119.4,54.2h-4.3V38.9h-6v-4.1h16.3v4.1h-6V54.2z"/>
	<path class="st0" d="M140.3,43.5c1.2,1.2,1.8,2.7,1.8,4.5c0,1.8-0.6,3.3-1.8,4.5c-1.2,1.2-2.8,1.8-4.8,1.8h-7.3V34.7h4.3v7h3
		C137.4,41.7,139.1,42.3,140.3,43.5z M132.5,50.4h2.5c0.8,0,1.5-0.2,2-0.7c0.5-0.5,0.8-1.1,0.8-1.8c0-0.8-0.3-1.4-0.8-1.8
		c-0.5-0.4-1.2-0.7-2-0.7h-2.5V50.4z M143.4,34.7h4.4v19.5h-4.4V34.7z"/>
</g>
</svg>
