<?xml version="1.0" encoding="utf-8"?>
<!-- Generator: Adobe Illustrator 19.2.1, SVG Export Plug-In . SVG Version: 6.00 Build 0)  -->
<svg version="1.1" id="Layer_1" xmlns="http://www.w3.org/2000/svg" xmlns:xlink="http://www.w3.org/1999/xlink" x="0px" y="0px"
	 width="300px" height="48px" viewBox="0 0 300 48" style="enable-background:new 0 0 300 48;" xml:space="preserve">
<style type="text/css">
	.st0{fill:#FFFFFF;}
</style>
<g>
	<path class="st0" d="M20.6,12.6h6.7V31l11.4-18.4h8.2v30.2h-6.7V23L27.7,42.8h-7.1V12.6z"/>
	<path class="st0" d="M82.2,14.9c1.7,1.5,2.5,3.5,2.5,5.8c0,1.5-0.4,2.9-1.3,4.1c-0.8,1.2-1.9,2-3.2,2.4c1.5,0.3,2.8,1.1,3.8,2.3
		c1.1,1.3,1.7,2.9,1.7,4.7c0,2.6-0.9,4.5-2.6,6.1c-1.8,1.6-4.1,2.5-6.9,2.5H64V12.6h11.3C78.2,12.6,80.5,13.4,82.2,14.9z M77,23.9
		c0.7-0.5,1.1-1.4,1.1-2.4c0-2.2-1.3-3.3-4-3.3h-3.6v6.5h3.7C75.4,24.8,76.3,24.5,77,23.9z M77.8,36.4c0.7-0.7,1.1-1.5,1.1-2.6
		s-0.4-1.9-1.1-2.6c-0.7-0.7-1.8-1-3.1-1h-4.2v7.1h4.2C76.1,37.4,77.1,37,77.8,36.4z"/>
	<path class="st0" d="M109.2,26.2c1.9,1.8,2.9,4.1,2.9,7s-1,5.1-2.9,6.9c-1.9,1.8-4.4,2.8-7.5,2.8H90.3V12.6H97v10.9h4.6
		C104.8,23.5,107.2,24.4,109.2,26.2z M97,37h4c1.3,0,2.4-0.3,3.2-1c0.8-0.7,1.2-1.7,1.2-2.9s-0.4-2.1-1.2-2.9c-0.8-0.7-1.9-1-3.2-1
		h-4V37z M114,12.6h6.8v30.2H114V12.6z"/>
	<path class="st0" d="M127.4,12.6h6.7V31l11.4-18.4h8.2v30.2H147V23l-12.4,19.9h-7.1L127.4,12.6L127.4,12.6z"/>
	<path class="st0" d="M180.1,19h-13v23.8h-6.7V12.6h19.8V19z"/>
	<path class="st0" d="M190.5,42.8h-6.7V12.6h11.4c3.1,0,5.6,0.9,7.5,2.8c1.9,1.8,2.9,4.1,2.9,6.9c0,2.9-1,5.2-2.9,7
		c-1.9,1.8-4.4,2.7-7.5,2.7h-4.6V42.8z M197.5,25.2c0.8-0.7,1.2-1.7,1.2-2.9c0-1.2-0.4-2.2-1.2-2.9c-0.8-0.7-1.8-1-3.2-1h-4v7.7h4
		C195.7,26.2,196.7,25.9,197.5,25.2z"/>
	<path class="st0" d="M213.6,36.7l-2.2,6.1h-7.1l11.4-30.2h7.8l11.4,30.2h-7.3l-2.2-6.1H213.6z M223.2,30.6l-3.7-10.5l-3.8,10.5
		H223.2z"/>
	<path class="st0" d="M238.6,12.6h6.7V31l11.4-18.4h8.2v30.2h-6.7V23l-12.4,19.9h-7.1V12.6z M244.6,4.8h4.8c0.1,1.4,0.8,2.2,2.3,2.2
		c1.5,0,2.3-0.7,2.4-2.2h4.7c-0.1,1.6-0.7,3-1.8,4.1c-1.4,1.3-3.2,1.9-5.3,1.9c-2.2,0-4-0.6-5.3-1.9C245.3,7.8,244.7,6.4,244.6,4.8z
		"/>
	<path class="st0" d="M277.9,33.4h-4.7l-1.5-20.7h7.8L277.9,33.4z M272.9,37c0.7-0.7,1.6-1.1,2.6-1.1s1.9,0.4,2.7,1.1
		c0.7,0.7,1.1,1.6,1.1,2.7c0,1-0.4,1.9-1.1,2.6c-0.7,0.7-1.6,1.1-2.7,1.1c-1,0-1.9-0.4-2.6-1.1c-0.7-0.7-1.1-1.6-1.1-2.6
		C271.8,38.6,272.2,37.7,272.9,37z"/>
</g>
</svg>
