<?xml version="1.0" encoding="utf-8"?>
<!-- Generator: Adobe Illustrator 19.2.1, SVG Export Plug-In . SVG Version: 6.00 Build 0)  -->
<svg version="1.1" id="Layer_1" xmlns="http://www.w3.org/2000/svg" xmlns:xlink="http://www.w3.org/1999/xlink" x="0px" y="0px"
	 width="160px" height="84px" viewBox="0 0 160 84" style="enable-background:new 0 0 160 84;" xml:space="preserve">
<style type="text/css">
	.st0{fill:#FFFFFF;}
</style>
<g>
	<path class="st0" d="M17.8,3.5h4.1v11.1l6.8-11.1h4.9v18.2h-4v-12l-7.5,12h-4.3V3.5z"/>
	<path class="st0" d="M47.9,16.8v4.9h-4.1V3.5h4.1v7.7l6.6-7.7h5.3l-7.1,7.9l7.1,10.3h-5.1l-4.9-7.2L47.9,16.8z"/>
	<path class="st0" d="M66,21.7H62V3.5h6.9c1.9,0,3.4,0.5,4.5,1.6c1.1,1.1,1.7,2.5,1.7,4.2c0,1.7-0.6,3.1-1.7,4.2
		c-1.1,1.1-2.7,1.6-4.5,1.6H66V21.7z M70.3,11.1c0.5-0.4,0.7-1,0.7-1.7c0-0.7-0.2-1.3-0.7-1.7C69.8,7.2,69.2,7,68.4,7H66v4.6h2.4
		C69.2,11.7,69.8,11.5,70.3,11.1z"/>
	<path class="st0" d="M86.8,3.5h4.7l-5.3,12.8c-0.4,0.9-0.7,1.6-1.1,2.2c-0.3,0.5-0.7,1-1.3,1.5c-1,1.1-2.5,1.6-4.5,1.6h-1.2v-3.5
		H79c0.8,0,1.4-0.2,1.9-0.6c0.3-0.2,0.4-0.4,0.5-0.7c0-0.1,0.1-0.2,0.1-0.3c0-0.2-0.1-0.5-0.2-0.7L76.2,3.5h4.7l3,7.1L86.8,3.5z"/>
	<path class="st0" d="M101.9,21.7h-4.1V7.4h-5.6V3.5h15.3v3.9h-5.6V21.7z"/>
	<path class="st0" d="M121.4,11.7c1.1,1.1,1.7,2.5,1.7,4.2c0,1.7-0.6,3.1-1.7,4.2c-1.1,1.1-2.7,1.6-4.5,1.6h-6.9V3.5h4.1v6.5h2.8
		C118.8,10.1,120.3,10.6,121.4,11.7z M114.1,18.2h2.4c0.8,0,1.4-0.2,1.9-0.6c0.5-0.4,0.7-1,0.7-1.7c0-0.7-0.2-1.3-0.7-1.7
		c-0.5-0.4-1.1-0.6-1.9-0.6h-2.4V18.2z M124.3,3.5h4.1v18.2h-4.1V3.5z"/>
	<path class="st0" d="M132.4,3.5h11.5v3.8h-7.5v3.5h6.8v3.6h-6.8v3.5h7.5v3.9h-11.6V3.5z"/>
	<path class="st0" d="M36.8,32.7h15.4V51h-4.1V36.6h-7.3V51h-4.1V32.7z"/>
	<path class="st0" d="M59.3,50.9h-4.1V32.7h6.9c1.9,0,3.4,0.5,4.5,1.6c1.1,1.1,1.7,2.5,1.7,4.2c0,1.7-0.6,3.1-1.7,4.2
		c-1.1,1.1-2.7,1.6-4.5,1.6h-2.8V50.9z M63.5,40.3c0.5-0.4,0.7-1,0.7-1.7c0-0.7-0.2-1.3-0.7-1.7c-0.5-0.4-1.1-0.6-1.9-0.6h-2.4v4.6
		h2.4C62.4,40.9,63.1,40.7,63.5,40.3z"/>
	<path class="st0" d="M70.8,32.7h4.1v11.1l6.8-11.1h4.9v18.2h-4v-12l-7.5,12h-4.3V32.7z"/>
	<path class="st0" d="M89.4,44.9h3.9c0.1,0.9,0.4,1.6,0.9,2.1c0.5,0.5,1.2,0.7,2.2,0.7c1,0,1.7-0.2,2.3-0.7c0.5-0.5,0.8-1.1,0.8-1.8
		c0-0.9-0.3-1.5-0.9-2c-0.6-0.4-1.3-0.7-2.1-0.7h-1.3v-3.2h1.4c0.5,0,1-0.2,1.4-0.5c0.4-0.3,0.7-0.8,0.7-1.5c0-0.5-0.2-0.9-0.6-1.3
		c-0.4-0.3-0.9-0.5-1.4-0.5c-0.7,0-1.3,0.2-1.6,0.6c-0.3,0.4-0.5,0.9-0.6,1.6l-3.8-0.4c0.1-1.4,0.6-2.5,1.6-3.5
		c1-0.9,2.5-1.4,4.4-1.4c1.7,0,3.1,0.4,4.1,1.3c1.1,0.9,1.6,2,1.6,3.4c0,0.8-0.3,1.6-0.8,2.3c-0.6,0.7-1.2,1.2-1.9,1.4
		c0.9,0.2,1.8,0.8,2.5,1.6c0.7,0.8,1.1,1.8,1.1,3c0,1.6-0.6,2.9-1.8,3.9c-1.2,1-2.9,1.5-5.1,1.5c-2.2,0-3.9-0.6-5.1-1.7
		C90.2,48.1,89.5,46.7,89.4,44.9z"/>
	<path class="st0" d="M117.4,40.9c1.1,1.1,1.7,2.5,1.7,4.2c0,1.7-0.6,3.1-1.7,4.2s-2.7,1.6-4.5,1.6H106V32.7h4.1v6.5h2.8
		C114.7,39.3,116.2,39.8,117.4,40.9z M110.1,47.4h2.4c0.8,0,1.4-0.2,1.9-0.6c0.5-0.4,0.7-1,0.7-1.7c0-0.7-0.2-1.3-0.7-1.7
		c-0.5-0.4-1.1-0.6-1.9-0.6h-2.4V47.4z M120.3,32.7h4.1v18.2h-4.1V32.7z"/>
	<path class="st0" d="M20.5,61.5c2.6,0,4.8,0.9,6.6,2.6c1.9,1.8,2.8,4.1,2.8,6.9c0,2.8-0.9,5.1-2.8,6.9c-1.8,1.7-4,2.6-6.6,2.6
		s-4.8-0.9-6.6-2.6C11.9,76.1,11,73.8,11,71c0-2.8,0.9-5.1,2.8-6.9C15.6,62.4,17.8,61.5,20.5,61.5z M20.5,76.5
		c1.4,0,2.6-0.4,3.6-1.3c1.1-1,1.7-2.4,1.7-4.2c0-1.8-0.6-3.2-1.7-4.2c-1-0.9-2.1-1.3-3.6-1.3c-1.4,0-2.6,0.4-3.6,1.3
		c-1.1,1-1.7,2.4-1.7,4.2c0,1.8,0.6,3.1,1.7,4.2C17.9,76,19.1,76.5,20.5,76.5z"/>
	<path class="st0" d="M40.6,80.1h-4.1V65.8h-5.6v-3.9h15.3v3.9h-5.6V80.1z"/>
	<path class="st0" d="M56.7,64.2c1.8-1.8,4.1-2.6,6.7-2.6c2.6,0,4.9,0.9,6.7,2.6c1.8,1.8,2.7,4,2.7,6.9c0,2.8-0.9,5.1-2.7,6.8
		c-1.8,1.8-4.1,2.6-6.7,2.6c-2.6,0-4.9-0.9-6.7-2.6c-1.8-1.8-2.8-4-2.8-6.8C54,68.2,54.9,65.9,56.7,64.2z M63.4,65.5
		c-1.4,0-2.6,0.5-3.7,1.4c-1.1,0.9-1.6,2.3-1.6,4.1c0,1.8,0.5,3.1,1.6,4.1c1.1,0.9,2.3,1.4,3.7,1.4c1.4,0,2.6-0.5,3.7-1.4
		c1-0.9,1.6-2.3,1.6-4.1c0-1.8-0.5-3.1-1.6-4.1C66.1,65.9,64.8,65.5,63.4,65.5z"/>
	<path class="st0" d="M81.3,73.3h-1.4v6.8h-4.1V61.9H83c1.8,0,3.2,0.5,4.3,1.6c1.1,1.1,1.6,2.4,1.6,4.1c0,1.2-0.3,2.3-0.9,3.2
		c-0.6,0.9-1.5,1.5-2.6,1.9l3.7,7.4h-4.5L81.3,73.3z M82.2,69.8c0.8,0,1.5-0.2,1.9-0.6c0.4-0.4,0.7-0.9,0.7-1.6
		c0-0.7-0.2-1.2-0.7-1.6c-0.4-0.4-1.1-0.6-1.9-0.6h-2.4v4.4H82.2z"/>
	<path class="st0" d="M98.7,61.9c1.8,0,3.1,0.5,4.2,1.4c1,0.9,1.5,2.1,1.5,3.5c0,0.9-0.3,1.7-0.8,2.4c-0.5,0.7-1.1,1.2-1.9,1.5
		c0.9,0.2,1.7,0.7,2.3,1.5c0.6,0.8,1,1.7,1,2.8c0,1.5-0.5,2.7-1.6,3.7c-1.1,1-2.4,1.5-4.1,1.5h-7.3V61.9H98.7z M98.1,69.2
		c0.7,0,1.3-0.2,1.7-0.5c0.4-0.4,0.6-0.8,0.6-1.5c0-0.6-0.2-1.1-0.6-1.4c-0.4-0.4-1-0.5-1.8-0.5h-2.2v3.9H98.1z M98.4,76.8
		c0.8,0,1.4-0.2,1.8-0.6c0.4-0.4,0.7-0.9,0.7-1.6c0-0.6-0.2-1.1-0.7-1.5c-0.4-0.4-1.1-0.6-1.8-0.6h-2.5v4.3H98.4z"/>
	<path class="st0" d="M107.8,80.1V61.9h4.1v18.2H107.8z"/>
	<path class="st0" d="M124,65.8v14.3h-4.1V65.8h-5.6v-3.9h15.3v3.9H124z"/>
	<path class="st0" d="M136.1,71.8c-1.5,0-2.8-0.5-3.9-1.6c-1.1-1.1-1.6-2.4-1.6-3.9c0-1.5,0.5-2.8,1.6-3.9c1.1-1.1,2.4-1.6,3.9-1.6
		c1.5,0,2.8,0.5,3.9,1.6c1.1,1.1,1.6,2.4,1.6,3.9c0,1.5-0.5,2.8-1.6,3.9C139,71.3,137.7,71.8,136.1,71.8z M136.1,61.9
		c-1.2,0-2.2,0.4-3,1.3c-0.8,0.8-1.2,1.9-1.2,3.1c0,1.2,0.4,2.2,1.2,3.1c0.8,0.8,1.8,1.2,3,1.2c1.2,0,2.2-0.4,3-1.2
		c0.8-0.8,1.2-1.9,1.2-3.1c0-1.2-0.4-2.2-1.2-3.1C138.3,62.4,137.3,61.9,136.1,61.9z M136.1,67.2h-0.4v2h-1.6v-6h2.5
		c0.6,0,1.1,0.2,1.5,0.6c0.4,0.4,0.6,0.8,0.6,1.4c0,0.4-0.1,0.7-0.3,1c-0.2,0.3-0.5,0.5-0.8,0.7l1.1,2.3H137L136.1,67.2z
		 M136.3,65.9c0.2,0,0.4-0.1,0.6-0.2c0.1-0.1,0.2-0.3,0.2-0.5s-0.1-0.4-0.2-0.5c-0.1-0.1-0.3-0.2-0.6-0.2h-0.6v1.4H136.3z"/>
	<path class="st0" d="M148.1,74.4h-2.9l-0.9-12.5h4.7L148.1,74.4z M145.1,76.6c0.4-0.4,1-0.7,1.6-0.7c0.6,0,1.1,0.2,1.6,0.7
		c0.4,0.4,0.7,1,0.7,1.6c0,0.6-0.2,1.1-0.7,1.6c-0.4,0.4-1,0.7-1.6,0.7c-0.6,0-1.1-0.2-1.6-0.7c-0.4-0.4-0.6-1-0.6-1.6
		C144.4,77.5,144.7,77,145.1,76.6z"/>
</g>
</svg>
