<?xml version="1.0" encoding="utf-8"?>
<!-- Generator: Adobe Illustrator 19.2.1, SVG Export Plug-In . SVG Version: 6.00 Build 0)  -->
<svg version="1.1" id="Layer_1" xmlns="http://www.w3.org/2000/svg" xmlns:xlink="http://www.w3.org/1999/xlink" x="0px" y="0px"
	 width="367px" height="35px" viewBox="0 0 367 35" style="enable-background:new 0 0 367 35;" xml:space="preserve">
<style type="text/css">
	.st0{fill:#FFFFFF;}
</style>
<g>
	<path class="st0" d="M41.3,25.5c-1.5,1.4-3.4,2.1-5.8,2.1c-2.3,0-4.3-0.7-5.8-2.1c-1.5-1.4-2.3-3.3-2.3-5.7v-13H32v12.6
		c0,1.2,0.3,2.1,0.9,2.8c0.6,0.6,1.5,0.9,2.6,0.9c1.1,0,2-0.3,2.6-0.9c0.6-0.6,0.9-1.5,0.9-2.8V6.7h4.5v13
		C43.6,22.2,42.8,24.1,41.3,25.5z M30.4,1.8c0.4-0.4,1-0.7,1.6-0.7c0.6,0,1.2,0.2,1.6,0.7c0.4,0.4,0.7,1,0.7,1.6
		c0,0.6-0.2,1.2-0.7,1.6c-0.4,0.4-1,0.6-1.6,0.6c-0.7,0-1.2-0.2-1.6-0.6s-0.6-0.9-0.6-1.6C29.8,2.8,30,2.3,30.4,1.8z M37.4,1.8
		c0.4-0.4,0.9-0.7,1.6-0.7c0.6,0,1.2,0.2,1.6,0.7c0.4,0.4,0.7,1,0.7,1.6c0,0.6-0.2,1.2-0.7,1.6c-0.4,0.4-1,0.6-1.6,0.6
		c-0.6,0-1.2-0.2-1.6-0.6c-0.4-0.4-0.6-0.9-0.6-1.6C36.8,2.8,37,2.3,37.4,1.8z"/>
	<path class="st0" d="M60.7,27.1l-8.4-13.4v13.4h-4.5V6.7h5.5l7.6,12.4V6.7h4.5v20.3H60.7z"/>
	<path class="st0" d="M79.8,12.9c-0.1-0.6-0.4-1.2-0.9-1.7c-0.5-0.5-1.3-0.8-2.4-0.8c-0.8,0-1.5,0.2-2,0.6s-0.8,0.9-0.8,1.5
		c0,1.1,0.7,1.7,2,1.9l2.7,0.5c1.9,0.3,3.3,1.1,4.3,2.2c1,1.1,1.5,2.4,1.5,3.9c0,1.7-0.7,3.2-2,4.5c-1.4,1.3-3.2,1.9-5.5,1.9
		c-2.6,0-4.5-0.7-5.9-2c-1.4-1.3-2.2-2.8-2.4-4.5l4.2-1c0.1,1,0.5,1.8,1.2,2.5c0.7,0.7,1.7,1,3,1c0.9,0,1.6-0.2,2.1-0.6
		s0.8-0.9,0.8-1.5c0-0.5-0.2-1-0.6-1.3c-0.4-0.4-0.9-0.6-1.6-0.7l-2.8-0.5c-1.7-0.3-3.1-1-4.1-2.1c-1-1.1-1.5-2.4-1.5-3.9
		c0-1.9,0.7-3.4,2.2-4.7c1.4-1.2,3.1-1.9,5.1-1.9c1.2,0,2.3,0.2,3.2,0.5s1.7,0.8,2.3,1.3c0.6,0.6,1,1.1,1.3,1.7
		c0.3,0.6,0.5,1.2,0.6,1.9L79.8,12.9z"/>
	<path class="st0" d="M87.3,27.1V6.7h4.6v20.3H87.3z"/>
	<path class="st0" d="M94.4,6.7h5.3l4.2,7.5l4.2-7.5h5L106,18.6v8.5h-4.5v-8.5L94.4,6.7z"/>
	<path class="st0" d="M114,6.7h5.3l4.2,7.5l4.2-7.5h5l-7.1,11.8v8.5H121v-8.5L114,6.7z"/>
	<path class="st0" d="M152,9.3c2,2,3.1,4.5,3.1,7.7c0,3.1-1,5.6-3.1,7.6c-2,1.9-4.5,2.9-7.5,2.9c-2.9,0-5.4-1-7.5-2.9
		c-2-2-3.1-4.5-3.1-7.6c0-0.6,0.1-1.3,0.2-2h16c-0.3-1.1-0.8-1.9-1.5-2.6c-1.1-1.1-2.5-1.6-4.1-1.6c-1.6,0-2.9,0.5-4.1,1.6
		c-0.3,0.2-0.5,0.5-0.7,0.8l-4.4-1.6c0.5-0.8,1-1.6,1.7-2.3c2-1.9,4.5-2.9,7.5-2.9C147.5,6.3,150,7.3,152,9.3z M144.6,23
		c1.6,0,2.9-0.5,4.1-1.6c0.6-0.6,1.1-1.3,1.4-2.2h-11c0.3,0.9,0.8,1.6,1.4,2.2C141.6,22.5,143,23,144.6,23z"/>
	<path class="st0" d="M167.4,11.1v16h-4.5v-16h-6.3V6.7h17.1v4.3H167.4z"/>
	<path class="st0" d="M176.5,27.1V6.7h7.4c3.1,0,5.5,0.9,7.4,2.8c1.9,1.8,2.8,4.3,2.8,7.4c0,3.1-0.9,5.6-2.8,7.4
		c-1.9,1.8-4.3,2.7-7.4,2.7H176.5z M183.6,22.8c1.7,0,3-0.5,4.1-1.5c1.1-1,1.6-2.5,1.6-4.4c0-1.9-0.5-3.4-1.6-4.4
		c-1.1-1-2.4-1.5-4.1-1.5H181v11.8H183.6z"/>
	<path class="st0" d="M214.1,9.3c2,2,3.1,4.5,3.1,7.7c0,3.1-1,5.6-3.1,7.6c-2,1.9-4.5,2.9-7.5,2.9c-2.9,0-5.4-1-7.5-2.9
		c-2-2-3.1-4.5-3.1-7.6c0-0.6,0.1-1.3,0.2-2h16c-0.3-1.1-0.8-1.9-1.5-2.6c-1.1-1.1-2.5-1.6-4.1-1.6s-2.9,0.5-4.1,1.6
		c-0.3,0.2-0.5,0.5-0.7,0.8l-4.4-1.6c0.5-0.8,1-1.6,1.7-2.3c2-1.9,4.5-2.9,7.5-2.9C209.6,6.3,212.1,7.3,214.1,9.3z M206.7,23
		c1.6,0,2.9-0.5,4.1-1.6c0.6-0.6,1.1-1.3,1.4-2.2h-11c0.3,0.9,0.8,1.6,1.4,2.2C203.7,22.5,205.1,23,206.7,23z"/>
	<path class="st0" d="M227.5,27.1V6.7h4.6v20.3H227.5z"/>
	<path class="st0" d="M249.3,27.1L241,13.7v13.4h-4.5V6.7h5.5l7.6,12.4V6.7h4.5v20.3H249.3z"/>
	<path class="st0" d="M265.3,19.1l-2.3,2.6v5.4h-4.5V6.7h4.5v8.5l7.4-8.5h6l-7.9,8.8l7.9,11.5h-5.6L265.3,19.1z"/>
	<path class="st0" d="M279,27.1V6.7h4.6v20.3H279z"/>
	<path class="st0" d="M296.8,27.3l-0.1,0.1l-0.1,0l-0.7,1.1c0.8,0,1.5,0.3,2,0.7c0.5,0.5,0.8,1.1,0.8,1.8c0,0.7-0.3,1.4-0.9,2
		c-0.6,0.6-1.6,0.9-2.9,0.9c-0.8,0-1.5-0.2-2.1-0.5c-0.7-0.3-1.1-0.7-1.4-1.1l1.3-1.7c0.7,0.7,1.5,1.1,2.2,1.1s1.1-0.2,1.1-0.7
		c0-0.2-0.1-0.4-0.3-0.5c-0.2-0.2-0.4-0.2-0.7-0.2s-0.6,0-0.8,0.1l-1.1-1.4l0.9-1.4c-2.2-0.1-3.9-0.8-5.1-2
		c-1.4-1.3-2.2-2.8-2.4-4.5l4.2-1c0.1,1,0.5,1.9,1.2,2.5c0.7,0.7,1.7,1,3,1c0.9,0,1.6-0.2,2.1-0.6c0.5-0.4,0.8-0.9,0.8-1.5
		c0-0.5-0.2-0.9-0.6-1.3c-0.4-0.4-0.9-0.6-1.6-0.7l-2.8-0.5c-1.7-0.3-3.1-1-4-2.1c-1-1.1-1.5-2.4-1.5-3.9c0-1.9,0.7-3.4,2.2-4.7
		c1.4-1.2,3.1-1.9,5.1-1.9c1.2,0,2.3,0.2,3.2,0.5c0.9,0.3,1.7,0.8,2.2,1.3c0.6,0.6,1,1.1,1.3,1.7c0.3,0.6,0.5,1.2,0.6,1.9l-4.1,1.1
		c-0.1-0.6-0.4-1.2-0.9-1.7c-0.5-0.5-1.3-0.8-2.4-0.8c-0.8,0-1.5,0.2-2,0.7c-0.5,0.4-0.8,0.9-0.8,1.5c0,1.1,0.7,1.7,2,1.9l2.7,0.5
		c1.9,0.3,3.3,1.1,4.4,2.2c1,1.1,1.5,2.4,1.5,3.9c0,1.7-0.7,3.2-2,4.5C299.4,26.5,298.2,27,296.8,27.3z"/>
	<path class="st0" d="M317.6,22.9h-7.9l-1.5,4.1h-4.8l7.7-20.3h5.2l7.6,20.3H319L317.6,22.9z M311.2,18.8h4.9l-2.4-7L311.2,18.8z"/>
	<path class="st0" d="M326.4,27.1V6.7h13.1V11H331v4.3h7.5v4.1H331v7.6H326.4z"/>
</g>
</svg>
