<?xml version="1.0" encoding="utf-8"?>
<!-- Generator: Adobe Illustrator 19.2.1, SVG Export Plug-In . SVG Version: 6.00 Build 0)  -->
<svg version="1.1" id="Layer_1" xmlns="http://www.w3.org/2000/svg" xmlns:xlink="http://www.w3.org/1999/xlink" x="0px" y="0px"
	 width="486px" height="30px" viewBox="0 0 486 30" style="enable-background:new 0 0 486 30;" xml:space="preserve">
<style type="text/css">
	.st0{fill:#FFFFFF;}
</style>
<g>
	<path class="st0" d="M10.5,7.7c1.8-1.7,4-2.6,6.7-2.6S22,6,23.8,7.7c1.8,1.7,2.7,4,2.7,6.8s-0.9,5-2.7,6.8c-1.8,1.7-4,2.6-6.6,2.6
		s-4.8-0.9-6.7-2.6c-1.8-1.7-2.7-4-2.7-6.8C7.8,11.7,8.7,9.4,10.5,7.7z M17.2,9c-1.4,0-2.6,0.5-3.7,1.4c-1,0.9-1.6,2.3-1.6,4.1
		s0.5,3.1,1.6,4c1,0.9,2.3,1.4,3.7,1.4s2.6-0.5,3.6-1.4s1.6-2.3,1.6-4s-0.5-3.1-1.6-4.1C19.8,9.5,18.6,9,17.2,9z"/>
	<path class="st0" d="M34.9,16.8h-1.4v6.7h-4V5.4h7.2c1.7,0,3.2,0.5,4.2,1.6c1.1,1.1,1.6,2.4,1.6,4c0,1.2-0.3,2.3-0.9,3.2
		c-0.6,0.9-1.5,1.5-2.6,1.9l3.7,7.3h-4.4L34.9,16.8z M35.8,13.3c0.8,0,1.4-0.2,1.9-0.6c0.4-0.4,0.7-0.9,0.7-1.6
		c0-0.7-0.2-1.2-0.7-1.6c-0.4-0.4-1.1-0.6-1.9-0.6h-2.4v4.4C33.4,13.3,35.8,13.3,35.8,13.3z"/>
	<path class="st0" d="M52.2,5.4c1.7,0,3.1,0.4,4.1,1.3s1.5,2.1,1.5,3.5c0,0.9-0.3,1.7-0.8,2.4c-0.5,0.7-1.1,1.2-1.9,1.5
		c0.9,0.2,1.6,0.7,2.3,1.4c0.6,0.8,0.9,1.7,0.9,2.8c0,1.5-0.5,2.7-1.6,3.7c-1,1-2.4,1.4-4.1,1.4h-7.3v-18H52.2z M51.6,12.7
		c0.7,0,1.3-0.2,1.7-0.5s0.6-0.8,0.6-1.4c0-0.6-0.2-1.1-0.6-1.4c-0.4-0.3-1-0.5-1.8-0.5h-2.1v3.9h2.2V12.7z M51.9,20.2
		c0.8,0,1.4-0.2,1.8-0.6c0.4-0.4,0.7-0.9,0.7-1.5s-0.2-1.1-0.7-1.5c-0.4-0.4-1.1-0.6-1.8-0.6h-2.5v4.2H51.9z"/>
	<path class="st0" d="M61.2,23.5V5.4h4.1v18.1H61.2z"/>
	<path class="st0" d="M77.2,9.3v14.2h-4V9.3h-5.6V5.4h15.2v3.8h-5.6V9.3z"/>
	<path class="st0" d="M89.3,15.3c-1.5,0-2.8-0.5-3.9-1.6s-1.6-2.4-1.6-3.9s0.5-2.8,1.6-3.9s2.4-1.6,3.9-1.6s2.8,0.5,3.9,1.6
		s1.6,2.4,1.6,3.9s-0.5,2.8-1.6,3.9C92.1,14.7,90.8,15.3,89.3,15.3z M89.3,5.5c-1.2,0-2.2,0.4-3,1.2s-1.2,1.8-1.2,3s0.4,2.2,1.2,3
		c0.8,0.8,1.8,1.2,3,1.2s2.2-0.4,3-1.2s1.2-1.8,1.2-3s-0.4-2.2-1.2-3C91.5,5.9,90.5,5.5,89.3,5.5z M89.3,10.7h-0.4v2h-1.5V6.8h2.5
		c0.6,0,1.1,0.2,1.4,0.6c0.4,0.4,0.6,0.8,0.6,1.4c0,0.4-0.1,0.7-0.3,1c-0.2,0.3-0.4,0.5-0.8,0.7l1.1,2.3h-1.7L89.3,10.7z M89.4,9.5
		c0.2,0,0.4-0.1,0.6-0.2c0.1-0.1,0.2-0.3,0.2-0.5S90.1,8.4,90,8.3C89.9,8.1,89.7,8,89.4,8h-0.6v1.4h0.6V9.5z"/>
	<path class="st0" d="M96.5,16.3v-3.5h7.6v3.5H96.5z"/>
	<path class="st0" d="M107.3,23.5V5.4h6.5c2.7,0,4.9,0.8,6.6,2.4s2.5,3.8,2.5,6.6s-0.8,5-2.5,6.6s-3.9,2.4-6.6,2.4h-6.5V23.5z
		 M113.6,19.7c1.5,0,2.7-0.4,3.6-1.3s1.4-2.2,1.4-3.9s-0.5-3-1.4-3.9s-2.2-1.3-3.6-1.3h-2.3v10.5h2.3V19.7z"/>
	<path class="st0" d="M140.7,7.7c1.8,1.7,2.7,4,2.7,6.8s-0.9,5-2.7,6.7s-4,2.6-6.6,2.6s-4.8-0.9-6.6-2.6c-1.8-1.7-2.7-4-2.7-6.7
		c0-0.5,0.1-1.1,0.2-1.8h14c-0.2-1-0.7-1.7-1.4-2.3c-1-1-2.2-1.4-3.6-1.4c-1.4,0-2.6,0.5-3.6,1.4c-0.2,0.2-0.4,0.4-0.6,0.7l-3.9-1.4
		c0.4-0.7,0.9-1.4,1.6-2c1.8-1.7,4-2.6,6.6-2.6C136.7,5.1,138.9,6,140.7,7.7z M134.1,19.9c1.4,0,2.6-0.5,3.6-1.4
		c0.6-0.5,1-1.2,1.2-2h-9.8c0.3,0.8,0.7,1.5,1.3,2C131.5,19.4,132.7,19.9,134.1,19.9z"/>
	<path class="st0" d="M157.7,23.5l-7.4-11.9v11.9h-4V5.4h4.9l6.8,11v-11h4v18.1H157.7z"/>
	<path class="st0" d="M170.4,5.4h4.7l3.7,6.7l3.7-6.7h4.5L180.7,16v7.5h-4V16L170.4,5.4z"/>
	<path class="st0" d="M189.3,23.5V5.4h11.4v3.8h-7.4v3.4h6.7v3.5h-6.7v3.5h7.4v3.8h-11.4V23.5z"/>
	<path class="st0" d="M215.6,23.5l-7.4-11.9v11.9h-4V5.4h4.9l6.8,11v-11h4v18.1H215.6z"/>
	<path class="st0" d="M223.7,23.5V5.4h4.1v18.1H223.7z"/>
	<path class="st0" d="M246.1,9.3v14.2h-4V9.3h-5.6V5.4h15.2v3.8h-5.6V9.3z"/>
	<path class="st0" d="M263.2,19.8h-7l-1.3,3.7h-4.2l6.8-18.1h4.7l6.7,18.1h-4.4L263.2,19.8z M257.6,16.2h4.4l-2.2-6.2L257.6,16.2z"
		/>
	<path class="st0" d="M282.5,23.5l-7.4-11.9v11.9h-4V5.4h4.9l6.8,11v-11h4v18.1H282.5z"/>
	<path class="st0" d="M290.7,23.5V5.4h4.1v18.1H290.7z"/>
	<path class="st0" d="M306.5,23.7h-0.1h-0.1l-0.6,0.9c0.7,0,1.3,0.2,1.8,0.7c0.5,0.4,0.7,0.9,0.7,1.6c0,0.6-0.3,1.2-0.8,1.7
		s-1.4,0.8-2.5,0.8c-0.7,0-1.3-0.1-1.9-0.4s-1-0.6-1.3-1l1.2-1.5c0.6,0.6,1.3,1,1.9,1s1-0.2,1-0.7c0-0.2-0.1-0.3-0.3-0.4
		c-0.2-0.1-0.4-0.2-0.6-0.2s-0.5,0-0.7,0.1l-0.9-1.2l0.8-1.2c-1.9-0.1-3.4-0.7-4.5-1.7c-1.3-1.2-2-2.5-2.1-4l3.7-0.9
		c0.1,0.9,0.4,1.6,1.1,2.2c0.6,0.6,1.5,0.9,2.7,0.9c0.8,0,1.4-0.2,1.9-0.5c0.5-0.4,0.7-0.8,0.7-1.4c0-0.5-0.2-0.8-0.5-1.1
		c-0.3-0.3-0.8-0.5-1.4-0.7l-2.5-0.5c-1.5-0.3-2.7-0.9-3.6-1.9s-1.3-2.1-1.3-3.4c0-1.7,0.6-3,1.9-4.2c1.3-1.1,2.8-1.7,4.6-1.7
		c1.1,0,2,0.2,2.9,0.5c0.8,0.3,1.5,0.7,2,1.2s0.9,1,1.2,1.5c0.3,0.5,0.5,1.1,0.6,1.7l-3.6,1c-0.1-0.6-0.4-1.1-0.8-1.6
		c-0.5-0.5-1.2-0.7-2.2-0.7c-0.7,0-1.3,0.2-1.8,0.6c-0.5,0.4-0.7,0.8-0.7,1.4c0,0.9,0.6,1.5,1.8,1.7l2.4,0.5c1.7,0.3,3,1,3.9,2
		s1.4,2.1,1.4,3.5c0,1.5-0.6,2.8-1.8,4C308.8,23,307.8,23.5,306.5,23.7z"/>
	<path class="st0" d="M314.2,23.5V5.4h4v14.2h7.8v3.8h-11.8V23.5z"/>
	<path class="st0" d="M328.6,23.5V5.4h4.1v18.1H328.6z"/>
	<path class="st0" d="M338.3,7.7c1.8-1.7,4-2.6,6.7-2.6c2.6,0,4.8,0.9,6.6,2.6c1.8,1.7,2.7,4,2.7,6.8c0,2.3-0.7,4.3-2,6l2.2,2.4
		l-2.6,2.2l-2.2-2.4c-1.4,0.8-3,1.2-4.7,1.2c-2.6,0-4.8-0.9-6.7-2.6c-1.8-1.7-2.7-4-2.7-6.8C335.5,11.7,336.4,9.4,338.3,7.7z
		 M348.6,10.4c-1-0.9-2.3-1.4-3.6-1.4c-1.4,0-2.6,0.5-3.7,1.4c-1,0.9-1.6,2.3-1.6,4.1s0.5,3.1,1.6,4c1,0.9,2.3,1.4,3.7,1.4
		c0.6,0,1.2-0.1,1.8-0.3l-2.6-2.9l2.7-2.2l2.6,2.9c0.5-0.8,0.7-1.8,0.7-2.9C350.1,12.7,349.6,11.3,348.6,10.4z"/>
	<path class="st0" d="M375.6,22.1c-1.3,1.2-3.1,1.8-5.1,1.8c-2.1,0-3.8-0.6-5.1-1.8c-1.3-1.2-2-2.9-2-5.1V5.4h4v11.2
		c0,1.1,0.3,1.9,0.8,2.4c0.6,0.6,1.3,0.8,2.3,0.8s1.8-0.3,2.3-0.8c0.6-0.6,0.8-1.4,0.8-2.4V5.4h4V17
		C377.6,19.2,376.9,20.9,375.6,22.1z M365.9,1.1c0.4-0.4,0.8-0.6,1.4-0.6s1.1,0.2,1.5,0.6s0.6,0.9,0.6,1.5s-0.2,1-0.6,1.4
		s-0.9,0.6-1.5,0.6s-1.1-0.2-1.4-0.6c-0.4-0.4-0.6-0.8-0.6-1.4C365.3,1.9,365.5,1.5,365.9,1.1z M372.1,1.1c0.4-0.4,0.8-0.6,1.4-0.6
		s1.1,0.2,1.5,0.6s0.6,0.9,0.6,1.5s-0.2,1-0.6,1.4s-0.9,0.6-1.5,0.6s-1-0.2-1.4-0.6s-0.6-0.8-0.6-1.4C371.6,1.9,371.8,1.5,372.1,1.1
		z"/>
	<path class="st0" d="M390.2,10.9c-0.1-0.6-0.4-1.1-0.8-1.6c-0.5-0.5-1.2-0.7-2.2-0.7c-0.7,0-1.3,0.2-1.8,0.6
		c-0.5,0.4-0.7,0.8-0.7,1.4c0,0.9,0.6,1.5,1.8,1.7l2.4,0.5c1.7,0.3,3,1,3.9,1.9c0.9,1,1.4,2.2,1.4,3.5c0,1.5-0.6,2.8-1.8,4
		c-1.2,1.1-2.8,1.7-4.9,1.7c-2.3,0-4-0.6-5.3-1.8c-1.2-1.2-1.9-2.5-2.1-4l3.7-0.9c0.1,0.9,0.4,1.6,1.1,2.2s1.5,0.9,2.7,0.9
		c0.8,0,1.4-0.2,1.9-0.5s0.7-0.8,0.7-1.4c0-0.5-0.2-0.8-0.5-1.2c-0.3-0.3-0.8-0.5-1.4-0.7l-2.5-0.5c-1.5-0.3-2.7-0.9-3.6-1.9
		s-1.3-2.1-1.3-3.4c0-1.7,0.6-3,1.9-4.2c1.3-1.1,2.8-1.7,4.6-1.7c1.1,0,2,0.1,2.9,0.4c0.8,0.3,1.5,0.7,2,1.2s0.9,1,1.2,1.5
		c0.3,0.5,0.5,1.1,0.6,1.7L390.2,10.9z"/>
	<path class="st0" d="M409,22.1c-1.3,1.2-3.1,1.8-5.1,1.8c-2.1,0-3.8-0.6-5.1-1.8c-1.3-1.2-2-2.9-2-5.1V5.4h4v11.2
		c0,1.1,0.3,1.9,0.8,2.4c0.6,0.6,1.3,0.8,2.3,0.8s1.8-0.3,2.3-0.8c0.6-0.6,0.8-1.4,0.8-2.4V5.4h4V17C411,19.2,410.3,20.9,409,22.1z"
		/>
	<path class="st0" d="M414.8,23.5V5.4h4v14.2h7.8v3.8h-11.8V23.5z"/>
	<path class="st0" d="M429.2,23.5V5.4h4v14.2h7.8v3.8h-11.8V23.5z"/>
	<path class="st0" d="M454.5,19.8h-7l-1.3,3.7H442l6.8-18.1h4.7l6.7,18.1h-4.4L454.5,19.8z M448.8,16.2h4.4L451,9.9L448.8,16.2z"/>
	<path class="st0" d="M467.8,16.8h-1.4v6.7h-4V5.4h7.2c1.7,0,3.2,0.5,4.2,1.6c1.1,1.1,1.6,2.4,1.6,4c0,1.2-0.3,2.3-0.9,3.2
		s-1.5,1.5-2.6,1.9l3.7,7.3H471L467.8,16.8z M468.8,13.3c0.8,0,1.4-0.2,1.9-0.6c0.4-0.4,0.7-0.9,0.7-1.6c0-0.7-0.2-1.2-0.7-1.6
		c-0.4-0.4-1.1-0.6-1.9-0.6h-2.4v4.4C466.4,13.3,468.8,13.3,468.8,13.3z"/>
	<path class="st0" d="M478.4,23.5V5.4h4.1v18.1H478.4z"/>
</g>
<path class="st0" d="M224.2,1.1c0.4-0.4,0.8-0.6,1.4-0.6s1.1,0.2,1.5,0.6s0.6,0.9,0.6,1.5s-0.2,1-0.6,1.4s-0.9,0.6-1.5,0.6
	s-1-0.2-1.4-0.6s-0.6-0.8-0.6-1.4C223.7,1.9,223.9,1.5,224.2,1.1z"/>
</svg>
