<?xml version="1.0" encoding="utf-8"?>
<!-- Generator: Adobe Illustrator 19.2.1, SVG Export Plug-In . SVG Version: 6.00 Build 0)  -->
<svg version="1.1" id="Layer_1" xmlns="http://www.w3.org/2000/svg" xmlns:xlink="http://www.w3.org/1999/xlink" x="0px" y="0px"
	 width="367px" height="35px" viewBox="0 0 367 35" style="enable-background:new 0 0 367 35;" xml:space="preserve">
<style type="text/css">
	.st0{fill:#FFFFFF;}
</style>
<g>
	<path class="st0" d="M18.8,9.7h3.9l-6,16.4h-3.8l-6-16.4h4l4,11.6L18.8,9.7z"/>
	<path class="st0" d="M38.3,11.7c1.7,1.6,2.5,3.7,2.5,6.2S40,22.5,38.3,24c-1.7,1.6-3.7,2.4-6,2.4c-2.4,0-4.4-0.8-6.1-2.4
		s-2.5-3.6-2.5-6.1c0-0.5,0-1,0.1-1.6h12.9c-0.2-0.9-0.6-1.6-1.2-2.1c-0.9-0.9-2-1.3-3.3-1.3s-2.4,0.4-3.3,1.3
		c-0.2,0.2-0.4,0.4-0.6,0.6l-3.6-1.3c0.4-0.7,0.8-1.3,1.4-1.8c1.7-1.6,3.7-2.4,6.1-2.4C34.7,9.3,36.7,10.1,38.3,11.7z M32.3,22.8
		c1.3,0,2.4-0.4,3.3-1.3c0.5-0.5,0.9-1.1,1.1-1.8h-8.9c0.2,0.7,0.6,1.3,1.2,1.8C29.9,22.4,31,22.8,32.3,22.8z"/>
	<path class="st0" d="M57.2,14.6c-0.1-0.5-0.3-1-0.8-1.4c-0.4-0.4-1.1-0.6-2-0.6c-0.7,0-1.2,0.2-1.6,0.5c-0.4,0.3-0.6,0.8-0.6,1.2
		c0,0.8,0.5,1.4,1.6,1.6l2.2,0.4c1.5,0.3,2.7,0.9,3.5,1.8s1.2,2,1.2,3.2c0,1.4-0.5,2.6-1.6,3.6s-2.6,1.6-4.4,1.6
		c-2.1,0-3.7-0.5-4.8-1.6s-1.8-2.3-1.9-3.7l3.4-0.8c0.1,0.8,0.4,1.5,1,2s1.4,0.8,2.4,0.8c0.7,0,1.3-0.2,1.7-0.5s0.6-0.7,0.6-1.2
		c0-0.4-0.2-0.8-0.5-1.1c-0.3-0.3-0.7-0.5-1.3-0.6L53,19.4c-1.4-0.3-2.5-0.8-3.3-1.7c-0.8-0.9-1.2-1.9-1.2-3.1
		c0-1.5,0.6-2.8,1.7-3.8c1.2-1,2.5-1.5,4.2-1.5c1,0,1.8,0.1,2.6,0.4c0.8,0.3,1.4,0.6,1.8,1.1c0.4,0.4,0.8,0.9,1.1,1.4s0.4,1,0.5,1.5
		L57.2,14.6z"/>
	<path class="st0" d="M74.3,24.8c-1.2,1.1-2.8,1.7-4.7,1.7c-1.9,0-3.4-0.6-4.7-1.7c-1.2-1.1-1.8-2.7-1.8-4.7V9.7h3.7v10.2
		c0,1,0.3,1.7,0.8,2.2s1.2,0.8,2.1,0.8s1.6-0.3,2.1-0.8s0.8-1.3,0.8-2.2V9.7h3.7v10.5C76.2,22.2,75.5,23.7,74.3,24.8z"/>
	<path class="st0" d="M83.3,20.2v5.9h-3.7V9.7h6.2c1.7,0,3,0.5,4.1,1.5c1,1,1.6,2.3,1.6,3.8c0,1.6-0.5,2.8-1.6,3.8
		c-1,1-2.4,1.5-4.1,1.5L83.3,20.2L83.3,20.2z M85.4,17c0.7,0,1.3-0.2,1.7-0.6c0.4-0.4,0.6-0.9,0.6-1.5s-0.2-1.2-0.6-1.5
		c-0.4-0.4-1-0.6-1.7-0.6h-2.1V17H85.4z"/>
	<path class="st0" d="M93.7,26.1V9.7h10.4v3.5h-6.8v3.1h6.1v3.2h-6.1v3.2h6.8v3.5H93.7V26.1z"/>
	<path class="st0" d="M112.2,20h-1.3v6.1h-3.7V9.7h6.5c1.6,0,2.9,0.5,3.9,1.5s1.5,2.2,1.5,3.7c0,1.1-0.3,2.1-0.9,2.9
		s-1.4,1.4-2.4,1.8l3.3,6.7h-4L112.2,20z M113,16.8c0.7,0,1.3-0.2,1.7-0.5c0.4-0.4,0.6-0.8,0.6-1.4c0-0.6-0.2-1.1-0.6-1.5
		s-1-0.5-1.7-0.5h-2.2v4h2.2V16.8z"/>
	<path class="st0" d="M137.7,26.1v-6.5h-6.6v6.5h-3.7V9.7h3.7v6.4h6.6V9.7h3.7v16.4C141.4,26.1,137.7,26.1,137.7,26.1z"/>
	<path class="st0" d="M158.6,11.7c1.7,1.6,2.5,3.7,2.5,6.2s-0.8,4.6-2.5,6.1c-1.7,1.6-3.7,2.4-6,2.4c-2.4,0-4.4-0.8-6.1-2.4
		c-1.7-1.6-2.5-3.6-2.5-6.1c0-0.5,0-1,0.1-1.6H157c-0.2-0.9-0.6-1.6-1.2-2.1c-0.9-0.9-2-1.3-3.3-1.3s-2.4,0.4-3.3,1.3
		c-0.2,0.2-0.4,0.4-0.6,0.6l-3.6-1.3c0.4-0.7,0.8-1.3,1.4-1.8c1.7-1.6,3.7-2.4,6.1-2.4C154.9,9.3,156.9,10.1,158.6,11.7z
		 M152.5,22.8c1.3,0,2.4-0.4,3.3-1.3c0.5-0.5,0.9-1.1,1.1-1.8H148c0.2,0.7,0.6,1.3,1.2,1.8C150.2,22.4,151.3,22.8,152.5,22.8z"/>
	<path class="st0" d="M163.7,26.1V9.7h6c2.5,0,4.5,0.7,6,2.2s2.3,3.5,2.3,6s-0.8,4.5-2.3,6s-3.5,2.2-6,2.2H163.7z M169.5,22.7
		c1.3,0,2.4-0.4,3.3-1.2c0.9-0.8,1.3-2,1.3-3.5c0-1.6-0.4-2.8-1.3-3.6c-0.9-0.8-2-1.2-3.3-1.2h-2.1v9.5H169.5z"/>
	<path class="st0" d="M180.5,26.1V9.7h3.7v16.4C184.2,26.1,180.5,26.1,180.5,26.1z"/>
	<path class="st0" d="M186.2,9.7h4.3l3.4,6.1l3.4-6.1h4.1l-5.8,9.6v6.9h-3.7v-6.9L186.2,9.7z"/>
	<path class="st0" d="M202.1,9.7h4.3l3.4,6.1l3.4-6.1h4.1l-5.8,9.6v6.9h-3.7v-6.9L202.1,9.7z"/>
	<path class="st0" d="M232.9,11.7c1.7,1.6,2.5,3.7,2.5,6.2s-0.8,4.6-2.5,6.1c-1.7,1.6-3.7,2.4-6,2.4c-2.4,0-4.4-0.8-6.1-2.4
		c-1.7-1.6-2.5-3.6-2.5-6.1c0-0.5,0-1,0.1-1.6h12.9c-0.2-0.9-0.6-1.6-1.2-2.1c-0.9-0.9-2-1.3-3.3-1.3s-2.4,0.4-3.3,1.3
		c-0.2,0.2-0.4,0.4-0.6,0.6l-3.6-1.3c0.4-0.7,0.8-1.3,1.4-1.8c1.7-1.6,3.7-2.4,6.1-2.4C229.2,9.3,231.2,10.1,232.9,11.7z
		 M226.8,22.8c1.3,0,2.4-0.4,3.3-1.3c0.5-0.5,0.9-1.1,1.1-1.8h-8.9c0.2,0.7,0.6,1.3,1.2,1.8C224.4,22.4,225.6,22.8,226.8,22.8z"/>
	<path class="st0" d="M238,26.1V9.7h3.7v12.9h7.1v3.5C248.8,26.1,238,26.1,238,26.1z"/>
	<path class="st0" d="M264.7,11.7c1.7,1.6,2.5,3.7,2.5,6.2s-0.8,4.6-2.5,6.1c-1.7,1.6-3.7,2.4-6,2.4c-2.4,0-4.4-0.8-6.1-2.4
		c-1.7-1.6-2.5-3.6-2.5-6.1c0-0.5,0-1,0.1-1.6h12.9c-0.2-0.9-0.6-1.6-1.2-2.1c-0.9-0.9-2-1.3-3.3-1.3s-2.4,0.4-3.3,1.3
		c-0.2,0.2-0.4,0.4-0.6,0.6l-3.6-1.3c0.4-0.7,0.8-1.3,1.4-1.8c1.7-1.6,3.7-2.4,6.1-2.4C261,9.3,263,10.1,264.7,11.7z M258.7,22.8
		c1.3,0,2.4-0.4,3.3-1.3c0.5-0.5,0.9-1.1,1.1-1.8h-8.9c0.2,0.7,0.6,1.3,1.2,1.8C256.3,22.4,257.4,22.8,258.7,22.8z"/>
	<path class="st0" d="M274.8,20h-1.3v6.1h-3.7V9.7h6.5c1.6,0,2.9,0.5,3.9,1.5s1.5,2.2,1.5,3.7c0,1.1-0.3,2.1-0.9,2.9
		s-1.4,1.4-2.4,1.8l3.3,6.7h-4L274.8,20z M275.6,16.8c0.7,0,1.3-0.2,1.7-0.5c0.4-0.4,0.6-0.8,0.6-1.4c0-0.6-0.2-1.1-0.6-1.5
		s-1-0.5-1.7-0.5h-2.2v4h2.2V16.8z"/>
</g>
<path class="st0" d="M180.9,5.3c0.4-0.4,0.8-0.6,1.4-0.6s1.1,0.2,1.5,0.6s0.6,0.9,0.6,1.5s-0.2,1-0.6,1.4c-0.4,0.4-0.9,0.6-1.5,0.6
	s-1-0.2-1.4-0.6c-0.4-0.4-0.6-0.8-0.6-1.4C180.4,6.1,180.5,5.7,180.9,5.3z"/>
</svg>
