<?xml version="1.0" encoding="utf-8"?>
<!-- Generator: Adobe Illustrator 19.2.1, SVG Export Plug-In . SVG Version: 6.00 Build 0)  -->
<svg version="1.1" id="Layer_1" xmlns="http://www.w3.org/2000/svg" xmlns:xlink="http://www.w3.org/1999/xlink" x="0px" y="0px"
	 width="300px" height="48px" viewBox="0 0 300 48" style="enable-background:new 0 0 300 48;" xml:space="preserve">
<style type="text/css">
	.st0{fill:#FFFFFF;}
</style>
<g>
	<path class="st0" d="M1.9,37.7V8.2h18.7v6.2H8.5V20h11v5.8h-11v5.7h12.1v6.2H1.9z"/>
	<path class="st0" d="M40.1,14.5v23.2h-6.6V14.5h-9.1V8.2h24.7v6.3H40.1z"/>
	<path class="st0" d="M82,8.2h7L78.2,37.7h-6.8L60.7,8.2h7.2L75,29L82,8.2z"/>
	<path class="st0" d="M117,11.9c3,2.9,4.4,6.6,4.4,11.1c0,4.5-1.5,8.2-4.4,11c-3,2.8-6.6,4.2-10.8,4.2c-4.3,0-7.9-1.4-10.9-4.2
		c-3-2.8-4.4-6.5-4.4-11c0-0.9,0.1-1.8,0.2-2.9h23.2c-0.4-1.6-1.1-2.8-2.2-3.8c-1.7-1.6-3.6-2.3-5.9-2.3c-2.3,0-4.3,0.8-5.9,2.3
		c-0.4,0.3-0.7,0.7-1,1.2l-6.4-2.3c0.7-1.2,1.5-2.3,2.5-3.3c3-2.8,6.6-4.2,10.9-4.2C110.5,7.6,114.1,9.1,117,11.9z M106.2,31.8
		c2.3,0,4.2-0.8,5.9-2.3c0.9-0.8,1.6-1.9,2-3.2h-16c0.4,1.3,1.1,2.4,2.1,3.2C102,31,104,31.8,106.2,31.8z"/>
	<path class="st0" d="M139.2,11.9c3-2.8,6.6-4.3,10.9-4.3c4.3,0,7.9,1.4,10.9,4.3c3,2.9,4.4,6.6,4.4,11.1c0,3.8-1.1,7.1-3.3,9.8
		l3.6,3.9l-4.3,3.7l-3.6-4c-2.3,1.3-4.9,1.9-7.6,1.9c-4.3,0-7.9-1.4-10.9-4.3c-3-2.8-4.5-6.5-4.5-11.1
		C134.7,18.4,136.2,14.7,139.2,11.9z M156,16.3c-1.7-1.5-3.7-2.3-5.9-2.3c-2.3,0-4.3,0.8-6,2.3s-2.6,3.7-2.6,6.6
		c0,2.9,0.9,5.1,2.6,6.6c1.7,1.5,3.7,2.3,6,2.3c1,0,2-0.2,3-0.5l-4.3-4.7l4.4-3.7l4.3,4.7c0.7-1.4,1.1-2.9,1.1-4.7
		C158.5,20.1,157.7,17.8,156,16.3z"/>
	<path class="st0" d="M187.6,31.7h-11.4l-2.1,6h-6.9l11.1-29.5h7.6l11,29.5h-7.2L187.6,31.7z M178.4,25.7h7.2L182,15.5L178.4,25.7z"
		/>
	<path class="st0" d="M199.3,37.7v-6.3l14.2-16.9H200V8.2h22.6v6.1L208,31.4h14.7v6.3H199.3z"/>
	<path class="st0" d="M245.4,31.7h-11.4l-2.1,6H225l11.1-29.5h7.6l11,29.5h-7.2L245.4,31.7z M236.2,25.7h7.2l-3.5-10.2L236.2,25.7z"
		/>
	<path class="st0" d="M277,37.7l-12.1-19.4v19.4h-6.5V8.2h8l11.1,17.9V8.2h6.6v29.5H277z"/>
	<path class="st0" d="M296.6,28.5H292l-1.5-20.2h7.6L296.6,28.5z M291.7,32c0.7-0.7,1.5-1.1,2.5-1.1c1,0,1.9,0.4,2.6,1.1
		c0.7,0.7,1.1,1.6,1.1,2.6c0,1-0.4,1.8-1.1,2.5c-0.7,0.7-1.6,1.1-2.6,1.1c-1,0-1.8-0.4-2.5-1.1c-0.7-0.7-1-1.5-1-2.5
		C290.7,33.5,291,32.7,291.7,32z"/>
</g>
</svg>
