<?xml version="1.0" encoding="utf-8"?>
<!-- Generator: Adobe Illustrator 19.2.1, SVG Export Plug-In . SVG Version: 6.00 Build 0)  -->
<svg version="1.1" id="Layer_1" xmlns="http://www.w3.org/2000/svg" xmlns:xlink="http://www.w3.org/1999/xlink" x="0px" y="0px"
	 width="300px" height="32px" viewBox="0 0 300 32" style="enable-background:new 0 0 300 32;" xml:space="preserve">
<style type="text/css">
	.st0{fill:#FFFFFF;}
</style>
<g>
	<path class="st0" d="M27.1,15.4c0,0.7,0.1,1.2,0.2,1.5s0.3,0.6,0.6,0.9c0.3,0.3,0.7,0.5,1.1,0.8c1.4,0.7,2.4,1.6,3.1,2.6
		c0.7,1,1.1,2.2,1.1,3.4c0,2-0.7,3.5-2.1,4.7c-1.4,1.1-3.3,1.7-5.7,1.7c-2.6,0-4.5-0.6-5.8-1.8c-1.3-1.2-2-2.9-2-5.2
		c0-0.7,0.2-1.5,0.5-2.4h4.6c-0.2,0.4-0.3,0.8-0.4,1.3s-0.1,0.8-0.1,1.1c0,1.1,0.3,2,0.8,2.5c0.5,0.6,1.4,0.8,2.5,0.8
		c1,0,1.7-0.2,2.3-0.7s0.9-1.1,0.9-1.8c0-0.7-0.2-1.3-0.5-1.7c-0.3-0.5-1-1-2-1.5c-1.3-0.7-2.3-1.5-2.7-2.4s-0.7-2.2-0.7-3.9v-1.3
		L18,12.6l0.9-3.2l3.8,1.2V7.5h4.4v4.4l5,1.5l-0.9,3.2L27.1,15.4z"/>
	<path class="st0" d="M40.3,17.2c0,1.1,0.3,2,0.8,2.5c0.5,0.6,1.4,0.8,2.5,0.8c1,0,1.8-0.3,2.3-0.8c0.6-0.5,0.8-1.3,0.8-2.2
		c0-0.7-0.2-1.3-0.5-1.8c-0.4-0.5-1-1.1-1.9-1.7c-1.3-0.9-2.2-1.8-2.6-2.7c-0.5-0.9-0.7-2.2-0.7-3.7h4.4c0,0.7,0.1,1.2,0.2,1.5
		c0.1,0.4,0.3,0.7,0.6,1.1s0.7,0.7,1.2,1c1.3,0.8,2.3,1.8,2.9,2.8c0.6,1,0.9,2.2,0.9,3.5c0,2.1-0.7,3.7-2.1,4.9
		c-1.4,1.2-3.3,1.8-5.7,1.8c-2.6,0-4.5-0.6-5.8-1.8c-1.3-1.2-2-2.9-2-5.1c0-0.7,0.2-1.5,0.5-2.4h4.6c-0.2,0.4-0.3,0.8-0.4,1.3
		C40.3,16.5,40.3,16.9,40.3,17.2z"/>
	<path class="st0" d="M61.7,24.1c-2.6,0-4.6-0.9-5.9-2.7c-1.3-1.8-2-4.5-2-8.2c0-4,0.6-7.1,2-9.1c1.3-2,3.3-3,6-3H68v3.6h-5.9
		c-1.2,0-2,0.3-2.5,0.8s-0.8,1.5-1,2.9h0.1c0.5-0.4,1-0.7,1.6-0.9c0.6-0.2,1.3-0.3,2.2-0.3c1.4,0,2.6,0.3,3.7,1c1.1,0.7,2,1.7,2.6,3
		c0.6,1.3,0.9,2.8,0.9,4.4c0,2.7-0.7,4.7-2.1,6.2S64.2,24.1,61.7,24.1z M58.4,15.7c0,1.6,0.3,2.8,0.9,3.6c0.6,0.8,1.4,1.3,2.5,1.3
		c1.2,0,2-0.4,2.6-1.2c0.5-0.8,0.8-2,0.8-3.7c0-1.6-0.3-2.8-0.8-3.6c-0.5-0.8-1.4-1.2-2.6-1.2c-1.2,0-2,0.4-2.6,1.2
		C58.7,12.8,58.4,14,58.4,15.7z"/>
	<path class="st0" d="M88.9,15.5c0,5.8-2.7,8.6-8.1,8.6c-2.5,0-4.4-0.6-5.6-1.9c-1.2-1.3-1.9-3.2-1.9-5.8V1.2h4.4v15.4
		c0,1.4,0.3,2.4,0.8,3.1c0.5,0.6,1.3,0.9,2.4,0.9c1.2,0,2.1-0.4,2.6-1.3c0.5-0.9,0.8-2.2,0.8-4c0-1.3-0.2-2.6-0.5-3.8
		c-0.3-1.2-0.9-2.5-1.6-4H87c0.7,1.4,1.2,2.7,1.5,4C88.7,12.7,88.9,14,88.9,15.5z"/>
	<path class="st0" d="M96.3,17.2c0,1.1,0.3,2,0.8,2.5c0.5,0.6,1.4,0.8,2.5,0.8c1,0,1.8-0.3,2.3-0.8c0.6-0.5,0.8-1.3,0.8-2.2
		c0-0.7-0.2-1.3-0.5-1.8c-0.4-0.5-1-1.1-1.9-1.7c-1.3-0.9-2.2-1.8-2.6-2.7c-0.5-0.9-0.7-2.2-0.7-3.7h4.4c0,0.7,0.1,1.2,0.2,1.5
		c0.1,0.4,0.3,0.7,0.6,1.1s0.7,0.7,1.2,1c1.3,0.8,2.3,1.8,2.9,2.8c0.6,1,0.9,2.2,0.9,3.5c0,2.1-0.7,3.7-2.1,4.9
		c-1.4,1.2-3.3,1.8-5.7,1.8c-2.6,0-4.5-0.6-5.8-1.8c-1.3-1.2-2-2.9-2-5.1c0-0.7,0.2-1.5,0.5-2.4h4.6c-0.2,0.4-0.3,0.8-0.4,1.3
		C96.3,16.5,96.3,16.9,96.3,17.2z"/>
	<path class="st0" d="M114.7,15.6c0,2.7,0.5,4.8,1.4,6.1c0.9,1.4,2.4,2.3,4.4,2.7c2,0.4,3.6,1,4.7,1.7c1.1,0.7,2.1,1.6,2.8,2.7
		l-3,2.1c-0.7-1-1.6-1.8-2.7-2.3s-2.4-0.8-3.9-0.8c-0.9,0-1.7,0.1-2.6,0.4c-0.9,0.3-1.8,0.6-2.6,1l-1.6-3.3c0.7-0.4,1.6-0.8,2.7-1.1
		c-1.4-0.9-2.4-2.1-3.1-3.6s-1-3.5-1-5.8c0-2.5,0.6-4.4,1.9-5.9c1.3-1.5,2.9-2.3,5.1-2.3c1.3,0,2.3,0.2,3.1,0.6
		c0.8,0.4,1.4,1,1.9,1.8h0.1c0.6-0.9,1.3-1.5,2.1-1.9c0.8-0.4,1.7-0.6,2.8-0.6c2.3,0,4,0.7,5.3,2.2c1.3,1.5,1.9,3.5,1.9,6
		c0,1.5-0.2,2.9-0.5,4.2c-0.3,1.2-0.8,2.6-1.6,4.2h-4.6c1.4-2.5,2.1-5.3,2.1-8.2c0-1.5-0.3-2.7-0.8-3.5c-0.5-0.8-1.2-1.3-2.1-1.3
		c-0.8,0-1.4,0.3-1.8,0.9s-0.6,1.6-0.6,3v3H120v-3c0-1.4-0.2-2.4-0.6-3c-0.4-0.6-1-0.9-1.8-0.9c-0.9,0-1.6,0.4-2.1,1.3
		C115,13,114.7,14.1,114.7,15.6z"/>
	<path class="st0" d="M145.4,7.2c2.4,0,4.3,0.7,5.7,2.2s2.1,3.5,2.1,6c0,1.5-0.2,2.9-0.5,4.2c-0.3,1.2-0.8,2.6-1.6,4.2h-4.6
		c1.4-2.5,2.1-5.3,2.1-8.2c0-1.5-0.3-2.7-0.9-3.5c-0.6-0.8-1.4-1.3-2.5-1.3c-1,0-1.9,0.4-2.4,1.3c-0.6,0.8-0.9,2-0.9,3.5
		c0,1.4,0.2,2.7,0.5,4s0.9,2.7,1.6,4.3h-4.6c-0.8-1.6-1.3-3-1.6-4.3c-0.3-1.3-0.4-2.6-0.4-4.1c0-2.5,0.7-4.5,2.2-6
		C141.1,8,143,7.2,145.4,7.2z"/>
	<path class="st0" d="M168.3,17.2c0,1.1,0.3,2,0.8,2.5c0.5,0.6,1.4,0.8,2.5,0.8c1,0,1.8-0.3,2.3-0.8c0.6-0.5,0.8-1.3,0.8-2.2
		c0-0.7-0.2-1.3-0.5-1.8c-0.4-0.5-1-1.1-1.9-1.7c-1.3-0.9-2.2-1.8-2.6-2.7c-0.5-0.9-0.7-2.2-0.7-3.7h4.4c0,0.7,0.1,1.2,0.2,1.5
		c0.1,0.4,0.3,0.7,0.6,1.1s0.7,0.7,1.2,1c1.3,0.8,2.3,1.8,2.9,2.8c0.6,1,0.9,2.2,0.9,3.5c0,2.1-0.7,3.7-2.1,4.9
		c-1.4,1.2-3.3,1.8-5.7,1.8c-2.6,0-4.5-0.6-5.8-1.8c-1.3-1.2-2-2.9-2-5.1c0-0.7,0.2-1.5,0.5-2.4h4.6c-0.2,0.4-0.3,0.8-0.4,1.3
		C168.4,16.5,168.3,16.9,168.3,17.2z"/>
	<path class="st0" d="M189.1,7.2c1.3,0,2.3,0.2,3.1,0.6c0.8,0.4,1.5,1,2,1.9h0.1c0.9-1.7,2.5-2.5,4.9-2.5c2.2,0,3.9,0.7,5.2,2.2
		c1.3,1.5,1.9,3.5,1.9,6c0,1.5-0.2,2.9-0.5,4.2c-0.3,1.2-0.8,2.6-1.6,4.2h-4.6c1.4-2.5,2.1-5.3,2.1-8.2c0-1.5-0.3-2.7-0.8-3.5
		c-0.5-0.8-1.2-1.3-2.1-1.3c-0.8,0-1.4,0.3-1.8,0.9c-0.4,0.6-0.6,1.6-0.6,3v3h-4.4v-3c0-1.4-0.2-2.4-0.6-3c-0.4-0.6-1-0.9-1.8-0.9
		c-0.9,0-1.6,0.4-2.1,1.3s-0.8,2-0.8,3.5c0,1.4,0.2,2.7,0.5,4c0.3,1.3,0.9,2.7,1.6,4.3h-4.6c-0.8-1.6-1.3-3-1.6-4.3
		c-0.3-1.3-0.4-2.6-0.4-4.1c0-2.5,0.3-4.6,1-6.3s1.6-3,3-4.1c1.3-1.1,3.1-2,5.2-2.7c2.2-0.7,4.7-1.1,7.7-1.4l0.5,3.5
		c-2.2,0.2-4.2,0.5-5.9,0.9c-1.7,0.4-3.2,1-4.5,1.8V7.2z"/>
	<path class="st0" d="M225.1,13.2c0,3.7-0.7,6.4-2,8.2s-3.3,2.7-6,2.7c-2.5,0-4.4-0.7-5.8-2c-1.4-1.4-2.1-3.2-2.1-5.6
		c0-1.5,0.3-2.8,0.9-4c0.6-1.2,1.5-2,2.6-2.7c1.1-0.6,2.3-0.9,3.7-0.9c1.6,0,2.9,0.5,3.9,1.4h0.1c0-1.9-0.1-3.3-0.4-4.3
		c-0.3-0.9-0.7-1.4-1.4-1.4c-0.5,0-0.9,0.2-1.2,0.6c-0.2,0.4-0.4,1-0.4,1.9v0.2h-4.2V7c0-0.9-0.1-1.5-0.4-1.9
		c-0.2-0.4-0.6-0.6-1.2-0.6c-0.5,0-1,0.2-1.5,0.5l-1.8-2.9c0.8-0.8,1.8-1.2,3.1-1.2c0.9,0,1.6,0.2,2.2,0.6c0.6,0.4,1.1,1,1.6,1.9
		h0.1c0.8-1.6,2.2-2.5,4.2-2.5c1.9,0,3.3,1,4.2,3C224.6,6,225.1,9,225.1,13.2z M220.5,16.5c0-1.3-0.3-2.4-0.8-3
		c-0.5-0.7-1.4-1-2.6-1c-1.2,0-2.1,0.3-2.6,1s-0.8,1.7-0.8,3c0,1.3,0.3,2.4,0.8,3.1c0.5,0.7,1.4,1,2.6,1c1.1,0,1.9-0.4,2.5-1.1
		C220.2,18.8,220.5,17.8,220.5,16.5z"/>
	<path class="st0" d="M235.9,7.2c2.4,0,4.3,0.7,5.7,2.2s2.1,3.5,2.1,6c0,1.5-0.2,2.9-0.5,4.2c-0.3,1.2-0.8,2.6-1.6,4.2h-4.6
		c1.4-2.5,2.1-5.3,2.1-8.2c0-1.5-0.3-2.7-0.9-3.5c-0.6-0.8-1.4-1.3-2.5-1.3c-1,0-1.9,0.4-2.4,1.3c-0.6,0.8-0.9,2-0.9,3.5
		c0,1.4,0.2,2.7,0.5,4c0.3,1.3,0.9,2.7,1.6,4.3h-4.6c-0.8-1.6-1.3-3-1.6-4.3c-0.3-1.3-0.4-2.6-0.4-4.1c0-2.5,0.7-4.5,2.2-6
		C231.6,8,233.5,7.2,235.9,7.2z"/>
	<path class="st0" d="M251.5,12.8c0,1.1,0.3,1.9,0.8,2.5c0.5,0.6,1.3,0.9,2.3,0.9c1.2,0,2.1-0.4,2.7-1.1c0.6-0.7,0.9-1.9,0.9-3.6v-4
		h4.5v15.7c0,2.4-0.7,4.3-2.1,5.7c-1.4,1.3-3.3,2-5.8,2c-2.5,0-4.4-0.6-5.7-1.7s-2.1-2.8-2.1-4.9c0-0.7,0.1-1.4,0.3-2.1h4.5
		c-0.1,0.3-0.2,0.6-0.3,1c-0.1,0.4-0.1,0.7-0.1,1c0,1.1,0.3,1.9,0.8,2.4s1.4,0.7,2.4,0.7c1.2,0,2-0.3,2.6-1c0.5-0.7,0.8-1.7,0.8-3.1
		v-1.9c0-1.1,0.1-2.3,0.2-3.8h-0.2c-0.5,0.8-1.2,1.5-2,1.9c-0.8,0.4-1.8,0.6-3,0.6c-1.9,0-3.4-0.6-4.5-1.9c-1.1-1.2-1.6-2.9-1.6-5
		c0-1,0.1-2,0.4-3.1c0.3-1,0.6-1.9,1.1-2.5h4.5c-0.5,0.7-0.9,1.5-1.1,2.4C251.6,11,251.5,11.9,251.5,12.8z"/>
	<path class="st0" d="M274.5,7.2c2.4,0,4.3,0.7,5.7,2.2s2.1,3.5,2.1,6c0,1.5-0.2,2.9-0.5,4.2c-0.3,1.2-0.8,2.6-1.6,4.2h-4.6
		c1.4-2.5,2.1-5.3,2.1-8.2c0-1.5-0.3-2.7-0.9-3.5c-0.6-0.8-1.4-1.3-2.5-1.3c-1,0-1.9,0.4-2.4,1.3c-0.6,0.8-0.9,2-0.9,3.5
		c0,1.4,0.2,2.7,0.5,4c0.3,1.3,0.9,2.7,1.6,4.3h-4.6c-0.8-1.6-1.3-3-1.6-4.3c-0.3-1.3-0.4-2.6-0.4-4.1c0-2.5,0.7-4.5,2.2-6
		C270.2,8,272.1,7.2,274.5,7.2z"/>
</g>
</svg>
