<?xml version="1.0" encoding="utf-8"?>
<!-- Generator: Adobe Illustrator 19.2.1, SVG Export Plug-In . SVG Version: 6.00 Build 0)  -->
<svg version="1.1" id="Layer_1" xmlns="http://www.w3.org/2000/svg" xmlns:xlink="http://www.w3.org/1999/xlink" x="0px" y="0px"
	 width="300px" height="48px" viewBox="0 0 300 48" style="enable-background:new 0 0 300 48;" xml:space="preserve">
<style type="text/css">
	.st0{fill:#FFFFFF;}
</style>
<g>
	<path class="st0" d="M65.3,23.6c0,3,0.5,5.3,1.5,6.8c1,1.5,2.6,2.5,4.9,3c2.2,0.5,3.9,1.1,5.2,1.9c1.3,0.8,2.3,1.8,3.1,3l-3.4,2.4
		c-0.8-1.1-1.8-2-3-2.5c-1.2-0.6-2.6-0.8-4.3-0.8c-0.9,0-1.9,0.1-2.9,0.4c-1,0.3-1.9,0.7-2.8,1.2l-1.7-3.7c0.8-0.5,1.8-0.9,3-1.3
		c-1.4-0.9-2.5-2.3-3.3-4.1c-0.8-1.8-1.2-3.9-1.2-6.4c0-2.8,0.7-5,2.1-6.7s3.3-2.4,5.7-2.4c2.6,0,4.4,0.9,5.5,2.7h0.1
		c0.7-1,1.4-1.7,2.3-2.1c0.9-0.4,1.9-0.6,3.2-0.6c2.5,0,4.4,0.8,5.9,2.5c1.4,1.7,2.2,3.9,2.2,6.8s-0.7,5.2-2.2,6.8
		c-1.4,1.7-3.4,2.5-5.8,2.5c-2.7,0-4.7-0.8-6.1-2.4c-1.4-1.6-2.1-3.9-2.1-7c0-1.9-0.2-3.3-0.6-4.1c-0.4-0.8-1.2-1.2-2.3-1.2
		c-0.9,0-1.7,0.5-2.2,1.4C65.6,20.5,65.3,21.8,65.3,23.6z M76.1,23.6c0,1.9,0.2,3.3,0.7,4.1c0.5,0.9,1.2,1.3,2.3,1.3
		c1.1,0,1.9-0.5,2.4-1.4c0.5-0.9,0.8-2.3,0.8-4.1c0-3.6-1-5.3-3.1-5.3c-1.1,0-1.8,0.4-2.3,1.3C76.3,20.5,76.1,21.8,76.1,23.6z"/>
	<path class="st0" d="M95.1,25.3c0,1.2,0.3,2.2,0.9,2.8c0.6,0.6,1.5,0.9,2.8,0.9c1.1,0,2-0.3,2.6-0.9c0.6-0.6,0.9-1.4,0.9-2.5
		c0-0.8-0.2-1.4-0.6-2c-0.4-0.6-1.1-1.2-2.1-1.9c-1.4-1-2.4-2-2.9-3S96,16.4,96,14.6h4.9c0,0.7,0.1,1.3,0.2,1.7
		c0.1,0.4,0.4,0.8,0.7,1.2c0.3,0.4,0.7,0.7,1.3,1.1c1.4,0.9,2.5,1.9,3.2,3c0.7,1.1,1,2.4,1,3.9c0,2.3-0.8,4.1-2.3,5.5
		c-1.5,1.3-3.6,2-6.3,2c-2.9,0-5-0.7-6.5-2c-1.5-1.3-2.2-3.2-2.2-5.7c0-0.8,0.2-1.7,0.5-2.7h5c-0.2,0.4-0.3,0.9-0.4,1.4
		C95.2,24.5,95.1,25,95.1,25.3z"/>
	<path class="st0" d="M126.9,11.4c-1,0-1.7,0.2-2.1,0.5c-0.4,0.3-0.6,0.8-0.6,1.3c0,0.2,0.1,0.6,0.3,1h-4.3c-0.2-0.5-0.3-1-0.3-1.5
		c0-1.7,0.6-3,1.9-3.9c1.2-0.9,3-1.4,5.3-1.4c3,0,5.4,1.1,6.9,3.2c1.6,2.1,2.4,5.3,2.4,9.5c0,4.5-0.7,7.7-2.1,9.8s-3.7,3.1-6.8,3.1
		c-2.7,0-4.7-0.8-6.3-2.4c-1.5-1.6-2.3-3.8-2.3-6.6c0-1.8,0.3-3.3,1-4.7c0.7-1.4,1.6-2.4,2.8-3.1c1.2-0.7,2.6-1.1,4.1-1.1
		c1,0,1.8,0.1,2.4,0.3c0.6,0.2,1.2,0.6,1.7,1h0.1C130.7,13,129.3,11.4,126.9,11.4z M131.2,24c0-1.7-0.3-2.9-0.9-3.7
		c-0.6-0.8-1.5-1.2-2.8-1.2c-1.3,0-2.3,0.4-2.9,1.2c-0.6,0.8-0.9,2.1-0.9,3.7c0,1.7,0.3,2.9,0.9,3.8c0.6,0.8,1.5,1.3,2.8,1.3
		c1.2,0,2.2-0.4,2.8-1.3C130.9,26.9,131.2,25.6,131.2,24z"/>
	<path class="st0" d="M150.4,22.6c0-1.6-0.2-2.7-0.7-3.3c-0.4-0.7-1.1-1-2-1c-1,0-1.8,0.5-2.3,1.4c-0.6,0.9-0.8,2.2-0.8,3.8
		c0,1.5,0.2,3,0.6,4.5c0.4,1.4,1,3,1.8,4.7h-5.1c-0.8-1.8-1.4-3.4-1.8-4.8c-0.3-1.4-0.5-2.9-0.5-4.5c0-2.8,0.7-5,2.1-6.6
		c1.4-1.6,3.3-2.5,5.7-2.5c1.3,0,2.3,0.2,3.2,0.6c0.9,0.4,1.6,1.1,2.2,2.1h0.1c1.1-1.8,2.9-2.7,5.4-2.7c2.5,0,4.4,0.8,5.8,2.4
		c1.4,1.6,2.1,3.8,2.1,6.7c0,1.7-0.2,3.2-0.5,4.6c-0.3,1.4-0.9,2.9-1.7,4.7h-5.1c1.6-2.8,2.3-5.8,2.3-9.1c0-1.7-0.3-2.9-0.8-3.9
		c-0.6-0.9-1.4-1.4-2.4-1.4c-0.9,0-1.6,0.3-2,1c-0.4,0.7-0.7,1.8-0.7,3.3v3.3h-4.9V22.6z"/>
	<path class="st0" d="M178.4,14.3c2.7,0,4.8,0.8,6.3,2.5c1.6,1.6,2.3,3.8,2.3,6.6c0,1.7-0.2,3.2-0.5,4.6c-0.3,1.4-0.9,2.9-1.7,4.7
		h-5.1c1.6-2.8,2.4-5.8,2.4-9.1c0-1.7-0.3-3-1-3.9c-0.7-0.9-1.6-1.4-2.7-1.4c-1.2,0-2.1,0.5-2.7,1.4c-0.6,0.9-1,2.2-1,3.8
		c0,1.5,0.2,3,0.6,4.5c0.4,1.4,1,3,1.8,4.7H172c-0.8-1.8-1.4-3.4-1.8-4.8c-0.3-1.4-0.5-2.9-0.5-4.5c0-2.8,0.8-5,2.4-6.6
		C173.7,15.1,175.8,14.3,178.4,14.3z"/>
	<path class="st0" d="M207.8,31.2c0,3-0.8,5.3-2.3,6.9c-1.6,1.6-3.7,2.5-6.5,2.5c-1.7,0-3.3-0.4-4.6-1.1c-1.3-0.8-2.3-1.8-3-3.3
		c-0.7-1.4-1.1-3.1-1.1-5c0-2.9,0.8-5.2,2.3-6.9c1.5-1.6,3.7-2.4,6.5-2.4l0.8,0c0.4-0.7,0.6-1.5,0.6-2.3c0-0.6-0.2-1.1-0.5-1.4
		c-0.3-0.3-0.7-0.4-1.2-0.4c-1.1,0-1.6,0.6-1.6,1.7c0,0.2,0,0.5,0.1,0.8h-3.9c-0.1-0.4-0.1-0.8-0.1-1.2c0-1.5,0.5-2.7,1.5-3.5
		c1-0.8,2.3-1.2,4.1-1.2c1.8,0,3.2,0.5,4.2,1.4c1,0.9,1.5,2.2,1.5,3.8c0,1.2-0.3,2.3-1,3.4c1.4,0.7,2.4,1.8,3.2,3.2
		C207.4,27.6,207.8,29.3,207.8,31.2z M195.4,31.2c0,1.8,0.3,3.1,0.9,4c0.6,0.9,1.5,1.4,2.9,1.4c1.3,0,2.3-0.5,2.8-1.4
		c0.6-0.9,0.9-2.3,0.9-4.1c0-1.8-0.3-3.1-0.9-4c-0.6-0.9-1.5-1.3-2.9-1.3c-1.3,0-2.3,0.4-2.8,1.3S195.4,29.4,195.4,31.2z"/>
	<path class="st0" d="M211.8,24.4c-0.2-0.8-0.3-1.6-0.3-2.3c0-2.4,0.8-4.3,2.3-5.7c1.5-1.4,3.5-2.1,6.1-2.1c2.8,0,5,0.8,6.4,2.4
		c1.5,1.6,2.2,4,2.2,7.1v7.4c0,3-0.8,5.3-2.3,6.9c-1.6,1.6-3.8,2.5-6.7,2.5c-2.9,0-5.1-0.7-6.6-2c-1.5-1.3-2.2-3.2-2.2-5.7
		c0-1.2,0.3-2.3,0.8-3.5h5c-0.2,0.5-0.4,1-0.5,1.6c-0.2,0.6-0.2,1.2-0.2,1.8c0,1.3,0.3,2.2,0.9,2.9c0.6,0.7,1.5,1,2.9,1
		c1.5,0,2.5-0.5,3.1-1.5c0.6-1,0.9-2.5,0.9-4.6v-6.7c0-2-0.3-3.4-0.8-4.3c-0.5-0.9-1.5-1.3-2.8-1.3c-1.1,0-2,0.3-2.5,1
		c-0.5,0.6-0.8,1.6-0.8,3c0,0.6,0.1,1.3,0.4,2.2L211.8,24.4z"/>
	<path class="st0" d="M238.5,25.3h-3.7l-1.2-16.1h6L238.5,25.3z M234.6,28.1c0.6-0.6,1.2-0.8,2-0.8c0.8,0,1.5,0.3,2,0.8
		c0.6,0.6,0.8,1.2,0.8,2c0,0.8-0.3,1.4-0.8,2c-0.6,0.6-1.2,0.8-2,0.8c-0.8,0-1.5-0.3-2-0.8c-0.5-0.6-0.8-1.2-0.8-2
		C233.8,29.4,234.1,28.7,234.6,28.1z"/>
</g>
</svg>
