<?xml version="1.0" encoding="utf-8"?>
<!-- Generator: Adobe Illustrator 19.2.1, SVG Export Plug-In . SVG Version: 6.00 Build 0)  -->
<svg version="1.1" id="Layer_1" xmlns="http://www.w3.org/2000/svg" xmlns:xlink="http://www.w3.org/1999/xlink" x="0px" y="0px"
	 width="300px" height="35px" viewBox="0 0 300 35" style="enable-background:new 0 0 300 35;" xml:space="preserve">
<style type="text/css">
	.st0{fill:#FFFFFF;}
</style>
<g>
	<path class="st0" d="M39.1,10.5C41,8.7,43.3,7.8,46,7.8c2.7,0,5,0.9,6.9,2.7c1.9,1.8,2.8,4.1,2.8,7c0,2.9-0.9,5.2-2.8,7
		c-1.9,1.8-4.2,2.7-6.9,2.7c-2.7,0-5-0.9-6.9-2.7c-1.9-1.8-2.8-4.1-2.8-7C36.3,14.6,37.2,12.3,39.1,10.5z M46,11.8
		c-1.4,0-2.7,0.5-3.8,1.5c-1.1,1-1.6,2.4-1.6,4.2c0,1.8,0.5,3.2,1.6,4.2c1.1,1,2.3,1.4,3.8,1.4c1.4,0,2.7-0.5,3.8-1.4
		c1.1-1,1.6-2.4,1.6-4.2c0-1.8-0.5-3.2-1.6-4.2C48.7,12.3,47.4,11.8,46,11.8z"/>
	<path class="st0" d="M64.2,19.9h-1.5v6.9h-4.1V8.2H66c1.8,0,3.3,0.6,4.4,1.7c1.1,1.1,1.7,2.5,1.7,4.2c0,1.3-0.3,2.4-1,3.3
		c-0.6,0.9-1.5,1.6-2.7,2l3.8,7.5h-4.6L64.2,19.9z M65.2,16.3c0.8,0,1.5-0.2,1.9-0.6c0.5-0.4,0.7-1,0.7-1.6c0-0.7-0.2-1.3-0.7-1.7
		c-0.5-0.4-1.1-0.6-1.9-0.6h-2.4v4.5H65.2z"/>
	<path class="st0" d="M82.1,8.2c1.8,0,3.2,0.5,4.3,1.4c1,0.9,1.5,2.1,1.5,3.6c0,0.9-0.3,1.8-0.8,2.5c-0.5,0.7-1.2,1.2-2,1.5
		c0.9,0.2,1.7,0.7,2.3,1.5c0.6,0.8,1,1.7,1,2.9c0,1.5-0.5,2.8-1.6,3.8c-1.1,1-2.5,1.5-4.2,1.5h-7.5V8.2H82.1z M81.4,15.6
		c0.7,0,1.3-0.2,1.7-0.5c0.4-0.4,0.6-0.9,0.6-1.5c0-0.6-0.2-1.1-0.6-1.5c-0.4-0.4-1-0.5-1.8-0.5h-2.2v4H81.4z M81.8,23.4
		c0.8,0,1.4-0.2,1.9-0.6c0.5-0.4,0.7-0.9,0.7-1.6c0-0.6-0.2-1.2-0.7-1.6c-0.5-0.4-1.1-0.6-1.9-0.6h-2.6v4.4H81.8z"/>
	<path class="st0" d="M91.3,26.8V8.2h4.2v18.6H91.3z"/>
	<path class="st0" d="M107.9,12.2v14.7h-4.1V12.2H98v-4h15.6v4H107.9z"/>
	<path class="st0" d="M113.6,19.4v-3.6h7.9v3.6H113.6z"/>
	<path class="st0" d="M128.8,20.1v6.7h-4.1V8.2h7c1.9,0,3.4,0.6,4.6,1.7c1.2,1.1,1.8,2.5,1.8,4.3c0,1.8-0.6,3.2-1.8,4.3
		c-1.2,1.1-2.7,1.7-4.6,1.7H128.8z M131.3,16.5c0.8,0,1.4-0.2,1.9-0.6c0.5-0.4,0.7-1,0.7-1.7c0-0.7-0.2-1.3-0.7-1.7
		c-0.5-0.4-1.1-0.6-1.9-0.6h-2.4v4.8H131.3z"/>
	<path class="st0" d="M146.3,19.9h-1.5v6.9h-4.1V8.2h7.4c1.8,0,3.3,0.6,4.4,1.7c1.1,1.1,1.7,2.5,1.7,4.2c0,1.3-0.3,2.4-1,3.3
		c-0.6,0.9-1.5,1.6-2.7,2l3.8,7.5h-4.6L146.3,19.9z M147.3,16.3c0.8,0,1.5-0.2,1.9-0.6c0.5-0.4,0.7-1,0.7-1.6c0-0.7-0.2-1.3-0.7-1.7
		c-0.5-0.4-1.1-0.6-1.9-0.6h-2.4v4.5H147.3z"/>
	<path class="st0" d="M158.8,10.5c1.9-1.8,4.2-2.7,6.9-2.7s5,0.9,6.9,2.7c1.9,1.8,2.8,4.1,2.8,7c0,2.9-0.9,5.2-2.8,7
		c-1.9,1.8-4.2,2.7-6.9,2.7s-5-0.9-6.9-2.7c-1.9-1.8-2.8-4.1-2.8-7C155.9,14.6,156.9,12.3,158.8,10.5z M165.6,11.8
		c-1.4,0-2.7,0.5-3.8,1.5c-1.1,1-1.6,2.4-1.6,4.2c0,1.8,0.5,3.2,1.6,4.2c1.1,1,2.3,1.4,3.8,1.4s2.7-0.5,3.8-1.4
		c1.1-1,1.6-2.4,1.6-4.2c0-1.8-0.5-3.2-1.6-4.2S167.1,11.8,165.6,11.8z"/>
	<path class="st0" d="M195.3,26.8V14.5l-4.9,12.3h-3.4l-4.9-12.2v12.2h-3.9V8.2h5.4l5.1,12.6l4.9-12.6h5.7v18.6H195.3z"/>
	<path class="st0" d="M205.2,10.5c1.9-1.8,4.2-2.7,6.9-2.7c2.7,0,5,0.9,6.9,2.7c1.9,1.8,2.8,4.1,2.8,7c0,2.9-0.9,5.2-2.8,7
		c-1.9,1.8-4.2,2.7-6.9,2.7c-2.7,0-5-0.9-6.9-2.7c-1.9-1.8-2.8-4.1-2.8-7C202.3,14.6,203.3,12.3,205.2,10.5z M212,11.8
		c-1.4,0-2.7,0.5-3.8,1.5s-1.6,2.4-1.6,4.2c0,1.8,0.5,3.2,1.6,4.2c1.1,1,2.3,1.4,3.8,1.4c1.4,0,2.7-0.5,3.8-1.4
		c1.1-1,1.6-2.4,1.6-4.2c0-1.8-0.5-3.2-1.6-4.2C214.7,12.3,213.5,11.8,212,11.8z"/>
	<path class="st0" d="M227.8,26.2c-0.5,0.5-1.2,0.8-1.9,0.8c-0.7,0-1.4-0.3-1.9-0.8c-0.5-0.5-0.8-1.2-0.8-1.9c0-0.7,0.3-1.4,0.8-1.9
		c0.5-0.5,1.2-0.8,1.9-0.8c0.7,0,1.4,0.3,1.9,0.8c0.5,0.5,0.8,1.2,0.8,1.9C228.6,25.1,228.3,25.7,227.8,26.2z"/>
	<path class="st0" d="M245,26.8l-0.3-1.9c-0.5,0.6-1.1,1.2-2,1.6c-0.9,0.4-2,0.7-3.2,0.7c-2.7,0-4.9-0.9-6.7-2.7
		c-1.8-1.8-2.7-4.1-2.7-7c0-2.9,0.9-5.2,2.8-7c1.9-1.8,4.2-2.7,6.9-2.7c2.4,0,4.3,0.6,5.8,1.7c1.4,1.1,2.4,2.5,2.9,4l-4,1.4
		c-0.2-0.8-0.7-1.5-1.4-2.2c-0.8-0.7-1.8-1-3.2-1c-1.4,0-2.7,0.5-3.8,1.5c-1.1,1-1.7,2.4-1.7,4.3c0,1.9,0.5,3.3,1.6,4.3
		c1.1,1,2.4,1.6,4,1.6c1.4,0,2.4-0.3,3.2-1c0.8-0.7,1.2-1.3,1.4-2.1h-5.6v-3.5h9.5v10H245z"/>
	<path class="st0" d="M251.9,26.8V8.2h11.8v3.9H256v3.5h6.9v3.7H256v3.6h7.7v3.9H251.9z"/>
</g>
</svg>
