<?xml version="1.0" encoding="utf-8"?>
<!-- Generator: Adobe Illustrator 19.2.1, SVG Export Plug-In . SVG Version: 6.00 Build 0)  -->
<svg version="1.1" id="Layer_1" xmlns="http://www.w3.org/2000/svg" xmlns:xlink="http://www.w3.org/1999/xlink" x="0px" y="0px"
	 width="367px" height="35px" viewBox="0 0 367 35" style="enable-background:new 0 0 367 35;" xml:space="preserve">
<style type="text/css">
	.st0{fill:#FFFFFF;}
</style>
<g>
	<path class="st0" d="M4.1,9.3h16.2v19.1H16V13.3H8.4v15.1H4.1V9.3z"/>
	<path class="st0" d="M27.7,28.3h-4.2V9.3h7.2c2,0,3.5,0.6,4.7,1.7s1.8,2.6,1.8,4.4c0,1.8-0.6,3.3-1.8,4.4c-1.2,1.1-2.8,1.7-4.7,1.7
		h-2.9V28.3z M32.1,17.2c0.5-0.4,0.8-1,0.8-1.8c0-0.8-0.3-1.4-0.8-1.8c-0.5-0.4-1.1-0.6-2-0.6h-2.5v4.9h2.5
		C31,17.8,31.6,17.6,32.1,17.2z"/>
	<path class="st0" d="M48.6,8.9c2.7,0,5.1,0.9,7,2.7c2,1.9,2.9,4.3,2.9,7.2c0,3-1,5.4-2.9,7.2c-1.9,1.8-4.2,2.7-7,2.7
		c-2.7,0-5.1-0.9-7-2.7c-2-1.9-3-4.3-3-7.2c0-3,1-5.4,3-7.2C43.5,9.8,45.8,8.9,48.6,8.9z M48.6,24.5c1.5,0,2.7-0.5,3.7-1.4
		c1.2-1.1,1.7-2.5,1.7-4.4c0-1.9-0.6-3.3-1.7-4.4c-1-0.9-2.2-1.4-3.7-1.4c-1.5,0-2.7,0.5-3.8,1.4c-1.2,1.1-1.7,2.5-1.7,4.4
		c0,1.8,0.6,3.3,1.7,4.4C45.8,24.1,47.1,24.5,48.6,24.5z"/>
	<path class="st0" d="M65.7,23.2v5.1h-4.2V9.3h4.2v8l7-8h5.6l-7.4,8.3l7.4,10.8H73l-5.1-7.5L65.7,23.2z"/>
	<path class="st0" d="M84.7,24.5l-1.4,3.9h-4.5L86,9.3H91l7.1,19.1h-4.6l-1.4-3.9H84.7z M90.7,20.6L88.4,14l-2.3,6.6H90.7z"/>
	<path class="st0" d="M109.6,9.2h4.3v19.1h-4.3v-6c-0.8,0.2-1.6,0.3-2.4,0.3c-2.2,0-4-0.6-5.4-1.9c-1.4-1.3-2.1-3.1-2.1-5.4v-6h4.2
		V15c0,1.1,0.3,2,0.9,2.6c0.6,0.6,1.4,0.9,2.4,0.9c1,0,1.8-0.3,2.4-0.9V9.2z"/>
	<path class="st0" d="M122.1,24.5l-1.4,3.9h-4.5l7.2-19.1h4.9l7.1,19.1h-4.6l-1.4-3.9H122.1z M128.1,20.6l-2.3-6.6l-2.3,6.6H128.1z"
		/>
	<path class="st0" d="M137.8,9.3h4.2v11.6l7.2-11.6h5.2v19.1h-4.2V15.8l-7.9,12.5h-4.5V9.3z M141.6,4.4h3c0,0.9,0.5,1.3,1.5,1.3
		c0.9,0,1.4-0.4,1.5-1.3h3c0,1-0.4,1.9-1.1,2.5c-0.8,0.8-2,1.2-3.4,1.2c-1.4,0-2.5-0.4-3.3-1.2C142,6.2,141.6,5.4,141.6,4.4z"/>
	<path class="st0" d="M157.3,18.8c0-2.9,1-5.3,2.9-7.2c1.9-1.8,4.2-2.8,6.9-2.8c2.6,0,4.7,0.7,6.3,2.2c1.3,1.1,2.2,2.6,2.5,4.2
		l-4,1.3c-0.1-0.4-0.2-0.8-0.4-1.1c-0.2-0.4-0.5-0.8-0.9-1.2c-0.9-0.9-2.1-1.3-3.6-1.3c-1.4,0-2.6,0.5-3.7,1.4
		c-1.2,1.1-1.7,2.5-1.7,4.4c0,1.7,0.6,3.1,1.7,4.2c1,1,2.3,1.5,3.8,1.5c1.5,0,2.7-0.4,3.6-1.3c0.7-0.6,1.2-1.4,1.4-2.3l4.1,1.2
		c-0.4,1.7-1.2,3.1-2.6,4.3c-1.7,1.6-3.9,2.3-6.5,2.3c-2.8,0-5.1-0.9-7-2.7C158.3,24.2,157.3,21.8,157.3,18.8z"/>
	<path class="st0" d="M177.6,28.3l3.9-7.7c-1.1-0.4-2.1-1.1-2.8-2c-0.7-0.9-1-2-1-3.3c0-1.7,0.6-3.2,1.7-4.2
		c1.1-1.1,2.6-1.7,4.5-1.7h7.6v19.1h-4.2v-7.1h-1.5l-3.4,7.1H177.6z M187.2,13h-2.5c-1.8,0-2.7,0.8-2.7,2.3c0,0.7,0.2,1.3,0.7,1.7
		c0.4,0.4,1.1,0.6,2,0.6h2.5V13z"/>
	<path class="st0" d="M213.7,10.7c1,0.9,1.6,2.2,1.6,3.7c0,0.9-0.3,1.8-0.8,2.6c-0.5,0.7-1.2,1.2-2,1.5c1,0.2,1.7,0.7,2.3,1.5
		c0.7,0.8,1,1.8,1,3c0,1.6-0.5,2.9-1.6,3.9c-1.1,1-2.5,1.5-4.3,1.5h-7.7V9.3h7.1C211.2,9.3,212.7,9.8,213.7,10.7z M210.5,16.3
		c0.4-0.3,0.7-0.8,0.7-1.5c0-1.4-0.8-2-2.5-2h-2.3v4.1h2.3C209.4,16.9,210,16.7,210.5,16.3z M211,24.3c0.5-0.4,0.7-1,0.7-1.6
		c0-0.7-0.2-1.2-0.7-1.6s-1.1-0.6-1.9-0.6h-2.7v4.5h2.7C209.9,24.9,210.5,24.7,211,24.3z"/>
	<path class="st0" d="M234.3,8.9c2.7,0,5.1,0.9,7,2.7c2,1.9,2.9,4.3,2.9,7.2c0,3-1,5.4-2.9,7.2c-1.9,1.8-4.2,2.7-7,2.7
		s-5.1-0.9-7-2.7c-2-1.9-3-4.3-3-7.2c0-3,1-5.4,3-7.2C229.2,9.8,231.5,8.9,234.3,8.9z M234.3,24.5c1.5,0,2.7-0.5,3.7-1.4
		c1.2-1.1,1.7-2.5,1.7-4.4c0-1.9-0.6-3.3-1.7-4.4c-1-0.9-2.3-1.4-3.7-1.4c-1.5,0-2.7,0.5-3.8,1.4c-1.2,1.1-1.7,2.5-1.7,4.4
		c0,1.8,0.6,3.3,1.7,4.4C231.5,24.1,232.8,24.5,234.3,24.5z"/>
	<path class="st0" d="M254.4,16.1c1.9,0,3.5,0.6,4.7,1.7c1.2,1.1,1.8,2.6,1.8,4.4c0,1.8-0.6,3.2-1.8,4.4c-1.2,1.1-2.8,1.7-4.7,1.7
		h-7.2v-19h13v4.1h-8.7v2.8H254.4z M253.9,24.6c0.8,0,1.5-0.2,2-0.6c0.5-0.5,0.7-1.1,0.7-1.8c0-0.7-0.3-1.3-0.8-1.7
		c-0.5-0.4-1.1-0.7-1.9-0.7h-2.5v4.9H253.9z"/>
	<path class="st0" d="M279.6,9.3h4.2v14.9h1.6v6.6h-4.2v-2.6h-17.7v-19h4.2v14.9h3.8V9.3h4.2v14.9h3.8V9.3z"/>
	<path class="st0" d="M288.9,9.3h12.1v4h-7.8v3.6h7.1v3.7h-7.1v3.7h7.9v4h-12.1V9.3z"/>
	<path class="st0" d="M315,20.7h-7.6v7.6h-4.2V9.3h4.2v7.5h7.6V9.3h4.3v19.1H315V20.7z"/>
	<path class="st0" d="M323.5,9.3h4.2v11.6l7.2-11.6h5.2v19.1h-4.2V15.8l-7.9,12.5h-4.5V9.3z"/>
	<path class="st0" d="M345,9.3h4.2v11.6l7.2-11.6h5.2v19.1h-4.2V15.8l-7.9,12.5H345V9.3z"/>
</g>
</svg>
