<?xml version="1.0" encoding="utf-8"?>
<!-- Generator: Adobe Illustrator 19.2.1, SVG Export Plug-In . SVG Version: 6.00 Build 0)  -->
<svg version="1.1" id="Layer_1" xmlns="http://www.w3.org/2000/svg" xmlns:xlink="http://www.w3.org/1999/xlink" x="0px" y="0px"
	 width="300px" height="54.7px" viewBox="0 0 300 54.7" style="enable-background:new 0 0 300 54.7;" xml:space="preserve">
<style type="text/css">
	.st0{fill:#FFFFFF;}
</style>
<g>
	<path class="st0" d="M56.4,7.3c1.6-1.6,3.7-2.4,6-2.4c2.4,0,4.4,0.8,6,2.4s2.5,3.6,2.5,6.1s-0.8,4.6-2.5,6.1
		c-1.6,1.6-3.6,2.4-6,2.4s-4.4-0.8-6-2.4s-2.5-3.6-2.5-6.1C53.9,11,54.7,8.9,56.4,7.3z M62.4,8.5c-1.3,0-2.4,0.4-3.3,1.3
		c-0.9,0.9-1.4,2.1-1.4,3.7s0.5,2.8,1.4,3.7s2,1.3,3.3,1.3s2.4-0.4,3.3-1.3c0.9-0.9,1.4-2.1,1.4-3.7s-0.5-2.8-1.4-3.7
		S63.7,8.5,62.4,8.5z"/>
	<path class="st0" d="M78.4,15.6h-1.3v6.1h-3.6V5.3H80c1.6,0,2.9,0.5,3.8,1.4c1,1,1.5,2.2,1.5,3.7c0,1.1-0.3,2.1-0.9,2.9
		C83.8,14.1,83,14.7,82,15l3.3,6.6h-4L78.4,15.6z M79.2,12.4c0.7,0,1.3-0.2,1.7-0.5c0.4-0.4,0.6-0.8,0.6-1.4c0-0.6-0.2-1.1-0.6-1.4
		c-0.4-0.4-1-0.5-1.7-0.5h-2.1v4h2.1V12.4z"/>
	<path class="st0" d="M94,5.3c1.6,0,2.8,0.4,3.7,1.2c0.9,0.8,1.4,1.9,1.4,3.1c0,0.8-0.2,1.5-0.7,2.2c-0.5,0.6-1,1.1-1.7,1.3
		c0.8,0.2,1.5,0.6,2,1.3s0.9,1.5,0.9,2.5c0,1.3-0.5,2.5-1.4,3.3c-0.9,0.9-2.2,1.3-3.7,1.3h-6.6V5.3H94z M93.4,11.9
		c0.6,0,1.2-0.2,1.5-0.5c0.4-0.3,0.6-0.7,0.6-1.3c0-0.5-0.2-1-0.6-1.3S94,8.3,93.3,8.3h-1.9v3.5h2V11.9z M93.7,18.7
		c0.7,0,1.3-0.2,1.7-0.5c0.4-0.3,0.6-0.8,0.6-1.4s-0.2-1-0.6-1.4s-1-0.5-1.7-0.5h-2.3v3.8H93.7z"/>
	<path class="st0" d="M102.1,21.6V5.3h3.7v16.3H102.1z"/>
	<path class="st0" d="M116.6,8.8v12.8H113V8.8h-5V5.3h13.7v3.5H116.6z"/>
	<path class="st0" d="M127.5,14.2c-1.4,0-2.5-0.5-3.5-1.5s-1.5-2.1-1.5-3.5s0.5-2.5,1.5-3.5s2.1-1.5,3.5-1.5c1.4,0,2.5,0.5,3.5,1.5
		s1.5,2.1,1.5,3.5s-0.5,2.5-1.5,3.5S128.9,14.2,127.5,14.2z M127.5,5.4c-1.1,0-2,0.4-2.7,1.1c-0.7,0.8-1.1,1.7-1.1,2.7
		c0,1.1,0.4,2,1.1,2.7s1.6,1.1,2.7,1.1c1.1,0,2-0.4,2.7-1.1c0.7-0.7,1.1-1.7,1.1-2.7c0-1.1-0.4-2-1.1-2.7
		C129.4,5.7,128.6,5.4,127.5,5.4z M127.4,10.1H127v1.8h-1.4V6.5h2.2c0.5,0,1,0.2,1.3,0.5c0.4,0.3,0.5,0.8,0.5,1.2
		c0,0.3-0.1,0.6-0.3,0.9s-0.4,0.5-0.7,0.6l1,2h-1.5L127.4,10.1z M127.6,8.9c0.2,0,0.4-0.1,0.5-0.2c0.1-0.1,0.2-0.3,0.2-0.5
		s-0.1-0.4-0.2-0.5c-0.1-0.1-0.3-0.2-0.5-0.2H127v1.3L127.6,8.9L127.6,8.9z"/>
	<path class="st0" d="M134,15.1V12h6.9v3.1H134z"/>
	<path class="st0" d="M143.7,21.6V5.3h5.9c2.5,0,4.4,0.7,5.9,2.2s2.2,3.5,2.2,6s-0.7,4.5-2.2,5.9c-1.5,1.5-3.5,2.2-6,2.2
		C149.5,21.6,143.7,21.6,143.7,21.6z M149.4,18.2c1.3,0,2.4-0.4,3.3-1.2c0.9-0.8,1.3-2,1.3-3.5c0-1.6-0.4-2.7-1.3-3.5
		c-0.9-0.8-1.9-1.2-3.3-1.2h-2.1v9.4H149.4z"/>
	<path class="st0" d="M173.9,7.3c1.6,1.6,2.5,3.6,2.5,6.1s-0.8,4.5-2.5,6.1c-1.6,1.6-3.6,2.3-6,2.3s-4.4-0.8-6-2.3
		c-1.6-1.6-2.5-3.6-2.5-6.1c0-0.5,0-1,0.1-1.6h12.8c-0.2-0.9-0.6-1.6-1.2-2.1c-0.9-0.9-2-1.3-3.3-1.3s-2.4,0.4-3.3,1.3
		c-0.2,0.2-0.4,0.4-0.6,0.6l-3.4-1.1c0.4-0.7,0.8-1.3,1.4-1.8c1.6-1.6,3.6-2.3,6-2.3C170.2,5,172.2,5.8,173.9,7.3z M167.9,18.4
		c1.3,0,2.3-0.4,3.3-1.3c0.5-0.5,0.9-1,1.1-1.8h-8.8c0.2,0.7,0.6,1.3,1.1,1.8C165.5,17.9,166.6,18.4,167.9,18.4z"/>
	<path class="st0" d="M189.2,21.6l-6.7-10.7v10.7h-3.6V5.3h4.4l6.1,9.9V5.3h3.6v16.3H189.2z"/>
	<path class="st0" d="M200.7,5.3h4.3l3.3,6l3.4-6h4l-5.7,9.5v6.8h-3.6v-6.8L200.7,5.3z"/>
	<path class="st0" d="M217.7,21.6V5.3H228v3.4h-6.7v3.1h6.1V15h-6.1v3.2h6.7v3.4H217.7z"/>
	<path class="st0" d="M241.4,21.6l-6.7-10.7v10.7h-3.6V5.3h4.4l6.1,9.9V5.3h3.6v16.3H241.4z"/>
	<path class="st0" d="M248.8,21.6V5.3h3.7v16.3H248.8z"/>
	<path class="st0" d="M50.7,36.4v12.8H47V36.4h-5v-3.5h13.7v3.5H50.7z"/>
	<path class="st0" d="M66.1,45.9h-6.3l-1.1,3.3h-3.8L61,32.9h4.2l6.1,16.3h-4L66.1,45.9z M61,42.6h4L63,37L61,42.6z"/>
	<path class="st0" d="M83.6,49.2l-6.7-10.7v10.7h-3.6V32.9h4.4l6.1,9.9v-9.9h3.6v16.3H83.6z"/>
	<path class="st0" d="M91,49.2V32.9h3.7v16.3H91z"/>
	<path class="st0" d="M105.2,49.4L105.2,49.4l-0.2,0.1l-0.6,0.9c0.7,0,1.2,0.2,1.6,0.6c0.4,0.4,0.6,0.9,0.6,1.4
		c0,0.6-0.3,1.1-0.8,1.6s-1.3,0.7-2.3,0.7c-0.6,0-1.2-0.1-1.7-0.4c-0.5-0.3-0.9-0.6-1.1-0.9l1.1-1.4c0.6,0.6,1.2,0.9,1.7,0.9
		s0.9-0.2,0.9-0.6c0-0.2-0.1-0.3-0.2-0.4c-0.1-0.1-0.3-0.2-0.6-0.2c-0.2,0-0.5,0-0.6,0.1l-0.9-1.1l0.7-1.1c-1.7-0.1-3.1-0.6-4.1-1.6
		c-1.1-1.1-1.8-2.3-1.9-3.6l3.3-0.8c0.1,0.8,0.4,1.5,1,2s1.4,0.8,2.4,0.8c0.7,0,1.3-0.2,1.7-0.5c0.4-0.3,0.6-0.7,0.6-1.2
		c0-0.4-0.2-0.8-0.5-1c-0.3-0.3-0.7-0.5-1.3-0.6l-2.2-0.4c-1.4-0.3-2.5-0.8-3.2-1.7c-0.8-0.9-1.2-1.9-1.2-3.1c0-1.5,0.6-2.8,1.7-3.7
		c1.1-1,2.5-1.5,4.1-1.5c1,0,1.8,0.1,2.6,0.4c0.8,0.3,1.3,0.6,1.8,1.1c0.4,0.4,0.8,0.9,1.1,1.4c0.2,0.5,0.4,1,0.5,1.5l-3.3,0.9
		c-0.1-0.5-0.3-1-0.8-1.4c-0.4-0.4-1.1-0.6-2-0.6c-0.7,0-1.2,0.2-1.6,0.5s-0.6,0.7-0.6,1.2c0,0.8,0.5,1.4,1.6,1.6l2.2,0.4
		c1.5,0.3,2.7,0.9,3.5,1.8c0.8,0.9,1.2,1.9,1.2,3.1c0,1.4-0.5,2.6-1.6,3.6C107.3,48.7,106.4,49.2,105.2,49.4z"/>
	<path class="st0" d="M112.1,49.2V32.9h3.6v12.8h7v3.5H112.1z"/>
	<path class="st0" d="M125.2,49.2V32.9h3.7v16.3H125.2z"/>
	<path class="st0" d="M133.9,34.9c1.6-1.6,3.7-2.4,6-2.4c2.4,0,4.4,0.8,6,2.4s2.5,3.6,2.5,6.1c0,2.1-0.6,3.9-1.8,5.4l2,2.2l-2.4,2
		l-2-2.2c-1.3,0.7-2.7,1.1-4.2,1.1c-2.4,0-4.4-0.8-6-2.4c-1.6-1.6-2.5-3.6-2.5-6.1C131.4,38.5,132.2,36.5,133.9,34.9z M143.2,37.4
		c-0.9-0.9-2-1.3-3.3-1.3s-2.4,0.4-3.3,1.3s-1.4,2.1-1.4,3.7c0,1.6,0.5,2.8,1.4,3.7s2,1.3,3.3,1.3c0.6,0,1.1-0.1,1.7-0.3l-2.4-2.6
		l2.4-2l2.4,2.6c0.4-0.8,0.6-1.6,0.6-2.6C144.6,39.5,144.1,38.2,143.2,37.4z"/>
	<path class="st0" d="M167.5,47.9c-1.2,1.1-2.8,1.6-4.6,1.6c-1.9,0-3.4-0.5-4.6-1.6s-1.8-2.6-1.8-4.6V32.9h3.6V43
		c0,1,0.2,1.7,0.7,2.2s1.2,0.8,2.1,0.8c0.9,0,1.6-0.3,2.1-0.8s0.7-1.2,0.7-2.2V32.9h3.6v10.4C169.4,45.3,168.8,46.8,167.5,47.9z
		 M158.8,29c0.3-0.4,0.8-0.5,1.3-0.5s1,0.2,1.3,0.5s0.5,0.8,0.5,1.3s-0.2,0.9-0.5,1.3c-0.4,0.3-0.8,0.5-1.3,0.5s-1-0.2-1.3-0.5
		s-0.5-0.8-0.5-1.3C158.3,29.7,158.5,29.3,158.8,29z M164.5,29c0.3-0.4,0.8-0.5,1.3-0.5s1,0.2,1.3,0.5s0.5,0.8,0.5,1.3
		s-0.2,0.9-0.5,1.3c-0.4,0.3-0.8,0.5-1.3,0.5s-0.9-0.2-1.3-0.5c-0.3-0.3-0.5-0.8-0.5-1.3C164,29.7,164.1,29.3,164.5,29z"/>
	<path class="st0" d="M180.7,37.8c-0.1-0.5-0.3-1-0.8-1.4c-0.4-0.4-1.1-0.6-2-0.6c-0.7,0-1.2,0.2-1.6,0.5s-0.6,0.8-0.6,1.2
		c0,0.8,0.5,1.4,1.6,1.6l2.2,0.4c1.5,0.3,2.7,0.9,3.5,1.8c0.8,0.9,1.2,1.9,1.2,3.1c0,1.4-0.5,2.6-1.6,3.6s-2.6,1.6-4.4,1.6
		c-2.1,0-3.6-0.5-4.8-1.6c-1.1-1.1-1.8-2.3-1.9-3.6l3.3-0.8c0.1,0.8,0.4,1.5,1,2s1.4,0.8,2.4,0.8c0.7,0,1.3-0.2,1.7-0.5
		s0.6-0.7,0.6-1.2c0-0.4-0.2-0.8-0.5-1c-0.3-0.3-0.7-0.5-1.3-0.6l-2.2-0.4c-1.4-0.3-2.5-0.8-3.3-1.7s-1.2-1.9-1.2-3.1
		c0-1.5,0.6-2.8,1.7-3.7s2.5-1.5,4.1-1.5c1,0,1.8,0.1,2.6,0.4s1.4,0.6,1.8,1.1c0.4,0.4,0.8,0.9,1,1.4s0.4,1,0.5,1.5L180.7,37.8z"/>
	<path class="st0" d="M197.7,47.9c-1.2,1.1-2.8,1.6-4.6,1.6c-1.9,0-3.4-0.5-4.6-1.6c-1.2-1.1-1.8-2.6-1.8-4.6V32.9h3.6V43
		c0,1,0.2,1.7,0.7,2.2s1.2,0.8,2.1,0.8s1.6-0.3,2.1-0.8s0.7-1.2,0.7-2.2V32.9h3.6v10.4C199.5,45.3,198.9,46.8,197.7,47.9z"/>
	<path class="st0" d="M202.9,49.2V32.9h3.6v12.8h7v3.5H202.9z"/>
	<path class="st0" d="M215.9,49.2V32.9h3.6v12.8h7v3.5H215.9z"/>
	<path class="st0" d="M238.7,45.9h-6.3l-1.2,3.3h-3.8l6.1-16.3h4.2l6.1,16.3h-4L238.7,45.9z M233.6,42.6h4l-2-5.6L233.6,42.6z"/>
	<path class="st0" d="M250.8,43.1h-1.3v6.1h-3.6V32.9h6.5c1.6,0,2.9,0.5,3.8,1.4c1,1,1.5,2.2,1.5,3.7c0,1.1-0.3,2.1-0.9,2.9
		c-0.6,0.8-1.4,1.4-2.4,1.7l3.3,6.6h-4L250.8,43.1z M251.6,40c0.7,0,1.3-0.2,1.7-0.5c0.4-0.4,0.6-0.8,0.6-1.4c0-0.6-0.2-1.1-0.6-1.4
		c-0.4-0.4-1-0.5-1.7-0.5h-2.1v4h2.1V40z"/>
	<path class="st0" d="M260.3,49.2V32.9h3.7v16.3H260.3z"/>
	<path class="st0" d="M249.2,1.5c0.3-0.4,0.8-0.5,1.3-0.5c0.5,0,0.9,0.2,1.3,0.5c0.4,0.4,0.5,0.8,0.5,1.3s-0.2,0.9-0.5,1.3
		c-0.4,0.3-0.8,0.5-1.3,0.5c-0.5,0-0.9-0.2-1.3-0.5s-0.5-0.8-0.5-1.3C248.6,2.3,248.8,1.8,249.2,1.5z"/>
</g>
</svg>
