<?xml version="1.0" encoding="utf-8"?>
<!-- Generator: Adobe Illustrator 19.2.1, SVG Export Plug-In . SVG Version: 6.00 Build 0)  -->
<svg version="1.1" id="Layer_1" xmlns="http://www.w3.org/2000/svg" xmlns:xlink="http://www.w3.org/1999/xlink" x="0px" y="0px"
	 width="300px" height="54.7px" viewBox="0 0 300 54.7" style="enable-background:new 0 0 300 54.7;" xml:space="preserve">
<style type="text/css">
	.st0{fill:#FFFFFF;}
</style>
<g>
	<path class="st0" d="M56.4,5.1c1.6-1.6,3.7-2.4,6-2.4c2.4,0,4.4,0.8,6,2.4s2.5,3.6,2.5,6.1c0,2.5-0.8,4.6-2.5,6.1
		c-1.6,1.6-3.6,2.4-6,2.4c-2.4,0-4.4-0.8-6-2.4c-1.6-1.6-2.5-3.6-2.5-6.1C53.9,8.8,54.7,6.7,56.4,5.1z M62.4,6.3
		c-1.3,0-2.4,0.4-3.3,1.3s-1.4,2.1-1.4,3.7c0,1.6,0.5,2.8,1.4,3.7s2,1.3,3.3,1.3c1.3,0,2.4-0.4,3.3-1.3s1.4-2.1,1.4-3.7
		c0-1.6-0.5-2.8-1.4-3.7S63.7,6.3,62.4,6.3z"/>
	<path class="st0" d="M78.4,13.4h-1.3v6.1h-3.6V3.1h6.5c1.6,0,2.9,0.5,3.8,1.4c1,1,1.5,2.2,1.5,3.7c0,1.1-0.3,2.1-0.9,2.9
		c-0.6,0.8-1.4,1.4-2.4,1.7l3.3,6.6h-4L78.4,13.4z M79.2,10.2c0.7,0,1.3-0.2,1.7-0.5c0.4-0.4,0.6-0.8,0.6-1.4c0-0.6-0.2-1.1-0.6-1.4
		c-0.4-0.4-1-0.5-1.7-0.5h-2.1v4H79.2z"/>
	<path class="st0" d="M94,3.1c1.6,0,2.8,0.4,3.7,1.2c0.9,0.8,1.4,1.9,1.4,3.1c0,0.8-0.2,1.5-0.7,2.2c-0.5,0.6-1,1.1-1.7,1.3
		c0.8,0.2,1.5,0.6,2,1.3s0.9,1.5,0.9,2.5c0,1.3-0.5,2.5-1.4,3.3c-0.9,0.9-2.2,1.3-3.7,1.3h-6.6V3.1H94z M93.4,9.7
		c0.6,0,1.2-0.2,1.5-0.5c0.4-0.3,0.6-0.7,0.6-1.3c0-0.5-0.2-1-0.6-1.3c-0.4-0.3-0.9-0.5-1.6-0.5h-1.9v3.5H93.4z M93.7,16.5
		c0.7,0,1.3-0.2,1.7-0.5c0.4-0.3,0.6-0.8,0.6-1.4c0-0.6-0.2-1-0.6-1.4c-0.4-0.4-1-0.5-1.7-0.5h-2.3v3.8H93.7z"/>
	<path class="st0" d="M102.1,19.4V3.1h3.7v16.3H102.1z"/>
	<path class="st0" d="M116.6,6.6v12.8h-3.6V6.6h-5V3.1h13.7v3.5H116.6z"/>
	<path class="st0" d="M127.5,12c-1.4,0-2.5-0.5-3.5-1.5c-1-1-1.5-2.1-1.5-3.5c0-1.4,0.5-2.5,1.5-3.5c1-1,2.1-1.5,3.5-1.5
		s2.5,0.5,3.5,1.5c1,1,1.5,2.1,1.5,3.5c0,1.4-0.5,2.5-1.5,3.5C130,11.5,128.9,12,127.5,12z M127.5,3.2c-1.1,0-2,0.4-2.7,1.1
		c-0.7,0.8-1.1,1.7-1.1,2.7c0,1.1,0.4,2,1.1,2.7c0.7,0.7,1.6,1.1,2.7,1.1s2-0.4,2.7-1.1c0.7-0.7,1.1-1.7,1.1-2.7
		c0-1.1-0.4-2-1.1-2.7C129.4,3.5,128.6,3.2,127.5,3.2z M127.4,7.9H127v1.8h-1.4V4.3h2.2c0.5,0,1,0.2,1.3,0.5
		c0.4,0.3,0.5,0.8,0.5,1.2c0,0.3-0.1,0.6-0.3,0.9s-0.4,0.5-0.7,0.6l1,2h-1.5L127.4,7.9z M127.6,6.7c0.2,0,0.4-0.1,0.5-0.2
		s0.2-0.3,0.2-0.5s-0.1-0.4-0.2-0.5c-0.1-0.1-0.3-0.2-0.5-0.2H127v1.3H127.6z"/>
	<path class="st0" d="M134,12.9V9.8h6.9v3.1H134z"/>
	<path class="st0" d="M143.7,19.4V3.1h5.9c2.5,0,4.4,0.7,5.9,2.2s2.2,3.5,2.2,6c0,2.5-0.7,4.5-2.2,5.9c-1.5,1.5-3.5,2.2-6,2.2H143.7
		z M149.4,16c1.3,0,2.4-0.4,3.3-1.2s1.3-2,1.3-3.5c0-1.6-0.4-2.7-1.3-3.5c-0.9-0.8-1.9-1.2-3.3-1.2h-2.1V16H149.4z"/>
	<path class="st0" d="M173.9,5.1c1.6,1.6,2.5,3.6,2.5,6.1c0,2.5-0.8,4.5-2.5,6.1c-1.6,1.6-3.6,2.3-6,2.3c-2.4,0-4.4-0.8-6-2.3
		c-1.6-1.6-2.5-3.6-2.5-6.1c0-0.5,0-1,0.1-1.6h12.8c-0.2-0.9-0.6-1.6-1.2-2.1c-0.9-0.9-2-1.3-3.3-1.3c-1.3,0-2.4,0.4-3.3,1.3
		c-0.2,0.2-0.4,0.4-0.6,0.6L160.5,7c0.4-0.7,0.8-1.3,1.4-1.8c1.6-1.6,3.6-2.3,6-2.3C170.2,2.8,172.2,3.6,173.9,5.1z M167.9,16.2
		c1.3,0,2.3-0.4,3.3-1.3c0.5-0.5,0.9-1,1.1-1.8h-8.8c0.2,0.7,0.6,1.3,1.1,1.8C165.5,15.7,166.6,16.2,167.9,16.2z"/>
	<path class="st0" d="M189.2,19.4l-6.7-10.7v10.7h-3.6V3.1h4.4l6.1,9.9V3.1h3.6v16.3H189.2z"/>
	<path class="st0" d="M200.7,3.1h4.3l3.3,6l3.4-6h4l-5.7,9.5v6.8h-3.6v-6.8L200.7,3.1z"/>
	<path class="st0" d="M217.7,19.4V3.1H228v3.4h-6.7v3.1h6.1v3.2h-6.1V16h6.7v3.4H217.7z"/>
	<path class="st0" d="M241.4,19.4l-6.7-10.7v10.7h-3.6V3.1h4.4l6.1,9.9V3.1h3.6v16.3H241.4z"/>
	<path class="st0" d="M248.8,19.4V3.1h3.7v16.3H248.8z"/>
	<path class="st0" d="M50.7,34.2V47H47V34.2h-5v-3.5h13.7v3.5H50.7z"/>
	<path class="st0" d="M66.1,43.7h-6.3L58.7,47h-3.8L61,30.7h4.2L71.3,47h-4L66.1,43.7z M61,40.4h4l-2-5.6L61,40.4z"/>
	<path class="st0" d="M83.6,47l-6.7-10.7V47h-3.6V30.7h4.4l6.1,9.9v-9.9h3.6V47H83.6z"/>
	<path class="st0" d="M91,47V30.7h3.7V47H91z"/>
	<path class="st0" d="M105.2,47.2L105.2,47.2l-0.2,0.1l-0.6,0.9c0.7,0,1.2,0.2,1.6,0.6c0.4,0.4,0.6,0.9,0.6,1.4
		c0,0.6-0.3,1.1-0.8,1.6c-0.5,0.5-1.3,0.7-2.3,0.7c-0.6,0-1.2-0.1-1.7-0.4c-0.5-0.3-0.9-0.6-1.1-0.9l1.1-1.4
		c0.6,0.6,1.2,0.9,1.7,0.9s0.9-0.2,0.9-0.6c0-0.2-0.1-0.3-0.2-0.4c-0.1-0.1-0.3-0.2-0.6-0.2c-0.2,0-0.5,0-0.6,0.1l-0.9-1.1l0.7-1.1
		c-1.7-0.1-3.1-0.6-4.1-1.6c-1.1-1.1-1.8-2.3-1.9-3.6l3.3-0.8c0.1,0.8,0.4,1.5,1,2c0.6,0.5,1.4,0.8,2.4,0.8c0.7,0,1.3-0.2,1.7-0.5
		c0.4-0.3,0.6-0.7,0.6-1.2c0-0.4-0.2-0.8-0.5-1c-0.3-0.3-0.7-0.5-1.3-0.6l-2.2-0.4c-1.4-0.3-2.5-0.8-3.2-1.7
		c-0.8-0.9-1.2-1.9-1.2-3.1c0-1.5,0.6-2.8,1.7-3.7c1.1-1,2.5-1.5,4.1-1.5c1,0,1.8,0.1,2.6,0.4c0.8,0.3,1.3,0.6,1.8,1.1
		c0.4,0.4,0.8,0.9,1.1,1.4c0.2,0.5,0.4,1,0.5,1.5l-3.3,0.9c-0.1-0.5-0.3-1-0.8-1.4c-0.4-0.4-1.1-0.6-2-0.6c-0.7,0-1.2,0.2-1.6,0.5
		c-0.4,0.3-0.6,0.7-0.6,1.2c0,0.8,0.5,1.4,1.6,1.6l2.2,0.4c1.5,0.3,2.7,0.9,3.5,1.8c0.8,0.9,1.2,1.9,1.2,3.1c0,1.4-0.5,2.6-1.6,3.6
		C107.3,46.5,106.4,47,105.2,47.2z"/>
	<path class="st0" d="M112.1,47V30.7h3.6v12.8h7V47H112.1z"/>
	<path class="st0" d="M125.2,47V30.7h3.7V47H125.2z"/>
	<path class="st0" d="M133.9,32.7c1.6-1.6,3.7-2.4,6-2.4c2.4,0,4.4,0.8,6,2.4s2.5,3.6,2.5,6.1c0,2.1-0.6,3.9-1.8,5.4l2,2.2l-2.4,2
		l-2-2.2c-1.3,0.7-2.7,1.1-4.2,1.1c-2.4,0-4.4-0.8-6-2.4c-1.6-1.6-2.5-3.6-2.5-6.1C131.4,36.3,132.2,34.3,133.9,32.7z M143.2,35.2
		c-0.9-0.9-2-1.3-3.3-1.3c-1.3,0-2.4,0.4-3.3,1.3s-1.4,2.1-1.4,3.7c0,1.6,0.5,2.8,1.4,3.7s2,1.3,3.3,1.3c0.6,0,1.1-0.1,1.7-0.3
		l-2.4-2.6l2.4-2l2.4,2.6c0.4-0.8,0.6-1.6,0.6-2.6C144.6,37.3,144.1,36,143.2,35.2z"/>
	<path class="st0" d="M167.5,45.7c-1.2,1.1-2.8,1.6-4.6,1.6c-1.9,0-3.4-0.5-4.6-1.6s-1.8-2.6-1.8-4.6V30.7h3.6v10.1
		c0,1,0.2,1.7,0.7,2.2c0.5,0.5,1.2,0.8,2.1,0.8c0.9,0,1.6-0.3,2.1-0.8c0.5-0.5,0.7-1.2,0.7-2.2V30.7h3.6v10.4
		C169.4,43.1,168.8,44.6,167.5,45.7z M158.8,26.8c0.3-0.4,0.8-0.5,1.3-0.5s1,0.2,1.3,0.5s0.5,0.8,0.5,1.3c0,0.5-0.2,0.9-0.5,1.3
		c-0.4,0.3-0.8,0.5-1.3,0.5s-1-0.2-1.3-0.5c-0.3-0.3-0.5-0.8-0.5-1.3C158.3,27.5,158.5,27.1,158.8,26.8z M164.5,26.8
		c0.3-0.4,0.8-0.5,1.3-0.5c0.5,0,1,0.2,1.3,0.5s0.5,0.8,0.5,1.3c0,0.5-0.2,0.9-0.5,1.3c-0.4,0.3-0.8,0.5-1.3,0.5
		c-0.5,0-0.9-0.2-1.3-0.5c-0.3-0.3-0.5-0.8-0.5-1.3C164,27.5,164.1,27.1,164.5,26.8z"/>
	<path class="st0" d="M180.7,35.6c-0.1-0.5-0.3-1-0.8-1.4c-0.4-0.4-1.1-0.6-2-0.6c-0.7,0-1.2,0.2-1.6,0.5s-0.6,0.8-0.6,1.2
		c0,0.8,0.5,1.4,1.6,1.6l2.2,0.4c1.5,0.3,2.7,0.9,3.5,1.8c0.8,0.9,1.2,1.9,1.2,3.1c0,1.4-0.5,2.6-1.6,3.6s-2.6,1.6-4.4,1.6
		c-2.1,0-3.6-0.5-4.8-1.6c-1.1-1.1-1.8-2.3-1.9-3.6l3.3-0.8c0.1,0.8,0.4,1.5,1,2c0.6,0.5,1.4,0.8,2.4,0.8c0.7,0,1.3-0.2,1.7-0.5
		c0.4-0.3,0.6-0.7,0.6-1.2c0-0.4-0.2-0.8-0.5-1c-0.3-0.3-0.7-0.5-1.3-0.6l-2.2-0.4c-1.4-0.3-2.5-0.8-3.3-1.7
		c-0.8-0.9-1.2-1.9-1.2-3.1c0-1.5,0.6-2.8,1.7-3.7s2.5-1.5,4.1-1.5c1,0,1.8,0.1,2.6,0.4c0.8,0.3,1.4,0.6,1.8,1.1
		c0.4,0.4,0.8,0.9,1,1.4s0.4,1,0.5,1.5L180.7,35.6z"/>
	<path class="st0" d="M197.7,45.7c-1.2,1.1-2.8,1.6-4.6,1.6c-1.9,0-3.4-0.5-4.6-1.6c-1.2-1.1-1.8-2.6-1.8-4.6V30.7h3.6v10.1
		c0,1,0.2,1.7,0.7,2.2s1.2,0.8,2.1,0.8s1.6-0.3,2.1-0.8s0.7-1.2,0.7-2.2V30.7h3.6v10.4C199.5,43.1,198.9,44.6,197.7,45.7z"/>
	<path class="st0" d="M202.9,47V30.7h3.6v12.8h7V47H202.9z"/>
	<path class="st0" d="M215.9,47V30.7h3.6v12.8h7V47H215.9z"/>
	<path class="st0" d="M238.7,43.7h-6.3l-1.2,3.3h-3.8l6.1-16.3h4.2l6.1,16.3h-4L238.7,43.7z M233.6,40.4h4l-2-5.6L233.6,40.4z"/>
	<path class="st0" d="M250.8,40.9h-1.3V47h-3.6V30.7h6.5c1.6,0,2.9,0.5,3.8,1.4c1,1,1.5,2.2,1.5,3.7c0,1.1-0.3,2.1-0.9,2.9
		c-0.6,0.8-1.4,1.4-2.4,1.7l3.3,6.6h-4L250.8,40.9z M251.6,37.8c0.7,0,1.3-0.2,1.7-0.5c0.4-0.4,0.6-0.8,0.6-1.4
		c0-0.6-0.2-1.1-0.6-1.4c-0.4-0.4-1-0.5-1.7-0.5h-2.1v4H251.6z"/>
	<path class="st0" d="M260.3,47V30.7h3.7V47H260.3z"/>
</g>
</svg>
