<?xml version="1.0" encoding="utf-8"?>
<!-- Generator: Adobe Illustrator 19.2.1, SVG Export Plug-In . SVG Version: 6.00 Build 0)  -->
<svg version="1.1" id="Layer_1" xmlns="http://www.w3.org/2000/svg" xmlns:xlink="http://www.w3.org/1999/xlink" x="0px" y="0px"
	 width="300px" height="35px" viewBox="0 0 300 35" style="enable-background:new 0 0 300 35;" xml:space="preserve">
<style type="text/css">
	.st0{fill:#FFFFFF;}
</style>
<g>
	<path class="st0" d="M39.3,10.4c1.9-1.8,4.1-2.7,6.8-2.7c2.7,0,4.9,0.9,6.8,2.7c1.9,1.8,2.8,4.1,2.8,6.9c0,2.8-0.9,5.1-2.8,6.9
		c-1.9,1.8-4.1,2.7-6.8,2.7c-2.7,0-4.9-0.9-6.8-2.7c-1.9-1.8-2.8-4.1-2.8-6.9C36.6,14.5,37.5,12.2,39.3,10.4z M46.1,11.7
		c-1.4,0-2.7,0.5-3.7,1.4s-1.6,2.3-1.6,4.1s0.5,3.2,1.6,4.1s2.3,1.4,3.7,1.4c1.4,0,2.7-0.5,3.7-1.4c1.1-1,1.6-2.3,1.6-4.1
		s-0.5-3.2-1.6-4.1C48.8,12.2,47.6,11.7,46.1,11.7z"/>
	<path class="st0" d="M64.2,19.7h-1.5v6.9h-4.1V8.1h7.3c1.8,0,3.2,0.5,4.3,1.6s1.6,2.5,1.6,4.1c0,1.2-0.3,2.3-1,3.2s-1.5,1.6-2.7,2
		l3.7,7.5h-4.5L64.2,19.7z M65.2,16.2c0.8,0,1.5-0.2,1.9-0.6c0.5-0.4,0.7-0.9,0.7-1.6c0-0.7-0.2-1.2-0.7-1.6
		c-0.5-0.4-1.1-0.6-1.9-0.6h-2.4v4.5H65.2z"/>
	<path class="st0" d="M81.8,8.1c1.8,0,3.2,0.5,4.2,1.4c1,0.9,1.5,2.1,1.5,3.6c0,0.9-0.3,1.7-0.8,2.5c-0.5,0.7-1.2,1.2-1.9,1.5
		c0.9,0.2,1.7,0.7,2.3,1.5c0.6,0.8,1,1.7,1,2.8c0,1.5-0.5,2.8-1.6,3.8c-1.1,1-2.5,1.5-4.2,1.5h-7.4V8.1H81.8z M81.2,15.5
		c0.7,0,1.3-0.2,1.7-0.5c0.4-0.4,0.6-0.8,0.6-1.5c0-0.6-0.2-1.1-0.6-1.4c-0.4-0.4-1-0.5-1.8-0.5h-2.2v4H81.2z M81.5,23.2
		c0.8,0,1.4-0.2,1.9-0.6c0.5-0.4,0.7-0.9,0.7-1.6c0-0.6-0.2-1.2-0.7-1.6c-0.5-0.4-1.1-0.6-1.9-0.6h-2.6v4.3H81.5z"/>
	<path class="st0" d="M91,26.6V8.1h4.2v18.4H91z"/>
	<path class="st0" d="M107.4,12.1v14.5h-4.1V12.1h-5.7V8.1H113v3.9H107.4z"/>
	<path class="st0" d="M113,19.2v-3.6h7.8v3.6H113z"/>
	<path class="st0" d="M128.1,19.9v6.6H124V8.1h6.9c1.9,0,3.4,0.6,4.6,1.7c1.2,1.1,1.8,2.5,1.8,4.2c0,1.7-0.6,3.2-1.8,4.3
		c-1.2,1.1-2.7,1.6-4.6,1.6H128.1z M130.5,16.4c0.8,0,1.4-0.2,1.9-0.6c0.5-0.4,0.7-1,0.7-1.7c0-0.7-0.2-1.3-0.7-1.7
		c-0.5-0.4-1.1-0.6-1.9-0.6h-2.4v4.7H130.5z"/>
	<path class="st0" d="M145.3,19.7h-1.5v6.9h-4.1V8.1h7.3c1.8,0,3.2,0.5,4.3,1.6c1.1,1.1,1.6,2.5,1.6,4.1c0,1.2-0.3,2.3-1,3.2
		s-1.5,1.6-2.7,2l3.7,7.5h-4.5L145.3,19.7z M146.3,16.2c0.8,0,1.5-0.2,1.9-0.6c0.5-0.4,0.7-0.9,0.7-1.6c0-0.7-0.2-1.2-0.7-1.6
		c-0.5-0.4-1.1-0.6-1.9-0.6h-2.4v4.5H146.3z"/>
	<path class="st0" d="M157.7,10.4c1.9-1.8,4.1-2.7,6.8-2.7s4.9,0.9,6.8,2.7c1.9,1.8,2.8,4.1,2.8,6.9c0,2.8-0.9,5.1-2.8,6.9
		c-1.9,1.8-4.1,2.7-6.8,2.7s-4.9-0.9-6.8-2.7c-1.9-1.8-2.8-4.1-2.8-6.9C154.9,14.5,155.8,12.2,157.7,10.4z M164.5,11.7
		c-1.4,0-2.7,0.5-3.7,1.4c-1.1,1-1.6,2.3-1.6,4.1s0.5,3.2,1.6,4.1c1.1,1,2.3,1.4,3.7,1.4s2.7-0.5,3.7-1.4c1.1-1,1.6-2.3,1.6-4.1
		s-0.5-3.2-1.6-4.1C167.1,12.2,165.9,11.7,164.5,11.7z"/>
	<path class="st0" d="M193.8,26.6V14.3L189,26.6h-3.3l-4.8-12.1v12.1H177V8.1h5.4l5.1,12.4l4.8-12.4h5.6v18.4H193.8z"/>
	<path class="st0" d="M203.6,10.4c1.9-1.8,4.1-2.7,6.8-2.7s4.9,0.9,6.8,2.7c1.9,1.8,2.8,4.1,2.8,6.9c0,2.8-0.9,5.1-2.8,6.9
		c-1.9,1.8-4.1,2.7-6.8,2.7s-4.9-0.9-6.8-2.7c-1.9-1.8-2.8-4.1-2.8-6.9C200.8,14.5,201.7,12.2,203.6,10.4z M210.4,11.7
		c-1.4,0-2.7,0.5-3.7,1.4c-1.1,1-1.6,2.3-1.6,4.1s0.5,3.2,1.6,4.1c1.1,1,2.3,1.4,3.7,1.4s2.7-0.5,3.7-1.4c1.1-1,1.6-2.3,1.6-4.1
		s-0.5-3.2-1.6-4.1C213,12.2,211.8,11.7,210.4,11.7z"/>
	<path class="st0" d="M225.9,26c-0.5,0.5-1.2,0.8-1.9,0.8c-0.7,0-1.4-0.3-1.9-0.8s-0.8-1.2-0.8-1.9s0.3-1.4,0.8-1.9s1.1-0.8,1.9-0.8
		c0.7,0,1.4,0.3,1.9,0.8s0.8,1.1,0.8,1.9C226.7,24.8,226.5,25.4,225.9,26z"/>
	<path class="st0" d="M241.3,22.8h-7.1l-1.3,3.7h-4.3l6.9-18.4h4.8l6.9,18.4h-4.5L241.3,22.8z M235.6,19.1h4.5l-2.2-6.4L235.6,19.1z
		"/>
	<path class="st0" d="M248.7,26.6v-3.9l8.9-10.5h-8.5V8.1h14.1v3.8l-9.1,10.7h9.2v3.9H248.7z"/>
</g>
</svg>
