<?xml version="1.0" encoding="utf-8"?>
<!-- Generator: Adobe Illustrator 19.2.1, SVG Export Plug-In . SVG Version: 6.00 Build 0)  -->
<svg version="1.1" id="Layer_1" xmlns="http://www.w3.org/2000/svg" xmlns:xlink="http://www.w3.org/1999/xlink" x="0px" y="0px"
	 width="300px" height="30px" viewBox="0 0 300 30" style="enable-background:new 0 0 300 30;" xml:space="preserve">
<style type="text/css">
	.st0{fill:#FFFFFF;}
</style>
<g>
	<path class="st0" d="M25.8,25.5V4.3h13.7v4.5h-8.9v4.5h7.9v4.3h-7.8v7.9H25.8z"/>
	<path class="st0" d="M49.2,17.6h-1.7v7.9h-4.7V4.3h8.4c2.1,0,3.7,0.6,5,1.9c1.3,1.3,1.9,2.8,1.9,4.8c0,1.4-0.4,2.7-1.1,3.7
		s-1.8,1.8-3.1,2.3l4.3,8.6H53L49.2,17.6z M50.3,13.6c1,0,1.7-0.2,2.2-0.7c0.5-0.5,0.8-1.1,0.8-1.9c0-0.8-0.3-1.4-0.8-1.9
		c-0.5-0.5-1.3-0.7-2.2-0.7h-2.8v5.1H50.3z"/>
	<path class="st0" d="M61.6,25.5V4.3H75v4.5h-8.7v4h7.9V17h-7.9V21H75v4.5H61.6z"/>
	<path class="st0" d="M89.3,10.7c-0.1-0.7-0.4-1.3-1-1.8c-0.6-0.6-1.4-0.8-2.5-0.8c-0.9,0-1.6,0.2-2.1,0.7s-0.8,1-0.8,1.6
		c0,1.1,0.7,1.8,2.1,2l2.8,0.5c2,0.4,3.5,1.1,4.5,2.3c1.1,1.2,1.6,2.5,1.6,4.1c0,1.8-0.7,3.3-2.1,4.7c-1.4,1.3-3.3,2-5.7,2
		c-2.7,0-4.7-0.7-6.2-2.1c-1.5-1.4-2.3-3-2.5-4.7l4.3-1c0.1,1.1,0.5,1.9,1.2,2.6c0.7,0.7,1.8,1,3.2,1c0.9,0,1.6-0.2,2.2-0.6
		c0.5-0.4,0.8-0.9,0.8-1.6c0-0.5-0.2-1-0.6-1.4c-0.4-0.4-1-0.6-1.7-0.8L84,16.9c-1.8-0.3-3.2-1.1-4.2-2.2c-1-1.1-1.5-2.5-1.5-4
		c0-2,0.7-3.6,2.2-4.9c1.5-1.3,3.3-1.9,5.4-1.9c1.3,0,2.4,0.2,3.4,0.5c1,0.3,1.8,0.8,2.3,1.4c0.6,0.6,1,1.2,1.4,1.8
		c0.3,0.6,0.6,1.3,0.7,1.9L89.3,10.7z"/>
	<path class="st0" d="M110.4,25.5v-8.4h-8.5v8.4h-4.7V4.3h4.7v8.3h8.5V4.3h4.8v21.2H110.4z"/>
	<path class="st0" d="M131.8,17.9v7.6h-4.7V4.3h8c2.2,0,3.9,0.6,5.2,1.9c1.3,1.3,2,2.9,2,4.9c0,2-0.7,3.6-2,4.9
		c-1.3,1.3-3.1,1.9-5.2,1.9H131.8z M134.6,13.8c0.9,0,1.6-0.2,2.2-0.7c0.6-0.5,0.8-1.1,0.8-2c0-0.8-0.3-1.5-0.8-2
		c-0.5-0.5-1.3-0.7-2.2-0.7h-2.8v5.4H134.6z"/>
	<path class="st0" d="M145.2,25.5V4.3h4.8v21.2H145.2z"/>
	<path class="st0" d="M156.5,22.9c-2.1-2-3.2-4.7-3.2-7.9c0-3.2,1.1-5.9,3.2-8c2.1-2.1,4.7-3.1,7.7-3.1c1.5,0,2.9,0.2,4.1,0.7
		c1.2,0.4,2.2,1,3,1.8c0.8,0.7,1.4,1.5,1.8,2.3c0.5,0.8,0.8,1.6,1,2.4l-4.5,1.4c-0.1-0.4-0.3-0.8-0.5-1.2c-0.2-0.4-0.5-0.8-0.9-1.3
		c-0.4-0.4-0.9-0.8-1.6-1c-0.7-0.3-1.5-0.4-2.4-0.4c-1.6,0-3,0.6-4.2,1.7c-1.2,1.1-1.8,2.7-1.8,4.8c0,1.9,0.6,3.4,1.8,4.6
		c1.2,1.1,2.6,1.7,4.3,1.7c1.6,0,2.9-0.4,3.8-1.2c0.9-0.8,1.5-1.7,1.8-2.8l4.5,1.3c-0.2,0.8-0.5,1.6-1,2.4c-0.4,0.8-1.1,1.6-1.8,2.4
		c-0.8,0.8-1.8,1.4-3,1.9c-1.3,0.5-2.7,0.7-4.2,0.7C161.3,26,158.7,24.9,156.5,22.9z"/>
	<path class="st0" d="M184.8,17.2l-2.4,2.7v5.7h-4.7V4.3h4.7v8.9l7.7-8.9h6.2l-8.3,9.2l8.3,12h-5.9L184.8,17.2z"/>
	<path class="st0" d="M208.9,10.7c-0.1-0.7-0.4-1.3-1-1.8c-0.6-0.6-1.4-0.8-2.5-0.8c-0.9,0-1.6,0.2-2.1,0.7s-0.8,1-0.8,1.6
		c0,1.1,0.7,1.8,2.1,2l2.8,0.5c2,0.4,3.5,1.1,4.5,2.3c1.1,1.2,1.6,2.5,1.6,4.1c0,1.8-0.7,3.3-2.1,4.7c-1.4,1.3-3.3,2-5.7,2
		c-2.7,0-4.7-0.7-6.2-2.1c-1.5-1.4-2.3-3-2.5-4.7l4.3-1c0.1,1.1,0.5,1.9,1.2,2.6c0.7,0.7,1.8,1,3.2,1c0.9,0,1.6-0.2,2.2-0.6
		c0.5-0.4,0.8-0.9,0.8-1.6c0-0.5-0.2-1-0.6-1.4c-0.4-0.4-1-0.6-1.7-0.8l-2.9-0.5c-1.8-0.3-3.2-1.1-4.2-2.2s-1.5-2.5-1.5-4
		c0-2,0.7-3.6,2.2-4.9c1.5-1.3,3.3-1.9,5.4-1.9c1.3,0,2.4,0.2,3.4,0.5c1,0.3,1.8,0.8,2.3,1.4c0.6,0.6,1,1.2,1.4,1.8
		c0.3,0.6,0.6,1.3,0.7,1.9L208.9,10.7z"/>
	<path class="st0" d="M238.4,23.9c-1.6,1.4-3.6,2.1-6,2.1c-2.4,0-4.4-0.7-6-2.1c-1.6-1.4-2.4-3.4-2.4-6V4.3h4.7v13.2
		c0,1.3,0.3,2.2,1,2.9s1.5,1,2.7,1c1.2,0,2.1-0.3,2.7-1s1-1.6,1-2.9V4.3h4.7v13.5C240.7,20.4,239.9,22.4,238.4,23.9z"/>
	<path class="st0" d="M249.9,17.9v7.6h-4.7V4.3h8c2.2,0,3.9,0.6,5.2,1.9c1.3,1.3,2,2.9,2,4.9c0,2-0.7,3.6-2,4.9
		c-1.3,1.3-3.1,1.9-5.2,1.9H249.9z M252.7,13.8c0.9,0,1.6-0.2,2.2-0.7c0.6-0.5,0.8-1.1,0.8-2c0-0.8-0.3-1.5-0.8-2
		c-0.5-0.5-1.3-0.7-2.2-0.7h-2.8v5.4H252.7z"/>
</g>
</svg>
