<?xml version="1.0" encoding="utf-8"?>
<!-- Generator: Adobe Illustrator 19.2.1, SVG Export Plug-In . SVG Version: 6.00 Build 0)  -->
<svg version="1.1" id="Layer_1" xmlns="http://www.w3.org/2000/svg" xmlns:xlink="http://www.w3.org/1999/xlink" x="0px" y="0px"
	 width="367px" height="35px" viewBox="0 0 367 35" style="enable-background:new 0 0 367 35;" xml:space="preserve">
<style type="text/css">
	.st0{fill:#FFFFFF;}
</style>
<g>
	<path class="st0" d="M49.5,28.9V6.1h14.7v4.8h-9.6v4.8h8.5v4.6h-8.4v8.5H49.5z"/>
	<path class="st0" d="M67.8,28.9V6.1h5.1v18h9.9v4.9H67.8z"/>
	<path class="st0" d="M86.1,28.9V6.1h5.2v22.8H86.1z"/>
	<path class="st0" d="M103,20.4h-1.8v8.5h-5.1V6.1h9.1c2.2,0,4,0.7,5.4,2c1.4,1.4,2,3.1,2,5.1c0,1.5-0.4,2.9-1.2,4
		c-0.8,1.1-1.9,1.9-3.3,2.4l4.6,9.2h-5.6L103,20.4z M104.2,16c1,0,1.8-0.3,2.4-0.8s0.8-1.2,0.8-2c0-0.9-0.3-1.5-0.8-2
		c-0.6-0.5-1.4-0.7-2.4-0.7h-3V16H104.2z"/>
	<path class="st0" d="M126.6,10.9v18h-5.1v-18h-7V6.1h19.2v4.9H126.6z"/>
	<path class="st0" d="M144.7,28.9V6.1h14.7v4.8h-9.6v4.8h8.5v4.6h-8.4v8.5H144.7z"/>
	<path class="st0" d="M165,8.9c2.3-2.2,5.1-3.3,8.4-3.3c3.3,0,6.1,1.1,8.4,3.3c2.3,2.2,3.4,5.1,3.4,8.6c0,3.5-1.2,6.4-3.4,8.6
		c-2.3,2.2-5.1,3.3-8.4,3.3c-3.3,0-6.1-1.1-8.4-3.3c-2.3-2.2-3.5-5.1-3.5-8.6C161.5,14,162.7,11.1,165,8.9z M173.4,10.6
		c-1.8,0-3.3,0.6-4.6,1.8s-2,2.9-2,5.1c0,2.2,0.7,3.9,2,5.1c1.3,1.2,2.9,1.8,4.6,1.8c1.8,0,3.3-0.6,4.6-1.8c1.3-1.2,2-2.9,2-5.1
		c0-2.2-0.7-3.9-2-5.1C176.7,11.2,175.2,10.6,173.4,10.6z"/>
	<path class="st0" d="M195.8,20.4H194v8.5h-5.1V6.1h9.1c2.2,0,4,0.7,5.4,2c1.4,1.4,2,3.1,2,5.1c0,1.5-0.4,2.9-1.2,4
		c-0.8,1.1-1.9,1.9-3.3,2.4l4.6,9.2h-5.6L195.8,20.4z M197,16c1,0,1.8-0.3,2.4-0.8s0.8-1.2,0.8-2c0-0.9-0.3-1.5-0.8-2
		c-0.6-0.5-1.4-0.7-2.4-0.7h-3V16H197z"/>
	<path class="st0" d="M230.7,24.3h-8.8l-1.6,4.6h-5.3l8.6-22.8h5.9l8.5,22.8h-5.5L230.7,24.3z M223.6,19.6h5.5l-2.7-7.9L223.6,19.6z
		"/>
	<path class="st0" d="M256.3,19.9l-2.6,2.9v6.1h-5.1V6.1h5.1v9.6l8.3-9.6h6.7l-8.9,9.9l8.9,13h-6.3L256.3,19.9z"/>
	<path class="st0" d="M271.6,28.9V6.1h5.2v22.8H271.6z"/>
	<path class="st0" d="M292.9,13c-0.1-0.7-0.5-1.4-1.1-2c-0.6-0.6-1.5-0.9-2.7-0.9c-0.9,0-1.7,0.2-2.3,0.7c-0.6,0.5-0.9,1.1-0.9,1.7
		c0,1.2,0.8,1.9,2.3,2.2l3.1,0.6c2.1,0.4,3.7,1.2,4.9,2.5c1.1,1.3,1.7,2.7,1.7,4.4c0,1.9-0.8,3.6-2.3,5s-3.6,2.2-6.2,2.2
		c-2.9,0-5.1-0.7-6.7-2.2s-2.5-3.2-2.7-5.1l4.7-1.1c0.1,1.1,0.6,2.1,1.3,2.8s1.9,1.1,3.4,1.1c1,0,1.8-0.2,2.4-0.7s0.9-1,0.9-1.7
		c0-0.6-0.2-1.1-0.6-1.5s-1-0.7-1.8-0.8l-3.1-0.6c-1.9-0.4-3.5-1.1-4.6-2.4c-1.1-1.2-1.7-2.7-1.7-4.4c0-2.1,0.8-3.9,2.4-5.3
		s3.5-2.1,5.8-2.1c1.4,0,2.6,0.2,3.6,0.6c1.1,0.4,1.9,0.9,2.5,1.5s1.1,1.3,1.5,1.9c0.4,0.7,0.6,1.4,0.7,2.1L292.9,13z"/>
	<path class="st0" d="M312.5,13c-0.1-0.7-0.5-1.4-1.1-2c-0.6-0.6-1.5-0.9-2.7-0.9c-0.9,0-1.7,0.2-2.3,0.7c-0.6,0.5-0.9,1.1-0.9,1.7
		c0,1.2,0.8,1.9,2.3,2.2l3.1,0.6c2.1,0.4,3.7,1.2,4.9,2.5c1.1,1.3,1.7,2.7,1.7,4.4c0,1.9-0.8,3.6-2.3,5s-3.6,2.2-6.2,2.2
		c-2.9,0-5.1-0.7-6.7-2.2s-2.5-3.2-2.7-5.1l4.7-1.1c0.1,1.1,0.6,2.1,1.3,2.8s1.9,1.1,3.4,1.1c1,0,1.8-0.2,2.4-0.7s0.9-1,0.9-1.7
		c0-0.6-0.2-1.1-0.6-1.5s-1-0.7-1.8-0.8l-3.1-0.6c-1.9-0.4-3.5-1.1-4.6-2.4c-1.1-1.2-1.7-2.7-1.7-4.4c0-2.1,0.8-3.9,2.4-5.3
		s3.5-2.1,5.8-2.1c1.4,0,2.6,0.2,3.6,0.6c1.1,0.4,1.9,0.9,2.5,1.5s1.1,1.3,1.5,1.9c0.4,0.7,0.6,1.4,0.7,2.1L312.5,13z"/>
</g>
</svg>
