<?xml version="1.0" encoding="utf-8"?>
<!-- Generator: Adobe Illustrator 19.2.1, SVG Export Plug-In . SVG Version: 6.00 Build 0)  -->
<svg version="1.1" id="Layer_1" xmlns="http://www.w3.org/2000/svg" xmlns:xlink="http://www.w3.org/1999/xlink" x="0px" y="0px"
	 width="300px" height="30px" viewBox="0 0 300 30" style="enable-background:new 0 0 300 30;" xml:space="preserve">
<style type="text/css">
	.st0{fill:#FFFFFF;}
</style>
<g>
	<path class="st0" d="M33.1,25.5V4.4h13.6v4.5h-8.9v4.5h7.8v4.3h-7.8v7.9H33.1z"/>
	<path class="st0" d="M56.4,17.7h-1.7v7.9H50V4.4h8.4c2,0,3.7,0.6,5,1.9c1.3,1.3,1.9,2.8,1.9,4.7c0,1.4-0.4,2.7-1.1,3.7
		c-0.7,1-1.8,1.8-3.1,2.3l4.3,8.6h-5.2L56.4,17.7z M57.5,13.6c1,0,1.7-0.2,2.2-0.7c0.5-0.5,0.8-1.1,0.8-1.9c0-0.8-0.3-1.4-0.8-1.9
		c-0.5-0.5-1.3-0.7-2.2-0.7h-2.8v5.1H57.5z"/>
	<path class="st0" d="M68.7,25.5V4.4h13.4v4.4h-8.7v4h7.9V17h-7.9v4.1h8.7v4.5H68.7z"/>
	<path class="st0" d="M96.4,10.8c-0.1-0.7-0.4-1.3-1-1.8c-0.6-0.6-1.4-0.8-2.5-0.8c-0.9,0-1.5,0.2-2.1,0.7c-0.5,0.4-0.8,1-0.8,1.6
		c0,1.1,0.7,1.8,2.1,2l2.8,0.5c1.9,0.4,3.5,1.1,4.5,2.3c1.1,1.2,1.6,2.5,1.6,4.1c0,1.8-0.7,3.3-2.1,4.7c-1.4,1.3-3.3,2-5.7,2
		c-2.7,0-4.7-0.7-6.2-2.1s-2.3-2.9-2.5-4.7l4.3-1c0.1,1.1,0.5,1.9,1.2,2.6s1.8,1,3.1,1c0.9,0,1.6-0.2,2.2-0.6
		c0.5-0.4,0.8-0.9,0.8-1.6c0-0.5-0.2-1-0.6-1.4c-0.4-0.4-1-0.6-1.7-0.8L91.1,17c-1.8-0.3-3.2-1.1-4.2-2.2c-1-1.1-1.5-2.5-1.5-4
		c0-1.9,0.7-3.6,2.2-4.9C89.1,4.6,90.9,4,92.9,4c1.3,0,2.4,0.2,3.4,0.5c1,0.3,1.8,0.8,2.3,1.4c0.6,0.6,1,1.2,1.4,1.8
		c0.3,0.6,0.6,1.3,0.7,1.9L96.4,10.8z"/>
	<path class="st0" d="M117.4,25.5v-8.4H109v8.4h-4.7V4.4h4.7v8.3h8.4V4.4h4.7v21.1H117.4z"/>
	<path class="st0" d="M138.7,17.9v7.6H134V4.4h8c2.1,0,3.9,0.6,5.2,1.9c1.3,1.3,2,2.9,2,4.9c0,2-0.7,3.6-2,4.9
		c-1.3,1.3-3.1,1.9-5.2,1.9H138.7z M141.5,13.9c0.9,0,1.6-0.2,2.2-0.7c0.6-0.5,0.8-1.1,0.8-2c0-0.8-0.3-1.5-0.8-2
		c-0.5-0.5-1.3-0.7-2.2-0.7h-2.7v5.4H141.5z"/>
	<path class="st0" d="M152.1,25.5V4.4h4.8v21.1H152.1z"/>
	<path class="st0" d="M163.4,22.9c-2.1-2-3.2-4.7-3.2-7.9c0-3.2,1.1-5.9,3.2-7.9c2.1-2.1,4.7-3.1,7.7-3.1c1.5,0,2.9,0.2,4.1,0.7
		c1.2,0.4,2.2,1,3,1.8s1.4,1.5,1.8,2.3c0.5,0.8,0.8,1.6,1,2.4l-4.4,1.4c-0.1-0.4-0.3-0.8-0.5-1.2c-0.2-0.4-0.5-0.8-0.9-1.3
		c-0.4-0.4-0.9-0.8-1.6-1c-0.7-0.3-1.5-0.4-2.4-0.4c-1.6,0-3,0.6-4.2,1.7c-1.2,1.1-1.8,2.7-1.8,4.8c0,1.9,0.6,3.4,1.8,4.6
		c1.2,1.1,2.6,1.7,4.3,1.7c1.6,0,2.9-0.4,3.8-1.2s1.5-1.7,1.8-2.7l4.5,1.3c-0.2,0.8-0.5,1.6-1,2.4c-0.4,0.8-1.1,1.6-1.8,2.4
		c-0.8,0.8-1.8,1.4-3,1.9c-1.3,0.5-2.7,0.7-4.2,0.7C168.1,26,165.5,25,163.4,22.9z"/>
	<path class="st0" d="M191.5,17.2l-2.4,2.7v5.7h-4.7V4.4h4.7v8.9l7.7-8.9h6.2l-8.2,9.1l8.3,12h-5.9L191.5,17.2z"/>
	<path class="st0" d="M215.6,10.8c-0.1-0.7-0.4-1.3-1-1.8c-0.6-0.6-1.4-0.8-2.5-0.8c-0.9,0-1.5,0.2-2.1,0.7c-0.5,0.4-0.8,1-0.8,1.6
		c0,1.1,0.7,1.8,2.1,2l2.8,0.5c1.9,0.4,3.5,1.1,4.5,2.3c1.1,1.2,1.6,2.5,1.6,4.1c0,1.8-0.7,3.3-2.1,4.7c-1.4,1.3-3.3,2-5.7,2
		c-2.7,0-4.7-0.7-6.2-2.1s-2.3-2.9-2.5-4.7l4.3-1c0.1,1.1,0.5,1.9,1.2,2.6s1.8,1,3.1,1c0.9,0,1.6-0.2,2.2-0.6
		c0.5-0.4,0.8-0.9,0.8-1.6c0-0.5-0.2-1-0.6-1.4c-0.4-0.4-1-0.6-1.7-0.8l-2.9-0.5c-1.8-0.3-3.2-1.1-4.2-2.2c-1-1.1-1.5-2.5-1.5-4
		c0-1.9,0.7-3.6,2.2-4.9c1.5-1.3,3.3-1.9,5.3-1.9c1.3,0,2.4,0.2,3.4,0.5c1,0.3,1.8,0.8,2.3,1.4c0.6,0.6,1,1.2,1.4,1.8
		c0.3,0.6,0.6,1.3,0.7,1.9L215.6,10.8z"/>
	<path class="st0" d="M244.9,23.9c-1.6,1.4-3.6,2.1-6,2.1c-2.4,0-4.4-0.7-6-2.1c-1.6-1.4-2.4-3.4-2.4-6V4.4h4.7v13.1
		c0,1.3,0.3,2.2,1,2.9c0.6,0.7,1.5,1,2.7,1c1.2,0,2.1-0.3,2.7-1c0.6-0.7,1-1.6,1-2.9V4.4h4.7v13.5C247.3,20.5,246.5,22.5,244.9,23.9
		z"/>
	<path class="st0" d="M256.4,17.9v7.6h-4.7V4.4h8c2.1,0,3.9,0.6,5.2,1.9c1.3,1.3,2,2.9,2,4.9c0,2-0.7,3.6-2,4.9
		c-1.3,1.3-3.1,1.9-5.2,1.9H256.4z M259.2,13.9c0.9,0,1.6-0.2,2.2-0.7c0.6-0.5,0.8-1.1,0.8-2c0-0.8-0.3-1.5-0.8-2
		c-0.5-0.5-1.3-0.7-2.2-0.7h-2.7v5.4H259.2z"/>
</g>
</svg>
