<?xml version="1.0" encoding="utf-8"?>
<!-- Generator: Adobe Illustrator 19.2.1, SVG Export Plug-In . SVG Version: 6.00 Build 0)  -->
<svg version="1.1" id="Layer_1" xmlns="http://www.w3.org/2000/svg" xmlns:xlink="http://www.w3.org/1999/xlink" x="0px" y="0px"
	 width="300px" height="63px" viewBox="0 0 300 63" style="enable-background:new 0 0 300 63;" xml:space="preserve">
<style type="text/css">
	.st0{fill:#FFFFFF;}
</style>
<g>
	<path class="st0" d="M30.3,19.9h-8.2l-1.5,4.3h-4.9l8-21.1h5.5L37,24.2h-5.1L30.3,19.9z M23.7,15.6h5.1l-2.5-7.3L23.7,15.6z"/>
	<path class="st0" d="M52.9,24.2l-8.7-13.9v13.9h-4.7V3.1h5.7l7.9,12.8V3.1h4.7v21.1H52.9z"/>
	<path class="st0" d="M62.5,24.2V3.1h7.7c3.2,0,5.8,1,7.7,2.9c1.9,1.9,2.9,4.5,2.9,7.7c0,3.2-1,5.8-2.9,7.7
		c-1.9,1.9-4.5,2.8-7.7,2.8H62.5z M69.9,19.7c1.7,0,3.1-0.5,4.2-1.5c1.1-1,1.7-2.6,1.7-4.6c0-2-0.6-3.6-1.7-4.6
		c-1.1-1-2.5-1.5-4.2-1.5h-2.7v12.2H69.9z"/>
	<path class="st0" d="M93.4,21.6c-2.1-2-3.2-4.7-3.2-7.9c0-3.2,1.1-5.9,3.2-7.9c2.1-2.1,4.7-3.1,7.7-3.1c1.5,0,2.9,0.2,4.1,0.7
		c1.2,0.4,2.2,1,3,1.8c0.8,0.7,1.4,1.5,1.8,2.3c0.5,0.8,0.8,1.6,1,2.4l-4.4,1.4c-0.1-0.4-0.3-0.8-0.5-1.2c-0.2-0.4-0.5-0.8-0.9-1.3
		c-0.4-0.4-0.9-0.8-1.6-1c-0.7-0.3-1.5-0.4-2.4-0.4c-1.6,0-3,0.6-4.2,1.7c-1.2,1.1-1.8,2.7-1.8,4.8c0,1.9,0.6,3.4,1.8,4.6
		c1.2,1.1,2.6,1.7,4.3,1.7c1.6,0,2.9-0.4,3.8-1.2c0.9-0.8,1.5-1.7,1.8-2.7l4.5,1.3c-0.2,0.8-0.5,1.6-1,2.4c-0.4,0.8-1.1,1.6-1.8,2.4
		c-0.8,0.8-1.8,1.4-3,1.9c-1.3,0.5-2.7,0.7-4.2,0.7C98.1,24.6,95.5,23.6,93.4,21.6z"/>
	<path class="st0" d="M116.2,5.7c2.1-2,4.7-3.1,7.8-3.1c3.1,0,5.7,1,7.8,3.1c2.1,2,3.2,4.7,3.2,8s-1.1,5.9-3.2,7.9
		c-2.1,2-4.7,3.1-7.8,3.1c-3.1,0-5.7-1-7.8-3.1c-2.1-2-3.2-4.7-3.2-7.9C113,10.4,114.1,7.7,116.2,5.7z M124,7.2
		c-1.6,0-3.1,0.6-4.3,1.7s-1.8,2.7-1.8,4.8c0,2.1,0.6,3.6,1.8,4.7s2.6,1.6,4.3,1.6c1.6,0,3-0.5,4.3-1.6c1.2-1.1,1.8-2.7,1.8-4.7
		c0-2.1-0.6-3.7-1.8-4.8C127.1,7.8,125.7,7.2,124,7.2z"/>
	<path class="st0" d="M140.3,5.7c2.1-2,4.7-3.1,7.8-3.1c3.1,0,5.7,1,7.8,3.1c2.1,2,3.2,4.7,3.2,8s-1.1,5.9-3.2,7.9
		c-2.1,2-4.7,3.1-7.8,3.1c-3.1,0-5.7-1-7.8-3.1c-2.1-2-3.2-4.7-3.2-7.9C137.1,10.4,138.2,7.7,140.3,5.7z M148.1,7.2
		c-1.6,0-3.1,0.6-4.3,1.7s-1.8,2.7-1.8,4.8c0,2.1,0.6,3.6,1.8,4.7s2.6,1.6,4.3,1.6c1.6,0,3-0.5,4.3-1.6c1.2-1.1,1.8-2.7,1.8-4.7
		c0-2.1-0.6-3.7-1.8-4.8C151.2,7.8,149.8,7.2,148.1,7.2z"/>
	<path class="st0" d="M162.5,24.2V3.1h4.7v16.6h9.1v4.5H162.5z"/>
	<path class="st0" d="M191.4,16.6v7.6h-4.7V3.1h8c2.1,0,3.9,0.6,5.2,1.9c1.3,1.3,2,2.9,2,4.9c0,2-0.7,3.6-2,4.9
		c-1.3,1.3-3.1,1.9-5.2,1.9H191.4z M194.1,12.5c0.9,0,1.6-0.2,2.2-0.7c0.6-0.5,0.8-1.1,0.8-2c0-0.8-0.3-1.5-0.8-2
		c-0.5-0.5-1.3-0.7-2.2-0.7h-2.7v5.4H194.1z"/>
	<path class="st0" d="M211.2,16.3h-1.7v7.9h-4.7V3.1h8.4c2,0,3.7,0.6,5,1.9c1.3,1.3,1.9,2.8,1.9,4.7c0,1.4-0.4,2.7-1.1,3.7
		s-1.8,1.8-3.1,2.2l4.3,8.6h-5.2L211.2,16.3z M212.3,12.3c1,0,1.7-0.2,2.2-0.7c0.5-0.5,0.8-1.1,0.8-1.9c0-0.8-0.3-1.4-0.8-1.9
		c-0.5-0.5-1.3-0.7-2.2-0.7h-2.8v5.1H212.3z"/>
	<path class="st0" d="M223.5,24.2V3.1h4.8v21.1H223.5z"/>
	<path class="st0" d="M231.6,24.2v-4.5l10.2-12.1H232V3.1h16.2v4.3l-10.4,12.3h10.5v4.5H231.6z"/>
	<path class="st0" d="M252,24.2V3.1h13.4v4.4h-8.7v4h7.9v4.1h-7.9v4.1h8.7v4.5H252z"/>
	<path class="st0" d="M279.7,9.4c-0.1-0.7-0.4-1.3-1-1.8c-0.6-0.6-1.4-0.8-2.5-0.8c-0.9,0-1.5,0.2-2.1,0.7c-0.5,0.4-0.8,1-0.8,1.6
		c0,1.1,0.7,1.8,2.1,2l2.8,0.5c1.9,0.4,3.5,1.1,4.5,2.3s1.6,2.5,1.6,4.1c0,1.8-0.7,3.3-2.1,4.7s-3.3,2-5.7,2c-2.7,0-4.7-0.7-6.2-2.1
		c-1.5-1.4-2.3-2.9-2.5-4.7l4.3-1c0.1,1.1,0.5,1.9,1.2,2.6c0.7,0.7,1.8,1,3.1,1c0.9,0,1.6-0.2,2.2-0.6c0.5-0.4,0.8-0.9,0.8-1.6
		c0-0.5-0.2-1-0.6-1.4c-0.4-0.4-1-0.6-1.7-0.8l-2.9-0.5c-1.8-0.3-3.2-1.1-4.2-2.2c-1-1.1-1.5-2.5-1.5-4c0-1.9,0.7-3.6,2.2-4.9
		c1.5-1.3,3.3-1.9,5.3-1.9c1.3,0,2.4,0.2,3.4,0.5c1,0.3,1.8,0.8,2.3,1.4s1,1.2,1.4,1.8c0.3,0.6,0.6,1.3,0.7,1.9L279.7,9.4z"/>
	<path class="st0" d="M48,59.9V38.8h13.6v4.5h-8.9v4.5h7.8V52h-7.8v7.9H48z"/>
	<path class="st0" d="M71.3,52.1h-1.7v7.9h-4.7V38.8h8.4c2,0,3.7,0.6,5,1.9c1.3,1.3,1.9,2.8,1.9,4.7c0,1.4-0.4,2.7-1.1,3.7
		s-1.8,1.8-3.1,2.2l4.3,8.6h-5.2L71.3,52.1z M72.4,48c1,0,1.7-0.2,2.2-0.7c0.5-0.5,0.8-1.1,0.8-1.9c0-0.8-0.3-1.4-0.8-1.9
		c-0.5-0.5-1.3-0.7-2.2-0.7h-2.8V48H72.4z"/>
	<path class="st0" d="M85.5,41.4c2.1-2,4.7-3.1,7.8-3.1c3.1,0,5.7,1,7.8,3.1c2.1,2,3.2,4.7,3.2,8s-1.1,5.9-3.2,7.9
		c-2.1,2-4.7,3.1-7.8,3.1c-3.1,0-5.7-1-7.8-3.1c-2.1-2-3.2-4.7-3.2-7.9C82.3,46.1,83.3,43.5,85.5,41.4z M93.3,43
		c-1.6,0-3.1,0.6-4.3,1.7s-1.8,2.7-1.8,4.8c0,2.1,0.6,3.6,1.8,4.7s2.6,1.6,4.3,1.6c1.6,0,3-0.5,4.3-1.6c1.2-1.1,1.8-2.7,1.8-4.7
		c0-2.1-0.6-3.7-1.8-4.8C96.3,43.5,94.9,43,93.3,43z"/>
	<path class="st0" d="M126.9,59.9v-14l-5.5,14h-3.8l-5.5-13.8v13.8h-4.5V38.8h6.1l5.8,14.3l5.5-14.3h6.5v21.1H126.9z"/>
	<path class="st0" d="M145.4,41.4c2.1-2,4.7-3.1,7.8-3.1c3.1,0,5.7,1,7.8,3.1c2.1,2,3.2,4.7,3.2,8s-1.1,5.9-3.2,7.9
		c-2.1,2-4.7,3.1-7.8,3.1c-3.1,0-5.7-1-7.8-3.1c-2.1-2-3.2-4.7-3.2-7.9C142.2,46.1,143.3,43.5,145.4,41.4z M153.2,43
		c-1.6,0-3.1,0.6-4.3,1.7s-1.8,2.7-1.8,4.8c0,2.1,0.6,3.6,1.8,4.7s2.6,1.6,4.3,1.6c1.6,0,3-0.5,4.3-1.6s1.8-2.7,1.8-4.7
		c0-2.1-0.6-3.7-1.8-4.8S154.8,43,153.2,43z"/>
	<path class="st0" d="M173.9,52.1h-1.7v7.9h-4.7V38.8h8.4c2,0,3.7,0.6,5,1.9c1.3,1.3,1.9,2.8,1.9,4.7c0,1.4-0.4,2.7-1.1,3.7
		s-1.8,1.8-3.1,2.2l4.3,8.6h-5.2L173.9,52.1z M175,48c1,0,1.7-0.2,2.2-0.7c0.5-0.5,0.8-1.1,0.8-1.9c0-0.8-0.3-1.4-0.8-1.9
		c-0.5-0.5-1.3-0.7-2.2-0.7h-2.8V48H175z"/>
	<path class="st0" d="M194.1,38.8c2,0,3.7,0.5,4.8,1.6s1.8,2.4,1.8,4.1c0,1.1-0.3,2-0.9,2.8c-0.6,0.8-1.3,1.4-2.2,1.7
		c1,0.2,1.9,0.8,2.7,1.7c0.7,0.9,1.1,2,1.1,3.3c0,1.7-0.6,3.2-1.8,4.3c-1.2,1.1-2.8,1.7-4.8,1.7h-8.5V38.8H194.1z M193.4,47.3
		c0.8,0,1.5-0.2,2-0.6c0.5-0.4,0.7-1,0.7-1.7c0-0.7-0.2-1.2-0.7-1.7c-0.5-0.4-1.2-0.6-2.1-0.6h-2.5v4.6H193.4z M193.8,56.1
		c0.9,0,1.6-0.2,2.1-0.7c0.5-0.4,0.8-1,0.8-1.8c0-0.7-0.3-1.3-0.8-1.8c-0.5-0.5-1.2-0.7-2.1-0.7h-3v4.9H193.8z"/>
	<path class="st0" d="M204.6,59.9V38.8h4.8v21.1H204.6z"/>
	<path class="st0" d="M223.4,43.3v16.6h-4.7V43.3h-6.5v-4.5H230v4.5H223.4z"/>
	<path class="st0" d="M237.6,50.3c-1.8,0-3.3-0.6-4.5-1.9c-1.3-1.3-1.9-2.8-1.9-4.5s0.6-3.3,1.9-4.6c1.3-1.3,2.8-1.9,4.5-1.9
		s3.3,0.6,4.6,1.9c1.3,1.3,1.9,2.8,1.9,4.6s-0.6,3.3-1.9,4.5C240.9,49.7,239.3,50.3,237.6,50.3z M237.6,38.8c-1.4,0-2.5,0.5-3.5,1.5
		c-0.9,1-1.4,2.2-1.4,3.6s0.5,2.6,1.4,3.6c0.9,1,2.1,1.5,3.5,1.5s2.5-0.5,3.5-1.5c0.9-1,1.4-2.2,1.4-3.6s-0.5-2.6-1.4-3.6
		C240.1,39.3,239,38.8,237.6,38.8z M237.5,45H237v2.3h-1.8v-6.9h2.9c0.7,0,1.2,0.2,1.7,0.7c0.5,0.4,0.7,1,0.7,1.6
		c0,0.4-0.1,0.8-0.3,1.2c-0.2,0.4-0.5,0.6-0.9,0.8l1.3,2.6h-2L237.5,45z M237.7,43.5c0.3,0,0.5-0.1,0.7-0.2c0.2-0.2,0.2-0.4,0.2-0.6
		s-0.1-0.5-0.2-0.6c-0.2-0.2-0.4-0.2-0.7-0.2H237v1.7H237.7z"/>
	<path class="st0" d="M251.5,53.3h-3.3l-1-14.5h5.4L251.5,53.3z M248,55.8c0.5-0.5,1.1-0.8,1.8-0.8s1.3,0.3,1.8,0.8
		c0.5,0.5,0.8,1.1,0.8,1.8c0,0.7-0.3,1.3-0.8,1.8c-0.5,0.5-1.1,0.8-1.8,0.8s-1.3-0.3-1.8-0.8c-0.5-0.5-0.7-1.1-0.7-1.8
		C247.2,57,247.5,56.3,248,55.8z"/>
</g>
</svg>
