<?xml version="1.0" encoding="utf-8"?>
<!-- Generator: Adobe Illustrator 19.2.1, SVG Export Plug-In . SVG Version: 6.00 Build 0)  -->
<svg version="1.1" id="Layer_1" xmlns="http://www.w3.org/2000/svg" xmlns:xlink="http://www.w3.org/1999/xlink" x="0px" y="0px"
	 width="300px" height="48px" viewBox="0 0 300 48" style="enable-background:new 0 0 300 48;" xml:space="preserve">
<style type="text/css">
	.st0{fill:#FFFFFF;}
</style>
<g>
	<path class="st0" d="M48.6,34.8H34.3l-2.7,7.5h-8.7l14-37.2h9.6l13.8,37.2h-9L48.6,34.8z M37,27.2h9l-4.5-12.8L37,27.2z"/>
	<path class="st0" d="M88.4,42.3L73.1,17.9v24.4h-8.2V5.2h10.1l13.9,22.6V5.2h8.3v37.2H88.4z"/>
	<path class="st0" d="M105.2,42.3V5.2h13.5c5.6,0,10.1,1.7,13.5,5c3.4,3.4,5.1,7.9,5.1,13.6c0,5.7-1.7,10.2-5.1,13.6
		c-3.4,3.3-7.9,5-13.6,5H105.2z M118.3,34.5c3,0,5.5-0.9,7.5-2.7c1.9-1.8,2.9-4.5,2.9-8c0-3.6-1-6.3-2.9-8.1
		c-1.9-1.8-4.4-2.7-7.5-2.7h-4.8v21.5H118.3z"/>
	<path class="st0" d="M197.5,5.2h8.5l-10.1,37.2h-8.5l-7.9-24.6l-8,24.6h-8.7L152.7,5.2h8.8l6.1,23.8l7.7-23.8h8.5l7.7,23.8
		L197.5,5.2z"/>
	<path class="st0" d="M210.6,42.3V5.2h8.4v37.2H210.6z"/>
	<path class="st0" d="M250.5,42.3l-15.3-24.4v24.4H227V5.2h10.1L251,27.7V5.2h8.3v37.2H250.5z"/>
	<path class="st0" d="M275.3,30.7h-5.9l-1.8-25.5h9.5L275.3,30.7z M269.1,35.1c0.9-0.9,1.9-1.3,3.2-1.3s2.3,0.4,3.2,1.3
		c0.9,0.9,1.3,2,1.3,3.2c0,1.2-0.4,2.3-1.3,3.2c-0.9,0.9-2,1.3-3.2,1.3s-2.3-0.4-3.2-1.3c-0.9-0.9-1.3-1.9-1.3-3.2
		C267.8,37.1,268.2,36,269.1,35.1z"/>
</g>
</svg>
