<?xml version="1.0" encoding="utf-8"?>
<!-- Generator: Adobe Illustrator 19.2.1, SVG Export Plug-In . SVG Version: 6.00 Build 0)  -->
<svg version="1.1" id="Layer_1" xmlns="http://www.w3.org/2000/svg" xmlns:xlink="http://www.w3.org/1999/xlink" x="0px" y="0px"
	 width="367px" height="35px" viewBox="0 0 367 35" style="enable-background:new 0 0 367 35;" xml:space="preserve">
<style type="text/css">
	.st0{fill:#FFFFFF;}
</style>
<g>
	<path class="st0" d="M15.9,22.5h-6l-1.1,3.2H5.1l5.9-15.6h4l5.8,15.6H17L15.9,22.5z M11,19.3h3.8l-1.9-5.4L11,19.3z"/>
	<path class="st0" d="M32.5,25.6l-6.4-10.2v10.2h-3.5V10.1h4.2l5.8,9.5v-9.5h3.5v15.6H32.5z"/>
	<path class="st0" d="M39.6,25.6V10.1h5.6c2.4,0,4.3,0.7,5.7,2.1c1.4,1.4,2.1,3.3,2.1,5.7c0,2.4-0.7,4.3-2.1,5.7
		c-1.4,1.4-3.3,2.1-5.7,2.1H39.6z M45.1,22.4c1.3,0,2.3-0.4,3.1-1.1c0.8-0.8,1.2-1.9,1.2-3.4c0-1.5-0.4-2.6-1.2-3.4
		c-0.8-0.8-1.9-1.1-3.1-1.1h-2v9H45.1z"/>
	<path class="st0" d="M62.4,23.7c-1.6-1.5-2.3-3.4-2.3-5.8c0-2.4,0.8-4.3,2.4-5.9c1.6-1.5,3.5-2.3,5.7-2.3c1.1,0,2.1,0.2,3,0.5
		c0.9,0.3,1.6,0.8,2.2,1.3c0.6,0.5,1,1.1,1.3,1.7c0.3,0.6,0.6,1.2,0.7,1.8l-3.3,1c-0.1-0.3-0.2-0.6-0.4-0.9
		c-0.2-0.3-0.4-0.6-0.7-0.9c-0.3-0.3-0.7-0.6-1.2-0.8c-0.5-0.2-1.1-0.3-1.7-0.3c-1.2,0-2.2,0.4-3.1,1.2c-0.9,0.8-1.3,2-1.3,3.5
		c0,1.4,0.4,2.5,1.3,3.4c0.9,0.8,1.9,1.3,3.2,1.3c1.2,0,2.1-0.3,2.8-0.9c0.7-0.6,1.1-1.3,1.3-2l3.3,0.9c-0.1,0.6-0.4,1.2-0.7,1.8
		c-0.3,0.6-0.8,1.2-1.3,1.7c-0.6,0.6-1.3,1-2.2,1.4c-0.9,0.4-2,0.5-3.1,0.5C65.9,26,63.9,25.2,62.4,23.7z"/>
	<path class="st0" d="M79.3,12c1.6-1.5,3.5-2.3,5.7-2.3c2.3,0,4.2,0.8,5.7,2.3c1.6,1.5,2.4,3.5,2.4,5.9s-0.8,4.4-2.4,5.9
		C89.2,25.2,87.3,26,85,26c-2.3,0-4.2-0.8-5.7-2.3c-1.6-1.5-2.4-3.5-2.4-5.9C76.9,15.4,77.7,13.5,79.3,12z M85,13.1
		c-1.2,0-2.3,0.4-3.2,1.2c-0.9,0.8-1.4,2-1.4,3.5c0,1.5,0.5,2.7,1.4,3.5c0.9,0.8,2,1.2,3.2,1.2s2.2-0.4,3.1-1.2
		c0.9-0.8,1.3-2,1.3-3.5c0-1.5-0.4-2.7-1.3-3.5C87.3,13.5,86.2,13.1,85,13.1z"/>
	<path class="st0" d="M97,12c1.6-1.5,3.5-2.3,5.7-2.3c2.3,0,4.2,0.8,5.7,2.3c1.6,1.5,2.4,3.5,2.4,5.9s-0.8,4.4-2.4,5.9
		c-1.6,1.5-3.5,2.3-5.7,2.3c-2.3,0-4.2-0.8-5.7-2.3c-1.6-1.5-2.4-3.5-2.4-5.9C94.7,15.4,95.5,13.5,97,12z M102.8,13.1
		c-1.2,0-2.3,0.4-3.2,1.2c-0.9,0.8-1.4,2-1.4,3.5c0,1.5,0.5,2.7,1.4,3.5c0.9,0.8,2,1.2,3.2,1.2s2.2-0.4,3.1-1.2
		c0.9-0.8,1.3-2,1.3-3.5c0-1.5-0.4-2.7-1.3-3.5C105,13.5,104,13.1,102.8,13.1z"/>
	<path class="st0" d="M113.4,25.6V10.1h3.5v12.3h6.7v3.3H113.4z"/>
	<path class="st0" d="M134.7,20v5.6h-3.5V10.1h5.9c1.6,0,2.9,0.5,3.9,1.4c1,0.9,1.5,2.1,1.5,3.6c0,1.5-0.5,2.7-1.5,3.6
		c-1,0.9-2.3,1.4-3.9,1.4H134.7z M136.7,17c0.7,0,1.2-0.2,1.6-0.5c0.4-0.4,0.6-0.8,0.6-1.4c0-0.6-0.2-1.1-0.6-1.5
		c-0.4-0.4-0.9-0.5-1.6-0.5h-2v4H136.7z"/>
	<path class="st0" d="M149.3,19.8h-1.2v5.8h-3.5V10.1h6.2c1.5,0,2.7,0.5,3.7,1.4c0.9,0.9,1.4,2.1,1.4,3.5c0,1.1-0.3,2-0.8,2.7
		c-0.5,0.8-1.3,1.3-2.3,1.7l3.2,6.3h-3.8L149.3,19.8z M150.1,16.8c0.7,0,1.2-0.2,1.6-0.5c0.4-0.3,0.6-0.8,0.6-1.4
		c0-0.6-0.2-1-0.6-1.4c-0.4-0.3-0.9-0.5-1.6-0.5h-2v3.8H150.1z"/>
	<path class="st0" d="M158.4,25.6V10.1h3.5v15.6H158.4z"/>
	<path class="st0" d="M164.4,25.6v-3.3l7.5-8.9h-7.2v-3.3h12v3.2l-7.7,9.1h7.8v3.3H164.4z"/>
	<path class="st0" d="M179.4,25.6V10.1h9.9v3.3h-6.4v3h5.8v3.1h-5.8v3h6.4v3.3H179.4z"/>
	<path class="st0" d="M199.8,14.8c-0.1-0.5-0.3-0.9-0.7-1.3c-0.4-0.4-1-0.6-1.9-0.6c-0.6,0-1.1,0.2-1.5,0.5
		c-0.4,0.3-0.6,0.7-0.6,1.2c0,0.8,0.5,1.3,1.5,1.5l2.1,0.4c1.4,0.3,2.5,0.8,3.3,1.7c0.8,0.9,1.2,1.9,1.2,3c0,1.3-0.5,2.5-1.6,3.4
		c-1,1-2.4,1.5-4.2,1.5c-2,0-3.5-0.5-4.6-1.5c-1.1-1-1.7-2.2-1.8-3.5l3.2-0.8c0.1,0.8,0.4,1.4,0.9,1.9c0.5,0.5,1.3,0.8,2.3,0.8
		c0.7,0,1.2-0.2,1.6-0.5c0.4-0.3,0.6-0.7,0.6-1.2c0-0.4-0.1-0.7-0.4-1c-0.3-0.3-0.7-0.5-1.2-0.6l-2.1-0.4c-1.3-0.2-2.4-0.8-3.1-1.6
		c-0.8-0.8-1.1-1.8-1.1-3c0-1.4,0.5-2.6,1.6-3.6c1.1-1,2.4-1.4,3.9-1.4c0.9,0,1.7,0.1,2.5,0.4c0.7,0.3,1.3,0.6,1.7,1
		c0.4,0.4,0.8,0.9,1,1.3c0.2,0.5,0.4,0.9,0.5,1.4L199.8,14.8z"/>
	<path class="st0" d="M211,25.6V10.1h10v3.3h-6.6v3.3h5.8v3.2h-5.8v5.8H211z"/>
	<path class="st0" d="M228.2,19.8H227v5.8h-3.5V10.1h6.2c1.5,0,2.7,0.5,3.7,1.4c0.9,0.9,1.4,2.1,1.4,3.5c0,1.1-0.3,2-0.8,2.7
		c-0.5,0.8-1.3,1.3-2.3,1.7l3.2,6.3H231L228.2,19.8z M229,16.8c0.7,0,1.2-0.2,1.6-0.5c0.4-0.3,0.6-0.8,0.6-1.4c0-0.6-0.2-1-0.6-1.4
		c-0.4-0.3-0.9-0.5-1.6-0.5h-2v3.8H229z"/>
	<path class="st0" d="M238.7,12c1.6-1.5,3.5-2.3,5.7-2.3c2.3,0,4.2,0.8,5.7,2.3c1.6,1.5,2.4,3.5,2.4,5.9s-0.8,4.4-2.4,5.9
		c-1.6,1.5-3.5,2.3-5.7,2.3c-2.3,0-4.2-0.8-5.7-2.3c-1.6-1.5-2.4-3.5-2.4-5.9C236.3,15.4,237.1,13.5,238.7,12z M244.4,13.1
		c-1.2,0-2.3,0.4-3.2,1.2c-0.9,0.8-1.4,2-1.4,3.5c0,1.5,0.5,2.7,1.4,3.5c0.9,0.8,2,1.2,3.2,1.2c1.2,0,2.2-0.4,3.1-1.2
		c0.9-0.8,1.3-2,1.3-3.5c0-1.5-0.4-2.7-1.3-3.5C246.7,13.5,245.6,13.1,244.4,13.1z"/>
	<path class="st0" d="M269.2,25.6V15.3l-4.1,10.3h-2.8l-4.1-10.2v10.2H255V10.1h4.5l4.3,10.5l4.1-10.5h4.8v15.6H269.2z"/>
	<path class="st0" d="M282.9,12c1.6-1.5,3.5-2.3,5.7-2.3c2.3,0,4.2,0.8,5.7,2.3c1.6,1.5,2.4,3.5,2.4,5.9s-0.8,4.4-2.4,5.9
		c-1.6,1.5-3.5,2.3-5.7,2.3c-2.3,0-4.2-0.8-5.7-2.3c-1.6-1.5-2.4-3.5-2.4-5.9C280.5,15.4,281.3,13.5,282.9,12z M288.7,13.1
		c-1.2,0-2.3,0.4-3.2,1.2c-0.9,0.8-1.4,2-1.4,3.5c0,1.5,0.5,2.7,1.4,3.5c0.9,0.8,2,1.2,3.2,1.2c1.2,0,2.2-0.4,3.1-1.2
		c0.9-0.8,1.3-2,1.3-3.5c0-1.5-0.4-2.7-1.3-3.5C290.9,13.5,289.9,13.1,288.7,13.1z"/>
	<path class="st0" d="M303.9,19.8h-1.2v5.8h-3.5V10.1h6.2c1.5,0,2.7,0.5,3.7,1.4s1.4,2.1,1.4,3.5c0,1.1-0.3,2-0.8,2.7
		c-0.5,0.8-1.3,1.3-2.3,1.7l3.2,6.3h-3.8L303.9,19.8z M304.8,16.8c0.7,0,1.2-0.2,1.6-0.5c0.4-0.3,0.6-0.8,0.6-1.4
		c0-0.6-0.2-1-0.6-1.4c-0.4-0.3-0.9-0.5-1.6-0.5h-2v3.8H304.8z"/>
	<path class="st0" d="M318.9,10.1c1.5,0,2.7,0.4,3.6,1.2c0.9,0.8,1.3,1.8,1.3,3c0,0.8-0.2,1.5-0.6,2.1c-0.4,0.6-1,1-1.6,1.3
		c0.8,0.2,1.4,0.6,2,1.2c0.5,0.7,0.8,1.5,0.8,2.4c0,1.3-0.5,2.3-1.4,3.2c-0.9,0.8-2.1,1.2-3.5,1.2H313V10.1H318.9z M318.3,16.3
		c0.6,0,1.1-0.1,1.5-0.5c0.4-0.3,0.5-0.7,0.5-1.2c0-0.5-0.2-0.9-0.5-1.2c-0.4-0.3-0.9-0.5-1.5-0.5h-1.8v3.4H318.3z M318.6,22.8
		c0.7,0,1.2-0.2,1.6-0.5c0.4-0.3,0.6-0.8,0.6-1.3c0-0.5-0.2-1-0.6-1.3c-0.4-0.3-0.9-0.5-1.6-0.5h-2.2v3.6H318.6z"/>
	<path class="st0" d="M326.6,25.6V10.1h3.5v15.6H326.6z"/>
	<path class="st0" d="M340.5,13.4v12.3H337V13.4h-4.8v-3.3h13.1v3.3H340.5z"/>
	<path class="st0" d="M350.9,18.5c-1.3,0-2.4-0.5-3.4-1.4c-0.9-0.9-1.4-2-1.4-3.4s0.5-2.4,1.4-3.4c0.9-0.9,2-1.4,3.4-1.4
		c1.3,0,2.4,0.5,3.4,1.4c0.9,0.9,1.4,2.1,1.4,3.4s-0.5,2.4-1.4,3.4C353.3,18.1,352.2,18.5,350.9,18.5z M350.9,10.1
		c-1,0-1.9,0.4-2.6,1.1c-0.7,0.7-1,1.6-1,2.6c0,1,0.3,1.9,1,2.6c0.7,0.7,1.5,1.1,2.6,1.1s1.9-0.4,2.6-1.1c0.7-0.7,1-1.6,1-2.6
		c0-1-0.3-1.9-1-2.6C352.8,10.4,351.9,10.1,350.9,10.1z M350.9,14.6h-0.4v1.7h-1.3v-5.1h2.1c0.5,0,0.9,0.2,1.2,0.5
		c0.3,0.3,0.5,0.7,0.5,1.2c0,0.3-0.1,0.6-0.3,0.9c-0.2,0.3-0.4,0.5-0.7,0.6l1,1.9h-1.5L350.9,14.6z M351,13.5c0.2,0,0.4-0.1,0.5-0.2
		c0.1-0.1,0.2-0.3,0.2-0.4s-0.1-0.3-0.2-0.4c-0.1-0.1-0.3-0.2-0.5-0.2h-0.6v1.2H351z"/>
	<path class="st0" d="M361.2,20.8h-2.5l-0.8-10.7h4L361.2,20.8z M358.6,22.6c0.4-0.4,0.8-0.6,1.3-0.6c0.5,0,1,0.2,1.4,0.6
		c0.4,0.4,0.6,0.8,0.6,1.4c0,0.5-0.2,1-0.6,1.3c-0.4,0.4-0.8,0.6-1.4,0.6c-0.5,0-1-0.2-1.3-0.6c-0.4-0.4-0.6-0.8-0.6-1.3
		C358,23.4,358.2,23,358.6,22.6z"/>
</g>
</svg>
