<?xml version="1.0" encoding="utf-8"?>
<!-- Generator: Adobe Illustrator 19.2.1, SVG Export Plug-In . SVG Version: 6.00 Build 0)  -->
<svg version="1.1" id="Layer_1" xmlns="http://www.w3.org/2000/svg" xmlns:xlink="http://www.w3.org/1999/xlink" x="0px" y="0px"
	 width="300px" height="63px" viewBox="0 0 300 63" style="enable-background:new 0 0 300 63;" xml:space="preserve">
<style type="text/css">
	.st0{fill:#FFFFFF;}
</style>
<g>
	<path class="st0" d="M93.8,4h4.9l-7.6,20.7h-4.8L78.8,4h5.1l5,14.6L93.8,4z"/>
	<path class="st0" d="M118.4,6.6c2.1,2,3.1,4.6,3.1,7.8s-1,5.8-3.1,7.7c-2.1,2-4.6,3-7.6,3s-5.5-1-7.6-3s-3.1-4.6-3.1-7.7
		c0-0.6,0.1-1.3,0.2-2h16.3c-0.3-1.1-0.8-2-1.5-2.7c-1.2-1.1-2.6-1.6-4.1-1.6s-3,0.5-4.2,1.6c-0.3,0.2-0.5,0.5-0.7,0.8l-4.5-1.6
		c0.5-0.9,1.1-1.6,1.8-2.3c2.1-2,4.6-3,7.6-3C113.8,3.6,116.3,4.6,118.4,6.6z M110.8,20.6c1.6,0,3-0.5,4.1-1.6
		c0.7-0.6,1.1-1.3,1.4-2.3h-11.2c0.3,0.9,0.8,1.7,1.5,2.3C107.8,20,109.2,20.6,110.8,20.6z"/>
	<path class="st0" d="M142.1,10.3c-0.1-0.6-0.4-1.2-1-1.8c-0.5-0.5-1.4-0.8-2.5-0.8c-0.8,0-1.5,0.2-2,0.7c-0.5,0.4-0.8,1-0.8,1.6
		c0,1.1,0.7,1.7,2,2l2.8,0.5c1.9,0.3,3.4,1.1,4.4,2.2s1.6,2.5,1.6,4c0,1.7-0.7,3.3-2.1,4.6c-1.4,1.3-3.2,2-5.6,2
		c-2.6,0-4.6-0.7-6.1-2c-1.4-1.4-2.2-2.9-2.4-4.6l4.2-1c0.1,1,0.5,1.9,1.2,2.6s1.7,1,3.1,1c0.9,0,1.6-0.2,2.1-0.6s0.8-0.9,0.8-1.6
		c0-0.5-0.2-1-0.6-1.3c-0.4-0.4-0.9-0.6-1.6-0.7l-2.8-0.5c-1.8-0.3-3.1-1-4.1-2.1s-1.5-2.4-1.5-3.9c0-1.9,0.7-3.5,2.2-4.8
		s3.2-1.9,5.2-1.9c1.2,0,2.3,0.2,3.3,0.5s1.7,0.8,2.3,1.4s1,1.1,1.3,1.8s0.5,1.2,0.7,1.9L142.1,10.3z"/>
	<path class="st0" d="M163.7,23.1c-1.5,1.4-3.5,2.1-5.9,2.1s-4.3-0.7-5.9-2.1c-1.5-1.4-2.3-3.3-2.3-5.9V4h4.6v12.9
		c0,1.2,0.3,2.2,1,2.8c0.6,0.6,1.5,1,2.6,1s2-0.3,2.6-1c0.6-0.6,1-1.6,1-2.8V4h4.6v13.2C166,19.8,165.3,21.7,163.7,23.1z"/>
	<path class="st0" d="M175,17.3v7.5h-4.6V4h7.8c2.1,0,3.8,0.6,5.1,1.9c1.3,1.2,2,2.8,2,4.8s-0.7,3.6-2,4.8s-3,1.8-5.1,1.8
		C178.2,17.3,175,17.3,175,17.3z M177.7,13.3c0.9,0,1.6-0.2,2.1-0.7s0.8-1.1,0.8-1.9c0-0.8-0.3-1.5-0.8-1.9
		c-0.5-0.5-1.3-0.7-2.1-0.7H175v5.3h2.7V13.3z"/>
	<path class="st0" d="M188.1,24.7V4h13.1v4.4h-8.5v3.9h7.7v4.1h-7.7v4h8.5v4.4L188.1,24.7L188.1,24.7z"/>
	<path class="st0" d="M211.4,17h-1.6v7.7h-4.6V4h8.2c2,0,3.6,0.6,4.9,1.8c1.2,1.2,1.9,2.8,1.9,4.6c0,1.4-0.4,2.6-1.1,3.6
		c-0.7,1-1.7,1.8-3,2.2l4.2,8.4h-5.1L211.4,17z M212.5,13c0.9,0,1.7-0.2,2.2-0.7s0.8-1.1,0.8-1.8c0-0.8-0.3-1.4-0.8-1.8
		c-0.5-0.4-1.2-0.7-2.2-0.7h-2.7v5H212.5z"/>
	<path class="st0" d="M66.2,55.8v-8.2h-8.3v8.2h-4.6V35.1h4.6v8.1h8.3v-8.1h4.6v20.7H66.2z"/>
	<path class="st0" d="M92.5,37.6c2.1,2,3.1,4.6,3.1,7.8s-1,5.8-3.1,7.7c-2.1,2-4.6,3-7.6,3s-5.5-1-7.6-3s-3.1-4.6-3.1-7.7
		c0-0.6,0.1-1.3,0.2-2h16.3c-0.3-1.1-0.8-2-1.5-2.7c-1.2-1.1-2.6-1.6-4.1-1.6s-3,0.5-4.2,1.6c-0.3,0.2-0.5,0.5-0.7,0.8L75.5,40
		c0.5-0.9,1.1-1.6,1.8-2.3c2.1-2,4.6-3,7.6-3S90.4,35.7,92.5,37.6z M84.9,51.6c1.6,0,3-0.5,4.1-1.6c0.7-0.6,1.1-1.3,1.4-2.3H79.2
		c0.3,0.9,0.8,1.7,1.5,2.3C81.9,51.1,83.3,51.6,84.9,51.6z"/>
	<path class="st0" d="M98.9,55.8V35.1h7.5c3.1,0,5.7,0.9,7.6,2.8c1.9,1.9,2.8,4.4,2.8,7.6c0,3.2-0.9,5.7-2.8,7.6
		c-1.9,1.9-4.4,2.8-7.6,2.8L98.9,55.8L98.9,55.8z M106.2,51.4c1.7,0,3.1-0.5,4.2-1.5s1.6-2.5,1.6-4.5s-0.5-3.5-1.6-4.5
		s-2.5-1.5-4.2-1.5h-2.7v12H106.2z"/>
	<path class="st0" d="M120.1,55.8V35.1h4.7v20.7H120.1z"/>
	<path class="st0" d="M127.3,35.1h5.4l4.2,7.7l4.3-7.7h5.1L139,47.2v8.6h-4.6v-8.6L127.3,35.1z"/>
	<path class="st0" d="M147.3,35.1h5.4l4.2,7.7l4.3-7.7h5.1L159,47.2v8.6h-4.6v-8.6L147.3,35.1z"/>
	<path class="st0" d="M186,37.6c2.1,2,3.1,4.6,3.1,7.8s-1,5.8-3.1,7.7c-2.1,2-4.6,3-7.6,3s-5.5-1-7.6-3s-3.1-4.6-3.1-7.7
		c0-0.6,0.1-1.3,0.2-2h16.3c-0.3-1.1-0.8-2-1.5-2.7c-1.2-1.1-2.6-1.6-4.1-1.6s-3,0.5-4.2,1.6c-0.3,0.2-0.5,0.5-0.7,0.8L169,40
		c0.5-0.9,1.1-1.6,1.8-2.3c2.1-2,4.6-3,7.6-3C181.4,34.7,184,35.7,186,37.6z M178.4,51.6c1.6,0,3-0.5,4.1-1.6
		c0.7-0.6,1.1-1.3,1.4-2.3h-11.2c0.3,0.9,0.8,1.7,1.5,2.3C175.5,51.1,176.9,51.6,178.4,51.6z"/>
	<path class="st0" d="M192.5,55.8V35.1h4.6v16.3h8.9v4.4H192.5z"/>
	<path class="st0" d="M226.2,37.6c2.1,2,3.1,4.6,3.1,7.8s-1,5.8-3.1,7.7c-2.1,2-4.6,3-7.6,3s-5.5-1-7.6-3s-3.1-4.6-3.1-7.7
		c0-0.6,0.1-1.3,0.2-2h16.3c-0.3-1.1-0.8-2-1.5-2.7c-1.2-1.1-2.6-1.6-4.1-1.6s-3,0.5-4.2,1.6c-0.3,0.2-0.5,0.5-0.7,0.8l-4.5-1.6
		c0.5-0.9,1.1-1.6,1.8-2.3c2.1-2,4.6-3,7.6-3C221.5,34.7,224.1,35.7,226.2,37.6z M218.6,51.6c1.6,0,3-0.5,4.1-1.6
		c0.7-0.6,1.1-1.3,1.4-2.3h-11.2c0.3,0.9,0.8,1.7,1.5,2.3C215.6,51.1,217,51.6,218.6,51.6z"/>
	<path class="st0" d="M238.8,48.1h-1.6v7.7h-4.6V35.1h8.2c2,0,3.6,0.6,4.9,1.8c1.2,1.2,1.9,2.8,1.9,4.6c0,1.4-0.4,2.6-1.1,3.6
		c-0.7,1-1.7,1.8-3,2.2l4.2,8.4h-5.1L238.8,48.1z M239.9,44.1c0.9,0,1.7-0.2,2.2-0.7s0.8-1.1,0.8-1.8c0-0.8-0.3-1.4-0.8-1.8
		c-0.5-0.4-1.2-0.7-2.2-0.7h-2.7v5H239.9z"/>
</g>
<path class="st0" d="M120.6,29.9c0.4-0.4,1.1-0.8,1.7-0.8c0.8,0,1.3,0.2,1.8,0.8c0.4,0.4,0.8,1.1,0.8,1.8c0,0.6-0.2,1.3-0.8,1.7
	c-0.4,0.4-1.1,0.6-1.8,0.6c-0.6,0-1.3-0.2-1.7-0.6c-0.4-0.4-0.6-1.1-0.6-1.7C119.8,31,120,30.3,120.6,29.9z"/>
</svg>
