<?xml version="1.0" encoding="utf-8"?>
<!-- Generator: Adobe Illustrator 19.2.1, SVG Export Plug-In . SVG Version: 6.00 Build 0)  -->
<svg version="1.1" id="Layer_1" xmlns="http://www.w3.org/2000/svg" xmlns:xlink="http://www.w3.org/1999/xlink" x="0px" y="0px"
	 width="300px" height="67px" viewBox="0 0 300 67" style="enable-background:new 0 0 300 67;" xml:space="preserve">
<style type="text/css">
	.st0{fill:#FFFFFF;}
</style>
<g>
	<g>
		<path class="st0" d="M30.8,7.4c2.1-2,4.6-3,7.6-3s5.5,1,7.6,3s3.1,4.6,3.1,7.8S48.1,21,46,23s-4.6,3-7.6,3s-5.5-1-7.6-3
			s-3.1-4.6-3.1-7.8C27.6,12,28.7,9.4,30.8,7.4z M38.4,8.9c-1.6,0-3,0.5-4.2,1.6s-1.8,2.6-1.8,4.7c0,2,0.6,3.6,1.8,4.6
			c1.2,1.1,2.6,1.6,4.2,1.6c1.6,0,3-0.5,4.2-1.6s1.8-2.6,1.8-4.6s-0.6-3.6-1.8-4.7S40,8.9,38.4,8.9z"/>
		<path class="st0" d="M58.7,17.8h-1.6v7.7h-4.6V4.8h8.2c2,0,3.6,0.6,4.9,1.8c1.2,1.2,1.9,2.8,1.9,4.6c0,1.4-0.4,2.6-1.1,3.6
			s-1.7,1.8-3,2.2l4.2,8.4h-5.1L58.7,17.8z M59.8,13.9c0.9,0,1.7-0.2,2.2-0.7s0.8-1.1,0.8-1.8c0-0.8-0.3-1.4-0.8-1.8
			c-0.5-0.4-1.2-0.7-2.2-0.7h-2.7v5H59.8z"/>
		<path class="st0" d="M78.6,4.8c2,0,3.6,0.5,4.7,1.5s1.7,2.4,1.7,4c0,1-0.3,2-0.9,2.8s-1.3,1.4-2.2,1.7c1,0.2,1.9,0.8,2.6,1.7
			c0.7,0.9,1.1,1.9,1.1,3.2c0,1.7-0.6,3.1-1.8,4.2c-1.2,1.1-2.8,1.7-4.7,1.7h-8.4V4.8H78.6z M77.8,13.1c0.8,0,1.5-0.2,1.9-0.6
			c0.5-0.4,0.7-0.9,0.7-1.7c0-0.7-0.2-1.2-0.7-1.6c-0.5-0.4-1.1-0.6-2-0.6h-2.5v4.5H77.8z M78.2,21.8c0.9,0,1.6-0.2,2.1-0.7
			c0.5-0.4,0.8-1,0.8-1.8c0-0.7-0.3-1.3-0.8-1.8c-0.5-0.4-1.2-0.7-2.1-0.7h-2.9v4.9h2.9V21.8z"/>
		<path class="st0" d="M88.9,25.6V4.8h4.7v20.7h-4.7V25.6z"/>
		<path class="st0" d="M107.3,9.3v16.3h-4.6V9.3h-6.4V4.8h17.4v4.4h-6.4V9.3z"/>
		<path class="st0" d="M121.2,16.1c-1.7,0-3.2-0.6-4.5-1.8c-1.2-1.2-1.8-2.7-1.8-4.5c0-1.7,0.6-3.2,1.8-4.5c1.2-1.2,2.7-1.9,4.5-1.9
			c1.7,0,3.2,0.6,4.5,1.9c1.2,1.2,1.9,2.7,1.9,4.5c0,1.7-0.6,3.2-1.9,4.5C124.4,15.5,122.9,16.1,121.2,16.1z M121.2,4.9
			c-1.4,0-2.5,0.5-3.4,1.4c-0.9,1-1.4,2.1-1.4,3.5s0.5,2.5,1.4,3.5c0.9,0.9,2.1,1.4,3.4,1.4s2.5-0.5,3.4-1.4s1.4-2.1,1.4-3.5
			s-0.5-2.5-1.4-3.5C123.7,5.4,122.5,4.9,121.2,4.9z M121.1,10.9h-0.5v2.3h-1.8V6.4h2.8c0.7,0,1.2,0.2,1.7,0.6
			c0.4,0.4,0.7,1,0.7,1.6c0,0.4-0.1,0.8-0.3,1.2c-0.2,0.3-0.5,0.6-0.9,0.8l1.3,2.6h-1.9L121.1,10.9z M121.3,9.4
			c0.3,0,0.5-0.1,0.6-0.2c0.1-0.1,0.2-0.3,0.2-0.6c0-0.2-0.1-0.4-0.2-0.6c-0.1-0.2-0.4-0.2-0.6-0.2h-0.7v1.6
			C120.6,9.4,121.3,9.4,121.3,9.4z"/>
		<path class="st0" d="M129.4,17.3v-4h8.8v4H129.4z"/>
		<path class="st0" d="M141.7,25.6V4.8h7.5c3.1,0,5.7,0.9,7.6,2.8s2.8,4.4,2.8,7.6s-0.9,5.7-2.8,7.6c-1.9,1.9-4.4,2.8-7.6,2.8
			C149.2,25.6,141.7,25.6,141.7,25.6z M149.1,21.2c1.7,0,3.1-0.5,4.2-1.5c1.1-1,1.6-2.5,1.6-4.5s-0.5-3.5-1.6-4.5s-2.5-1.5-4.2-1.5
			h-2.7v12H149.1z"/>
		<path class="st0" d="M180.1,7.4c2.1,2,3.1,4.6,3.1,7.8s-1,5.8-3.1,7.7s-4.6,3-7.6,3s-5.5-1-7.6-3s-3.1-4.6-3.1-7.7
			c0-0.6,0.1-1.3,0.2-2h16.3c-0.3-1.1-0.8-2-1.5-2.7c-1.2-1.1-2.6-1.6-4.1-1.6s-3,0.5-4.2,1.6c-0.3,0.2-0.5,0.5-0.7,0.8l-4.5-1.6
			c0.5-0.9,1.1-1.6,1.8-2.3c2.1-2,4.6-3,7.6-3C175.5,4.4,178,5.4,180.1,7.4z M172.5,21.4c1.6,0,3-0.5,4.1-1.6
			c0.7-0.6,1.1-1.3,1.4-2.2h-11.2c0.3,0.9,0.8,1.7,1.5,2.2C169.5,20.9,170.9,21.4,172.5,21.4z"/>
		<path class="st0" d="M199.7,25.6L191.2,12v13.6h-4.6V4.8h5.6l7.8,12.6V4.8h4.6v20.7h-4.9V25.6z"/>
		<path class="st0" d="M214.2,4.8h5.4l4.2,7.7l4.3-7.7h5.1L226,16.9v8.6h-4.6v-8.6L214.2,4.8z"/>
		<path class="st0" d="M235.9,25.6V4.8H249v4.4h-8.5v3.9h7.7v4.1h-7.7v4h8.5v4.4H235.9z"/>
		<path class="st0" d="M266,25.6L257.5,12v13.6h-4.6V4.8h5.6l7.8,12.6V4.8h4.6v20.7H266V25.6z"/>
		<path class="st0" d="M275.4,25.6V4.8h4.7v20.7h-4.7V25.6z"/>
	</g>
	<path class="st0" d="M19.9,40.3v16.3h-4.6V40.3H8.9v-4.4h17.4v4.4H19.9z"/>
	<path class="st0" d="M39.6,52.4h-8l-1.5,4.2h-4.9L33,35.9h5.3L46,56.6h-5L39.6,52.4z M33.1,48.2h5L35.7,41L33.1,48.2z"/>
	<path class="st0" d="M61.8,56.6L53.2,43v13.6h-4.6V35.9h5.6L62,48.5V35.9h4.6v20.7C66.6,56.6,61.8,56.6,61.8,56.6z"/>
	<path class="st0" d="M71.1,56.6V35.9h4.7v20.7C75.8,56.6,71.1,56.6,71.1,56.6z"/>
	<path class="st0" d="M89.3,56.9L89.3,56.9L89.1,57l-0.7,1.1c0.9,0,1.5,0.3,2,0.8s0.8,1.1,0.8,1.8s-0.3,1.4-1,2
		c-0.6,0.6-1.6,0.9-2.9,0.9c-0.8,0-1.5-0.2-2.2-0.5c-0.7-0.4-1.1-0.7-1.5-1.1l1.4-1.7c0.7,0.7,1.5,1.1,2.2,1.1s1.1-0.3,1.1-0.8
		c0-0.2-0.1-0.4-0.3-0.5c-0.2-0.2-0.4-0.2-0.7-0.2c-0.3,0-0.6,0-0.8,0.1l-1.1-1.4l0.9-1.4c-2.2-0.1-3.9-0.8-5.2-2
		c-1.4-1.4-2.2-2.9-2.4-4.6l4.2-1c0.1,1,0.5,1.9,1.2,2.6c0.7,0.7,1.7,1,3.1,1c0.9,0,1.6-0.2,2.1-0.6c0.5-0.4,0.8-0.9,0.8-1.6
		c0-0.5-0.2-1-0.6-1.3c-0.4-0.4-0.9-0.6-1.6-0.8l-2.8-0.5c-1.8-0.3-3.1-1-4.1-2.1s-1.5-2.4-1.5-3.9c0-1.9,0.7-3.5,2.2-4.8
		s3.2-1.9,5.2-1.9c1.2,0,2.3,0.2,3.3,0.5s1.7,0.8,2.3,1.3s1,1.1,1.3,1.8c0.3,0.6,0.5,1.2,0.6,1.9l-4.1,1.2c-0.1-0.6-0.4-1.2-1-1.8
		c-0.5-0.5-1.4-0.8-2.5-0.8c-0.8,0-1.5,0.2-2,0.7C84.3,40.9,84,41.4,84,42c0,1.1,0.7,1.7,2,2l2.8,0.5c1.9,0.3,3.4,1.1,4.4,2.2
		c1,1.1,1.5,2.5,1.5,4c0,1.7-0.7,3.3-2.1,4.6C91.9,56,90.7,56.6,89.3,56.9z"/>
	<path class="st0" d="M98.1,56.6V35.9h4.6v16.3h8.9v4.4C111.6,56.6,98.1,56.6,98.1,56.6z"/>
	<path class="st0" d="M114.6,56.6V35.9h4.7v20.7C119.3,56.6,114.6,56.6,114.6,56.6z"/>
	<path class="st0" d="M125.7,38.5c2.1-2,4.6-3,7.6-3s5.5,1,7.6,3s3.1,4.6,3.1,7.8c0,2.7-0.8,5-2.3,6.9l2.5,2.8l-3,2.6l-2.5-2.8
		c-1.6,0.9-3.4,1.3-5.4,1.3c-3,0-5.5-1-7.6-3s-3.1-4.6-3.1-7.8C122.5,43.1,123.6,40.5,125.7,38.5z M137.5,41.6
		c-1.2-1.1-2.6-1.6-4.2-1.6s-3,0.5-4.2,1.6s-1.8,2.6-1.8,4.7c0,2,0.6,3.6,1.8,4.6c1.2,1.1,2.6,1.6,4.2,1.6c0.7,0,1.4-0.1,2.1-0.4
		l-3-3.3l3.1-2.6l3,3.3c0.5-1,0.8-2.1,0.8-3.3C139.3,44.2,138.7,42.7,137.5,41.6z"/>
	<path class="st0" d="M168.5,55c-1.5,1.4-3.5,2.1-5.9,2.1s-4.3-0.7-5.9-2.1c-1.5-1.4-2.3-3.3-2.3-5.9V35.9h4.6v12.9
		c0,1.2,0.3,2.2,1,2.8c0.6,0.6,1.5,1,2.6,1s2-0.3,2.6-1c0.6-0.6,1-1.6,1-2.8V35.9h4.6v13.2C170.8,51.7,170,53.6,168.5,55z
		 M157.4,30.9c0.4-0.4,1-0.7,1.6-0.7c0.7,0,1.2,0.2,1.7,0.7c0.4,0.4,0.7,1,0.7,1.7c0,0.6-0.2,1.2-0.7,1.6c-0.4,0.4-1,0.6-1.7,0.6
		s-1.2-0.2-1.6-0.6c-0.4-0.4-0.6-1-0.6-1.6C156.8,31.9,157,31.3,157.4,30.9z M164.6,30.9c0.4-0.4,1-0.7,1.6-0.7
		c0.7,0,1.2,0.2,1.7,0.7c0.4,0.4,0.7,1,0.7,1.7c0,0.6-0.2,1.2-0.7,1.6c-0.4,0.4-1,0.6-1.7,0.6c-0.6,0-1.2-0.2-1.6-0.6
		c-0.4-0.4-0.6-1-0.6-1.6C163.9,31.9,164.1,31.3,164.6,30.9z"/>
	<path class="st0" d="M185.3,42.2c-0.1-0.6-0.4-1.2-1-1.8c-0.5-0.5-1.4-0.8-2.5-0.8c-0.8,0-1.5,0.2-2,0.7c-0.5,0.4-0.8,1-0.8,1.6
		c0,1.1,0.7,1.7,2,2l2.8,0.5c1.9,0.3,3.4,1.1,4.4,2.2s1.6,2.5,1.6,4c0,1.7-0.7,3.3-2.1,4.6c-1.4,1.3-3.2,2-5.6,2
		c-2.6,0-4.6-0.7-6.1-2c-1.4-1.4-2.2-2.9-2.4-4.6l4.2-1c0.1,1,0.5,1.9,1.2,2.6c0.7,0.7,1.7,1,3.1,1c0.9,0,1.6-0.2,2.1-0.6
		c0.5-0.4,0.8-0.9,0.8-1.6c0-0.5-0.2-1-0.6-1.3c-0.4-0.4-0.9-0.6-1.6-0.7l-2.8-0.5c-1.8-0.3-3.1-1-4.1-2.1s-1.5-2.4-1.5-3.9
		c0-1.9,0.7-3.5,2.2-4.8s3.2-1.9,5.2-1.9c1.2,0,2.3,0.2,3.3,0.5s1.7,0.8,2.3,1.4s1,1.1,1.3,1.8c0.3,0.6,0.5,1.2,0.7,1.9L185.3,42.2z
		"/>
	<path class="st0" d="M206.8,55c-1.5,1.4-3.5,2.1-5.9,2.1s-4.3-0.7-5.9-2.1c-1.5-1.4-2.3-3.3-2.3-5.9V35.9h4.6v12.9
		c0,1.2,0.3,2.2,1,2.8c0.6,0.6,1.5,1,2.6,1s2-0.3,2.6-1c0.6-0.6,1-1.6,1-2.8V35.9h4.6v13.2C209.2,51.7,208.4,53.6,206.8,55z"/>
	<path class="st0" d="M213.5,56.6V35.9h4.6v16.3h8.9v4.4C227,56.6,213.5,56.6,213.5,56.6z"/>
	<path class="st0" d="M230,56.6V35.9h4.6v16.3h8.9v4.4C243.5,56.6,230,56.6,230,56.6z"/>
	<path class="st0" d="M259,52.4h-8l-1.5,4.2h-4.9l7.8-20.7h5.3l7.7,20.7h-5L259,52.4z M252.5,48.2h5L255,41L252.5,48.2z"/>
	<path class="st0" d="M274.3,48.9h-1.6v7.7h-4.6V35.9h8.2c2,0,3.6,0.6,4.9,1.8c1.2,1.2,1.9,2.8,1.9,4.6c0,1.4-0.4,2.6-1.1,3.6
		s-1.7,1.8-3,2.2l4.2,8.4H278L274.3,48.9z M275.4,44.9c0.9,0,1.7-0.2,2.2-0.7s0.8-1.1,0.8-1.8c0-0.8-0.3-1.4-0.8-1.8
		c-0.5-0.4-1.2-0.7-2.2-0.7h-2.7v5H275.4z"/>
	<path class="st0" d="M286.4,56.6V35.9h4.7v20.7C291.1,56.6,286.4,56.6,286.4,56.6z"/>
</g>
</svg>
