<?xml version="1.0" encoding="utf-8"?>
<!-- Generator: Adobe Illustrator 19.2.1, SVG Export Plug-In . SVG Version: 6.00 Build 0)  -->
<svg version="1.1" id="Layer_1" xmlns="http://www.w3.org/2000/svg" xmlns:xlink="http://www.w3.org/1999/xlink" x="0px" y="0px"
	 width="300px" height="90px" viewBox="0 0 300 90" style="enable-background:new 0 0 300 90;" xml:space="preserve">
<style type="text/css">
	.st0{fill:#FFFFFF;}
</style>
<g>
	<path class="st0" d="M46.2,33.2c-1.9,1.8-4.4,2.6-7.4,2.6s-5.5-0.9-7.4-2.6c-1.9-1.8-2.9-4.2-2.9-7.4V9.2h5.8v16.2
		c0,1.5,0.4,2.7,1.2,3.5s1.9,1.2,3.3,1.2c1.4,0,2.5-0.4,3.3-1.2c0.8-0.8,1.2-2,1.2-3.5V9.2h5.8v16.6C49.1,29,48.1,31.4,46.2,33.2z
		 M32.3,2.9c0.5-0.6,1.2-0.9,2-0.9s1.5,0.3,2.1,0.8C37,3.4,37.2,4.1,37.2,5c0,0.8-0.3,1.5-0.8,2c-0.6,0.5-1.3,0.8-2.1,0.8
		S32.8,7.5,32.2,7c-0.5-0.5-0.8-1.2-0.8-2C31.4,4.1,31.7,3.4,32.3,2.9z M41.3,2.9c0.5-0.6,1.2-0.8,2-0.8s1.5,0.3,2.1,0.8
		C46,3.5,46.2,4.2,46.2,5s-0.3,1.5-0.8,2c-0.6,0.5-1.3,0.8-2.1,0.8s-1.5-0.3-2-0.8s-0.8-1.2-0.8-2C40.4,4.1,40.7,3.4,41.3,2.9z"/>
	<path class="st0" d="M71,35.2L60.3,18.1v17.1h-5.8v-26h7.1L71.4,25V9.2h5.8v26H71z"/>
	<path class="st0" d="M95.5,17c-0.1-0.8-0.5-1.6-1.2-2.2c-0.7-0.7-1.7-1-3.1-1c-1.1,0-1.9,0.3-2.6,0.8c-0.7,0.6-1,1.2-1,2
		c0,1.3,0.9,2.2,2.6,2.5l3.5,0.7c2.4,0.4,4.3,1.4,5.6,2.8c1.3,1.4,2,3.1,2,5c0,2.2-0.9,4.1-2.6,5.7c-1.7,1.7-4.1,2.5-7,2.5
		c-3.3,0-5.8-0.9-7.6-2.6c-1.8-1.7-2.8-3.6-3-5.8l5.3-1.3c0.1,1.3,0.6,2.4,1.5,3.2c0.9,0.8,2.2,1.3,3.9,1.3c1.1,0,2-0.3,2.7-0.8
		s1-1.2,1-2c0-0.7-0.2-1.2-0.7-1.7s-1.2-0.8-2.1-0.9L89,24.6c-2.2-0.4-3.9-1.3-5.2-2.7c-1.3-1.4-1.9-3-1.9-5c0-2.4,0.9-4.4,2.8-6
		c1.8-1.6,4-2.4,6.6-2.4c1.5,0,2.9,0.2,4.1,0.6c1.2,0.4,2.2,1,2.9,1.7c0.7,0.7,1.3,1.4,1.7,2.2c0.4,0.8,0.7,1.6,0.8,2.4L95.5,17z"/>
	<path class="st0" d="M105.2,35.2v-26h5.9v26H105.2z"/>
	<path class="st0" d="M114.2,9.2h6.8l5.3,9.7l5.4-9.7h6.5L129,24.4v10.9h-5.8V24.4L114.2,9.2z"/>
	<path class="st0" d="M139.3,9.2h6.8l5.3,9.7l5.4-9.7h6.5l-9.1,15.2v10.9h-5.8V24.4L139.3,9.2z"/>
	<path class="st0" d="M188,12.4c2.6,2.5,3.9,5.8,3.9,9.8s-1.3,7.2-3.9,9.7s-5.8,3.7-9.6,3.7s-7-1.2-9.6-3.7s-3.9-5.7-3.9-9.7
		c0-0.8,0.1-1.6,0.2-2.5h20.5c-0.3-1.4-1-2.5-1.9-3.3c-1.5-1.4-3.2-2.1-5.2-2.1s-3.8,0.7-5.3,2.1c-0.3,0.3-0.6,0.6-0.9,1l-5.7-2.1
		c0.6-1.1,1.3-2,2.2-2.9c2.6-2.5,5.8-3.7,9.6-3.7C182.2,8.7,185.4,9.9,188,12.4z M178.5,30c2,0,3.7-0.7,5.2-2
		c0.8-0.7,1.4-1.7,1.8-2.8h-14.1c0.4,1.2,1,2.1,1.8,2.8C174.7,29.3,176.5,30,178.5,30z"/>
	<path class="st0" d="M207.8,14.7v20.5H202V14.7h-8V9.2h21.9v5.5H207.8z"/>
	<path class="st0" d="M219.4,35.2v-26h9.4c3.9,0,7.1,1.2,9.5,3.5s3.6,5.5,3.6,9.5s-1.2,7.2-3.6,9.5s-5.6,3.5-9.5,3.5H219.4z
		 M228.6,29.8c2.1,0,3.9-0.6,5.2-1.9c1.4-1.3,2-3.1,2-5.6s-0.7-4.4-2-5.7s-3.1-1.9-5.2-1.9h-3.4v15.1H228.6z"/>
	<path class="st0" d="M267.6,12.4c2.6,2.5,3.9,5.8,3.9,9.8s-1.3,7.2-3.9,9.7s-5.8,3.7-9.6,3.7c-3.8,0-7-1.2-9.6-3.7
		s-3.9-5.7-3.9-9.7c0-0.8,0.1-1.6,0.2-2.5h20.5c-0.3-1.4-1-2.5-1.9-3.3c-1.5-1.4-3.2-2.1-5.2-2.1s-3.8,0.7-5.3,2.1
		c-0.3,0.3-0.6,0.6-0.9,1l-5.7-2.1c0.6-1.1,1.3-2,2.2-2.9c2.6-2.5,5.8-3.7,9.6-3.7C261.8,8.7,265,9.9,267.6,12.4z M258,30
		c2,0,3.7-0.7,5.2-2c0.8-0.7,1.4-1.7,1.8-2.8h-14c0.4,1.2,1,2.1,1.8,2.8C254.3,29.3,256,30,258,30z"/>
	<path class="st0" d="M73.9,79.3v-26h5.9v26H73.9z"/>
	<path class="st0" d="M101.8,79.3L91.1,62.2v17.1h-5.8v-26h7.1l9.8,15.8V53.3h5.8v26H101.8z"/>
	<path class="st0" d="M122.3,69.1l-2.9,3.3v7h-5.8v-26h5.8v10.9l9.5-10.9h7.6l-10.1,11.3l10.2,14.8h-7.2L122.3,69.1z"/>
	<path class="st0" d="M139.8,79.3v-26h5.9v26H139.8z"/>
	<path class="st0" d="M162.6,79.6l-0.1,0.1h-0.1l-0.9,1.4c1.1,0,1.9,0.3,2.6,1c0.7,0.6,1,1.4,1,2.3s-0.4,1.8-1.2,2.5s-2,1.1-3.7,1.1
		c-1,0-1.9-0.2-2.7-0.6s-1.4-0.9-1.8-1.4l1.7-2.2c0.9,0.9,1.9,1.4,2.8,1.4c0.9,0,1.4-0.3,1.4-1c0-0.2-0.1-0.5-0.4-0.6
		c-0.2-0.2-0.5-0.3-0.9-0.3s-0.7,0-1,0.1l-1.4-1.8l1.1-1.8c-2.8-0.1-4.9-1-6.5-2.5c-1.8-1.7-2.8-3.6-3-5.8l5.3-1.3
		c0.1,1.3,0.6,2.4,1.5,3.2c0.9,0.8,2.2,1.2,3.9,1.2c1.1,0,2-0.2,2.7-0.7s1-1.2,1-2c0-0.7-0.2-1.2-0.7-1.7s-1.2-0.8-2.1-1l-3.6-0.7
		c-2.2-0.4-3.9-1.3-5.2-2.7c-1.3-1.4-1.9-3-1.9-5c0-2.4,0.9-4.4,2.8-6c1.8-1.6,4-2.4,6.6-2.4c1.5,0,2.9,0.2,4.2,0.7
		c1.2,0.4,2.2,1,2.9,1.7s1.3,1.4,1.7,2.2s0.7,1.6,0.8,2.4l-5.2,1.5c-0.1-0.8-0.5-1.6-1.2-2.2c-0.7-0.7-1.7-1-3.1-1
		c-1.1,0-1.9,0.3-2.6,0.8c-0.7,0.5-1,1.2-1,1.9c0,1.3,0.9,2.2,2.6,2.5l3.5,0.7c2.4,0.4,4.3,1.4,5.6,2.8s1.9,3.1,1.9,5
		c0,2.2-0.9,4.1-2.6,5.8C165.9,78.5,164.4,79.3,162.6,79.6z"/>
	<path class="st0" d="M189.2,74h-10.1l-1.9,5.3h-6.1l9.8-26h6.7l9.7,26H191L189.2,74z M181.1,68.7h6.3l-3.1-9L181.1,68.7z"/>
	<path class="st0" d="M200.6,79.3v-26h16.8v5.5h-11v5.5h9.7v5.3h-9.6v9.7H200.6z"/>
</g>
<path class="st0" d="M106.1,2.9c0.5-0.6,1.2-0.8,2-0.8c0.8,0,1.5,0.3,2.1,0.8c0.6,0.6,0.8,1.3,0.8,2.1s-0.3,1.5-0.8,2
	c-0.6,0.5-1.3,0.8-2.1,0.8c-0.8,0-1.5-0.3-2-0.8s-0.8-1.2-0.8-2C105.2,4.1,105.4,3.4,106.1,2.9z"/>
<path class="st0" d="M140.7,46.7c0.5-0.6,1.2-0.8,2-0.8s1.5,0.3,2.1,0.8c0.6,0.6,0.8,1.3,0.8,2.1s-0.3,1.5-0.8,2
	c-0.6,0.5-1.3,0.8-2.1,0.8s-1.5-0.3-2-0.8s-0.8-1.2-0.8-2C139.8,47.8,140.1,47.2,140.7,46.7z"/>
<path class="st0" d="M74.8,46.7c0.5-0.6,1.2-0.8,2-0.8c0.8,0,1.5,0.3,2.1,0.8c0.6,0.6,0.8,1.3,0.8,2.1s-0.3,1.5-0.8,2
	c-0.6,0.5-1.3,0.8-2.1,0.8c-0.8,0-1.5-0.3-2-0.8s-0.8-1.2-0.8-2C73.9,47.8,74.2,47.2,74.8,46.7z"/>
</svg>
