<?xml version="1.0" encoding="utf-8"?>
<!-- Generator: Adobe Illustrator 19.2.1, SVG Export Plug-In . SVG Version: 6.00 Build 0)  -->
<svg version="1.1" id="Layer_1" xmlns="http://www.w3.org/2000/svg" xmlns:xlink="http://www.w3.org/1999/xlink" x="0px" y="0px"
	 width="300px" height="63px" viewBox="0 0 300 63" style="enable-background:new 0 0 300 63;" xml:space="preserve">
<style type="text/css">
	.st0{fill:#FFFFFF;}
</style>
<g>
	<path class="st0" d="M93.8,5.7h4.9l-7.6,20.7h-4.8L78.8,5.7h5.1l5,14.6L93.8,5.7z"/>
	<path class="st0" d="M118.4,8.3c2.1,2,3.1,4.6,3.1,7.8s-1,5.8-3.1,7.7c-2.1,2-4.6,3-7.6,3s-5.5-1-7.6-3s-3.1-4.6-3.1-7.7
		c0-0.6,0.1-1.3,0.2-2h16.3c-0.3-1.1-0.8-2-1.5-2.7c-1.2-1.1-2.6-1.6-4.1-1.6s-3,0.5-4.2,1.6c-0.3,0.2-0.5,0.5-0.7,0.8l-4.5-1.6
		c0.5-0.9,1.1-1.6,1.8-2.3c2.1-2,4.6-3,7.6-3C113.8,5.3,116.3,6.3,118.4,8.3z M110.8,22.3c1.6,0,3-0.5,4.1-1.6
		c0.7-0.6,1.1-1.3,1.4-2.3h-11.2c0.3,0.9,0.8,1.7,1.5,2.3C107.8,21.7,109.2,22.3,110.8,22.3z"/>
	<path class="st0" d="M142.1,12c-0.1-0.6-0.4-1.2-1-1.8c-0.5-0.5-1.4-0.8-2.5-0.8c-0.8,0-1.5,0.2-2,0.7c-0.5,0.4-0.8,1-0.8,1.6
		c0,1.1,0.7,1.7,2,2l2.8,0.5c1.9,0.3,3.4,1.1,4.4,2.2s1.6,2.5,1.6,4c0,1.7-0.7,3.3-2.1,4.6c-1.4,1.3-3.2,2-5.6,2
		c-2.6,0-4.6-0.7-6.1-2c-1.4-1.4-2.2-2.9-2.4-4.6l4.2-1c0.1,1,0.5,1.9,1.2,2.6s1.7,1,3.1,1c0.9,0,1.6-0.2,2.1-0.6s0.8-0.9,0.8-1.6
		c0-0.5-0.2-1-0.6-1.3c-0.4-0.4-0.9-0.6-1.6-0.7l-2.8-0.5c-1.8-0.3-3.1-1-4.1-2.1s-1.5-2.4-1.5-3.9c0-1.9,0.7-3.5,2.2-4.8
		s3.2-1.9,5.2-1.9c1.2,0,2.3,0.2,3.3,0.5s1.7,0.8,2.3,1.4s1,1.1,1.3,1.8c0.3,0.7,0.5,1.2,0.7,1.9L142.1,12z"/>
	<path class="st0" d="M163.7,24.8c-1.5,1.4-3.5,2.1-5.9,2.1s-4.3-0.7-5.9-2.1c-1.5-1.4-2.3-3.3-2.3-5.9V5.7h4.6v12.9
		c0,1.2,0.3,2.2,1,2.8c0.6,0.6,1.5,1,2.6,1s2-0.3,2.6-1c0.6-0.6,1-1.6,1-2.8V5.7h4.6v13.2C166,21.5,165.3,23.4,163.7,24.8z"/>
	<path class="st0" d="M175,19v7.5h-4.6V5.7h7.8c2.1,0,3.8,0.6,5.1,1.9c1.3,1.2,2,2.8,2,4.8s-0.7,3.6-2,4.8c-1.3,1.2-3,1.8-5.1,1.8
		C178.2,19,175,19,175,19z M177.7,15c0.9,0,1.6-0.2,2.1-0.7s0.8-1.1,0.8-1.9c0-0.8-0.3-1.5-0.8-1.9c-0.5-0.5-1.3-0.7-2.1-0.7H175
		v5.3h2.7V15z"/>
	<path class="st0" d="M188.1,26.4V5.7h13.1v4.4h-8.5V14h7.7v4.1h-7.7v4h8.5v4.4L188.1,26.4L188.1,26.4z"/>
	<path class="st0" d="M211.4,18.7h-1.6v7.7h-4.6V5.7h8.2c2,0,3.6,0.6,4.9,1.8c1.2,1.2,1.9,2.8,1.9,4.6c0,1.4-0.4,2.6-1.1,3.6
		c-0.7,1-1.7,1.8-3,2.2l4.2,8.4h-5.1L211.4,18.7z M212.5,14.7c0.9,0,1.7-0.2,2.2-0.7s0.8-1.1,0.8-1.8c0-0.8-0.3-1.4-0.8-1.8
		c-0.5-0.4-1.2-0.7-2.2-0.7h-2.7v5H212.5z"/>
	<path class="st0" d="M66.2,57.4v-8.2h-8.3v8.2h-4.6V36.7h4.6v8.1h8.3v-8.1h4.6v20.7H66.2z"/>
	<path class="st0" d="M92.5,39.2c2.1,2,3.1,4.6,3.1,7.8s-1,5.8-3.1,7.7c-2.1,2-4.6,3-7.6,3s-5.5-1-7.6-3s-3.1-4.6-3.1-7.7
		c0-0.6,0.1-1.3,0.2-2h16.3c-0.3-1.1-0.8-2-1.5-2.7c-1.2-1.1-2.6-1.6-4.1-1.6s-3,0.5-4.2,1.6c-0.3,0.2-0.5,0.5-0.7,0.8l-4.7-1.5
		c0.5-0.9,1.1-1.6,1.8-2.3c2.1-2,4.6-3,7.6-3S90.4,37.3,92.5,39.2z M84.9,53.2c1.6,0,3-0.5,4.1-1.6c0.7-0.6,1.1-1.3,1.4-2.3H79.2
		c0.3,0.9,0.8,1.7,1.5,2.3C81.9,52.7,83.3,53.2,84.9,53.2z"/>
	<path class="st0" d="M98.9,57.4V36.7h7.5c3.1,0,5.7,0.9,7.6,2.8c1.9,1.9,2.8,4.4,2.8,7.6c0,3.2-0.9,5.7-2.8,7.6
		c-1.9,1.9-4.4,2.8-7.6,2.8L98.9,57.4L98.9,57.4z M106.2,53c1.7,0,3.1-0.5,4.2-1.5S112,49,112,47s-0.5-3.5-1.6-4.5s-2.5-1.5-4.2-1.5
		h-2.7v12H106.2z"/>
	<path class="st0" d="M120.1,57.4V36.7h4.7v20.7H120.1z"/>
	<path class="st0" d="M127.3,36.7h5.4l4.2,7.7l4.3-7.7h5.1L139,48.8v8.6h-4.6v-8.6L127.3,36.7z"/>
	<path class="st0" d="M147.3,36.7h5.4l4.2,7.7l4.3-7.7h5.1L159,48.8v8.6h-4.6v-8.6L147.3,36.7z"/>
	<path class="st0" d="M186,39.2c2.1,2,3.1,4.6,3.1,7.8s-1,5.8-3.1,7.7c-2.1,2-4.6,3-7.6,3s-5.5-1-7.6-3s-3.1-4.6-3.1-7.7
		c0-0.6,0.1-1.3,0.2-2h16.3c-0.3-1.1-0.8-2-1.5-2.7c-1.2-1.1-2.6-1.6-4.1-1.6s-3,0.5-4.2,1.6c-0.3,0.2-0.5,0.5-0.7,0.8l-4.7-1.5
		c0.5-0.9,1.1-1.6,1.8-2.3c2.1-2,4.6-3,7.6-3C181.4,36.3,184,37.3,186,39.2z M178.4,53.2c1.6,0,3-0.5,4.1-1.6
		c0.7-0.6,1.1-1.3,1.4-2.3h-11.2c0.3,0.9,0.8,1.7,1.5,2.3C175.5,52.7,176.9,53.2,178.4,53.2z"/>
	<path class="st0" d="M192.5,57.4V36.7h4.6V53h8.9v4.4H192.5z"/>
	<path class="st0" d="M226.2,39.2c2.1,2,3.1,4.6,3.1,7.8s-1,5.8-3.1,7.7c-2.1,2-4.6,3-7.6,3s-5.5-1-7.6-3s-3.1-4.6-3.1-7.7
		c0-0.6,0.1-1.3,0.2-2h16.3c-0.3-1.1-0.8-2-1.5-2.7c-1.2-1.1-2.6-1.6-4.1-1.6s-3,0.5-4.2,1.6c-0.3,0.2-0.5,0.5-0.7,0.8l-4.5-1.6
		c0.5-0.9,1.1-1.6,1.8-2.3c2.1-2,4.6-3,7.6-3C221.5,36.3,224.1,37.3,226.2,39.2z M218.6,53.2c1.6,0,3-0.5,4.1-1.6
		c0.7-0.6,1.1-1.3,1.4-2.3h-11.2c0.3,0.9,0.8,1.7,1.5,2.3C215.6,52.7,217,53.2,218.6,53.2z"/>
	<path class="st0" d="M238.8,49.7h-1.6v7.7h-4.6V36.7h8.2c2,0,3.6,0.6,4.9,1.8c1.2,1.2,1.9,2.8,1.9,4.6c0,1.4-0.4,2.6-1.1,3.6
		c-0.7,1-1.7,1.8-3,2.2l4.2,8.4h-5.1L238.8,49.7z M239.9,45.7c0.9,0,1.7-0.2,2.2-0.7s0.8-1.1,0.8-1.8c0-0.8-0.3-1.4-0.8-1.8
		c-0.5-0.4-1.2-0.7-2.2-0.7h-2.7v5H239.9z"/>
</g>
</svg>
