<?xml version="1.0" encoding="utf-8"?>
<!-- Generator: Adobe Illustrator 19.2.1, SVG Export Plug-In . SVG Version: 6.00 Build 0)  -->
<svg version="1.1" id="Layer_1" xmlns="http://www.w3.org/2000/svg" xmlns:xlink="http://www.w3.org/1999/xlink" x="0px" y="0px"
	 width="300px" height="30px" viewBox="0 0 300 30" style="enable-background:new 0 0 300 30;" xml:space="preserve">
<style type="text/css">
	.st0{fill:#FFFFFF;}
</style>
<g>
	<path class="st0" d="M12.5,13.8c0-3.2,1.1-5.8,3.2-7.9c2-2,4.5-3,7.5-3c2.8,0,5.1,0.8,6.9,2.4c1.4,1.3,2.3,2.8,2.8,4.6l-4.4,1.4
		c-0.1-0.4-0.2-0.8-0.4-1.2c-0.3-0.5-0.6-0.9-1-1.3c-1-0.9-2.3-1.4-3.9-1.4c-1.5,0-2.9,0.5-4,1.6c-1.3,1.2-1.9,2.8-1.9,4.8
		c0,1.9,0.6,3.4,1.8,4.5c1.1,1.1,2.5,1.6,4.2,1.6c1.6,0,2.9-0.5,3.9-1.4c0.8-0.7,1.3-1.5,1.5-2.5l4.4,1.3c-0.4,1.8-1.4,3.4-2.8,4.7
		c-1.8,1.7-4.2,2.6-7.1,2.6c-3,0-5.6-1-7.6-3C13.6,19.6,12.5,17,12.5,13.8z"/>
	<path class="st0" d="M48.9,5c1.1,1,1.7,2.3,1.7,4c0,1-0.3,2-0.9,2.8c-0.6,0.8-1.3,1.3-2.2,1.6c1,0.2,1.9,0.8,2.6,1.6
		c0.8,0.9,1.1,2,1.1,3.3c0,1.7-0.6,3.1-1.8,4.2c-1.2,1.1-2.8,1.7-4.7,1.7h-8.4V3.4h7.8C46.1,3.4,47.7,3.9,48.9,5z M45.3,11.1
		c0.5-0.4,0.7-0.9,0.7-1.6c0-1.5-0.9-2.2-2.7-2.2h-2.5v4.5h2.5C44.2,11.7,44.8,11.5,45.3,11.1z M45.8,19.7c0.5-0.4,0.8-1,0.8-1.8
		c0-0.7-0.3-1.3-0.8-1.8c-0.5-0.4-1.2-0.7-2.1-0.7h-2.9v4.9h2.9C44.6,20.4,45.3,20.2,45.8,19.7z"/>
	<path class="st0" d="M54.4,3.4h13.2v4.4H59v4h7.7v4.1H59v4h8.6v4.4H54.4V3.4z"/>
	<path class="st0" d="M79.1,3.4h4.7v6.7l4.1-6.7h5.4l-6.7,10.4l6.7,10.4h-5.6l-4-6.5v6.5h-4.7v-6.5l-3.9,6.5h-5.6l6.7-10.4L69.6,3.4
		H75l4.1,6.7V3.4z"/>
	<path class="st0" d="M95.9,3.4h4.6V16l7.8-12.6h5.6v20.8h-4.6V10.5l-8.6,13.7h-4.9V3.4z"/>
	<path class="st0" d="M118.5,3.4h13.2v4.4h-8.5v4h7.7v4.1h-7.7v4h8.6v4.4h-13.2V3.4z"/>
	<path class="st0" d="M142.8,3.4h17.6v20.8h-4.7V7.8h-8.3v16.4h-4.6V3.4z"/>
	<path class="st0" d="M173.4,2.9c3,0,5.5,1,7.6,3c2.1,2.1,3.2,4.7,3.2,7.9c0,3.2-1.1,5.8-3.2,7.9c-2.1,2-4.6,3-7.6,3
		c-3,0-5.5-1-7.6-3c-2.2-2-3.2-4.7-3.2-7.9c0-3.2,1.1-5.9,3.2-7.9C167.8,3.9,170.4,2.9,173.4,2.9z M173.4,20c1.6,0,3-0.5,4.1-1.5
		c1.3-1.2,1.9-2.7,1.9-4.7c0-2-0.6-3.6-1.9-4.8c-1.1-1-2.5-1.5-4.1-1.5c-1.6,0-3,0.5-4.1,1.5c-1.3,1.2-1.9,2.7-1.9,4.8
		c0,2,0.6,3.6,1.9,4.7C170.4,19.5,171.8,20,173.4,20z"/>
	<path class="st0" d="M202.9,19.8h1.8v7.3h-4.6v-2.8h-9.7v2.8h-4.6v-7.3h0.1c0.9,0,1.6-0.2,2.1-0.7c0.4-0.4,0.7-1.1,0.8-1.9
		l0.7-13.7h13.4V19.8z M194.2,7.8l-0.7,9.3c-0.1,1-0.2,1.9-0.5,2.6h5.4V7.8H194.2z"/>
	<path class="st0" d="M213,18.6v5.6h-4.6V3.4h4.6v8.7l7.6-8.7h6.1l-8.1,9l8.1,11.8H221l-5.6-8.2L213,18.6z"/>
	<path class="st0" d="M233.7,19.9l-1.5,4.2h-4.9l7.8-20.8h5.4l7.7,20.8h-5l-1.5-4.2H233.7z M240.3,15.7l-2.5-7.2l-2.6,7.2H240.3z"/>
	<path class="st0" d="M257.2,24.2h-4.6V7.8h-6.4V3.4h17.4v4.4h-6.4V24.2z"/>
	<path class="st0" d="M279.5,12.7c1.3,1.2,2,2.8,2,4.8c0,1.9-0.7,3.5-2,4.8c-1.3,1.3-3,1.9-5.2,1.9h-7.8V3.4h4.6v7.5h3.2
		C276.4,10.9,278.2,11.5,279.5,12.7z M271.2,20.1h2.7c0.9,0,1.6-0.2,2.1-0.7c0.5-0.5,0.8-1.1,0.8-2c0-0.8-0.3-1.4-0.8-1.9
		c-0.5-0.5-1.3-0.7-2.1-0.7h-2.7V20.1z M282.8,3.4h4.7v20.8h-4.7V3.4z"/>
</g>
</svg>
