<?xml version="1.0" encoding="utf-8"?>
<!-- Generator: Adobe Illustrator 19.2.1, SVG Export Plug-In . SVG Version: 6.00 Build 0)  -->
<svg version="1.1" id="Layer_1" xmlns="http://www.w3.org/2000/svg" xmlns:xlink="http://www.w3.org/1999/xlink" x="0px" y="0px"
	 width="300px" height="90px" viewBox="0 0 300 90" style="enable-background:new 0 0 300 90;" xml:space="preserve">
<style type="text/css">
	.st0{fill:#FFFFFF;}
</style>
<g>
	<path class="st0" d="M14.2,11.5h23.3v27.6h-6.2V17.3h-11v21.8h-6.1V11.5z"/>
	<path class="st0" d="M48.2,39h-6.1V11.5h10.4c2.8,0,5.1,0.8,6.8,2.5c1.7,1.7,2.6,3.8,2.6,6.3c0,2.6-0.9,4.7-2.6,6.4
		c-1.7,1.6-4,2.4-6.8,2.4h-4.2V39z M54.7,22.9c0.7-0.6,1.1-1.5,1.1-2.6c0-1.1-0.4-2-1.1-2.6c-0.7-0.6-1.6-0.9-2.8-0.9h-3.6v7h3.6
		C53,23.8,53.9,23.5,54.7,22.9z"/>
	<path class="st0" d="M78.4,10.9c4,0,7.3,1.3,10.1,3.9c2.8,2.7,4.2,6.2,4.2,10.4c0,4.3-1.4,7.7-4.2,10.4c-2.7,2.6-6.1,3.9-10.1,3.9
		c-4,0-7.3-1.3-10.1-3.9c-2.8-2.7-4.3-6.2-4.3-10.4c0-4.3,1.4-7.8,4.3-10.4C71.1,12.2,74.4,10.9,78.4,10.9z M78.4,33.5
		c2.1,0,3.9-0.7,5.4-2c1.7-1.5,2.5-3.6,2.5-6.3c0-2.7-0.8-4.8-2.5-6.3c-1.5-1.3-3.2-2-5.4-2c-2.1,0-3.9,0.7-5.4,2
		c-1.7,1.5-2.5,3.6-2.5,6.3c0,2.7,0.8,4.8,2.5,6.3C74.5,32.9,76.3,33.5,78.4,33.5z"/>
	<path class="st0" d="M103.2,31.6V39h-6.1V11.5h6.1v11.6l10.1-11.6h8.1l-10.7,11.9L121.4,39h-7.6l-7.4-10.8L103.2,31.6z"/>
	<path class="st0" d="M130.6,33.4l-2,5.6h-6.4l10.4-27.5h7.1L149.9,39h-6.7l-2-5.6H130.6z M139.3,27.8l-3.3-9.5l-3.4,9.5H139.3z"/>
	<path class="st0" d="M166.6,11.4h6.2V39h-6.2v-8.6c-1.1,0.3-2.3,0.4-3.5,0.4c-3.2,0-5.8-0.9-7.8-2.8c-2-1.9-3.1-4.5-3.1-7.8v-8.7
		h6.1v8.2c0,1.6,0.4,2.8,1.2,3.7c0.9,0.9,2,1.3,3.5,1.3c1.5,0,2.6-0.4,3.5-1.2V11.4z"/>
	<path class="st0" d="M184.5,33.4l-2,5.6h-6.4l10.4-27.5h7.1L203.8,39h-6.7l-2-5.6H184.5z M193.2,27.8l-3.3-9.5l-3.4,9.5H193.2z"/>
	<path class="st0" d="M207.2,11.5h6.1v16.7l10.3-16.7h7.5V39H225V20.9L213.7,39h-6.5V11.5z M212.8,4.4h4.4c0.1,1.3,0.8,1.9,2.1,1.9
		c1.4,0,2.1-0.6,2.1-1.9h4.3c-0.1,1.5-0.6,2.7-1.6,3.6c-1.2,1.1-2.8,1.7-4.9,1.7c-2,0-3.6-0.6-4.8-1.7
		C213.4,7.1,212.8,5.9,212.8,4.4z"/>
	<path class="st0" d="M235.5,25.3c0-4.2,1.4-7.7,4.2-10.4c2.7-2.7,6-4,10-4c3.8,0,6.8,1,9.2,3.1c1.9,1.7,3.1,3.7,3.7,6.1l-5.8,1.8
		c-0.1-0.6-0.3-1.1-0.6-1.6c-0.3-0.6-0.8-1.2-1.3-1.7c-1.3-1.2-3-1.9-5.2-1.9c-2,0-3.8,0.7-5.3,2.1c-1.7,1.6-2.5,3.7-2.5,6.4
		c0,2.5,0.8,4.5,2.4,6c1.5,1.4,3.3,2.1,5.5,2.1c2.1,0,3.8-0.6,5.2-1.8c1-0.9,1.7-2,2-3.3l5.9,1.7c-0.6,2.4-1.8,4.5-3.7,6.3
		c-2.4,2.3-5.6,3.4-9.4,3.4c-4,0-7.4-1.3-10.1-3.9C236.9,33,235.5,29.5,235.5,25.3z"/>
	<path class="st0" d="M264.8,39l5.6-11.1c-1.7-0.6-3-1.6-4-3c-1-1.3-1.4-3-1.4-4.8c0-2.5,0.8-4.6,2.4-6.1c1.7-1.7,3.8-2.5,6.5-2.5
		h10.9V39h-6.1V28.8h-2.2L271.6,39H264.8z M278.7,16.8H275c-2.6,0-3.9,1.1-3.9,3.3c0,1,0.3,1.8,1,2.4c0.6,0.6,1.6,0.9,2.9,0.9h3.6
		V16.8z"/>
	<path class="st0" d="M51.1,57.7c1.5,1.3,2.3,3.1,2.3,5.3c0,1.3-0.4,2.6-1.2,3.7c-0.8,1.1-1.7,1.8-2.9,2.2c1.4,0.3,2.5,1,3.4,2.1
		c1,1.2,1.5,2.6,1.5,4.3c0,2.3-0.8,4.2-2.4,5.6c-1.6,1.5-3.7,2.2-6.3,2.2H34.5V55.6h10.3C47.4,55.6,49.5,56.3,51.1,57.7z M46.4,65.9
		c0.6-0.5,1-1.2,1-2.2c0-2-1.2-3-3.6-3h-3.3v5.9h3.3C44.9,66.7,45.7,66.4,46.4,65.9z M47.1,77.3c0.7-0.6,1-1.4,1-2.4
		c0-1-0.3-1.7-1-2.3c-0.7-0.6-1.6-0.9-2.8-0.9h-3.8v6.4h3.8C45.5,78.2,46.4,77.9,47.1,77.3z"/>
	<path class="st0" d="M80.7,55.1c4,0,7.3,1.3,10.1,3.9c2.8,2.7,4.2,6.2,4.2,10.4c0,4.3-1.4,7.7-4.2,10.4c-2.7,2.6-6.1,3.9-10.1,3.9
		c-4,0-7.3-1.3-10.1-3.9c-2.8-2.7-4.3-6.2-4.3-10.4c0-4.3,1.4-7.8,4.3-10.4C73.4,56.4,76.8,55.1,80.7,55.1z M80.7,77.7
		c2.1,0,3.9-0.7,5.4-2c1.7-1.5,2.5-3.6,2.5-6.3c0-2.7-0.8-4.8-2.5-6.3c-1.5-1.3-3.2-2-5.4-2c-2.1,0-3.9,0.7-5.4,2
		c-1.7,1.5-2.5,3.6-2.5,6.3c0,2.7,0.8,4.8,2.5,6.3C76.8,77,78.6,77.7,80.7,77.7z"/>
	<path class="st0" d="M109.8,65.5c2.8,0,5,0.8,6.8,2.4c1.7,1.6,2.6,3.8,2.6,6.4c0,2.6-0.9,4.7-2.6,6.3s-4,2.5-6.8,2.5H99.4V55.6
		h18.7v5.9h-12.6v4H109.8z M109.1,77.8c1.2,0,2.1-0.3,2.8-0.9c0.7-0.7,1-1.5,1-2.6c0-1.1-0.4-1.9-1.1-2.5c-0.7-0.6-1.6-1-2.8-1h-3.6
		v7H109.1z"/>
	<path class="st0" d="M146.2,55.7h6.1v21.6h2.3v9.6h-6.1v-3.7h-25.6V55.7h6.1v21.6h5.6V55.7h6.1v21.6h5.6V55.7z"/>
	<path class="st0" d="M159.6,55.6H177v5.8h-11.3v5.2H176v5.4h-10.3v5.3H177v5.8h-17.5V55.6z"/>
	<path class="st0" d="M197.4,72.2h-11v10.9h-6.1V55.6h6.1v10.8h11V55.6h6.2v27.5h-6.2V72.2z"/>
	<path class="st0" d="M209.5,55.6h6.1v16.7L226,55.6h7.5v27.5h-6.1V65.1L216,83.2h-6.5V55.6z"/>
	<path class="st0" d="M240.6,55.6h6.1v16.7l10.3-16.7h7.5v27.5h-6.1V65.1l-11.3,18.1h-6.5V55.6z"/>
</g>
</svg>
