<?xml version="1.0" encoding="utf-8"?>
<!-- Generator: Adobe Illustrator 19.2.1, SVG Export Plug-In . SVG Version: 6.00 Build 0)  -->
<svg version="1.1" id="Layer_1" xmlns="http://www.w3.org/2000/svg" xmlns:xlink="http://www.w3.org/1999/xlink" x="0px" y="0px"
	 width="300px" height="63px" viewBox="0 0 300 63" style="enable-background:new 0 0 300 63;" xml:space="preserve">
<style type="text/css">
	.st0{fill:#FFFFFF;}
</style>
<g>
	<path class="st0" d="M25.6,23.3h3.9l-6,16.3h-3.7l-6-16.3h4l3.9,11.5L25.6,23.3z"/>
	<path class="st0" d="M45,25.4c1.6,1.6,2.5,3.6,2.5,6.1S46.7,36,45,37.6c-1.6,1.6-3.6,2.3-6,2.3s-4.4-0.8-6-2.3
		c-1.6-1.6-2.5-3.6-2.5-6.1c0-0.5,0-1,0.1-1.6h12.8c-0.2-0.9-0.6-1.6-1.2-2.1c-0.9-0.9-2-1.3-3.3-1.3s-2.4,0.4-3.3,1.3
		c-0.2,0.2-0.4,0.4-0.6,0.6l-3.5-1.3c0.4-0.7,0.8-1.3,1.4-1.8c1.6-1.6,3.6-2.3,6-2.3C41.4,23,43.4,23.8,45,25.4z M39,36.4
		c1.3,0,2.3-0.4,3.3-1.3c0.5-0.5,0.9-1,1.1-1.8h-8.8c0.2,0.7,0.6,1.3,1.1,1.8C36.7,35.9,37.8,36.4,39,36.4z"/>
	<path class="st0" d="M63.7,28.3c-0.1-0.5-0.3-1-0.8-1.4c-0.4-0.4-1.1-0.6-2-0.6c-0.7,0-1.2,0.2-1.6,0.5c-0.4,0.3-0.6,0.8-0.6,1.2
		c0,0.8,0.5,1.4,1.6,1.6l2.2,0.4c1.5,0.3,2.7,0.9,3.5,1.8c0.8,0.9,1.2,1.9,1.2,3.1c0,1.4-0.5,2.6-1.6,3.6S63,40,61.2,40
		c-2.1,0-3.6-0.5-4.8-1.6c-1.1-1.1-1.8-2.3-1.9-3.6l3.3-0.8c0.1,0.8,0.4,1.5,1,2s1.4,0.8,2.4,0.8c0.7,0,1.3-0.2,1.7-0.5
		s0.6-0.7,0.6-1.2c0-0.4-0.2-0.8-0.5-1c-0.3-0.3-0.7-0.5-1.3-0.6L59.6,33c-1.4-0.3-2.5-0.8-3.3-1.7c-0.8-0.9-1.2-1.9-1.2-3.1
		c0-1.5,0.6-2.8,1.7-3.7c1.1-1,2.5-1.5,4.1-1.5c1,0,1.8,0.1,2.6,0.4c0.8,0.3,1.4,0.6,1.8,1.1c0.4,0.4,0.8,0.9,1,1.4
		c0.3,0.5,0.4,1,0.5,1.5L63.7,28.3z"/>
	<path class="st0" d="M80.6,38.4C79.4,39.5,77.9,40,76,40s-3.4-0.5-4.6-1.6s-1.8-2.6-1.8-4.6V23.3h3.6v10.1c0,1,0.2,1.7,0.7,2.2
		s1.2,0.8,2.1,0.8s1.6-0.3,2.1-0.8s0.7-1.2,0.7-2.2V23.3h3.6v10.4C82.5,35.7,81.9,37.3,80.6,38.4z"/>
	<path class="st0" d="M89.5,33.8v5.9h-3.6V23.3H92c1.7,0,3,0.5,4,1.5s1.6,2.2,1.6,3.7s-0.5,2.8-1.6,3.8c-1,1-2.4,1.4-4,1.4
		L89.5,33.8L89.5,33.8z M91.6,30.6c0.7,0,1.2-0.2,1.7-0.6c0.4-0.4,0.6-0.9,0.6-1.5s-0.2-1.2-0.6-1.5c-0.4-0.4-1-0.6-1.7-0.6h-2.1
		v4.2C89.5,30.6,91.6,30.6,91.6,30.6z"/>
	<path class="st0" d="M99.8,39.6V23.3h10.3v3.4h-6.7v3.1h6.1V33h-6.1v3.1h6.7v3.4L99.8,39.6L99.8,39.6z"/>
	<path class="st0" d="M118.2,33.6h-1.3v6.1h-3.6V23.3h6.5c1.6,0,2.9,0.5,3.8,1.4c1,1,1.5,2.2,1.5,3.7c0,1.1-0.3,2.1-0.9,2.9
		c-0.6,0.8-1.4,1.4-2.4,1.7l3.3,6.6h-4L118.2,33.6z M119,30.4c0.7,0,1.3-0.2,1.7-0.5c0.4-0.4,0.6-0.8,0.6-1.4c0-0.6-0.2-1.1-0.6-1.4
		c-0.4-0.4-1-0.5-1.7-0.5h-2.1v4h2.1V30.4z"/>
	<path class="st0" d="M143.5,39.6v-6.5H137v6.5h-3.6V23.3h3.6v6.4h6.5v-6.4h3.7v16.3H143.5z"/>
	<path class="st0" d="M164.1,25.4c1.6,1.6,2.5,3.6,2.5,6.1s-0.8,4.5-2.5,6.1c-1.6,1.6-3.6,2.3-6,2.3s-4.4-0.8-6-2.3
		c-1.6-1.6-2.5-3.6-2.5-6.1c0-0.5,0-1,0.1-1.6h12.8c-0.2-0.9-0.6-1.6-1.2-2.1c-0.9-0.9-2-1.3-3.3-1.3s-2.4,0.4-3.3,1.3
		c-0.2,0.2-0.4,0.4-0.6,0.6l-3.5-1.3c0.4-0.7,0.8-1.3,1.4-1.8c1.6-1.6,3.6-2.3,6-2.3C160.5,23,162.5,23.8,164.1,25.4z M158.1,36.4
		c1.3,0,2.3-0.4,3.3-1.3c0.5-0.5,0.9-1,1.1-1.8h-8.8c0.2,0.7,0.6,1.3,1.1,1.8C155.8,35.9,156.9,36.4,158.1,36.4z"/>
	<path class="st0" d="M169.2,39.6V23.3h5.9c2.5,0,4.4,0.7,5.9,2.2s2.2,3.5,2.2,6s-0.7,4.5-2.2,5.9c-1.5,1.5-3.5,2.2-6,2.2
		C175,39.6,169.2,39.6,169.2,39.6z M174.9,36.2c1.3,0,2.4-0.4,3.3-1.2c0.8-0.8,1.3-2,1.3-3.5c0-1.6-0.4-2.7-1.3-3.5
		c-0.9-0.8-1.9-1.2-3.3-1.2h-2.1v9.4C172.8,36.2,174.9,36.2,174.9,36.2z"/>
	<path class="st0" d="M185.9,39.6V23.3h3.7v16.3H185.9z"/>
	<path class="st0" d="M191.5,23.3h4.3l3.3,6l3.4-6h4l-5.7,9.5v6.8h-3.6v-6.8L191.5,23.3z"/>
	<path class="st0" d="M207.2,23.3h4.3l3.3,6l3.4-6h4l-5.7,9.5v6.8h-3.6v-6.8L207.2,23.3z"/>
	<path class="st0" d="M237.7,25.4c1.6,1.6,2.5,3.6,2.5,6.1s-0.8,4.5-2.5,6.1c-1.6,1.6-3.6,2.3-6,2.3s-4.4-0.8-6-2.3
		c-1.6-1.6-2.5-3.6-2.5-6.1c0-0.5,0-1,0.1-1.6h12.8c-0.2-0.9-0.6-1.6-1.2-2.1c-0.9-0.9-2-1.3-3.3-1.3s-2.4,0.4-3.3,1.3
		c-0.2,0.2-0.4,0.4-0.6,0.6l-3.5-1.3c0.4-0.7,0.8-1.3,1.4-1.8c1.6-1.6,3.6-2.3,6-2.3C234.1,23,236.1,23.8,237.7,25.4z M231.7,36.4
		c1.3,0,2.3-0.4,3.3-1.3c0.5-0.5,0.9-1,1.1-1.8h-8.8c0.2,0.7,0.6,1.3,1.1,1.8C229.4,35.9,230.5,36.4,231.7,36.4z"/>
	<path class="st0" d="M242.8,39.6V23.3h3.6v12.8h7v3.5H242.8z"/>
	<path class="st0" d="M269.3,25.4c1.6,1.6,2.5,3.6,2.5,6.1s-0.8,4.5-2.5,6.1c-1.6,1.6-3.6,2.3-6,2.3s-4.4-0.8-6-2.3
		c-1.6-1.6-2.5-3.6-2.5-6.1c0-0.5,0-1,0.1-1.6h12.8c-0.2-0.9-0.6-1.6-1.2-2.1c-0.9-0.9-2-1.3-3.3-1.3s-2.4,0.4-3.3,1.3
		c-0.2,0.2-0.4,0.4-0.6,0.6l-3.5-1.3c0.4-0.7,0.8-1.3,1.4-1.8c1.6-1.6,3.6-2.3,6-2.3C265.6,23,267.6,23.8,269.3,25.4z M263.3,36.4
		c1.3,0,2.3-0.4,3.3-1.3c0.5-0.5,0.9-1,1.1-1.8h-8.8c0.2,0.7,0.6,1.3,1.1,1.8C261,35.9,262,36.4,263.3,36.4z"/>
	<path class="st0" d="M279.3,33.6H278v6.1h-3.6V23.3h6.5c1.6,0,2.9,0.5,3.8,1.4c1,1,1.5,2.2,1.5,3.7c0,1.1-0.3,2.1-0.9,2.9
		c-0.6,0.8-1.4,1.4-2.4,1.7l3.3,6.6h-4L279.3,33.6z M280.1,30.4c0.7,0,1.3-0.2,1.7-0.5c0.4-0.4,0.6-0.8,0.6-1.4
		c0-0.6-0.2-1.1-0.6-1.4c-0.4-0.4-1-0.5-1.7-0.5H278v4h2.1V30.4z"/>
</g>
</svg>
