<?xml version="1.0" encoding="utf-8"?>
<!-- Generator: Adobe Illustrator 19.2.1, SVG Export Plug-In . SVG Version: 6.00 Build 0)  -->
<svg version="1.1" id="Layer_1" xmlns="http://www.w3.org/2000/svg" xmlns:xlink="http://www.w3.org/1999/xlink" x="0px" y="0px"
	 width="300px" height="48px" viewBox="0 0 300 48" style="enable-background:new 0 0 300 48;" xml:space="preserve">
<style type="text/css">
	.st0{fill:#FFFFFF;}
</style>
<g>
	<path class="st0" d="M19.2,36.1v-26h16.5v5.5H25v5h9.7v5.1H25v5h10.7v5.5H19.2z"/>
	<path class="st0" d="M52.9,15.6v20.5h-5.8V15.6h-8v-5.5H61v5.5H52.9z"/>
	<path class="st0" d="M89.9,10.1h6.2l-9.5,26h-6l-9.6-26h6.4l6.3,18.3L89.9,10.1z"/>
	<path class="st0" d="M120.9,13.3c2.6,2.5,3.9,5.8,3.9,9.8c0,4-1.3,7.2-3.9,9.7c-2.6,2.5-5.8,3.7-9.6,3.7c-3.8,0-7-1.2-9.6-3.7
		c-2.6-2.5-3.9-5.7-3.9-9.7c0-0.8,0.1-1.6,0.2-2.5h20.5c-0.3-1.4-1-2.5-1.9-3.3c-1.5-1.4-3.2-2.1-5.2-2.1c-2,0-3.8,0.7-5.3,2.1
		c-0.3,0.3-0.6,0.6-0.9,1l-5.7-2.1c0.6-1.1,1.3-2,2.2-2.9c2.6-2.5,5.8-3.7,9.6-3.7C115.1,9.5,118.3,10.8,120.9,13.3z M111.3,30.9
		c2,0,3.7-0.7,5.2-2c0.8-0.7,1.4-1.7,1.8-2.8h-14.1c0.4,1.2,1,2.1,1.8,2.8C107.6,30.2,109.3,30.9,111.3,30.9z"/>
	<path class="st0" d="M140.4,13.3c2.6-2.5,5.8-3.8,9.6-3.8c3.8,0,7,1.3,9.6,3.8c2.6,2.5,3.9,5.8,3.9,9.8c0,3.4-1,6.3-2.9,8.7
		l3.2,3.5l-3.8,3.2l-3.2-3.5c-2,1.1-4.3,1.7-6.8,1.7c-3.8,0-7-1.3-9.6-3.8c-2.6-2.5-3.9-5.8-3.9-9.8
		C136.5,19.1,137.8,15.8,140.4,13.3z M155.3,17.2c-1.5-1.4-3.2-2-5.3-2c-2,0-3.8,0.7-5.3,2c-1.5,1.4-2.3,3.3-2.3,5.9
		s0.8,4.5,2.3,5.8c1.5,1.3,3.3,2,5.3,2c0.9,0,1.8-0.1,2.6-0.4l-3.8-4.2l3.9-3.2l3.8,4.2c0.7-1.2,1-2.6,1-4.2
		C157.5,20.5,156.8,18.6,155.3,17.2z"/>
	<path class="st0" d="M183.2,30.8h-10.1l-1.9,5.3h-6.1l9.8-26h6.7l9.7,26h-6.3L183.2,30.8z M175.1,25.5h6.3l-3.1-9L175.1,25.5z"/>
	<path class="st0" d="M193.6,36.1v-5.6l12.6-14.9h-12v-5.5h20v5.4l-12.9,15.1h13v5.5H193.6z"/>
	<path class="st0" d="M234.3,30.8h-10.1l-1.9,5.3h-6.1l9.8-26h6.7l9.7,26h-6.3L234.3,30.8z M226.2,25.5h6.3l-3.1-9L226.2,25.5z"/>
	<path class="st0" d="M262.2,36.1L251.5,19v17.1h-5.8v-26h7.1l9.8,15.8V10.1h5.8v26H262.2z"/>
	<path class="st0" d="M279.6,27.9h-4.1l-1.3-17.9h6.7L279.6,27.9z M275.2,31.1c0.6-0.6,1.4-0.9,2.2-0.9c0.9,0,1.6,0.3,2.3,0.9
		s0.9,1.4,0.9,2.3c0,0.9-0.3,1.6-0.9,2.2s-1.4,0.9-2.3,0.9c-0.9,0-1.6-0.3-2.2-0.9s-0.9-1.4-0.9-2.2
		C274.3,32.4,274.6,31.7,275.2,31.1z"/>
</g>
</svg>
